<?xml version="1.0" encoding="utf-8"?>
<!-- Generator: Adobe Illustrator 22.0.1, SVG Export Plug-In . SVG Version: 6.00 Build 0)  -->
<svg version="1.1" id="圖層_1" xmlns="http://www.w3.org/2000/svg" xmlns:xlink="http://www.w3.org/1999/xlink" x="0px" y="0px"
	 viewBox="0 0 512 129.3" style="enable-background:new 0 0 512 129.3;" xml:space="preserve">
<style type="text/css">
	.st0{fill:#423220;}
</style>
<path class="st0" d="M224.9,100.1c-0.1,0.2-0.2,0.7-0.3,0.7c-1.6,0.1-3.2,0.2-4.8,0.1c-0.7-0.1-1.4-1.2-2.2,0c-0.1,0.1-1,0-1.2-0.2
	c-0.5-0.4-1-0.6-1.7-0.6c-0.5,0-0.5-1.2-1.4-0.5c-0.4,0.4-0.8,0.9-1.1,1.3c-0.1,0.2,0,0.6,0,0.9c0,0.6-0.1,1.1-1,0.5
	c-1.4-0.9-3-0.5-4.6-0.3c-0.1,0-0.3,0.2-0.3,0.3c0.2,1.4-0.8,1.2-1.8,1.3c-0.3,0-0.7,0-0.9,0.2c-0.5,0.5-0.8,0.8-1.4,0.1
	c-0.5-0.6-1.4-0.3-2.1-0.9c-0.8-0.7-2.1-0.6-2.9,0.3c-0.8,0.9-1.7,1.3-2.9,1.1c-0.3,0-0.5-0.3-0.8-0.4c0.2-0.2,0.5-0.4,0.7-0.6
	c0.1-0.1,0.2-0.2,0.2-0.3c-0.5-0.4-0.9-0.8-1.5-1.3c-0.4,0.4-0.8,0.9-1.3,1.3c-0.8,0.6-1.5,1.2-0.1,1.8c-1.4,0.5-2.6,1.6-4.2,1.3
	c-0.8-1.3-2.5-0.5-3.3-1.2c-1.2-1-1.1-0.3-1.3,0.5c0,0.2-0.3,0.4-0.5,0.6c-0.1-0.2-0.3-0.5-0.4-0.7c-0.1-0.2-0.1-0.6-0.3-0.8
	c-1.1-0.7-0.2-1.1,0.2-1.6c0.1-0.1,0-0.3,0-0.4c0.3-0.1,0.7-0.1,0.8-0.3c0.4-0.5-0.1-1.4,1.2-1.5c0.7,0,1.3-0.6,2.1-0.8
	c0.2-0.1,0.6,0.2,0.7,0.4c0.1,0.2,0.1,0.6,0.1,0.8l3.3,1.3c0.1-0.1,0.3-0.1,0.4-0.2c0.1-0.1,0.2-0.3,0.2-0.3c-0.6-0.5-1.2-1-1.7-1.6
	c-0.2-0.2-0.3-0.6-0.1-0.8c0.5-0.7,1-1.5,2.1-1.5c0.1,0,0.3,0,0.4,0.1c0.4,0.2,0.4,0.4,0.1,0.6c-0.3,0.3-0.5,0.7-0.7,1
	c-0.1,0.1-0.1,0.4,0,0.4c0.2,0.1,0.6,0.3,0.7,0.2c0.5-0.4,0.9-0.6,1.7-0.7c0.6,0,0.8-1,0.5-1.4c-0.8-0.7-1.5-1.4-2.3-2.1
	c-0.2,0.2-0.3,0.3-0.4,0.4c-1.2,0.7-1.4,0.8-1.9-0.4c-0.3-0.6-0.7-1-1.1-1.3c-1.1-0.8-1.2-1.5-0.1-2.5c0.4-0.4,0.1-1.3,0-2
	c-0.1-0.4-0.3-0.2-0.7,0c-0.9,0.6-1,0.6-1.1-0.3c0-0.3,0-0.6,0-0.9c0.1-0.5-0.2-0.8-0.7-0.9c-0.1,0-0.3,0-0.5,0c-0.5,0-1,0.1-1.5,0
	c-0.4-0.1-1-0.2-1.2-0.4c-0.2-0.3-0.1-0.8,0-1.5c-0.1-0.1,0,0.1,0,0.2c0.5,0,0.9,0.1,1.4,0c0.2,0,0.4-0.3,0.5-0.5
	c0,0-0.2-0.2-0.3-0.3c-0.6-0.2-1.2-0.2-1.5,0.6c-0.3,0.1-0.7,0.1-0.8-0.1c-0.5-0.7-0.9-0.4-1.4,0.1c-0.2,0.2-0.4,0.4-0.9,0.8
	c0.6,0.4,1.2,0.9,1.8,1.3c0.6,0.4,0.2,1.1,0.3,1.6c-0.8,0-1.6,0-2.4,0c-0.1,0-0.4,0.2-0.3,0.3c0.1,0.2,0.2,0.6,0.3,0.6
	c0.8,0.1,1.6,0,2.4,0c0.4,1.2-0.4,2-1.4,2.5c-0.7,0.3-1.5,0.4-2,1c-0.2-0.5-0.4-1-0.7-1.4c-0.1-0.2-0.5-0.2-0.8-0.3
	c-1.1-0.2-1.8,0.2-2.5,0.9c-0.7,0.7-0.4,1.2,0.2,1.8c0.2,0.2,0.3,0.5,0.3,0.7c0,0.9,0,1.7-1,3.3c-1,0.8-1,1-1,1.1
	c0.1,0.2,0.2,0.5,0.4,0.7c0.2-0.1,0.5-0.2,0.7-0.4c0.6-0.4,1.1-0.9,1-1.7c0-0.4,0-0.4-0.5-0.4c-1.3,0-1.5,0.1-0.5,0.7
	c1.3-0.7,1.6-0.7,1.9-0.7c0.9,0.1,1.5,0.9,0.9,1.3c-1.1,0.8-0.5,1.2,0.1,1.8c0.2,0.3,0,0.8-1.2,1.6c-0.4,0.4,0.1,0.5,0.5,0.4
	c0.3,0,0.6-0.2,0.7-0.4c0.2-0.4,0-0.4-0.4-0.4c-0.9,0-1.9,0.4-2.6-0.5c-0.3-0.3-0.5-0.4-0.7-0.1c-0.1,0.2-0.2,0.5-0.2,0.7
	c0,0.2,0.2,0.6,0.4,0.7c0.4,0.1,0.9,0.1,2.3-0.3c1.6-0.4,1.9-0.4,2.2-0.4c0.2,0.9-0.2,1.6-1,2.2c-0.8,0.5-0.7,0.6,0.5,1.2
	c0.2,0.1,0.5,0.4,0.5,0.6c0,0.4-0.3,1-0.5,1.1c-1.6,0.1-3.3,0-4.9,0c-0.1-0.1-0.2-0.2-0.4-0.3c-2.3-2-2.4-2-5.1-0.1
	c-0.2,0.2-0.5,0.4-0.8,0.4c-1.2,0-1.1,0.7-1.2,1.4c-0.2,1.3-1.1,2.1-2.4,2.1c-1.1,0-2.3,0-3.4,0c-0.9,0-1.5-0.8-0.8-1.4
	c0.6-0.6,0.6-1.2,1-1.8c0.2-0.3,0.4-0.2,0.7,0.1c0.4,0.5,1.1,0.7,1.6,0.3c0.6-0.4,1.4-0.8,1.4-1.6c0-0.1,0-0.3-0.1-0.4
	c-0.6-0.5-1.3-1-0.8-1.8c0.5-0.7,1.8,0,2.2-0.4c1.1-1.1,2.3-0.8,3,0c0.4,0.9,1.4,0.9,2,0c0.1-0.2,0.3-0.4,0.4-0.6
	c-0.3-0.1-0.6-0.2-0.8-0.3c-1.1-0.4-1.1,1.3-2.2,0.9c-0.1,0-0.4,0.3-0.6,0.5c0.3,0.1,0.5,0.3,1.4-0.5c0.8-1.2,1-1.6,1.2-1.9
	c0.5-0.8,0.4-1.3-0.5-1.6c-0.3-0.1-0.6-0.1-0.9-0.2c-0.5-0.3-0.4-1.2,0.1-1.4c0.5-0.2,1.5,0.1,1.4-0.6c-0.1-0.6-1.1-0.3-1.7-0.4
	c-0.5,0-1.1-0.2-1.4,0c-0.8,0.5-1.3,1.1-2.2,0c-0.2-0.3-1.3,0.1-1.4-0.7c0-0.7-0.3-1.4,0.5-1.9c0.1-0.1,0.3,0,0.7,0
	c-0.2-0.1-0.4,0-0.2,0.4c0.1,0.4,0.2,0.7,0.3,1.1c0.2-0.1,0.5-0.1,0.6-0.2c0.2-0.2,0.5-0.4,0.6-0.6c0.1-0.2,0.2-0.5,0.2-0.5
	c-0.2-0.1-0.5-0.2-0.8-0.2c-0.1,0-0.3,0-0.7,0c-0.2-0.8-1-1.1-1.4-0.8c-1.7,1.2-3.5,0.9-5.4,0.6c-0.1,0-0.3-0.5-0.3-0.7
	c0-0.2,0.2-0.7,0.3-0.7c1.4-0.1,2.8-0.2,4.3-0.2c0.2-0.9-0.8-1.1-1.2-1.5c-0.5-0.5-0.8-1-0.4-1.5c0.2-0.3,0.8-0.3,1.2-0.4
	c1.1-0.1,2.1,0.1,3-0.8c0.5-0.5,2.1,0.5,2.4-0.7c0.1-0.7-0.6-1.5-0.9-2.2c-0.2-0.4-0.4-0.8-1-0.7c-0.2-1.1,0.3-2.3-0.3-3.6
	c-0.9,0.8-1.7,1.4-2.4,2.2c-0.2,0.2-0.1,0.8,0,1.1c0,0.2,0.5,0.3,0.8,0.3c0.6,0,1.3,0,2,0c-0.1,0.7,0.4,1.8-1.2,1.8
	c-0.4,0-0.7,0.5-1.1,0.7c-0.6,0.3-1.2,0.2-1.6-0.3c-0.2-0.1-0.6-0.3-0.6-0.3c-1.4,1.4-2.7,0.5-4.1-0.1c-0.5-0.2-1.2-0.1-1.8-0.2
	c-0.2,0-0.2-0.5-0.3-0.9c-0.1-0.1,0,0.1,0,0.2c0.5,0,0.9,0.1,1.4,0c0.2,0,0.4-0.3,0.5-0.5c0,0-0.2-0.2-0.3-0.3
	c-0.6-0.2-1.2-0.2-1.5,0.6c-0.3,0.2-0.7,0.2-1.4-0.1c-0.3-0.1-0.2,0.1,0,0.2c0.1,0.1,0.3,0.1,0.4,0c0.1-0.1,0.1-0.3,0-0.4
	c-0.2-0.2-0.4-0.3-0.6-0.4c0,0-0.2,0.2,0.1,0.5c0.1,1.3-0.5,2.1-1.9,2c-1.3-0.1-1.7,0.5-1.7,1.4c0,0.1-0.2,0.3-0.3,0.3
	c-0.1,0-0.2-0.2-0.3-0.2l-2-1.8c-0.6-0.6-1-0.6-1.1,0.3c-0.2,1.3-1.7,1.7-2.4,2.6c-0.2-0.2-0.5-0.3-0.7-0.5c-0.3-0.4-0.4-0.3-0.7,0
	c-1,0.6-2.1,1.3-3.2,1.4c-0.9,0-1.9-0.7-2.8-1.3c-0.5-0.4-0.7-0.2-1.1,0.1c-0.4,0.4-1,0.7-0.9,1.4c0,0.2-0.3,0.5-0.5,0.7
	c-0.2-0.4-0.3-0.7-0.5-1.1c-0.1-0.1-0.1-0.2-0.2-0.4c-0.2-0.3-0.4-0.3-0.7,0.1c-0.6,0.7-1.3,0.8-2,0.1c-0.2-0.2-0.5-0.2-0.7-0.3
	c-0.1,0.4-0.3,0.8-0.3,1.2c0,0.2,0.4,0.4,0.7,0.6c0.1,0.1,0.1,0.2,0.2,0.3c-0.3,0.1-0.5,0.3-0.8,0.4c-0.1,0-0.4,0.1-0.5,0
	c-0.9-1.2-2.3-0.8-4-1.1c-0.3-0.1-0.2,0.1,0,0.2c0.1,0.1,0.3,0.1,0.4,0c0.1-0.1,0.1-0.3,0-0.4c-0.2-0.2-0.4-0.3-0.6-0.4
	c0,0-0.2,0.2,0.1,0.5c0.6,1-0.2,1.2-0.6,1.6c-0.4,0.6-0.7,0-1-0.1c-0.9-0.5-1-0.6-1.6,0c-0.9,0.8-1.6,0.8-2.4-0.1
	c-0.1-0.1-0.3-0.2-0.3-0.2c-1.3,1.6-1.7-0.2-2.4-0.6c-1.1-0.6-0.8,0.1-1,0.6c-0.1,0.3-0.3,0.5-0.4,0.7c-0.2-0.2-0.4-0.3-0.5-0.6
	c-0.6-1.3-0.8-1.4-1.8-0.8c-0.6,0.4-1,0.6-1.7,0.6c-1,0-2-0.1-2.9,0.1c-0.5,0.1-1,0.8-1.4,1.2c0,0,0.3,0.4,0.6,0.6
	c0.6,0.5,0.3,1.1,0.3,1.6c0.1,0.8-0.7,0.7-1.2,0.9c-1.3,0.6-2.4,1.6-3.8,0.3c-0.6-0.6-0.7,0.1-1,0.2c-0.3,0.1-0.5,0.2-0.8,0.3
	c-0.3,0.1-0.6,0-1.5-0.5c-0.5-0.4-0.5-0.2-0.5-0.1c0.1,0.2,0.3,0.6,0.5,0.6c0.9,0.1,0.4-0.5,0.4-0.8c0-0.3-0.3-0.6-0.5-0.9
	c-0.1,0.2-0.3,0.4,0.1,1.2c0.4,1,0.8,1.7,0.2,2.1c-0.6,0.3-1.2,0.2-1.6-0.3c-0.4-0.5-0.7-0.3-1,0c-0.1,0.1-0.5,0.2-0.7,0.2
	c-0.3-0.1-0.5-0.4-0.7-0.6c-0.6-0.7-1.4-1.1-2.5-0.9c-0.7,0.1-1.6,0.2-2.2-0.5c-0.5-0.7-0.7,0.1-1,0.2c-0.3,0.1-0.5,0.2-1.3,0
	c-0.3-0.1-0.2,0.1,0,0.2c0.1,0.1,0.3,0.1,0.4,0c0.1-0.1,0.1-0.3,0-0.4c-0.2-0.2-0.4-0.3-0.6-0.4c0,0-0.2,0.2,0.1,0.5
	c0.2,0.6,0,0.9-0.2,1.3c-0.1,0.2-0.2,0.5-0.3,0.7c-0.4,0.2-0.8,0.4-1.2,0.6c-0.3,0.1-0.5,0.2-0.8,0.3c0.1-0.8-0.7-1.1-1.2-0.8
	c-1,0.4-1.9,1-1.7,2.2c0.1,0.4-0.2,0.8-0.3,1.3c-0.8-0.7-1.5-1.2-2.2-1.8c-1.2,0.6-1.3,1.9-2.1,2.7c-0.8,0.9-1.8,1.6-2.8,2.5
	c-0.5-1-0.9-2-2.1-2.6c-0.2,0.5-0.3,1.1-0.6,1.5c-0.2,0.2-0.9,0.3-1.3,0.2c-0.7-0.3-0.1-0.7,0.2-0.9c0.4-0.3,0.5-0.5,0-0.6
	c-0.6-0.1-1.2-0.2-1.9-0.1c-0.3,0-0.5,0.3-0.7,0.4c-0.1,0.1,0,0.3,0,0.4v1.7c-1,0-1.4-1-2.5-0.9c-2.2,0.1-2.2,0-2.4,2.1
	c0,0.6-0.2,1-0.6,1.5c-0.7,1.1-0.8,2.3-0.1,3.1c1,1.1,0.4,2.2,0.6,3.3c0,0.1-0.2,0.2-0.3,0.3c-0.1,0-0.2,0-0.3-0.1
	c-1.2-0.6-1.1-2-2.1-2.7c0,0,0.2-0.4,0.3-0.6c0.8-0.6,0.6-1.4,0.4-2c-0.2-1-1.3-0.5-2-0.6c-0.9-0.1-0.8-0.7-0.9-1.2
	c0-0.1-0.4-0.3-0.6-0.4c-0.1,0-0.3,0.2-0.3,0.3c-0.1,0.4-0.2,0.8-0.4,1.2l-2.4,0.8c-0.9-1-1.1-0.5-1.3,0.4c-0.2,0.8-0.8,1-1.8,0.3
	c-0.7-0.5-1.3-0.8-2.1-0.2c-0.3,0.3-0.8,0.4-1.2,0.5c-0.9,0.2-0.9,0.7-0.8,1.3c0.1,0.6-0.1,1.1-0.7,1.5c-0.4,0.3-0.6,0.8-1.4,0.2
	c-0.8-0.6-1.9-0.9-2.8-1.3c-0.1-0.2-0.2-0.7-0.3-0.7c-0.6-0.1-0.7,0.3-0.6,0.7c-0.8,0-1.5,0.1-2.2-0.6c-0.6-0.5-0.9-0.5-1.6,0
	c-0.5,0.4-1.1,0.8-1.6,0.4c-0.6-0.4-1.4-0.8-1.4-1.6c0-0.4-0.1-0.9,0-1.3c0.2-0.4,0.5-0.6,0.9-0.1c0.4,0.5,1.1,0.7,1.6,0.3
	c1.6-1.3,4.1-1.3,5.4-3c0.5-0.6,1.2-0.3,1.8-0.3c0.6,0,0.9-0.2,1-0.7c0.1-0.6,0-1.2-1.4-1.4c-0.3-0.1-0.2,0.1,0,0.2
	c0.1,0.1,0.3,0.1,0.4,0c0.1-0.1,0.1-0.3,0-0.4c-0.2-0.2-0.4-0.3-0.6-0.4c0,0-0.2,0.2,0.1,0.5c-0.2,1.2-0.6,1.5-1.2,0.9
	c-1-1.2-3,0-3.7-1.5c-0.2,0.2-0.5,0.3-0.7,0.5c-0.3,0.4-0.4,0.4-0.7,0c-0.5-0.6-1.2-0.9-2-0.2c-0.2,0.2-0.5,0.3-0.7,0.4
	c-0.8-1.3-1.4,0-2.2,0.1c-0.3,0-0.6,0-1,0c-0.9,0-1.2-0.2-1.2-0.9c0-0.4,0.1-0.9,0-1.3c-0.2-1.1,0.8-1.6,1.5-2
	c0.8-0.5,1.4,0.3,2,0.8c0.1,0.1,0.3,0,0.7,0c-0.2-0.1-0.4,0-0.2,0.4c0.1,0.4,0.2,0.7,0.3,1.1c0.2-0.1,0.5-0.1,0.6-0.2
	c0.2-0.2,0.5-0.4,0.6-0.6c0.1-0.2,0.2-0.5,0.2-0.5c-0.2-0.1-0.5-0.2-0.8-0.2c-0.1,0-0.3,0-0.7,0c-0.2-0.8-0.6-1.7,1-1.8
	c1.2-0.1,0.2-0.7,0-1c-0.1-0.1,0.1-0.6,0.2-0.6c0.4,0,0.9,0.1,1.3,0.2c0.4,0.1,0.4,0.9,1,0.3c0.3-0.3,0.7-0.6,1-0.9
	c0.7-0.6,1.4-0.8,2-0.1c0.6,0.7,2.5,0.2,2.1,1.8c0,0,0.5,0.2,0.7,0.2c0.4-0.2,0.8-0.6,1.2-0.6c1.8,0.2,3.2-0.2,4.2-1.5
	c0.1-0.2,0.6-0.2,0.8-0.3c0.4-0.1,1,0,0.6-0.7c-0.2-0.2-0.5-0.4-0.7-0.6c0.6-0.6,1.3-1.2,1.9-1.9c0.1-0.2,0-0.6-0.1-0.8
	c-0.2-0.4-0.5-0.4-0.7-0.1c-0.5,0.8-1.4,0.6-2.2,0.6c-1,0.1-1.1,0.1-0.4,0.9c0.5,0.5,0.2,0.7-0.3,0.8c-0.6,0.1-1.3,0.1-1.3-0.8
	c0-0.7-0.1-1-1-0.5c-1.1,0.5-2.2,1-3,1.9c-0.6,0.7-0.7-0.2-1-0.3c-0.4-0.1-1.2-0.3-1.3-0.2c-0.7,0.8-1.6,0.8-2.6,0.8
	c-1.8,0-3.6,0-5.3,0.1c-1.1,1.3-2.7,0.5-4,0.8c-1.6,0.4-2.6-0.7-3.9-1.1c-1.5-0.5-1.6-1.5-0.5-2.6c0.5-0.5,1-1,1.3-1.7
	c0.3-0.9,1.1-1.5,2.6-1.5c1.3,0,2.5-1.1,3.9-1c0.8-1.1,2-0.6,3.1-0.7c0.8,0,1.3-0.3,1.1-1c-0.2-1,0.8-1.5,0.9-2.2
	c0.1-1.5,1.2-1.1,2.3-1.1h-0.2c0,0.1-0.1,0.3,0,0.4c0.2,0.3,0.5,0.6,0.9,0.1c0-0.1-0.3-0.3-0.6-0.5c-0.3-1.1,0.1-2.2-1.1-3.1
	c-0.3-0.2-0.2-1.1,0-1.6c0.1-0.4,0.5-0.4,0.9-0.1c1.1,0.7,1.1,0.6,2-0.8c0.3-0.5,1.1-0.6,1-1.3c1.5,0.1,1.8,2.1,3.5,1.8
	c0.1,0,0.4,0.4,0.4,0.7c0,0.4,0.1,0.9,0.6,0.8c0.2,0,0.4-0.7,0.4-1.1c0-0.7,0-1.3,1.2-1.4c0.7-0.1,1.2-0.8,1.8-1.3
	c0.1-0.1,0-0.3,0-0.6v0.2c0.1,0,0.3,0.1,0.4,0c0.3-0.2,0.7-0.4,0.1-0.8c-0.1,0-0.4,0.2-0.6,0.6c-0.5,0.2-0.9,0.2-1.4,0.2
	c-1.5,0-1.5,0-1.6-1.7c0.3,0.1,0.5,0.2,0.8,0.3c0.3,0.1,0.4,0.8,1,0.3c1-0.7,1.2-1.6,1.1-2.6c0-0.1,0.4-0.3,0.6-0.5
	c0.1,0.2,0.3,0.5,0.4,0.7c0.4,1,0.4,1,1,0.5c0.8-0.7,1.6-1.2,2.7-1.6c1.5-0.5,1.8-1.9,0.9-3.1c-0.7-0.9-0.6-1.4,0.2-2.1
	c0.5-0.4,1-0.8,1.2-1.3c0.2-0.5,0-1.1-0.9-1.1c0-0.1-0.1-0.4,0-0.4c0.4-0.2,0.8-0.4,1.3-0.4c1.1-0.1,2.2,0.2,3.1-0.8
	c0.8-0.8,0.6-1.6,0.5-2.4c-0.1-1.1,1.5-1.5,1.2-2.6c1.1-1.1,2.7-2,3.1-3.6c0-0.1,0.6-0.1,0.9-0.2c0.5-0.1,0.7-0.4,0.8-0.8
	c0.4-1,0.7-1.1,1.6-0.7c0.4,0.1,0.6,0.9,1,0.5c1.3-1.6,2.2,0.2,3.2,0.2c0,0.6,0.3,0.9,1,0.9c0.1,0.2,0.2,0.7,0.3,0.7
	c0.6,0.1,0.7-0.3,0.7-0.9c0-0.1-0.1,0.1,0,0.2c0.1,0.1,0.3,0.1,0.4,0c0.3-0.2,0.7-0.4,0.1-0.8c-0.1,0-0.4,0.2-0.6,0.6
	c-0.3,0.2-0.7,0.2-1,0.2c0-0.6-0.3-0.9-1-0.9c0-0.1-0.1-0.4,0-0.4c1.3-1,3.2-1,4.4-2.1c0.2-0.1,0.6-0.1,0.9,0
	c0.9,0.1,1.6-0.1,1.5-1.1c0-0.4,0.4-0.7,1-0.7c0.8,0.1,1.6,0.1,2.2-0.6c0.2-0.3,0.4-0.2,0.7,0.1c0.4,0.5,1.1,0.8,1.6,0.3
	c0.6-0.5,1.3-0.8,2.1-0.7c0.6,0,1.6,0.1,1.8-0.2c0.7-0.8,1.7-0.5,2.5-1.2c1.3-1.1,3.3-1.9,4.4-2.1c1.5-0.3,2.8-1.2,4.5-0.9
	c1.5,0.4,2.7-0.5,4-0.9c0.8-0.3,1.4-1.2,2.2,0c1.4-1.1,3.4-1.3,4.7-2.4c0.4-0.3,0.9-1.3,0.7-1.5c-0.4-0.2-0.8-0.3-1.3-0.4
	c-0.5-0.1-0.9-0.1-1.4-0.2c-0.1,0-0.2-0.2-0.2-0.3c0-0.1,0.2-0.3,0.3-0.3c0.4-0.1,1.1-0.1,1.3-0.3c0.3-0.5,0.2-1.1,0.3-1.6
	c0.2-0.6-1.6-0.8-0.5-1.6c1-0.7,1.5-2,3.1-1.7c0.3,0.1,0.7,0,1,0c1.1,0,1.2,0.1,1.3,1.3c0.1,1.2,0.1,1.3,1.3,1.3c0.7,0,1.3,0,2,0
	c0.6,0,1-0.9,0.6-1.3c-0.6-0.6-1-0.9-0.1-1.6c0.7-0.6,0.4-1.1-0.8-1.4c-0.9-0.2-0.9-0.6-0.9-1.2c0-0.6-0.1-1.4,0.6-1.4
	c1.2,0,1.7-1.3,3-1.1c0.1,0,0.2-0.5,0.3-0.7h1.2c-0.2-0.1-0.4,0-0.2,0.4c0.1,0.1,0.2,0.2,0.3,0.3c0.3,0.1,0.6,0.2,0.8,0.2
	c0.3,0,0.5-0.2,0.7-0.3c-0.2-0.2-0.3-0.4-0.5-0.5c-0.3-0.1-0.6,0-1.1,0c-0.2-0.6-0.5-0.9-1.2-0.9c0-0.4,0-0.9,0-1.3
	c-0.1-0.8,0.1-1.4,1.2-1.3c0.5,0,0.9-0.3,0.8-0.8c0.5,0,1,0,1.5,0c1-0.1,1.6,0.1,1.5,1.1c0,0.2,0.3,0.5,0.5,0.6
	c0.5,0.2,3.2-1.1,3.3-1.7c0.1-0.5,0.3-0.9,0.8-0.9c0.8,0,1.5-0.2,2.3,0.4c0.7,0.5,0.8,0.4,0.9-0.5c0-0.3,0-0.6,0-0.9
	c0.1-0.8,0.8-1,1.7-0.5c0.5,0.3,0.9,1.1,1.2,0c0.2-0.9,0.3-1.4,1.3-0.4c0.2,0.2,0.6,0.2,0.9,0.2c0.7,0.1,1.4-1.5,2.2-0.1
	c1,0,1.9,0.1,2.9,0.1c0.8,0,1.6,0,2.5,0c1,0,2,0,2.9,0c1.2,0,1.6,0.9,2.3,1.4c0.8,0.5,1.7,0.5,1.8-0.3c0.1-0.8,0.7-1.3,1.3-1.7
	c0.8-0.5,0.6-1.3,1-1.8c0.1-0.1,0.3-0.1,0.3-0.1c0.8,1.4,1.5-0.1,2.2-0.1c1,0,1.8,0,2.6,0.8c0.3,0.3,1.3,0.2,1.9,0.1
	c0.5-0.1,0.6-0.5,0.1-0.8c-0.5-0.3-0.4-0.8,0.1-0.8c1-0.1,1.9,0,2.9,0c0.9,1.2,1.5,0.4,2.1-0.2c1.1-1,2.2-1,3.3-0.2
	c0.1,0.1,0.3,0.3,0.3,0.3c0.3-0.1,0.5-0.3,0.7-0.5c1.2-1.2,2.4-1.9,4-0.5c0.1,0.1,0.3,0.1,0.3,0.1c1.1-1.5,2.1-0.3,3.2,0.1
	c0.7,0.2,1.6,0.3,2.2-0.5c0.3-0.4,0.4-0.4,0.7-0.1c0.5,0.5,1.1,1.1,1.6,1.6c0.7-0.6,1.3-1.2,1.9-1.6c0.2-0.2,0.6-0.2,0.9-0.2
	c0.8,0.3,1.9,1.6,1.8-0.5c0.8-0.6,2-0.7,2.6-0.1c0.9,1,2.3,0.1,3.1,0.9c0.8,0.8,2.1,0.6,2.8,1.4c0.1,0.1,0.9-0.1,1.2-0.4
	c0.8-0.6,1.5-1.4,2.7-1.6c0.5-0.1,0.9-0.7,1.7-0.6c1.6,0.1,3.3,0,4.9,0.1c0.4,0,0.7,0.5,1.3,0.9c0.8-0.8,1.7-1.7,2.6-2.5
	c0.2-0.2,0.7-0.3,0.9-0.2c1,0.6,1.7,0.8,2.6-0.2c0.9-1,1.3-0.9,2.3-0.1c0.4,0.3,0.6,0.7,1.1,0.9c0.4,0.2,1.1,0.3,1.3,0.2
	c0.7-0.8,1.6-0.8,2.6-0.8c0.5,0,1,0,1.5,0c1.2-0.1,2.6,0.5,3.6-0.7c1.1-0.1,2.4,0.1,3.2-0.4c0.9-0.5,1.1-0.2,1.8,0.1
	c0.8,0.3,1.9,0.5,2.6-0.4c0.3-0.4,0.4-0.3,0.7,0c0.3,0.3,0.8,0.5,1.2,0.6c0.6,0,1.3,0.3,1.8-0.3c0.4-0.5,1.1-0.5,1.7-0.5
	c0.6,0,1.4,0.1,1.9-0.1c0.6-0.2,0.9-0.8,1.4-1.2c0.8-0.7,1.7-0.5,2.6-0.2c0.4,0.1,0.3,0.4-0.1,0.6c-0.2,0.1-0.5,0.5-0.4,0.6
	c0.7,1.2,2.4,1.1,3.4,2c0.2-0.2,0.4-0.5,0.7-0.6c0.9-0.4,1-0.3,1.7,0.7c-0.6-0.1-0.9,0.3-1.2,0.6c-0.9,0.8-1,1.2-0.5,1.8
	c0.5,0.6,1.1,0.4,2.1,0.4c1.7-0.1,1.6-1,1.6-2c0-0.7,0-1.4-0.8-1.9c0,0,0.1-0.5,0.3-0.6c0.3-0.1,0.6-0.1,1,0c0.1,0,0.3,0.2,0.3,0.3
	c0.1,1.5,0.7,1.5,1.8,0.6c1.5,0.4,2.4-0.5,3.3-1.3c0.8-0.7,1.9-0.7,2.6-0.2c1.2,0.9,2.3,0.9,3.4,0.1c0.8-0.6,1.6-0.3,2.3-0.3
	c1.1,0,2.3-0.4,3.3,0.3c0.6,0.4,1,0.8,1.1-0.2c0.1-0.7,0.4-1,1.1-1c0.8,0,1.5,0.1,2.2,0.7c0.5,0.4,1.2,0.2,1.7-0.2
	c0.2-0.1,0.6-0.3,0.7-0.2c0.4,0.2,0.8,0.5,1,0.9c1.1,1.6,2.9,1.6,4.7,1.4c0.1,0,0.4-0.3,0.3-0.3c-0.1-0.2-0.3-0.5-0.5-0.5
	c-0.5-0.1-1,0-1.5,0c-0.5,0-0.9-0.3-0.8-0.8c0-0.1-0.1-0.3,0-0.4c0.3-0.5,0.6-0.4,1-0.1c0.3,0.3,0.8,0.4,1.3,0.4
	c1.5,0,2.4,0.6,2.6,1.9c0.2,1.1,1.2,0.6,1.9,0.7c0.9,0.1,1-0.5,1-1.1c0-0.1,0-0.3,0-0.4c0-0.6,0.1-1.1,1-1.1c1.5,0,3,0.1,4.4,0
	c0.9-0.1,1.4,0.8,2,0.8c0.5,0,0.8-0.8,1.6-0.7c0.8,0.1,1.9-0.2,2.3,0.2c0.8,0.6,1.2,0.6,1.8-0.1c0.3-0.3,0.7-0.6,1.1-1
	c0.2,0.4,0.2,0.8,0.4,1.2c0.1,0.2,0.3,0.6,0.5,0.6c1.4,0.1,2.9-0.3,4,0.8c0.8-1.3,1.4,0,2.2,0c0.8,0.1,1.6,0.2,2.2-0.4
	c1-1.1,1.7-0.1,2.4,0.4c0.7-0.6,1.4-1.1,2-1.7c0.6,0.7,1.7,1.1,1.5,2.1c0,0.1,0.4,0.2,0.7,0.2c0.1,0,0.2-0.2,0.3-0.3
	c1-0.5,1.4-0.5,3.9-0.4c1,0,2,0,2.9,0c1,0,1.2,0.9,1.9,1.2c-0.3,0.3-0.6,0.6-0.9,0.9c1.4,0.5,2.6,1.6,4.3,1.3
	c0.5-0.1,0.7-0.4,0.2-0.8c-0.2-0.1-0.2-0.4-0.4-0.6c1-0.4,1.9-0.9,2.9-1.1c1.5-0.3,2.8,0,3.8,1.2c0.6,0.7,1.4,0.6,2,0
	c0.5-0.5,0.7-0.1,1.1,0.1c0.9,0.6,1.9,0.6,2.6,0c0.9-0.8,1.6-0.8,2.4,0c0.3,0.2,1,0.1,1.3,0.4c0.8,1,2,1,3,0.6c0.8-0.3,1.6-1,1.4-2
	c0-0.1,0.3-0.3,0.3-0.3c0.2,0.1,0.5,0.3,0.6,0.5c0.3,1.5,1.2,2.2,3,2c0.2,0,0.4-0.1,0.5,0c1,1,2.4,1.4,3.6,1.6
	c1.4,0.3,2.9,0.1,4.4,0.1c1.1,0,1.4,0.4,1.3,1.3c0,0.1,0.5,0.3,0.6,0.3c0.5-0.4,1-0.8,1.4-1.2c0.3-0.3,0.5-0.4,0.7-0.1
	c0.4,0.5,1,0.6,1.7,0.6c2.1,0,4.2,0,6.4,0c0.6,0,0.8,0.4,1.2,0.6c0.8,0.5,0.9-0.7,1.4-0.5c0.5,0.3,0.9,0.9,1.6,0.7
	c0.3-0.1,0.5-0.3,0.8-0.4c0.3-0.1,0.5-0.3,0.8-0.4c1-0.2,1.4,1.2,2.5,0.9c0.1,0,0.4,0.7,0.6,1c0.1,0.2,0.3,0.5,0.5,0.7
	c0.2-0.2,0.4-0.4,0.5-0.7c0.5-1.1,0.4-1.1,1.2-0.4c0.4,0.3,0.7,0.6,1.1,0.9c0.1,0.1,0.4-0.2,0.7-0.3c1.5-0.7,1.7-0.6,1.9,1
	c0,0.1,0,0.3,0,0.4c0,0.5,0.3,0.8,0.9,0.8c0.6,0,1.3-0.1,1.8-0.3c0.4-0.1,0.6-0.6,1.2-0.6c1.1,0.1,2.3,0.1,3.4,0
	c1.1,0,2.2-0.1,3.1,0.8c0.1,0.1,0.9-0.1,1.3-0.3c0.4-0.2,0.6-0.6,1.1-0.1c0.2,0.2,0.5,0.4,0.7,0.6c0.3,0.5,0.3,1.1,0.7,1.4
	c0.4,0.4,1.2,0.3,1.6,0.7c1,0.8,2.7-0.2,3.4,1.2c0.7-1,1.9-0.8,3-0.9c0.7,0,1.2,0.3,1.7,0.6c0.3,0.2,1.1,0.3,1.3,0.1
	c1-1,1.8-1,2.8,0c1.2-0.3,1.8,1.3,3,1c1.2-0.3,1.6,0.9,2.5,0.9c1,0,1.4,1.2,2.5,0.9c1.2-0.4,1.7,1.3,3,0.9c0.5,0.9,1.8,0.6,2.4,1.2
	c0.5,0.5,1.1,0.4,1.8,0.4c1.2,0.1,2.7-0.5,3.5,0.8c0.3-0.3,0.7-0.5,1-0.8c0.5,0.9,1.7,0.6,2.4,1.2c1.2,1,2.3,2,3.5,3.1h8.2
	c0.5,0.5,1.2,1.1,1.7,1.8c0.7,0.8,1.6,0.9,2.6,0.8c0.8-0.1,1.6,0,2.1,0.7c0.9,1.1,2.3,1.3,3.5,1.9c1.2,0.6,1.3,0.5,2,2
	c0.4,0.7,0.9,0.7,1.5,0.6c1-0.2,1.4,0.5,2,0.9c0.7,0.5-0.1,0.6-0.2,0.9c-0.1,0.2-0.2,0.5-0.6,1.1c-0.1,0.3,0.1,0.1,0.3,0
	c0.1-0.1,0.1-0.3,0-0.4c-0.1-0.1-0.3-0.1-0.4,0c-0.2,0.1-0.3,0.3-0.4,0.5c0,0,0.2,0.2,0.6-0.1c0.6-0.3,1-0.2,1.1-0.1
	c0.1,0.5,0.1,1.1,0.2,1.7c0.1,0.3,0.1,0.9,0.9,0.3c0.6-0.4,1.4-0.5,2-1c0.7-0.5,1.1-0.5,1.1,0.4c0,0.7,0.6,0.9,1,1.4
	c0.7,0.8,1.2-0.4,1.3-0.3c0.9,0.8,2.3,0.7,3.1,1.6c0.6,0.6,0.2,2.2,2,1.8c0.5,0.8,1.1,1.6,1.4,2.5c0.2,0.7,0.4,0.9,1.2,1
	c0.5,0,0.8,0.3,0.8,0.8c0,0.7-0.2,1.3-1,2.7c-0.3-0.1-0.6-0.2-0.8-0.3c-0.3-0.1-0.5-0.8-1.1-0.2c-0.7,0.6-0.7,0.7-0.1,1.9
	c0.2,0.4,0.2,1,0.4,1.1c0.6,0.2,1.3,0.2,1.9,0.1c2-0.3,2.2-0.3,2.6,0.7c0.1,0.2,0,0.6-0.2,0.8c-0.2,0.2-0.6,0.3-0.8,0.2
	c-0.4-0.1-0.8-0.4-1.2-0.6c-0.6-0.4-1.2-0.3-1.8,0.3c0.7,0.6,1.4,1.3,2.1,1.7c0.9,0.5,0.7,1.5,1.4,2.1c0.5,0.4,1,1.2,1.8,0.2
	c0,0,0.5,0.1,0.7,0.2c0.4,0.2,0.7,0.5,1.1,0.8c-0.7,0.8-1.9,0.4-2.5,1.3c-0.4,0.7-0.6,0.7,0.5,0.9c0.6,0.1,0.9,0.3,1,0.7
	c0.1,0.7-0.2,1-1.1,1.1c-1.1,0-0.9,0.5-0.3,0.9c0.4,0.3,0.5,0.5,0,0.6c-0.4,0.1-0.9,0.2-1.4,0.2c-1.2,0-1.6,0.8-2.2,1.4
	c-0.1,0.2-0.1,0.7,0.1,0.8c0.4,0.2,1.1,0.5,1.2,0.4c0.7-0.7,1.5-1,2.6-0.8c-0.2,0.5,0.4,0.7,0.7,1c0.5,0.8,0.4,1.2-0.6,1.6
	c-1.1,0.4-1,0.5-0.3,1.2c0.8,0.9,1.8,0.5,2.7,0.6c1.3,0.1,1.5,0.1,1.4,1.1c0,1,0.3,2-0.8,2.8c-0.3,0.2,0,1.1-0.2,1.6
	c-0.1,0.3-0.7,0.5-1.1,0.5c-0.5,0.1-0.9-0.3-0.8-0.8c0-0.4,0.2-0.9,0-1.3c-0.2-0.3-0.9-0.6-1.1-0.5c-0.7,0.3-1.4,0.8-1.7,1.4
	c-0.4,0.6,0.3,1.4-0.5,2c-1.8-0.4-3.1,1.5-4.9,0.9c-0.2-0.1-0.4-0.5-0.4-0.5c0.7-0.5,0.9-1.1,0.8-1.9c-0.1-1.1,0.7-1,1.6-1
	c1.2-0.1,1.3-0.1,1.4-1.2c0.1-0.5-0.1-1.4,0.7-1.4c1.6,0,1.3-0.9,1.3-1.7c-0.1-1-0.9-1.6-1.8-1.7c-1-0.2-2.3,0.3-2.3-1.4
	c0-0.6-1.1-0.4-1.7-0.4c-0.6,0-0.9-0.2-1.1-0.6c-0.2-0.4,0.2-0.9,0.9-1.2c1.1-0.4,1.2-0.4,0.5-0.9c-0.5-0.4-0.8-0.9-1.6-0.9
	c-0.8,0.1-1.5-0.1-2.2-0.6c-0.8-0.6-2.8-0.1-2.6,0.2c0.5,0.5,1.1,0.9,1.8,1.3c0.3,0.2,1,0.3,1.1,0.6c0.1,0.3-0.1,1-0.4,1.1
	c-0.6,0.2-1.3,0.1-1.9,0.1c-1.4,0-1.4,0-1.6-1.5c-0.2-1.2-0.2-1.2-1.9-1.1c-0.7,0-1.4,0.7-1,1.1c0.9,0.8,0.4,2.7,2.5,2.5
	c0.8,0.6,0.4,1.3,0.3,2c0,0.2-0.7,0.4-1.1,0.5c-1.2,0.3-0.5,0.6-0.1,1.1c0.2,0.3,0.4,0.9,0.2,1.1c-0.2,0.3-1,0.5-1.2,0.4
	c-0.8-0.5-1.5-1.1-2.6-0.8c-0.7,0.2-1.4,0.6-2,0.8c0-0.4,0.1-0.9,0-1.3c0-0.1-0.6-0.3-0.6-0.2c-0.5,0.4-0.8,0.9-1.4,0.1
	c-0.5-0.6-1.2-0.2-1.8-0.3c-0.3-0.1-0.8-0.1-0.8-0.3c-0.3-1.4-1-2.3-2.7-2.4c-0.2,0-0.2-0.7-0.4-1.1c-0.8-1.5-3.3-4.2-4.5-4.8
	c-0.2-0.1-0.8-0.1-0.9,0c-1.1,1.4-2.7,0.6-4.1,0.8c-0.8,0.1-1.8-0.4-2.2,0.4c-0.3,0.5,0,1.1-0.1,1.7c0,0.1-0.4,0.3-0.6,0.3
	c-0.1,0-0.3-0.2-0.3-0.3c-0.1-0.1,0-0.3,0-0.4c0-0.4-0.2-1-0.7-0.6c-1.2,0.9-2.2,0.8-3.4,0.1c-0.4-0.2-0.9-0.3-1.3-0.3
	c-1,0-2-0.1-2.9,0c-1.5,0.2-1.4-0.8-1.7-1.5c0-0.1-0.2-0.2-0.3-0.2c-0.2,0.2-0.4,0.4-0.7,0.6c-0.6,0.4-1.1,1.6-2.1,0.3
	c0,0-0.4,0.2-0.7,0.4c-0.9,0.6-2,0.7-2.6,0.1c-0.7-0.7-1.8-0.4-2.5-1.1c-0.7-0.7-1.9-0.1-2.8-0.3c-0.5-0.1-1-0.6-1.5-0.7
	c-0.3,0-0.7,0.6-1.1,0.7c-0.4,0.1-0.9-0.2-1.2-0.4c-0.5-0.4-0.8-0.3-1,0.2c-0.2,0.4-0.2,0.8-0.3,1.3c-0.8-0.7-1.5-1.2-2.2-1.8
	c-0.7,0.4-0.4,1.1-0.5,1.6c-0.1,0.5,0.2,0.8,0.7,1c0.3,0.1,0.6,0,1,0c2.2,0.1,2.2,0.1,2.3,2.1c0,0.6,0.2,1.1,0.7,1.5
	c0.7,0.6-0.2,0.7-0.5,0.7c-1.4,0.1-1.1,0.5-0.4,1.2c0.2,0.2,0.3,0.9,0,1.1c-0.5,0.5-0.9,1.3-1.9,1.2c-0.8-0.1-1.5,0-2.2,0.6
	c-0.4,0.3-1.1,0.4-1.7,0.5c0,1.7,0,3.3,0,4.9c0,0.5-0.3,1-0.8,0.9c-0.9-0.2-1.7,1.7-2.7,0.1c-0.1,0.1-0.2,0.1-0.3,0.2
	c-0.2,0.2-0.4,0.5-0.7,0.6c-1.3,0.6-1.7-1.5-3-0.8c-0.8,0.5-1.4,1.3-2.4,0.4c-0.8-0.7-1.9-0.7-2.6-0.2c-0.7,0.5-1.3,0.7-2.2,0.7
	c-1.2,0-2.3,0.1-2.2-1.4c0-0.4-0.4-0.4-0.7-0.1c-0.5,0.8-1.4,0.6-2.2,0.6c-0.7,0-1.1,0.5-0.9,1.1c0,0.2,0.4,0.3,0.5,0.5
	c1.3-1.6,1.6,0.1,2.3,0.6c-0.5,0.6-1.2,0.4-1.8,0.4c-1,0-1.8,0.1-2.6,0.8c-0.6,0.5-1.4-0.2-1.5-1c0-0.8,0.3-1.3,0.8-1.9
	c0.6-0.6,0.1-1.3-1-1.4c-0.8,0-1.5-0.1-2.2-0.7c-0.5-0.5-1.2-0.3-1.6,0.2c-0.4,0.4-0.9,0.8-1.4,1.2c-0.4,0.3-1.5,0-1.5-0.5
	c0.1-1.1-1.1-1.3-1.4-2.1c-0.5,0.4-0.9,0.7-1.2,1.1c-0.5,0.6-1.2,0.9-2.1,0.8c-0.4-0.1-0.8-0.3-1.2-0.4c0.2-0.2,0.6-0.4,0.7-0.6
	c0.2-0.4,0.3-0.8,0.2-1.2c-0.1-0.5-0.9-0.5-1.7-0.2c-0.3,0.1-0.4,1-1,0.3c-0.2-0.2-0.1-0.5-0.2-0.8c0-0.1-0.1-0.3-0.2-0.4
	c-0.1-0.1-0.3-0.2-0.3-0.2c-0.1,0-0.3,0.2-0.3,0.3c-0.2,0.5,0.1,1.2-0.8,1.4c-0.6,0.1-1.3,0-1.9-0.1c-0.5-0.1-0.5-0.4-0.1-0.6
	c0.3-0.2,0.6-0.4,0.6-0.6c0-0.4-0.1-0.9-0.4-1.1c-0.3-0.2-1-0.1-1.3,0.1c-0.5,0.4-0.2,2.5-1.8,0.6c-0.4,0.3-0.7,0.8-1.1,0.8
	c-1,0.1-2,0.2-2.9-0.1c-0.7-0.2-0.2-0.6,0.2-0.9c0.4-0.3,0.4-0.4,0.1-0.6c-0.6-0.4-1-1.2-2-1c-0.9,0.1-1.9-0.3-2.7,0.5
	c-0.5,0.5-0.9,1.3-1.9,1.3c0-0.3,0-0.6,0-0.9c0.1-0.5-0.2-0.8-0.7-0.9c-0.6,0-1.6-0.1-1.8,0.1c-1,1.4-3.3,0-4.1,1.7
	c-0.2,0.5-0.8,0.9-1.6,0.7c-0.8-0.2-0.6-0.8-0.8-1.3c0-0.1-0.5-0.3-0.6-0.2c-0.5,0.4-1.1,0.8-1.2,1.2c-0.1,0.6-0.4,1-0.8,1.4
	c-0.8,0.8-1.1,0.8-2.3,0c-0.2-0.1-0.5-0.2-1.3-0.6c-0.3-0.1-0.2,0.1,0,0.2c0.1,0.1,0.3,0.1,0.4,0c0.1-0.1,0.1-0.3,0-0.4
	c-0.2-0.2-0.4-0.3-0.6-0.4c0,0-0.2,0.2,0.1,0.5c0.6,0.8,0.2,1.1-0.3,1.1c-1.8,0.2-2.1,0-2.2-1.4c0-0.3,0-0.6,0-0.9
	c-0.1-0.4-0.2-1.1-0.4-1.1c-0.7-0.1-1.7-0.2-2.3,0.1c-1,0.7-1.7,1.6-2.6,2.5c-0.5-0.4-0.7-0.6-0.9-0.8c-0.1-0.1-0.3-0.1-0.3-0.1
	c-1,1.6-3.2,0-4.3,1.2c-0.5,0.5-0.7,0.1-1-0.1c-0.1-0.1-0.2-0.2-0.3-0.3c-0.7,0.8-1.4,0.9-2.1,0c-0.7,1.1-2,0.7-3,0.8
	c-0.8,0.1-1.8-0.4-2.2,0.4c-0.3,0.5-0.1,1.1-0.1,1.7c0,0.1-0.2,0.3-0.3,0.3c-0.2-0.1-0.6-0.2-0.6-0.3c-0.1-0.7,0-1.4,0-2.2
	c0-0.5,0.3-1.2-0.5-1.7c-0.6,0.6-1.2,1.4-2,1.7c-0.9,0.3-1.9,0.1-2.9,0.1c-0.7,0-1.3-0.1-2,0c-0.2,0-0.4,0.4-0.5,0.6
	c-0.2,0.3-0.4,1-0.5,1c-2-0.1-3.5,1-5.1,1.8c-0.1,0.1-0.3,0-0.5,0c-0.5-0.1-0.9-0.3-0.8-1.1c0-0.1-0.1,0.1,0,0.2
	c0.1,0.1,0.3,0.1,0.4,0c0.3-0.2,0.7-0.5,0.1-0.8c-0.1,0-0.4,0.2-0.6,0.6c-0.5,0.2-1,0.1-1.4,0.2c-0.9,0.2-1.5-0.4-2-0.9
	c-1.2,1-2.3,2.1-3.4,3c-0.3,0.2-0.8,0.4-1.2,0.4c-0.6,0.1-1.4,0.2-1.7-0.4c-0.2-0.4,0-0.8,0-1.5c-0.2,0.2,0,0.4,0.5,0.2
	c0.1,0,0.3-0.2,0.3-0.3c0.1-0.2,0.2-0.5,0.2-0.7c0-0.2-0.2-0.4-0.4-0.7c-0.2,0.2-0.5,0.3-0.5,0.5c-0.1,0.2,0,0.5,0,1
	c-1.1,0.3-1.4,1.3-2.2,1.7c-0.1,0.1-0.6-0.1-0.6-0.2c0-0.6-0.2-1.1-0.7-1.5c-0.7-0.6-0.8-0.6-1.3,0.3c-0.3,0.5-0.8,0.9-1.1,1.3
	c-0.3,0.4-0.4,0.2-0.7,0c-1.2-0.7-2.5-1.2-3.4-2.1c-0.2-0.2-0.9-0.1-1.3,0c-0.2,0-0.4,0.5-0.3,0.7c0.3,1.2-0.5,1.7-1.7,2
	c-0.5,0.1-0.8,0.8-1.4,0.1c-0.2-0.2-0.5-0.4-0.7-0.6c-0.8-0.9-1.6-0.7-2.4,0.1c-0.1,0.1-0.6-0.1-0.6-0.2c0.1-1.2-0.6-1.5-1.8-1.3
	c-1.2,0.1-2.6-0.5-3.6,0.7c0,0-0.5-0.2-0.7-0.4c-0.5-0.5-0.8-0.2-0.9,0.2c-0.1,0.4,0,0.9,0,1.3c0,0.5-0.3,0.8-0.9,0.7
	c-0.8,0-1.6,0.2-2.2-0.6c-0.3-0.5-0.7-0.9-1.1-1.5c-1,1.4-2.7,1.8-2.7,3.4c0,0.5-2.1,0.6-2.6,0.1c-0.5-0.5-1.3-0.8-1.3-1.7
	c0-0.4-0.4-0.7-1-0.7c-0.6,0-0.9,0.3-0.9,0.7c0,0.7-0.3,1.1-1.1,1c-0.8,0-1.6-0.1-2.4,0c-1.1,0.1-2.4-0.5-3.2,0.4
	c-0.8,0.8-2,0.1-2.7,0.6c-0.7,0.5-1.3,0.7-2.1,0.8c-1.2,0.1-2-0.8-2.9-0.6c-0.8,0.1-1.1,1.4-2.7,1.2c-0.3-0.1-0.2,0.1,0,0.2
	c0.1,0.1,0.3,0.1,0.4,0c0.1-0.1,0.1-0.3,0-0.4c-0.2-0.2-0.4-0.3-0.6-0.4c0,0-0.2,0.2,0.1,0.5c0.5,0.7,0.5,1.1,0.4,1.5
	c0,0.1-0.6,0.3-0.6,0.3c-0.7-0.6-1.4-1-1.4-2.1c0-0.4-1.4-0.6-1.6-0.1c-0.3,1-0.7,1.8-2.1,1.5c-0.8-0.2-1.2,0.4-1.5,0.8
	c-0.7,0.8-1.5,1-2.5,0.9c-1-0.1-1.3,1.2-2.5,0.9C226.6,100,225.7,100.1,224.9,100.1c0-0.1,0.1-0.3,0-0.4c-0.4-0.4-0.9-1.1-1.4-1.2
	c-0.4-0.1-0.9,0.6-1.3,1c-0.1,0.1,0.2,0.5,0.3,0.6C223.3,100.2,224.1,100.1,224.9,100.1 M214.2,22.3c0.2,0.2,0.3,0.4,0.5,0.5
	c0.1,0.1,0.3,0.1,0.4,0c0.1-0.1,0.1-0.3,0-0.4c-0.2-0.2-0.4-0.3-0.6-0.4c0,0-0.2,0.2,0.6,0.8v0.9c-0.3,0.1-0.7,0.2-0.8,0.3
	c-0.1,0.5,0.3,0.6,0.8,0.6c0,0.3,0,0.6,0,0.8c0,0.3,0.2,0.7,0.3,0.7c1.1,0.1,2.1,0.1,3.2,0.1c0.1,0,0.4-0.5,0.4-0.7
	c-0.1-0.4-0.3-0.9-0.6-0.9c-1.1-0.1-2.2,0-3.3,0v-0.9c0.3-0.1,0.7-0.2,0.8-0.3C216,22.8,215.6,22.7,214.2,22.3 M402.6,54.9h-1
	c-0.2-0.9-0.9-1.3-1.7-1.7c-0.2-0.1-0.7,0-0.8,0.1c-0.2,0.3-0.4,0.7-0.4,1.1c0,0.2,0.4,0.5,0.6,0.5c0.8,0.1,1.5,0,2.3,0
	c0.1,0.2,0.2,0.7,0.3,0.7c0.6,0.1,0.7-0.3,0.6-1.1C402.6,54.7,402.6,54.9,402.6,54.9c0.1,0,0.3,0.1,0.4,0c0.3-0.2,0.7-0.5,0.1-0.8
	C403.1,54.1,402.8,54.4,402.6,54.9 M328.1,70.9c0.2,0.2,0.3,0.4,0.5,0.5c0.1,0.1,0.3,0.1,0.4,0c0.1-0.1,0.1-0.3,0-0.4
	c-0.2-0.2-0.4-0.3-0.6-0.4c0,0-0.2,0.2,0.6,0.8c0,0.6,0.3,0.9,5.8,4.3c0.5,0,1,0.1,1.4,0c0.2,0,0.4-0.3,0.6-0.5
	c-0.3-0.1-0.5-0.3-0.8-0.4c-1.5-0.1-1-0.6-0.3-1.2c0.1-0.1-0.1-0.5-0.3-0.6c-0.6-0.1-1.3,0.1-1.5-0.7c-0.1-0.4-0.2-0.9-0.5-1.1
	c-0.6-0.2-1.2,0.1-1.7,0.5c-0.3,0.2-0.9,0.3-1.3,0.3c-0.5,0-0.7,0-0.5,0.4c0.1,0.1,0.2,0.3,0.3,0.3c0.5,0.1,0.9,0.2,1.4,0.1
	c1.1-0.1,1.5,0.8,2.2,1.4c-2.1,1.8,0.1,1.1-3.9-2.2C330,71.7,329.7,71.4,328.1,70.9 M355.6,76.2c0.2,0.2,0.3,0.4,0.5,0.5
	c0.1,0.1,0.3,0.1,0.4,0c0.1-0.1,0.1-0.3,0-0.4c-0.2-0.2-0.4-0.3-0.6-0.4c0,0-0.2,0.2,1,0.8c-0.1,0-0.3-0.1-0.4,0
	c-0.1,0.1-0.1,0.3,0,0.4c0.2,0.3,0.5,0.6,0.9,0.1C357.4,77.1,357.1,76.8,355.6,76.2 M190.6,79.6c0.2,0.2,0.3,0.4,0.5,0.5
	c0.1,0.1,0.3,0.1,0.4,0c0.1-0.1,0.1-0.3,0-0.4c-0.2-0.2-0.4-0.3-0.6-0.4c0,0-0.2,0.2,1,0.8c-0.1,0-0.4-0.1-0.4,0
	c-0.1,0.1-0.1,0.3,0,0.4c0.2,0.3,0.5,0.6,0.9,0.1C192.4,80.6,192.1,80.3,190.6,79.6 M200.8,91.4c0.2-0.1,0.4-0.3,0.6-0.4
	c0.1-0.1,0.1-0.3,0-0.4c-0.1-0.1-0.3-0.1-0.4,0c-0.2,0.1-0.3,0.3-0.4,0.5c0,0,0.2,0.2,0.9-0.9c0,0.1-0.1,0.3,0,0.4
	c0.1,0.1,0.3,0.1,0.4,0c0.3-0.2,0.7-0.5,0.1-0.8C201.8,89.8,201.5,90,200.8,91.4 M407.6,86.6c0.2,0.2,0.3,0.4,0.5,0.5
	c0.1,0.1,0.3,0.1,0.4,0c0.1-0.1,0.1-0.3,0-0.4c-0.2-0.2-0.4-0.3-0.6-0.4c0,0-0.2,0.2,1,0.8c-0.5-0.1-0.6,0-0.5,0.4
	c0.1,0.1,0.2,0.2,0.3,0.3c0.3,0.1,0.6,0.2,0.8,0.2c0.3,0,0.5-0.2,0.7-0.3c-0.2-0.2-0.3-0.4-0.5-0.5C409.6,87,409.3,87.1,407.6,86.6
	 M348.5,79.3c0.2,0,0.3,0,0.5,0c0.2-0.1,0.6-0.3,0.7-0.5c0.1-0.8-0.6-0.4-0.9-0.4c-0.3,0-0.6,0.3-1,0.5c0.2,0.1,0.5,0.2,1.9-0.9
	c0,0.1-0.1,0.3,0,0.4c0.1,0.1,0.3,0.1,0.4,0c0.3-0.2,0.7-0.5,0.1-0.8C350.1,77.6,349.8,77.9,348.5,79.3 M91.5,71.8
	c0.2,0.2,0.3,0.4,0.5,0.5c0.1,0.1,0.3,0.1,0.4,0c0.1-0.1,0.1-0.3,0-0.4c-0.2-0.2-0.4-0.3-0.6-0.4c0,0-0.2,0.2,1,0.8
	c-0.5-0.1-0.6,0-0.5,0.4c0.1,0.1,0.2,0.2,0.3,0.3c0.3,0.1,0.6,0.2,0.8,0.2c0.3,0,0.5-0.2,0.8-0.3c-0.2-0.2-0.3-0.4-0.5-0.5
	C93.5,72.3,93.1,72.3,91.5,71.8 M89.4,72.8c-0.2,0.4,0,0.6,0.5,0.4c0.1,0,0.3-0.2,0.3-0.3c0.1-0.2,0.2-0.5,0.2-0.7
	c0-0.2-0.2-0.4-0.4-0.7c-0.2,0.2-0.5,0.3-0.6,0.5c-0.1,0.2,0,0.5-0.6,2c0.2-0.1,0.4-0.3,0.6-0.4c0.1-0.1,0.1-0.3,0-0.4
	c-0.1-0.1-0.3-0.1-0.4,0c-0.2,0.1-0.3,0.3-0.4,0.5C88.5,73.7,88.7,73.9,89.4,72.8 M408.5,34.9c0-0.6-0.3-0.9-2.7-1.7
	c-1.1,0-1.7,0-2.4,0c-0.6,0-0.8,0.3-0.9,0.7c-0.1,0.6,0.3,1,1.1,1c0.3,0,0.6,0,0.9,0c1-0.2,1.7-1.3,2.9-0.9c0-0.1,0-0.3,0-0.4
	c-0.1-0.1-0.2-0.3-0.3-0.3c-0.6-0.1-1.2-0.1,0.3,0.7C407.5,34.7,407.8,35,408.5,34.9c0.2,0.3,0.4,0.7,0.7,0.8c0.4,0.1,0.9,0,1.3,0
	c0,0.4-0.1,0.8,0,1.2c0.1,0.3,0.5,0.7,0.9,0.2c0.5-0.7,1.3-0.5,2.5-0.5c-0.1,0-0.3-0.1-0.4,0c-0.1,0.1-0.1,0.3,0,0.4
	c0.2,0.3,0.5,0.6,0.9,0.1c0-0.1-0.3-0.3-0.9-0.5c0.1-0.5-0.2-0.8-0.7-0.8c-0.7-0.1-1.5,0-2.3,0c-0.2-0.3-0.4-0.7-0.7-0.8
	C409.4,34.8,408.9,34.9,408.5,34.9 M400.6,33.7c-0.2,0.4,0,0.6,0.5,0.4c0.1,0,0.3-0.2,0.3-0.3c0.1-0.2,0.2-0.5,0.2-0.7
	c0-0.2-0.2-0.4-0.4-0.7c-0.2,0.2-0.5,0.3-0.6,0.5c-0.1,0.2,0,0.5,0,1.2c-0.3,0-0.7,0-3.4-2.6c-0.7,0.5-0.7,0.6-1.7,0.2
	c-0.3-0.1-0.4-0.2-0.7,0.1c-0.3,0.3-0.9,0.6-1.2,0.5c-0.6-0.1-1-0.6-1.6-0.8c-0.7-0.2-1.6,0.2-2.2-0.5c-0.4-0.5-0.8-0.3-0.9,0.1
	c-0.1,0.3,0.2,1,0.4,1.1c1,0.2,2.3-0.1,3,1c1,0,1.9,0,2.9,0c1.1,0,2.3-0.2,3,0.9c0.1,0.1,0.6,0,0.9,0c0.2,0,0.4,0.1,0.5,0
	c0.1-0.1,0.1-0.3,0-0.4c-0.8-0.7-1.6-1.4,0,0.4c0.1,0.2,0.2,0.7,0.3,0.7C400.6,34.9,400.7,34.5,400.6,33.7 M463.6,78.8
	c0.2,0.2,0.3,0.4,0.5,0.5c0.1,0.1,0.3,0.1,0.4,0c0.1-0.1,0.1-0.3,0-0.4c-0.2-0.2-0.4-0.3-0.6-0.4c0,0-0.2,0.2,1.1,0.8
	c-0.2,0-0.4-0.1-0.4,0c-0.1,0.1-0.1,0.3,0,0.4c0.4,0.4,0.8,0.8,1.3,1.2c0.1,0.1,0.3,0.1,0.3,0.1c0.1-0.2,0.4-0.4,0.4-0.7
	C466.4,79.4,466.2,79.3,463.6,78.8 M59.4,104.4c0.2-0.2,0.5-0.3,0.5-0.5c0.1-0.4,0-0.8,0-1.2c-0.5,0-0.9-0.1-1.4,0
	c-0.2,0-0.5,0.4-0.5,0.5c0.4,0.4,0.8,0.8,1.9-0.9c-0.1,0.1,0,0.4,0,0.4c0.5,0,0.9,0.1,1.4,0c0.2,0,0.4-0.3,0.5-0.5
	c0,0-0.2-0.2-0.3-0.3C60.9,101.8,60.4,101.8,59.4,104.4 M466.1,74.9c0.9,0,1.4-0.2,1.3-0.9c-0.1-0.3,0.5-0.8-0.4-0.8
	c-1.1,0-1.6,0.2-1.5,1c0.1,0.3,0.4,0.6,1.9-1c1.1-0.2,1.7-0.8,1.3-2.8l1.2,1c0.4-0.1,1.3-0.2,1.3-0.3c-0.1-1.2,1.7-1.8,1.2-3
	c-0.1-0.4-0.3-0.8-0.6-1c-0.2-0.3-1.3,0.2-1.3,0.7c-0.1,1-1,1.4-1.6,2c-0.3,0.3-0.4,0.4,0.6,1.7C467.6,71.2,467.2,71.6,466.1,74.9
	 M382,76.2c-0.1,0.9,0.6,0.4,0.9,0.5c0.8,0.1,1.1-0.3,1-1c0-0.5-0.3-0.7-0.8-0.7c-0.9-0.1-1.2,0.3-1.7,2.5c0.2-0.1,0.4-0.3,0.6-0.4
	c0.1-0.1,0.1-0.3,0-0.4c-0.1-0.1-0.3-0.1-0.4,0c-0.2,0.1-0.3,0.3-0.4,0.5C381.1,77.2,381.3,77.4,382,76.2 M357.9,72.3
	c-0.1,0-0.3-0.1-0.4,0c-0.1,0.1-0.1,0.3,0,0.4c0.2,0.3,0.5,0.6,0.9,0.1c0-0.1-0.3-0.3-2.8-2.5c0,0.7,0.5,1.4,1.5,2
	c0.1,0.1,0.4,0.1,0.5,0c0.1-0.1,0-0.3,0-0.4c0.3-1.1-0.8-1.4-1.4-2.1C355.9,70,355.7,70.1,357.9,72.3 M211.2,91.8
	c0.2,0.2,0.3,0.4,0.5,0.5c0.1,0.1,0.3,0.1,0.4,0c0.1-0.1,0.1-0.3,0-0.4c-0.2-0.2-0.4-0.3-0.6-0.4c0,0-0.2,0.2,3-0.2
	c-0.4,0.1-0.9,0.2-1.3,0.4c-0.4,0.2-0.8,0.4-1.2,0.6c-0.1,0-0.1,0.3,0,0.4c0.7,0.5,1.1,1.5,2.3,1.3c0.1,0,0.3-0.1,0.4-0.2
	c0.3-0.2,0.3-0.4-0.1-0.6c-0.9-0.5-0.2-0.8,0.2-1.2C214.9,92,214.7,91.7,211.2,91.8 M142.9,28.9c-0.8,0-1.4-0.1-1.8,0
	c-0.5,0.2-1.1,0.6-1.4,1.1c-0.4,0.6,0.6,0.8,0.9,1.2c0.3,0.3,0.4,0.3,0.8-0.1c0.7-0.7,1.5-1.4,2.7-1.5c0.1,0,0.2-0.2,0.2-0.3
	c-0.1-0.1-0.2-0.3-0.3-0.3c-0.5-0.1-0.9-0.1-2,2.5h-0.5c0.1,1.1-1.1,0.7-1.6,1c-0.1,0.1-0.3,0.2-0.3,0.3c0,0.1,0.2,0.2,0.3,0.3
	c0.2,0.3,0.5,0.7,0.6,1c0.1,0.4,0.1,0.9,0.7,0.6c0.9-0.4,1.8-1,2.7-1.5c0.6-0.3,0.6-0.9,0.1-0.9C143,32.4,142.5,32,142.9,28.9
	 M241.6,47.1c0.8-0.1,1.6,1.6,2.4,0c0.9,0,1.8,0,2.8,0c0.5,0,0.8-0.3,0.7-1.3c0,0.1-0.1,0.4,0,0.4c0.6,0.3,1.3,0.7,2,0.9
	c0.9,0.2,0.7-0.6,1-1.1c0.4-0.9,1.1-1.7,2.5-1.6c0.1,0,0.3-0.4,0.2-0.6c-0.5-0.9-1.7-1.3-2.6-0.7c-0.7,0.5-1.5,0.4-2.2,0.5
	c-0.3,0-0.5,0.2-0.8,0.4c0.1,0.1,0.1,0.2,0.2,0.3c1.3,0.7,0.1,1-0.3,1.9c-1.2-0.1-2.5,0.4-3.4-0.8c-0.1-0.1-0.3-0.1-0.4-0.1
	c-0.6,0.1-1.4-0.1-1.7,0.2c-0.3,0.3-0.2,1-1.5,2.4c0.2,0,0.3,0,0.5,0c0.2-0.1,0.6-0.3,0.7-0.5c0.1-0.8-0.6-0.4-0.9-0.4
	c-0.3,0-0.6,0.3-1,0.5C240,47.7,240.2,47.9,241.6,47.1 M228.3,76.7c-0.3,0-0.6,0-0.9,0c-0.5-0.1-0.6,0-0.5,0.4
	c0.1,0.1,0.2,0.3,0.3,0.3c0.7,0.1,1.5,0.1,2.2,0.1c0.1,0,0.3-0.2,0.3-0.3c-0.2-0.2-0.3-0.4-0.5-0.5c-0.3-0.1-0.6,0-5.6-2.6
	c-0.4,0-0.7-0.1-1,0c-0.2,0.1-0.4,0.3-0.5,0.5c0,0,0.2,0.3,0.3,0.3c1.4-0.2,1.8,1,2.7,1.5c0.4,0.2,0.9,0.3,1.3,0.3
	c0.7,0,0.7-1.2,1.7-0.9c0.2,0,0.6-0.2,0.7-0.4c0.1-0.2,0.1-0.6,0-0.8c-0.1-0.1-0.6-0.3-0.6-0.2c-0.7,0.7-1.5,1-2.4,0.2
	C225.2,73.7,224.3,74.2,228.3,76.7 M203.3,94.9c0,0.3,0,0.6,0,0.8c0.1,0.8,0.9,1.2,1.5,0.8c0.4-0.2,0.7-0.6,1-0.9
	c0.1-0.1,0.2-0.4,0.1-0.6c0-0.1-0.2-0.2-0.3-0.2c-0.8,0-1.6,0-2.8-1.8c-1.4-0.4-2.5,0.6-3.8,0.9c-1.2,0.3-0.3,0.7,0,1
	c0.3,0.2,0.1,0.3-0.1,0.6c-0.6,0.8-0.5,0.9,0.3,0.9c0.6,0,1.3,0,1.8-0.3C201.9,96,202.2,95,203.3,94.9c0.3-0.1,0.4-0.7,0.7-1
	c0.3-0.3,0.4-0.4-0.1-0.6C203.6,93.2,203.3,93.2,203.3,94.9 M436.7,66.9c-1.4,1.3-1.4,1.3-3.9,1c-0.3,0-0.7-0.1-1,0
	c-0.3,0.1-0.5,0.3-0.8,0.4c0.1,0.1,0.2,0.2,0.3,0.3c0.6,0.4,0.9,1.1,1.9,1c1.5,0,3.1-0.4,4.4,0.8c0.1,0.1,0.7,0,0.8-0.2
	c0.2-0.3,0.2-0.8,0.4-1.1c0.1-0.4-0.2-0.3-0.4-0.5c-0.7-0.5-1.2-1.2,0.4-0.3c0,0.1-0.1,0.3,0,0.4c0.1,0.1,0.3,0.1,0.4,0
	c0.3-0.2,0.7-0.4,0.1-0.8C439.4,68,439.1,68.3,436.7,66.9 M405.5,81.3c-0.4-0.1-0.8-0.1-1.2-0.3c-0.5-0.2-0.8-0.5-0.6-1
	c0.2-0.5,0.7-0.9,0.9-1.4c0.3-0.8-0.9-1.1-0.9-1.8c0-0.7-0.3-1.4,0.5-2c0.6-0.4,0.3-0.8-0.2-0.8c-1.4,0-2.9-0.3-4,0.8
	c-0.8-0.1-1.1,0.4-1.6,0.7c-0.6,0.4-1.2,0.2-1.7-0.3c-0.5-0.5-0.9-0.2-0.9,0.2c-0.1,1.5-0.5,3.2,1.9,3.8c0,0,0.1,0.3,0,0.4
	c-0.2,0.2-0.5,0.3-0.8,0.4c-0.1,0.1-0.4,0.1-0.5,0c-1.4-1.3-3.3-0.7-5-0.8c-0.2,0-0.6,0.4-0.6,0.5c0.2,1-0.2,1.8-0.9,2.6
	c0.3,0.1,0.6,0.3,0.8,0.3c0.3,0,0.8-0.2,0.8-0.3c0.1-1.4,0.6-1.4,1.9-0.6c0.7,0.4,1.9,0,2.9,0.1c1.7,0.1,3.6-0.5,5,0.9
	C402.9,82.7,404.6,83.1,405.5,81.3 M240.6,45.8c-0.2-0.2-0.4-0.4-0.6-0.6c-0.7-0.5-1.4-1.3-2.2-1.5c-1.1-0.3-1.5,0.9-2.2,1.4
	c-0.2,0.1-0.6,0.3-0.8,0.3c-1.5-0.4-2.4,1.3-4,0.9c-0.2-0.1-0.6,0.1-0.8,0.3c-0.4,0.3-0.8,0.6-1,0.9c-0.3,0.4-1.2,0.5-0.8,1.4
	c1.1,0,2.2,0,3.3,0c0.9,0,1.7,0,2.7-0.6c0.8-0.5,2.1-0.3,3.2-0.4c0.1,0,0.3-0.2,0.3-0.3c-0.2-2,1.7-1,2.6-1.5
	C240.4,46.1,240.5,45.9,240.6,45.8 M254.9,76.6c-0.2,0.1-0.3,0.2-0.4,0.3c-0.4,0.2-0.8,0.4-1.2,0.6c-0.3,0.1-0.6,0-1,0
	c-0.6,0.1-1.4-0.3-1.8,0.3c-0.5,0.8-0.8,1.7-1.1,2.6c0,0.1,0.4,0.5,0.6,0.5c0.8,0,1.6,0.3,2.3-0.3c0.2-0.2,0.4-0.3,0.7-0.4
	c0.7,1.3,2.4,0.3,3.3,1.2c0.2,0.1,0.4,0.2,0.7,0.3c0.1-0.4,0.4-1,0.2-1.1c-0.9-0.6-0.8-1.4-1-2.3C256.1,77.7,255.4,77.2,254.9,76.6
	 M147.4,31c0,0.5,0,0.9,0,1.4c0,0.1,0,0.3,0,0.4c0.1,0.3,1.4,0.6,2.2,0.4c0.3-0.1,0.7-0.6,0.6-0.9c-0.1-0.8-1.2-1.3-1-2.2
	c0.1-0.5,1.2-2,1.5-1.9c0.5,0.2,1,0.6,1.6,0.8c1.2,0.5,2.1-1.6,3.2-0.2c0.5-0.3,1-0.6,1.3-1c0.1-0.1-0.4-0.6-0.6-0.9
	c-0.5-0.7-0.9-0.1-1.4,0c-1.4,0.3-2.9,0.3-4.3,0.3c-0.7,0-1.2,0.3-1.6,0.7C147.9,28.7,146.9,29.6,147.4,31 M230.9,61.5
	c0.7,0.3,1.3,0.6,2,0.9c0.4,0.2,1.2,0.4,1.3,0.3c0.9-1.2,2.3-0.8,3.5-0.8c0.8,0,1-0.6,1.5-0.9c0.2-0.1,0.2-0.4,0.2-0.6
	c0-0.1-0.2-0.2-0.4-0.2c-1.1-0.2-2.1,0.2-2.9,0.7c-0.8-1.1-2-0.7-3.1-0.8C231.8,60,231.5,61,230.9,61.5 M129.7,31.6
	c0.2,0.2,0.2,0.6,0.5,0.7c0.2,0.1,0.6,0.1,0.9,0c0.7-0.1,1.2,0.1,1.7,0.5c0.3,0.3,2.7-0.9,2.8-1.3c0-0.6-0.9-1.8-1.6-1.7
	c-0.4,0-0.7,1-1.4,0.3c-0.5-0.5-1.1-0.6-1.6-0.2C130.4,30.4,129.6,30.7,129.7,31.6 M403.3,43.7c-1.5,0-2.9,0-4.3,0
	c-0.4,0-0.4,0.3-0.1,0.6c0.9,0.7,0.8,2.5,2.9,1.9c0.4-0.1,0.8,0.3,0.8,0.8c0,0.2,0.2,0.7,0.3,0.7c0.6,0.1,0.7-0.3,0.6-0.7
	C403.4,46,403.9,44.9,403.3,43.7 M188.6,91.8c0.1,0.1,0.2,0.3,0.3,0.3c0.7,0.2,1.5,0.2,2,0.9c0,0,0.5-0.2,0.6-0.3
	c0.7-0.6,1.4-0.5,2,0.1c0.1,0.1,0.2,0.2,0.3,0.3c0.8-0.8,1.8-0.9,2.9-0.8c0.1,0,0.4-0.2,0.3-0.2c0-0.2-0.1-0.5-0.3-0.6
	c-1.1-1-1.1-1-2.7-0.2c-0.6,0.3-1.2,0.4-1.7-0.1c-0.6-0.6-1.2-0.7-2-0.2c-0.4,0.3-1.1,0.4-1.6,0.6C188.8,91.6,188.7,91.7,188.6,91.8
	 M214.9,89.1c-0.1-0.1-0.2-0.3-0.4-0.3c-1.1,0-2.3-0.1-3.4,0c-0.8,0-1.2-1-1.5-0.8c-0.6,0.4-1.2,0.8-2.1,0.9
	c-0.5,0.1-0.5,0.4-0.1,0.6c0.6,0.4,0.8,0.9,0.7,1.5c0,0.1,0.6,0.3,0.6,0.2c0.7-0.9,1.7-0.7,2.6-0.6c1.4,0.1,2.2-1,3.4-1.2
	C214.9,89.4,214.9,89.2,214.9,89.1 M385.6,44.6c0.7-0.7,1.5-1.5,2.2-2.2c0.4-0.4,0.1-1.3-0.5-1.3c-1.1,0-1.5-0.4-1.3-1.3
	c0-0.1-0.2-0.3-0.3-0.3c-0.2,0-0.6,0.1-0.7,0.2c-0.1,0.3,0.1,0.6,0,0.8C383.7,42.9,383.7,42.9,385.6,44.6 M49.7,108c0.5,0,1,0,1.4,0
	c0.7,0,2.1-1.2,1.8-1.4c-0.5-0.5-0.8-1.2-1.8-1.2c-1.2-0.1-2.5,0.5-2.9,1.6c-0.1,0.3,0.2,0.8,0.5,1C48.9,108.1,49.3,108,49.7,108
	 M249.4,60.6c-0.7-0.5-1-1.5-2.2-1.4c-0.6,0.1-0.9-1.1-1.4-0.6c-0.6,0.6-1.5,0.4-2.1,0.9c-0.1,0.1-0.1,0.2,0,0.3
	c0.1,0.1,0.2,0.3,0.3,0.3c1.3-0.1,2.6-0.2,2.7,1.5c0,0.1,0.9,0.3,1.2,0.2C248.5,61.5,248.9,61,249.4,60.6 M264.4,18.4
	c-0.5,0.3-1.5-0.4-2.1,0.3c-0.6,0.7-1,0.4-1.4-0.1c-0.1-0.1-0.3-0.2-0.4-0.2c-0.4,0.1-0.9,0.2-1.3,0.4c-0.2,0.1-0.1,0.6,0,0.8
	c0.1,0.2,0.4,0.5,0.7,0.5c1,0,1.9,0,2.9-0.1c0.4,0,1-0.5,1-0.5c1.1,1.3,1.5-0.2,2.1-0.5c0,0-0.1-0.5-0.3-0.5
	C265.3,18.4,265,18.4,264.4,18.4 M125.8,32.9c0-1.5-0.4-1.7-1.9-1c-0.6,0.3-1.1,0.4-1.8,0.4c-1.1,0.1-1.1,0.2-0.5,1.1
	c0.1,0.2,0.2,0.5,0.3,0.8c0.1,0.2,0.3,0.5,0.4,0.7c0.2-0.2,0.4-0.4,0.5-0.6c0.6-1.3,0.6-1.3,2.2-0.5c0.3,0.2,0.5,0.3,0.7-0.1
	C125.8,33.5,125.7,33.2,125.8,32.9 M461.3,73.2c-0.3,0-0.7,0-1,0c-0.5,0.1-0.8,0.3-0.8,0.8c-0.1,0.9,0.1,1.6,1,2.3
	c0.6,0.4,0.7,0.1,1.1-0.1c0.8-0.5,1-1,0.1-1.6c0,0,0-0.2,0.1-0.3C462,73.2,462,73.2,461.3,73.2 M344.7,72.3c0.3-0.1,0.8-0.2,0.8-0.3
	c0.1-0.9,0.1-1.9-0.1-2.8c0-0.1-1.1-0.4-1.2-0.3c-0.5,0.6-1,1.3-1.4,2C342.7,71.2,344,72.2,344.7,72.3 M365.5,76.1
	c0.8,2,2.7,1.4,4.3,1.4c0.2,0,0.5-0.4,0.4-0.6c-0.1-0.4-0.3-1-0.5-1c-0.8-0.1-1.6-0.1-2.4,0C366.7,75.8,366,75.5,365.5,76.1
	 M124.9,36.5c2.5,0.2,2.9,0,2.8-0.2c-0.7-1.2,2.4-1.7,0.7-3C127.2,34.3,126.1,35.3,124.9,36.5 M194.5,96.7c0.1,0.2,0.2,0.6,0.4,0.7
	c0.4,0.1,1.1,0.2,1.2,0c0.6-0.6,0.5-1.5,1.3-2.1c0.1-0.1-0.1-0.8-0.3-1.1c-0.4-0.4-1.7-0.1-1.5,0.3C196,95.6,194.3,95.8,194.5,96.7
	 M405.6,37.1c0-0.3,0.1-0.6,0-0.8c-0.1-0.2-0.4-0.3-0.6-0.4c-0.1,0-0.3,0.2-0.3,0.3c0,0.7-0.1,1.4-1.2,1.3c-0.5,0-0.8,0.3-0.8,0.8
	c0,0.9,0.9,1.1,1.3,1.6c0,0,0.4-0.2,0.6-0.2C403.9,38.6,406.2,38.3,405.6,37.1 M195.7,78.6c0,0.2-0.1,0.4,0,0.4
	c0.5,0.5,1.2,1,1.7,1.5c0.6,0.7,1.4,0.5,2.1,0.5c0.3,0,0.8-0.2,0.8-0.3c0.1-0.5-0.4-0.6-0.8-0.6c-0.6,0.1-0.9-0.3-0.9-0.7
	c0-1-0.6-1.2-1.5-1.1C196.5,78.5,196.1,78.5,195.7,78.6 M256.2,75.5c0.7,0.5,1.4,1.1,2.1,1.7c0.8,0.7,1.7,0.4,2.6,0.3
	c0.1,0,0.2-0.2,0.3-0.3c-0.1-0.1-0.2-0.3-0.3-0.3c-0.9-0.2-2-0.1-1.7-1.4c0-0.1-0.5-0.4-0.7-0.4C257.8,75,257,74.7,256.2,75.5
	 M393,34.9c-0.8,0-1.1,0.2-1.9,1c-0.4,0.4-0.4,1.3,0,1.4c0.4,0.1,1,0.2,1.3,0c0.5-0.3,0.9-0.7,1.3-1.2c0.1-0.2,0.1-0.6,0-0.8
	C393.6,35.2,393.3,35.1,393,34.9 M172.4,91.4c-0.6,0-1.3-0.1-1.9,0c-0.3,0.1-0.5,0.6-0.5,1c0,0.2,0.2,0.6,0.4,0.6
	c1.1,0.3,2.7-0.2,3.3-1.1c0.1-0.1-0.2-0.5-0.3-0.5C173.1,91.4,172.7,91.4,172.4,91.4 M171.1,89.4c-1-0.8-1.9-1.5-2.8-2.2
	c-0.3,0.4-0.7,0.9-1.1,1.4c0.7,0.6,1.2,1.4,2.4,1.2C170,89.6,170.4,89.5,171.1,89.4 M194.9,87.1c-1.1,0-2.2-0.2-2.9,0.9
	c-0.1,0.2-0.2,0.4-0.2,0.6c0.3,0.1,0.6,0.3,0.8,0.2c1.1-0.5,2.1-1.1,3.4-0.9c0.1,0,0.3-0.2,0.3-0.3c-0.1-0.2-0.2-0.5-0.4-0.5
	C195.6,87,195.2,87.1,194.9,87.1 M139.5,89.5c0.1,0.3,0.1,0.5,0.2,0.8c0.2,0.4,0.4,0.3,0.7,0c0.3-0.3,0.7-0.4,1.1-0.6
	c1-0.4,1-0.4,0.4-0.9c-0.3-0.3-0.7-0.6-1-0.8c-0.4-0.3-1.3,0.2-1.4,0.7C139.5,88.9,139.5,89.2,139.5,89.5 M407.5,63.6
	c-0.5,0-1,0-1.4,0c-0.1,0-0.3,0.2-0.3,0.3c-0.1,0.1,0,0.3,0,0.3c1,0.2,1.8,1,2.8,1.2c0.6,0.1,0.9-0.2,0.9-0.7c0-0.4-0.2-0.9-0.5-1
	C408.5,63.5,408,63.6,407.5,63.6 M381.9,71.1c1.4,0.6,2.7,0.5,4,0.1c-0.3-0.3-0.5-0.5-0.7-0.7c-0.1-0.1-0.2-0.2-0.3-0.3
	c-0.9-0.6-1.1-0.7-2,0C382.6,70.4,382.3,70.7,381.9,71.1 M409.5,56.7c0-0.5,0-0.8,0-1.1c0-0.5-1-0.9-1.4-0.7c-0.4,0.2-0.7,0.6-1,0.8
	c-0.1,0.1-0.3,0.2-0.3,0.3c0,0.2,0.1,0.5,0.3,0.6c0.4,0.2,0.9,0.2,1.3,0.3c0.3,0.1,0.5,0.4,0.7,0.6
	C409.2,57.2,409.4,56.9,409.5,56.7 M374.1,72.8c0-0.1,0-0.3,0-0.4c-0.1-0.2-0.2-0.5-0.3-0.7c-0.2,0.1-0.5,0.1-0.7,0.3
	c-0.4,0.3-0.7,0.6-1,0.9c-0.1,0.2-0.2,0.7,0,0.8c0.3,0.2,0.8,0.4,1.2,0.4c0.2,0,0.6-0.2,0.7-0.4C374.2,73.4,374.1,73.1,374.1,72.8
	 M111.2,38.2c0.1,0.1,0.2,0.2,0.4,0.2c0.6,0,1.3,0.1,1.9,0c0.3-0.1,0.5-0.7,0.5-1c0-0.4-0.3-0.7-0.9-0.7c-1,0-1.2,0.8-1.8,1.2
	C111.1,37.9,111.2,38.1,111.2,38.2 M281.9,79.4c-0.2-0.3-0.3-0.7-0.6-0.9c-0.2-0.1-1.5,1.5-1.4,1.9c0.1,0.4,0.4,0.7,1,0.6
	c0.3-0.1,0.7-0.1,0.8-0.3C281.8,80.3,281.8,79.9,281.9,79.4 M273,80.5c0.7,0.7,1.5,0.4,2.2,0.4c0.5,0,0.8-0.3,0.7-0.9
	c-0.1-0.2-0.1-0.6-0.3-0.7c-0.2-0.1-0.7-0.2-0.9-0.1C274.1,79.7,273.6,80.1,273,80.5 M46.6,106.1c-0.4,0.4-0.8,0.8-1.2,1.3
	c-0.2,0.2-0.2,0.5-0.2,0.8c0.1,0.4,0.3,0.8,0.9,0.7c0.3-0.1,0.7-0.1,0.8-0.3C47.2,107.8,47.6,106.9,46.6,106.1 M389.4,68
	c0.2,0,0.3,0,0.5,0c0.6,0.1,0.9-0.2,1-0.6c0-0.4-0.2-0.9-0.5-1c-0.3-0.1-0.9,0.1-1.3,0.2c-0.4,0.2-0.7,0.6-1,0.9
	c-0.1,0.1,0.2,0.5,0.4,0.5C388.7,68,389,68,389.4,68 M136.5,89.6c-0.6,0.1-1.1,0.1-1.5,0.2c-0.2,0.1-0.3,0.4-0.4,0.7
	c-0.1,0.5,0.2,0.8,0.7,0.9c0.5,0.1,2.4-1.1,2.2-1.3C137.3,89.9,136.8,89.8,136.5,89.6 M385.4,79.3c-0.3,0.3-0.7,0.6-1,0.9
	c-0.1,0.2-0.2,0.4-0.3,0.6c0,0.1,0.2,0.2,0.3,0.3c0.6,0,1.3,0,1.9,0c0.1,0,0.3-0.2,0.3-0.3c0-0.2-0.1-0.4-0.3-0.6
	C386.1,79.8,385.8,79.6,385.4,79.3 M444.1,71.4l0.7-0.4c-0.7-0.5-1-1.4-2.2-1.3c-0.3,0-0.5,0.3-0.7,0.4
	C442.6,70.6,442.9,71.6,444.1,71.4 M298.9,80.3c-0.1,0.1-0.2,0.2-0.3,0.3c0.7,0.5,1.1,1.4,2.2,1.3c0.1,0,0.3-0.1,0.4-0.1
	c0.4-0.2,0.4-0.4,0-0.6c-0.5-0.3-0.9-0.7-1.4-1C299.5,80.1,299.2,80.2,298.9,80.3 M194,22.8c-0.3,0-0.6,0-0.9,0
	c-0.1,0-0.3,0.2-0.3,0.3c0,0.1,0,0.3,0,0.3c0.7,0.4,1.8,0.3,2.3,1.1c0.2-0.2,0.4-0.4,0.4-0.7C195.5,22.9,195.2,22.8,194,22.8
	 M258.8,70.6c1,0.3,1.4-0.3,2-0.8c0.5-0.4,0.5-0.8,0-0.9c-0.3,0-0.7-0.1-0.9,0c-0.5,0.3-0.9,0.7-1.3,1.1
	C258.4,70.1,258.7,70.4,258.8,70.6 M270.6,18.4c-0.6,0-1.3,0-1.9,0c-0.1,0-0.3,0.4-0.3,0.6c0,0.1,0.2,0.3,0.3,0.3c1,0,1.9,0,2.9,0
	c0.1,0,0.3-0.4,0.3-0.6c0-0.1-0.2-0.3-0.3-0.3C271.2,18.4,270.9,18.4,270.6,18.4 M93,61c-0.8,0-1.3-0.1-1.8,0
	c-0.3,0-0.5,0.3-0.8,0.4c0.3,0.1,0.5,0.4,0.8,0.4c0.9,0,1.9-0.1,2.8-0.1c0.1,0,0.3-0.2,0.3-0.3s-0.2-0.3-0.3-0.3
	C93.5,61.1,93.1,61,93,61 M160.3,57c0,0.1,0,0.2,0.1,0.3c0.4,0.4,2.2,0.4,2.6-0.1c0.2-0.3,0.1-0.7,0-1.1c0-0.1-0.2-0.2-0.3-0.3
	C162.1,56.7,161,56.5,160.3,57 M306.8,54c-0.3,0.3-0.6,0.6-0.9,0.9c-0.1,0.2-0.2,0.4-0.3,0.6c0.3,0.1,0.5,0.2,0.8,0.3
	c0.5,0,0.9,0,1.4,0c0.1,0,0.3-0.2,0.3-0.2c0-0.2-0.1-0.4-0.2-0.6C307.6,54.6,307.2,54.4,306.8,54 M76.2,98.4c0.3,0,0.6,0,1,0
	c0.1,0,0.3-0.2,0.3-0.3c0.1-0.1,0.1-0.3,0-0.3c-0.7-0.4-1.8-0.3-2.3-1.2c-0.2,0.2-0.4,0.4-0.5,0.7C74.6,98.2,74.9,98.4,76.2,98.4
	 M251.9,89.7c0.3,0,0.6,0,0.9,0c0.1,0,0.3-0.2,0.3-0.3c0.1-0.1,0.1-0.3,0-0.3c-0.7-0.4-1.8-0.3-2.3-1.2c-0.2,0.2-0.4,0.4-0.5,0.7
	C250.4,89.5,250.6,89.7,251.9,89.7 M201.3,77.8c0-0.1,0.1-0.3,0-0.4c-0.1-0.2-0.3-0.4-0.5-0.7c-0.2,0.2-0.4,0.4-0.5,0.7
	c-0.2,0.4-0.2,0.8-0.5,1.1c-0.4,0.4-0.4,0.6,0.1,0.9c0.1,0.1,0.3,0,0.5,0c0.6,0.1,0.9-0.2,0.9-0.7C201.4,78.3,201.3,78,201.3,77.8
	 M357.5,78.9c-0.1,0.9,0.2,1.2,1,1.3c0.6,0,0.9-0.2,1-0.7c0.1-0.7-0.2-1.1-1-1C358,78.5,357.7,78.8,357.5,78.9 M156.2,30.8
	c0.2,0.1,0.4,0.5,0.8,0.6c0.7,0.2,1.2-0.2,1.2-0.9c0-0.5-0.3-0.8-0.8-0.9C156.6,29.6,156.2,29.9,156.2,30.8 M77.6,87.5
	c0.1,0.1,0.3,0.3,0.4,0.3c0.4,0,1,0.2,1.2,0c0.3-0.2,0.3-0.7,0.3-1.1c0-0.1-0.5-0.4-0.6-0.3C78.5,86.7,78.1,87.1,77.6,87.5
	 M224.9,84c0.1,0.1,0.3,0.3,0.4,0.3c0.4,0,1,0.2,1.2,0c0.3-0.2,0.3-0.7,0.3-1.1c0-0.1-0.5-0.4-0.6-0.3
	C225.8,83.2,225.3,83.6,224.9,84 M200.8,82.7c-0.3,0-0.6,0-1,0c-0.1,0-0.3,0.2-0.3,0.3c0.1,0.2,0.2,0.5,0.4,0.5c0.6,0.1,1.3,0,1.9,0
	c0.1,0,0.3-0.2,0.3-0.3c-0.1-0.2-0.2-0.5-0.4-0.5C201.5,82.7,201.2,82.7,200.8,82.7 M181,81.9c-1,0-1.5,0.4-1.2,1.3
	c0.1,0.2,0.5,0.4,0.6,0.3c0.4-0.2,0.7-0.6,1-0.9c0.1-0.1,0.2-0.2,0.3-0.3C181.5,82.2,181.2,82,181,81.9 M310.3,82.8
	c0.3-0.2,0.8-0.3,1-0.6c0.2-0.2,0.1-0.6,0-0.8c-0.3-0.5-0.6-0.4-1,0c-0.2,0.2-0.4,0.4-0.7,0.6c-0.1,0.1-0.2,0.2-0.3,0.3
	C309.6,82.5,309.9,82.6,310.3,82.8 M268,81.4c0.2,0.4,0.3,0.8,0.5,1.1c0,0,0.3,0,0.3,0c0.5-0.5,0.5-1.8,0-2.3c-0.1-0.1-0.3,0-0.3,0
	C268.3,80.7,268.1,81,268,81.4 M58.1,80.9c-0.2-0.3-0.4-0.5-0.6-0.8l-0.3,0.3c-0.2,0.2-0.5,0.4-0.7,0.6c-0.1,0.2-0.2,0.4-0.3,0.6
	c0.4,0.1,0.9,0.3,1.3,0.2C57.8,81.7,57.9,81.2,58.1,80.9 M239.1,81c0.3,0,0.7,0.1,0.9,0c0.2-0.1,0.3-0.3,0.4-0.6
	c0-0.1-0.2-0.3-0.3-0.3c-0.6,0-1.3,0-1.9,0c-0.1,0-0.3,0.3-0.4,0.5c0,0.1,0.2,0.3,0.3,0.3C238.5,81,238.8,81,239.1,81 M382.5,78.4
	c-0.3,0-0.7-0.1-0.9,0c-0.2,0.1-0.3,0.3-0.4,0.6c0,0.1,0.2,0.3,0.3,0.3c0.6,0,1.3,0,1.9,0c0.2,0,0.3-0.3,0.4-0.5
	c0-0.1-0.2-0.3-0.3-0.3C383.1,78.4,382.8,78.4,382.5,78.4 M215,75.7c0.2,0.3,0.3,0.7,0.6,0.9c0.2,0.1,0.7,0.1,0.9,0
	c0.5-0.2,0.4-0.6,0-0.9c-0.2-0.2-0.4-0.4-0.7-0.6c-0.1-0.1-0.2-0.2-0.3-0.2C215.4,75.2,215.2,75.4,215,75.7 M241.1,74.1
	c-0.3,0-0.6,0-1,0c-0.1,0-0.3,0.2-0.3,0.3c0.1,0.2,0.2,0.5,0.4,0.5c0.6,0.1,1.3,0,1.9,0c0.1,0,0.3-0.2,0.3-0.3
	c-0.1-0.2-0.2-0.5-0.4-0.5C241.8,74,241.4,74.1,241.1,74.1 M457.6,71.4c-0.3,0.1-0.5,0.2-0.8,0.3c0.1,0.2,0.2,0.4,0.4,0.6
	c0.2,0.2,0.4,0.4,0.7,0.6c0.1,0.1,0.2,0.2,0.3,0.2c0.2-0.2,0.4-0.4,0.4-0.7C458.6,71.9,458.4,71.4,457.6,71.4 M254.5,70
	c0,0.2,1,1.4,1.3,1.4c0.1,0,0.3-0.2,0.3-0.3c0-0.4,0.2-0.9-0.1-1.1c-0.2-0.2-0.8-0.2-1.2-0.3C254.8,69.7,254.7,69.9,254.5,70
	 M389.3,68.8c-0.3,0.3-0.6,0.6-0.9,0.9c-0.1,0.2-0.2,0.4-0.3,0.6c0.4,0.1,0.9,0.3,1.3,0.2c0.5-0.1,0.7-0.9,0.4-1.4
	C389.6,69,389.5,69,389.3,68.8 M100.7,68.8c-0.3,0.2-0.5,0.4-0.5,0.4c0.1,0.4,0.1,0.9,0.3,1.1c0.3,0.2,0.8,0.1,1.2,0.1
	c0.1,0,0.3-0.3,0.3-0.3C101.7,69.7,101.2,69.3,100.7,68.8 M373.8,67.1c-0.5,0-0.7,0-0.8,0c-0.3,0.1-0.5,0.3-0.8,0.4
	c0.2,0.1,0.5,0.4,0.8,0.4c0.6,0,1.2-0.1,1.8-0.1c0.1,0,0.2-0.2,0.3-0.3c-0.1-0.1-0.2-0.3-0.3-0.3C374.3,67.2,373.9,67.1,373.8,67.1
	 M356.5,67.1c0.3-0.1,0.5-0.2,0.8-0.3c-0.1-0.2-0.2-0.4-0.3-0.6c-0.2-0.2-0.4-0.4-0.7-0.6c-0.1-0.1-0.2-0.2-0.3-0.3
	c-0.2,0.2-0.4,0.4-0.5,0.7C355.4,66.8,355.7,67.1,356.5,67.1 M253.5,59.3c0.4-0.2,0.6-0.4,0.9-0.5c-0.1-0.1-0.2-0.2-0.3-0.3
	c-0.2-0.2-0.4-0.4-0.7-0.6c-0.2-0.1-0.4-0.2-0.7-0.3c-0.1,0.4-0.4,0.8-0.2,1.1C252.6,59.1,253.2,59.2,253.5,59.3 M392.8,43.6
	c0.3-0.1,0.5-0.2,0.8-0.3c-0.1-0.2-0.2-0.4-0.3-0.6c-0.2-0.2-0.4-0.4-0.7-0.6c-0.1-0.1-0.2-0.2-0.3-0.3c-0.2,0.2-0.4,0.4-0.5,0.7
	C391.7,43.3,392,43.6,392.8,43.6 M378.1,41.7c-0.1,0.9,0.5,1.3,1.4,1.1c0.2-0.1,0.4-0.5,0.4-0.5c-0.3-0.3-0.6-0.6-1-0.9
	c-0.1-0.1-0.2-0.2-0.3-0.3C378.4,41.3,378.2,41.5,378.1,41.7 M385.1,37c-0.1,0.6,0.7,0.7,1,1.2c0.1,0.1,0.2,0.2,0.3,0.3
	c0.2-0.2,0.4-0.4,0.5-0.7c0.1-0.9-0.5-1.3-1.4-1.1C385.3,36.7,385.2,36.9,385.1,37 M202.6,21.9c-1,0-1.5,0.4-1.2,1.3
	c0.1,0.2,0.5,0.4,0.6,0.3c0.4-0.2,0.7-0.6,1-0.9c0.1-0.1,0.2-0.2,0.3-0.3C203.1,22.2,202.8,22,202.6,21.9 M313.2,14.9
	c0.2,0.3,0.3,0.7,0.6,0.9c0.2,0.1,0.7,0.1,0.9,0c0.5-0.2,0.4-0.6,0-0.9c-0.2-0.2-0.4-0.4-0.7-0.6c-0.1-0.1-0.2-0.2-0.3-0.2
	C313.6,14.3,313.4,14.6,313.2,14.9 M77.6,102c0.2,0.2,0.5,0.6,0.7,0.6c0.5-0.1,0.5-1.1,0-1.4c-0.1,0-0.3-0.1-0.3,0
	C77.9,101.4,77.8,101.6,77.6,102 M36.6,105.9c0.3,0.4,1.3,0.5,1.6,0c0.1-0.1,0.1-0.2,0-0.3c-0.3-0.4-1.2-0.5-1.6,0
	C36.5,105.7,36.6,105.8,36.6,105.9 M42.6,114.2c-0.1,0.1-0.3,0.2-0.3,0.3s0.2,0.2,0.3,0.3c0.3,0.1,0.6,0.2,0.9,0.1
	c0.3-0.1,0.5-0.3,0.7-0.4c-0.2-0.1-0.5-0.4-0.7-0.4C43.2,114,42.9,114.1,42.6,114.2 M299.4,14.2c0.2,0.3,0.4,0.5,0.6,0.8
	c0.2-0.2,0.5-0.5,0.5-0.7c0-0.4-0.3-0.7-0.5-1.1C299.8,13.6,299.6,13.9,299.4,14.2 M282,15.5c0.3,0.4,1.3,0.5,1.6,0
	c0.1-0.1,0.1-0.2,0-0.3c-0.3-0.4-1.2-0.5-1.6,0C282,15.3,282,15.4,282,15.5 M271.1,15.6c0.1,0.3,0.1,0.5,0.2,0.8
	c0,0.1,0.2,0.2,0.3,0.3c0.2-0.4,0.4-0.7,0.5-1.1c0-0.2-0.3-0.4-0.5-0.7C271.4,15.2,271.2,15.4,271.1,15.6 M223.5,17.1
	c0.8,0.2,1.2,0.4,1.7,0.4c0.2,0,0.5-0.3,0.7-0.4c-0.2-0.1-0.5-0.4-0.7-0.4C224.7,16.7,224.3,16.9,223.5,17.1 M142.6,23.6
	c-0.4,0.2-0.7,0.2-1,0.4c0,0,0,0.2,0,0.3c0.4,0.4,1.4,0.4,1.6,0C143.3,24.1,142.8,23.8,142.6,23.6 M211.3,24.6
	c0.4-0.2,0.6-0.4,0.9-0.5c-0.2-0.1-0.5-0.4-0.7-0.4c-0.4,0-0.8,0.3-1.2,0.4C210.6,24.3,211,24.4,211.3,24.6 M174.3,26.6
	c0.2-0.7,0.5-1.1,0.5-1.5c0-0.2-0.3-0.4-0.5-0.7c-0.2,0.2-0.5,0.4-0.5,0.7C173.9,25.5,174.1,25.9,174.3,26.6 M197.6,26.5
	c0,0.1,0,0.2,0,0.3c0.4,0.4,1.3,0.4,1.6,0c0-0.1,0-0.2,0-0.3C198.8,26.1,197.9,26.1,197.6,26.5 M364.5,29.4c0.3,0.4,1.3,0.5,1.6,0
	c0.1-0.1,0.1-0.2,0-0.3c-0.3-0.4-1.2-0.5-1.6,0C364.5,29.2,364.5,29.3,364.5,29.4 M383.9,30.7c0.2,0.2,0.5,0.6,0.7,0.6
	c0.5-0.1,0.5-1.1,0-1.4c-0.1-0.1-0.3-0.1-0.3,0C384.2,30.1,384.1,30.3,383.9,30.7 M382.1,39.3c0.2-0.2,0.7-0.5,0.6-0.6
	c-0.2-0.5-1.2-0.5-1.6,0c-0.1,0.1-0.1,0.3,0,0.3C381.4,39.1,381.7,39.2,382.1,39.3 M370.4,42c0.2-0.2,0.7-0.5,0.6-0.6
	c-0.2-0.5-1.2-0.5-1.6,0c-0.1,0.1-0.1,0.3,0,0.3C369.6,41.7,369.9,41.8,370.4,42 M259.4,45.4c0.4-0.2,0.6-0.4,0.9-0.5
	c-0.2-0.1-0.5-0.4-0.7-0.4c-0.4,0-0.8,0.3-1.2,0.4C258.7,45.1,259.1,45.3,259.4,45.4 M216.6,48.4c0.8,0.2,1.2,0.4,1.7,0.4
	c0.2,0,0.5-0.3,0.7-0.4c-0.2-0.1-0.5-0.4-0.7-0.4C217.9,48,217.4,48.2,216.6,48.4 M392,53.8c0.3,0.4,1.3,0.5,1.6,0
	c0.1-0.1,0.1-0.2,0-0.3c-0.3-0.4-1.2-0.5-1.6,0C391.9,53.5,392,53.7,392,53.8 M464.6,69.4c0.3,0.4,1.3,0.5,1.6,0
	c0.1-0.1,0.1-0.2,0-0.3c-0.3-0.4-1.2-0.5-1.6,0C464.6,69.2,464.6,69.3,464.6,69.4 M252.5,69.7c-0.4,0.2-0.7,0.2-1,0.4
	c0,0,0,0.2,0,0.3c0.4,0.4,1.4,0.4,1.6,0C253.2,70.1,252.7,69.8,252.5,69.7 M352.5,70.5c0.2,0.4,0.3,0.6,0.4,0.8c0,0,0.2,0,0.3,0
	c0.5-0.3,0.5-1.2,0-1.4C353,69.8,352.7,70.3,352.5,70.5 M401.8,71.4c-0.4,0.2-0.7,0.2-1,0.4c0,0,0,0.2,0,0.3c0.4,0.4,1.4,0.4,1.6,0
	C402.5,71.9,402,71.6,401.8,71.4 M300.6,73.3c0.4-0.2,0.6-0.4,0.9-0.5c-0.2-0.1-0.5-0.4-0.7-0.4c-0.4,0-0.8,0.3-1.2,0.4
	C299.9,72.9,300.3,73.1,300.6,73.3 M350.7,72.3c-0.4,0.2-0.7,0.2-1,0.4c0,0,0,0.2,0,0.3c0.4,0.4,1.4,0.4,1.6,0
	C351.4,72.7,350.9,72.4,350.7,72.3 M136.7,77.6c0.2-0.2,0.7-0.5,0.6-0.6c-0.2-0.5-1.2-0.5-1.6,0c-0.1,0.1-0.1,0.3,0,0.3
	C136,77.3,136.3,77.4,136.7,77.6 M208,76.7c-0.2,0.1-0.5,0.3-0.7,0.4c0.2,0.1,0.5,0.4,0.7,0.4c0.4,0,0.8-0.3,1.2-0.4
	c-0.1-0.1-0.2-0.2-0.3-0.3C208.6,76.7,208.3,76.7,208,76.7 M282,77.6c0.2-0.2,0.7-0.5,0.6-0.6c-0.2-0.5-1.2-0.5-1.6,0
	c-0.1,0.1-0.1,0.3,0,0.3C281.3,77.3,281.6,77.4,282,77.6 M244.7,78.7c0,0.1,0,0.2,0,0.3c0.4,0.4,1.3,0.4,1.6,0c0-0.1,0-0.2,0-0.3
	C246,78.2,245,78.3,244.7,78.7 M229,81c-0.4,0.2-0.7,0.2-1,0.4c0,0,0,0.2,0,0.3c0.4,0.4,1.4,0.4,1.6,0C229.7,81.4,229.2,81.1,229,81
	 M304.6,82.7c-0.4,0.2-0.7,0.2-1,0.4c0,0,0,0.2,0,0.3c0.4,0.4,1.4,0.4,1.6,0C305.3,83.2,304.8,82.9,304.6,82.7 M172.2,88.1
	c-0.5,0.3-0.5,1.1,0,1.4c0.1,0,0.2,0.1,0.3,0c0.5-0.2,0.5-1.1,0-1.4C172.5,88.1,172.3,88.1,172.2,88.1 M255.3,88.7
	c0.2,0.4,0.3,0.6,0.4,0.8c0,0,0.2,0,0.3,0c0.5-0.3,0.5-1.2,0-1.4C255.8,88.1,255.5,88.5,255.3,88.7 M84.5,95
	c0.2,0.2,0.5,0.6,0.7,0.6c0.5-0.1,0.5-1.1,0-1.4c-0.1-0.1-0.3-0.1-0.3,0C84.7,94.4,84.6,94.7,84.5,95 M65.4,99.7
	c0.8,0.2,1.2,0.4,1.7,0.4c0.2,0,0.5-0.3,0.7-0.4c-0.2-0.1-0.5-0.4-0.7-0.4C66.7,99.3,66.3,99.5,65.4,99.7 M42.4,112.6
	c0.1,0.2,0.2,0.4,0.4,0.6c0.1-0.1,0.3-0.2,0.3-0.3c-0.1-0.2-0.2-0.4-0.3-0.6C42.7,112.4,42.6,112.5,42.4,112.6 M64,106.8
	c0.1,0.1,0.2,0.2,0.3,0.3c0.1-0.2,0.3-0.4,0.3-0.6c0-0.1-0.2-0.2-0.3-0.3C64.3,106.4,64.2,106.6,64,106.8 M73.6,105.7
	c-0.1-0.1-0.2-0.2-0.4-0.3c-0.1,0.2-0.3,0.4-0.3,0.6c0,0.1,0.2,0.2,0.3,0.3C73.3,106,73.5,105.8,73.6,105.7 M81.9,100.9
	c0.2-0.1,0.4-0.2,0.6-0.3c-0.1-0.1-0.2-0.3-0.3-0.3c-0.2,0-0.4,0.2-0.7,0.3C81.7,100.7,81.8,100.8,81.9,100.9 M88.4,97.1
	c0.1,0.1,0.2,0.3,0.3,0.3c0.2,0,0.4-0.2,0.7-0.3c-0.1-0.1-0.2-0.3-0.3-0.3C88.9,96.9,88.7,97,88.4,97.1 M166.4,95.9
	c-0.1,0.1-0.2,0.2-0.4,0.3c0.2,0.1,0.4,0.2,0.7,0.3c0.1,0,0.2-0.2,0.3-0.3C166.8,96.1,166.6,96,166.4,95.9 M164.4,95.7
	c0.2-0.1,0.4-0.2,0.6-0.3c-0.1-0.1-0.2-0.3-0.3-0.3c-0.2,0-0.4,0.2-0.7,0.3C164.2,95.4,164.3,95.5,164.4,95.7 M26.2,95
	c-0.2,0.1-0.4,0.2-0.6,0.3c0.1,0.1,0.2,0.3,0.3,0.3c0.2,0,0.4-0.2,0.7-0.3C26.5,95.3,26.4,95.2,26.2,95 M161.7,93.3
	c-0.2,0.1-0.4,0.2-0.6,0.3c0.1,0.1,0.2,0.3,0.3,0.3c0.2,0,0.4-0.2,0.7-0.3C162,93.5,161.9,93.4,161.7,93.3 M32.6,93.7
	c0.1,0.1,0.2,0.2,0.3,0.3c0.1-0.2,0.3-0.4,0.3-0.6c0-0.1-0.2-0.2-0.3-0.3C32.9,93.4,32.7,93.6,32.6,93.7 M241.3,90.7
	c-0.2,0.1-0.4,0.2-0.6,0.3c0.1,0.1,0.2,0.3,0.3,0.3c0.2,0,0.4-0.2,0.7-0.3C241.5,90.9,241.4,90.8,241.3,90.7 M130,91.3
	c0.2-0.1,0.4-0.2,0.6-0.3c-0.1-0.1-0.2-0.3-0.3-0.3c-0.2,0-0.4,0.2-0.7,0.3C129.8,91.1,129.9,91.2,130,91.3 M287.9,90.3
	c0.1,0.1,0.2,0.2,0.3,0.3c0.1-0.2,0.3-0.4,0.3-0.6c0-0.1-0.2-0.2-0.3-0.3C288.1,89.9,288,90.1,287.9,90.3 M237.2,88.8
	c0.1-0.1,0.3-0.2,0.3-0.3c-0.1-0.2-0.2-0.4-0.3-0.6c-0.1,0.1-0.3,0.2-0.3,0.3C236.9,88.5,237.1,88.6,237.2,88.8 M235.4,88.1
	c-0.2,0.1-0.4,0.2-0.6,0.3c0.1,0.1,0.2,0.3,0.3,0.3c0.2,0,0.4-0.2,0.7-0.3C235.6,88.3,235.5,88.2,235.4,88.1 M144.1,87.2
	c-0.2,0.1-0.4,0.2-0.6,0.3c0.1,0.1,0.2,0.3,0.3,0.3c0.2,0,0.4-0.2,0.7-0.3C144.3,87.4,144.2,87.3,144.1,87.2 M165.5,87.1
	c0.1-0.1,0.3-0.2,0.3-0.3c-0.1-0.2-0.2-0.4-0.3-0.6c-0.1,0.1-0.3,0.2-0.3,0.3C165.3,86.7,165.4,86.9,165.5,87.1 M80.7,86.5
	c0.1,0.2,0.2,0.4,0.3,0.6c0.1-0.1,0.3-0.2,0.3-0.3c-0.1-0.2-0.2-0.4-0.3-0.6C81,86.3,80.9,86.4,80.7,86.5 M94.5,85.7
	c0.1,0.2,0.2,0.4,0.4,0.6c0.1-0.1,0.3-0.2,0.3-0.3c-0.1-0.2-0.2-0.4-0.3-0.6C94.7,85.5,94.6,85.6,94.5,85.7 M244.7,84.8
	c0.1,0.2,0.2,0.4,0.3,0.6c0.1-0.1,0.3-0.2,0.3-0.3c-0.1-0.2-0.2-0.4-0.3-0.6C244.9,84.6,244.8,84.7,244.7,84.8 M267.6,84.5
	c0.1-0.1,0.3-0.2,0.3-0.3c-0.1-0.2-0.2-0.4-0.3-0.6c-0.1,0.1-0.3,0.2-0.3,0.3C267.4,84.1,267.5,84.3,267.6,84.5 M263.7,84.5
	c0.1-0.1,0.3-0.2,0.3-0.3c-0.1-0.2-0.2-0.4-0.3-0.6c-0.1,0.1-0.3,0.2-0.3,0.3C263.4,84.1,263.6,84.3,263.7,84.5 M169.6,83.7
	c-0.2,0.1-0.4,0.2-0.6,0.3c0.1,0.1,0.2,0.3,0.3,0.3c0.2,0,0.4-0.2,0.7-0.3C169.8,84,169.7,83.9,169.6,83.7 M164.2,84.2
	c0.1,0.1,0.2,0.2,0.4,0.3c0.1-0.2,0.3-0.4,0.3-0.6c0-0.1-0.2-0.2-0.3-0.3C164.4,83.8,164.3,84,164.2,84.2 M365.6,82
	c-0.1,0.1-0.2,0.2-0.3,0.3c0.2,0.1,0.4,0.2,0.7,0.3c0.1,0,0.2-0.2,0.3-0.3C366.1,82.2,365.9,82.1,365.6,82 M245.2,80.9
	c0.1-0.1,0.2-0.2,0.3-0.3c-0.2-0.1-0.4-0.2-0.7-0.3c-0.1,0-0.2,0.2-0.3,0.3C244.8,80.7,245,80.8,245.2,80.9 M367.3,79.7
	c0.1,0.1,0.2,0.3,0.3,0.3c0.2,0,0.4-0.2,0.7-0.3c-0.1-0.1-0.2-0.3-0.3-0.3C367.7,79.5,367.5,79.6,367.3,79.7 M314.1,79.6
	c-0.1-0.1-0.2-0.2-0.3-0.3c-0.1,0.2-0.3,0.4-0.3,0.6c0,0.1,0.2,0.2,0.3,0.3C313.9,80,314,79.8,314.1,79.6 M311.4,79.8
	c0.1,0.1,0.2,0.2,0.4,0.3c0.1-0.2,0.3-0.4,0.3-0.6c0-0.1-0.2-0.2-0.3-0.3C311.7,79.5,311.6,79.6,311.4,79.8 M232.9,79.6
	c0.1,0.2,0.2,0.4,0.4,0.6c0.1-0.1,0.3-0.2,0.3-0.3c-0.1-0.2-0.2-0.4-0.3-0.6C233.1,79.4,233,79.5,232.9,79.6 M61,78.8
	c0.1,0.1,0.2,0.3,0.3,0.3c0.2,0,0.4-0.2,0.7-0.3c-0.1-0.1-0.2-0.3-0.3-0.3C61.4,78.6,61.2,78.7,61,78.8 M389.8,78
	c0.1,0.1,0.2,0.3,0.3,0.3c0.2,0,0.4-0.2,0.7-0.3c-0.1-0.1-0.2-0.3-0.3-0.3C390.3,77.7,390.1,77.9,389.8,78 M295.5,77.8
	c-0.1-0.1-0.2-0.2-0.4-0.3c-0.1,0.2-0.3,0.4-0.3,0.6c0,0.1,0.2,0.2,0.3,0.3C295.2,78.2,295.3,78,295.5,77.8 M221.1,78.1
	c0.1,0.1,0.2,0.2,0.3,0.3c0.1-0.2,0.3-0.4,0.3-0.6c0-0.1-0.2-0.2-0.3-0.3C221.4,77.7,221.2,77.9,221.1,78.1 M416.2,76.1
	c-0.1-0.1-0.2-0.2-0.3-0.3c-0.1,0.2-0.3,0.4-0.3,0.6c0,0.1,0.2,0.2,0.3,0.3C416,76.5,416.1,76.3,416.2,76.1 M408,75.8
	c0.1-0.1,0.3-0.2,0.3-0.3c-0.1-0.2-0.2-0.4-0.3-0.6c-0.1,0.1-0.3,0.2-0.3,0.3C407.8,75.4,407.9,75.6,408,75.8 M463.8,74.8
	c0.2-0.1,0.4-0.2,0.6-0.3c-0.1-0.1-0.2-0.3-0.3-0.3c-0.2,0-0.4,0.2-0.7,0.3C463.6,74.6,463.7,74.7,463.8,74.8 M385.1,74.4
	c0.1,0.2,0.2,0.4,0.4,0.6c0.1-0.1,0.3-0.2,0.3-0.3c-0.1-0.2-0.2-0.4-0.3-0.6C385.3,74.2,385.2,74.2,385.1,74.4 M408.6,73.5
	c0.1,0.2,0.2,0.4,0.3,0.6c0.1-0.1,0.3-0.2,0.3-0.3c-0.1-0.2-0.2-0.4-0.3-0.6C408.9,73.3,408.8,73.4,408.6,73.5 M82.7,73.5
	c0.1,0.2,0.2,0.4,0.4,0.6c0.1-0.1,0.3-0.2,0.3-0.3c-0.1-0.2-0.2-0.4-0.3-0.6C82.9,73.3,82.8,73.4,82.7,73.5 M347.6,72.8
	c0.1,0.1,0.2,0.3,0.3,0.3c0.2,0,0.4-0.2,0.7-0.3c-0.1-0.1-0.2-0.3-0.3-0.3C348.1,72.5,347.8,72.7,347.6,72.8 M241.5,72.9
	c-0.1-0.2-0.2-0.4-0.4-0.6c-0.1,0.1-0.3,0.2-0.3,0.3c0.1,0.2,0.2,0.4,0.3,0.6C241.2,73.1,241.3,73,241.5,72.9 M304.4,71.9
	c0.1,0.1,0.2,0.3,0.3,0.3c0.2,0,0.4-0.2,0.7-0.3c-0.1-0.1-0.2-0.3-0.3-0.3C304.9,71.7,304.7,71.8,304.4,71.9 M412.4,71
	c0.1,0.1,0.2,0.3,0.3,0.3c0.2,0,0.4-0.2,0.7-0.3c-0.1-0.1-0.2-0.3-0.3-0.3C412.9,70.8,412.6,70.9,412.4,71 M338.8,71
	c0.1,0.1,0.2,0.3,0.3,0.3c0.2,0,0.4-0.2,0.7-0.3c-0.1-0.1-0.2-0.3-0.3-0.3C339.2,70.8,339,70.9,338.8,71 M98.6,70.7
	c-0.1,0.1-0.2,0.2-0.4,0.3c0.2,0.1,0.4,0.2,0.7,0.3c0.1,0,0.2-0.2,0.3-0.3C99,70.9,98.8,70.8,98.6,70.7 M325.9,70.3
	c-0.1-0.2-0.2-0.4-0.3-0.6c-0.1,0.1-0.3,0.2-0.3,0.3c0.1,0.2,0.2,0.4,0.3,0.6C325.6,70.5,325.8,70.4,325.9,70.3 M81.6,70.1
	c0.1,0.1,0.2,0.3,0.3,0.3c0.2,0,0.4-0.2,0.7-0.3c-0.1-0.1-0.2-0.3-0.3-0.3C82,69.9,81.8,70,81.6,70.1 M84.2,69
	c-0.2,0.1-0.4,0.2-0.6,0.3c0.1,0.1,0.2,0.3,0.3,0.3c0.2,0,0.4-0.2,0.7-0.3C84.4,69.2,84.3,69.1,84.2,69 M454,68.7
	c0.2-0.1,0.4-0.2,0.6-0.3c-0.1-0.1-0.2-0.3-0.3-0.3c-0.2,0-0.4,0.2-0.7,0.3C453.8,68.5,453.9,68.6,454,68.7 M400.5,68.5
	c-0.1-0.2-0.2-0.4-0.4-0.6c-0.1,0.1-0.3,0.2-0.3,0.3c0.1,0.2,0.2,0.4,0.3,0.6C400.3,68.7,400.4,68.6,400.5,68.5 M447.9,67.7
	c0.1,0.1,0.2,0.2,0.3,0.3c0.1-0.2,0.3-0.4,0.3-0.6c0-0.1-0.2-0.2-0.3-0.3C448.1,67.3,448,67.5,447.9,67.7 M377.6,68
	c0.1-0.1,0.3-0.2,0.3-0.3c-0.1-0.2-0.2-0.4-0.3-0.6c-0.1,0.1-0.3,0.2-0.3,0.3C377.3,67.6,377.5,67.8,377.6,68 M111.9,67.7
	c-0.1-0.2-0.2-0.4-0.4-0.6c-0.1,0.1-0.3,0.2-0.3,0.3c0.1,0.2,0.2,0.4,0.3,0.6C111.6,67.9,111.7,67.8,111.9,67.7 M468.7,66.4
	c-0.1,0.1-0.2,0.2-0.4,0.3c0.2,0.1,0.4,0.2,0.7,0.3c0.1,0,0.2-0.2,0.3-0.3C469.2,66.6,468.9,66.5,468.7,66.4 M446.2,67
	c0.2-0.1,0.4-0.2,0.6-0.3c-0.1-0.1-0.2-0.3-0.3-0.3c-0.2,0-0.4,0.2-0.7,0.3C445.9,66.8,446,66.9,446.2,67 M420.6,65.5
	c-0.1,0.1-0.2,0.2-0.4,0.3c0.2,0.1,0.4,0.2,0.7,0.3c0.1,0,0.2-0.2,0.3-0.3C421,65.7,420.8,65.6,420.6,65.5 M316.6,66.1
	c0.2-0.1,0.4-0.2,0.6-0.3c-0.1-0.1-0.2-0.3-0.3-0.3c-0.2,0-0.4,0.2-0.7,0.3C316.3,65.9,316.4,66,316.6,66.1 M79,64.6
	c-0.1,0.1-0.2,0.2-0.4,0.3c0.2,0.1,0.4,0.2,0.7,0.3c0.1,0,0.2-0.2,0.3-0.3C79.4,64.8,79.2,64.7,79,64.6 M415.4,57.1
	c0.1,0.1,0.2,0.3,0.3,0.3c0.2,0,0.4-0.2,0.7-0.3c-0.1-0.1-0.2-0.3-0.3-0.3C415.8,56.9,415.6,57,415.4,57.1 M196.6,50
	c0.1,0.2,0.2,0.4,0.3,0.6c0.1-0.1,0.3-0.2,0.3-0.3c-0.1-0.2-0.2-0.4-0.3-0.6C196.8,49.8,196.7,49.9,196.6,50 M416,46.4
	c-0.2,0.1-0.4,0.2-0.6,0.3c0.1,0.1,0.2,0.3,0.3,0.3c0.2,0,0.4-0.2,0.7-0.3C416.2,46.6,416.1,46.5,416,46.4 M255.2,45.1
	c-0.1-0.2-0.2-0.4-0.3-0.6c-0.1,0.1-0.3,0.2-0.3,0.3c0.1,0.2,0.2,0.4,0.3,0.6C255,45.3,255.1,45.2,255.2,45.1 M406.9,36.8
	c-0.1,0.1-0.2,0.2-0.4,0.3c0.2,0.1,0.4,0.2,0.7,0.3c0.1,0,0.2-0.2,0.3-0.3C407.3,37,407.1,36.9,406.9,36.8 M399.8,37
	c0.1,0.2,0.2,0.4,0.3,0.6c0.1-0.1,0.3-0.2,0.3-0.3c-0.1-0.2-0.2-0.4-0.3-0.6C400,36.8,399.9,36.9,399.8,37 M373.6,34.9
	c0.1-0.1,0.3-0.2,0.3-0.3c-0.1-0.2-0.2-0.4-0.3-0.6c-0.1,0.1-0.3,0.2-0.3,0.3C373.4,34.6,373.5,34.7,373.6,34.9 M383,33.6
	c0.1,0.1,0.2,0.3,0.3,0.3c0.2,0,0.4-0.2,0.7-0.3c-0.1-0.1-0.2-0.3-0.3-0.3C383.4,33.4,383.2,33.5,383,33.6 M151.9,31.6
	c-0.2,0.1-0.4,0.2-0.6,0.3c0.1,0.1,0.2,0.3,0.3,0.3c0.2,0,0.4-0.2,0.7-0.3C152.2,31.8,152,31.7,151.9,31.6 M386.3,30.7
	c-0.1,0.1-0.2,0.2-0.3,0.3c0.2,0.1,0.4,0.2,0.7,0.3c0.1,0,0.2-0.2,0.3-0.3C386.7,30.9,386.5,30.8,386.3,30.7 M405.6,29.3
	c0.1,0.1,0.2,0.3,0.3,0.3c0.2,0,0.4-0.2,0.7-0.3c-0.1-0.1-0.2-0.3-0.3-0.3C406,29.1,405.8,29.2,405.6,29.3 M306.7,28.1
	c-0.1,0.1-0.2,0.2-0.4,0.3c0.2,0.1,0.4,0.2,0.7,0.3c0.1,0,0.2-0.2,0.3-0.3C307.2,28.3,307,28.2,306.7,28.1 M208.6,26.4
	c-0.1,0.1-0.2,0.2-0.4,0.3c0.2,0.1,0.4,0.2,0.7,0.3c0.1,0,0.2-0.2,0.3-0.3C209,26.6,208.8,26.5,208.6,26.4 M387.2,22.9
	c-0.1,0.1-0.2,0.2-0.4,0.3c0.2,0.1,0.4,0.2,0.7,0.3c0.1,0,0.2-0.2,0.3-0.3C387.7,23.1,387.5,23,387.2,22.9 M229.7,20.7
	c-0.1-0.2-0.2-0.4-0.4-0.6c-0.1,0.1-0.3,0.2-0.3,0.3c0.1,0.2,0.2,0.4,0.3,0.6C229.4,20.9,229.5,20.8,229.7,20.7 M257.4,19.9
	c0.1,0.1,0.2,0.2,0.4,0.3c0.1-0.2,0.3-0.4,0.3-0.6c0-0.1-0.2-0.2-0.3-0.3C257.7,19.5,257.6,19.7,257.4,19.9 M285.3,18.4
	c0.1-0.1,0.3-0.2,0.3-0.3c-0.1-0.2-0.2-0.4-0.3-0.6c-0.1,0.1-0.3,0.2-0.3,0.3C285,18,285.2,18.2,285.3,18.4"/>
</svg>
