<?xml version="1.0" encoding="utf-8"?>
<!-- Generator: Adobe Illustrator 22.0.1, SVG Export Plug-In . SVG Version: 6.00 Build 0)  -->
<svg version="1.1" id="圖層_1" xmlns="http://www.w3.org/2000/svg" xmlns:xlink="http://www.w3.org/1999/xlink" x="0px" y="0px"
	 viewBox="0 0 383.7 379" style="enable-background:new 0 0 383.7 379;" xml:space="preserve">
<style type="text/css">
	.st0{display:none;}
	.st1{display:inline;fill:#036DC4;}
	.st2{display:inline;}
	.st3{fill:#FDFDFD;}
	.st4{display:inline;fill:#FF3C6E;}
	.st5{display:inline;fill:#FDFDFD;}
	.st6{display:inline;fill:#FFDE6E;}
	.st7{display:inline;fill:#102236;}
	.st8{fill-rule:evenodd;clip-rule:evenodd;fill:#654337;}
	.st9{fill-rule:evenodd;clip-rule:evenodd;fill:#82594A;}
	.st10{fill-rule:evenodd;clip-rule:evenodd;fill:#BFDDE0;}
	.st11{fill-rule:evenodd;clip-rule:evenodd;fill:#ACCFC0;}
	.st12{fill-rule:evenodd;clip-rule:evenodd;fill:#F7CA4F;}
	.st13{fill-rule:evenodd;clip-rule:evenodd;fill:#FCF0E0;}
	.st14{fill-rule:evenodd;clip-rule:evenodd;fill:#F7A37F;}
	.st15{fill-rule:evenodd;clip-rule:evenodd;fill:#FEFEFE;}
	.st16{fill-rule:evenodd;clip-rule:evenodd;fill:#805F4D;}
	.st17{display:none;fill-rule:evenodd;clip-rule:evenodd;fill:#F1A035;}
	.st18{display:none;fill-rule:evenodd;clip-rule:evenodd;fill:#FCBD6A;}
	.st19{fill-rule:evenodd;clip-rule:evenodd;fill:#E87E51;}
	.st20{display:none;fill-rule:evenodd;clip-rule:evenodd;fill:#FFD194;}
</style>
<g class="st0">
	
		<ellipse transform="matrix(0.7071 -0.7071 0.7071 0.7071 -78.2313 190.7497)" class="st1" cx="191.1" cy="189.8" rx="167.1" ry="167.1"/>
	<g class="st2">
		<path class="st3" d="M138.7,171.4h-28.7c-5.3,0-9.7,4.4-9.7,9.7v79.7c0,5.3,4.4,9.7,9.7,9.7h28.7c5.3,0,9.7-4.4,9.7-9.7v-79.7
			C148.3,175.7,144,171.4,138.7,171.4z"/>
		<path class="st3" d="M268.5,180.7h-1.7c8.4,0,15.3-6.9,15.3-15.3c0-8.4-6.9-15.3-15.3-15.3h-49.1c6.1-9.5,14.3-24.7,14.3-37.2
			c0-19.7-10.8-30.6-17.8-31.9c-7-1.2-12.2,2.5-14.2,8.4c-2,5.9,1.6,17.2,0.2,21.2c-2.1,6.2-13,14.5-27.7,33.3
			c-13.1,16.8-11.2,36.7-11.2,36.7v27.2v27.2v12.7c0,5.2,4.3,9.5,9.5,9.5h91.2c6.1,0,11.1-5,11.1-11.1c0-6.1-5-11.1-11.1-11.1h1.6
			c7.5,0,13.6-6.1,13.6-13.6c0-7.5-6.1-13.6-13.6-13.6h5c7.5,0,13.6-6.1,13.6-13.6C282,186.9,275.9,180.7,268.5,180.7z"/>
	</g>
</g>
<g class="st0">
	
		<ellipse transform="matrix(0.7071 -0.7071 0.7071 0.7071 -78.2793 190.6337)" class="st4" cx="191" cy="189.8" rx="167.1" ry="167.1"/>
	<path class="st5" d="M288.8,166.4c0-32.8-25.3-56.2-51.1-56.2c-21.7,0-41.1,14.5-46.7,34.4c-5.6-20-25-34.4-46.7-34.4
		c-25.8,0-51.1,23.4-51.1,56.2c0,49.7,76.2,106.6,95,112.5c0.4,0.1,0.7,0.2,1.1,0.3c0.6,0.1,1.1,0.2,1.5,0.2c0,0,0.1,0,0.1,0
		c0,0,0.1,0,0.1,0c0.4,0,1-0.1,1.5-0.2c0.4-0.1,0.7-0.2,1.1-0.3C212.6,272.9,288.8,216.1,288.8,166.4z"/>
</g>
<g class="st0">
	<circle class="st6" cx="191" cy="190.2" r="167.1"/>
	<path class="st7" d="M274.3,242.6c2.4,37.7-14,69.4-36.7,70.9c-22.7,1.5-43.1-27.9-45.5-65.6c-2.4-37.7,14-69.4,36.7-70.9
		C251.5,175.5,271.9,204.9,274.3,242.6z"/>
	
		<ellipse transform="matrix(0.998 -6.399637e-02 6.399637e-02 0.998 -7.66 19.4861)" class="st7" cx="300.3" cy="129.3" rx="24.6" ry="34"/>
	
		<ellipse transform="matrix(6.399637e-02 -0.998 0.998 6.399637e-02 4.3889 286.1118)" class="st7" cx="154.7" cy="140.7" rx="34" ry="24.6"/>
	<path class="st7" d="M130.5,96c-1.7,0-3.4-0.6-4.8-1.8c-3-2.7-3.4-7.2-0.7-10.3c1.2-1.3,11.8-13.2,26.3-14.7
		c14.5-1.5,26.8,7,27.3,7.4c3.3,2.3,4.1,6.9,1.8,10.2c-2.3,3.3-6.9,4.1-10.2,1.8c-0.1,0-8.4-5.7-17.4-4.8
		c-7.4,0.8-14.6,7.3-16.8,9.7C134.5,95.2,132.5,96,130.5,96z"/>
	<path class="st7" d="M318.4,82.6c1.7,0,3.4-0.6,4.8-1.8c3-2.7,3.4-7.2,0.7-10.3c-1.2-1.3-11.8-13.2-26.3-14.7
		c-14.5-1.5-26.8,7-27.3,7.4c-3.3,2.3-4.1,6.9-1.8,10.2c2.3,3.3,6.9,4.1,10.2,1.8c0.1,0,8.4-5.7,17.4-4.8c7.4,0.8,14.6,7.3,16.8,9.7
		C314.4,81.7,316.4,82.6,318.4,82.6z"/>
</g>
<g class="st0">
	
		<ellipse transform="matrix(0.7071 -0.7071 0.7071 0.7071 -78.313 190.5523)" class="st6" cx="190.9" cy="189.8" rx="167.1" ry="167.1"/>
	<path class="st7" d="M293.6,148.2l-26.4-13.3l26.4-13.3c3.9-2,5.5-6.8,3.5-10.7c-2-3.9-6.8-5.5-10.7-3.5l-39.6,20
		c-2.9,1.5-4.5,4.4-4.4,7.5c0,0,0,0.1,0,0.1c0,0,0,0.1,0,0.1c-0.1,3,1.5,6,4.4,7.5l39.6,20c1.2,0.6,2.4,0.9,3.6,0.9
		c2.9,0,5.7-1.6,7.1-4.4C299.2,155,297.6,150.2,293.6,148.2z"/>
	<path class="st7" d="M90.5,148.2l26.4-13.3l-26.4-13.3c-3.9-2-5.5-6.8-3.5-10.7c2-3.9,6.8-5.5,10.7-3.5l39.6,20
		c2.9,1.5,4.5,4.4,4.4,7.5c0,0,0,0.1,0,0.1c0,0,0,0.1,0,0.1c0.1,3-1.5,6-4.4,7.5l-39.6,20c-1.2,0.6-2.4,0.9-3.6,0.9
		c-2.9,0-5.7-1.6-7.1-4.4C85,155,86.6,150.2,90.5,148.2z"/>
	<path class="st7" d="M78.6,196c0,58.5,49.6,105.9,110.8,105.9c61.2,0,110.8-47.4,110.8-105.9H78.6z"/>
	<path class="st4" d="M288.8,242.8c-27-11.9-61.6-19.1-99.4-19.1S117,230.9,90,242.8c18.1,35,55.8,59.1,99.4,59.1
		C233,301.9,270.7,277.8,288.8,242.8z"/>
</g>
<g>
	<path class="st8" d="M282.7,288.7c3.5,4,9.6,16.5,18.6,24.6c7.8,7,18.3,10,25,9.8c9.8-0.4,12,5.3,11.4,6.4
		c-0.8,1.6-2.8-0.6-7.1-1.9c-0.1,0,8.1,18.1-5.3,2.2c0.7,6.3,0.4,17.3-4.7,0.1c-33.3-8-38.6-29.9-43.7-39.3
		C276.3,289.6,282.3,288.3,282.7,288.7L282.7,288.7z"/>
	<path class="st9" d="M122.5,273.5c-2.9,4.4-7.3,17.7-15.1,26.9c-6.8,8-16.8,12.4-23.5,13.1c-9.7,1-11.2,6.9-10.4,7.9
		c1,1.5,2.7-0.9,6.8-2.8c0.1-0.1-5.6,19,5.6,1.5c0.2,6.3,1.9,17.2,4.6-0.5c31.9-12.4,34.2-34.9,38-44.9
		C129,273.5,122.8,273,122.5,273.5L122.5,273.5z"/>
	<path class="st10" d="M118.2,157.6c-9.2-24-42.8-53-69-60.9c-20-6.1-40.3,1.6-35.7,19.2c7.7,29.5,72.7,50.7,99,52.8
		C115.4,166.6,117.5,163,118.2,157.6L118.2,157.6z"/>
	<path class="st11" d="M119.6,159.1c2.7-28.3-16.4-73.5-38.4-94.2c-16.8-15.8-40.7-18.2-44.8,1.4c-6.9,33,47.1,85.9,72.1,100.9
		C112.5,166.6,116.2,164.1,119.6,159.1L119.6,159.1z"/>
	<path class="st10" d="M268.4,127.7c8.8-24.2,41.9-53.7,67.9-62.1c19.9-6.4,40.3,0.9,36.1,18.5c-7.2,29.6-71.9,52-98.1,54.5
		C271.3,136.6,269.2,133.1,268.4,127.7L268.4,127.7z"/>
	<path class="st11" d="M267,129.2c-3.2-28.2,15.1-73.7,36.7-94.8c16.5-16.1,40.4-19,44.8,0.6c7.4,32.8-45.6,86.7-70.4,102.1
		C274.2,136.6,270.4,134.2,267,129.2L267,129.2z"/>
	<path class="st12" d="M173,105.7c-31.8,9.8-58.2,33.5-75.9,60.9C73.7,203,76,261.9,90.8,287.4c35.4,61,83.6,68,129.4,62.5
		c97.6-11.6,178.2-127.6,58-233.2C264.5,104.6,236.6,94.6,173,105.7L173,105.7z"/>
	<path class="st13" d="M178.9,193.5c26.9,5.1,24.5,36.7,4.3,45.2c-14,5.9-31.1-0.3-32.1-17.8C150,202.9,159.4,189.8,178.9,193.5
		L178.9,193.5z"/>
	<path class="st8" d="M170.7,193.5c18.8,0.3,16.6,36,2.9,44.4c-4.7,2.9-8.9,2.1-13-0.9c-4.2-2.9-7.4-8.1-8.6-16.6
		C149.7,205.2,162,193.3,170.7,193.5L170.7,193.5z"/>
	<path class="st13" d="M295.5,176.5c25.4,4.8,23.2,34.6,4.1,42.7c-13.2,5.6-29.4-0.3-30.4-16.8C268.2,185.4,277.1,173,295.5,176.5
		L295.5,176.5z"/>
	<path class="st8" d="M288,176.5c18.1,5.1,16.6,34,2.9,41.9c-4.7,2.7-8.9,2-13-0.8c-4.2-2.8-8.3-7.6-8.7-15.7
		C268.6,187,278,173.7,288,176.5L288,176.5z"/>
	<path class="st8" d="M251.2,204.4c-3-3.9-2.1,5.4-4.8,8.9c-3.3,4.2-7.5,4.6-10.6,2.7c-3.5-2.1-5.8-6.8-7.2-7.5
		c-4.7-2.2,2.5,18.1,16.2,12C252,217.3,253.7,207.7,251.2,204.4L251.2,204.4z"/>
	<path class="st14" d="M146.6,255.7c1.4-11.4,17-12.4,22.2-4.5c1.8,2.7,1.7,5.3,0.5,8.1c-1.2,2.7-3.5,5.6-7.8,6.3
		C152.7,267.2,146,260.4,146.6,255.7L146.6,255.7z"/>
	<path class="st14" d="M289,240.1c1.4-11.4,17-12.4,22.2-4.5c1.8,2.7,1.7,5.3,0.5,8.1c-1.2,2.7-3.5,5.6-7.8,6.3
		C295.1,251.6,288.4,244.8,289,240.1L289,240.1z"/>
	<path class="st15" d="M163.8,201.8c4.5,0.1,3.9,8.6,0.7,10.6c-1.1,0.7-2.1,0.5-3.1-0.2c-1-0.7-1.8-1.9-2.1-4
		C158.7,204.6,161.7,201.7,163.8,201.8L163.8,201.8z"/>
	<path class="st15" d="M280.4,183.1c4.5,0.1,4,8.6,0.7,10.6c-1.1,0.7-2.1,0.5-3.1-0.2c-1-0.7-1.8-1.9-2.1-4
		C275.3,185.9,278.3,183,280.4,183.1L280.4,183.1z"/>
	<path class="st16" d="M318.4,163.6c-43.2-42.1-78.3-26-92.1-15.4c-101.7-40.6-147.9,93.1-62.9,170.1c9.6,8.7,45.3,28.6,70.5,29.9
		c-20.6,2.9-30.7,3.2-51.7,1.1c-50.4-4.9-86.4-62.2-92.8-105.8c-8-54.8,28.8-113.3,72.8-133.9c18.2-8.5,65.4-13.6,95.9-3.1
		C292.3,118.2,318.7,163.9,318.4,163.6L318.4,163.6z"/>
	<path class="st17" d="M263.8,233.3c4.4,4.1,10.4,12,19.5,21.6c1.3,2.7,2.9,21.6,2.4,33.5c-2.6,5.9-10,14.5-19.9,22.6
		c-9.8,0.3-25.5,2.5-34.6,0.1c-8.9-8.7-11.5-11.8-19.4-20.4c0,0-4.2-21.3-1.6-32.3c2.1-8.7,14.7-16.6,17.9-23
		C236.3,232.8,253.8,233.4,263.8,233.3L263.8,233.3z"/>
	<path class="st18" d="M261.5,238.9c3.8,3.6,8.9,10.3,16.8,18.6c1.1,2.3,2.5,18.6,2.1,28.9c-2.2,5-8.6,12.4-17.1,19.4
		c-8.4,0.2-22,2.2-29.8,0.1c-7.6-7.5-9.9-10.1-16.7-17.5c0,0-3.7-18.3-1.4-27.8c1.8-7.5,12.6-14.2,15.4-19.8
		C237.9,238.4,252.9,238.9,261.5,238.9L261.5,238.9z"/>
	<path class="st19" d="M218.9,280.6c-11.2-28.4,11.4-42.9,29-29.1c14.8-16.2,39.2-6.1,33.5,23.7c-2.3,11.8-12,25.2-27.6,31.7
		C231.6,304.3,223.2,291.5,218.9,280.6L218.9,280.6z"/>
	<path class="st20" d="M259.6,243.7c1.9,0.6,4.7,4.9,11.4,13.5c6.6,8.5,2.9,8.8-6.8,4.2c-13.5-6.3-15.9-7.3-22-11.8
		c-3.4-2.5-5.1-5.2-3.9-5.3C243.4,243.6,257.1,242.9,259.6,243.7L259.6,243.7z"/>
	<path class="st8" d="M328.9,271.8c1.4,9.5-9.8,9.5-21.9,10.2c-10.5,0.6-20.6-3.6-25.7-8c-13.1-11.3-15.8-9.3-6.2,0.9
		c0.1,0.1-17.6,9.1,2.7,5.1c-4.4,4.5-11.2,13.3,3.5,3c37,17.4,51.5,7.7,54.1-1.1c1.9-6.4-1.5-18-3.9-18.4
		C331.7,263.4,328.8,270.8,328.9,271.8L328.9,271.8z"/>
	<path class="st8" d="M158.9,310.8c5-1.6,19-2.1,30-7.2c9.6-4.4,16.6-12.8,19-19c3.7-9.5,10.1-11.4,10.9-10.1c0.6,0.9-3.4,2.4-5,8
		c0,0.1,19.8-0.1-0.1,5.8c6,1.9,16.1,6.5-1.7,4.3c-20.7,27.2-42.9,23.3-53.6,24.3C157.1,317,158.3,311,158.9,310.8L158.9,310.8z"/>
	<path class="st8" d="M281.1,58.1c1.9-19-19.1-8-15.3,0.7C243.1,72,233,118,239.7,123.3c0.7,0.6,1.6,0.7,2.8,0.2
		c-1.2-5.9-2.3-34.3,19.7-56.9c1.8-1.9,4.1-3,6.6-4.5C272.8,64.7,280.3,65.1,281.1,58.1L281.1,58.1z"/>
	<path class="st8" d="M160.4,60.5c-1.9-19,19.1-8,15.2,0.7c22.7,13.2,32.8,59.1,26.1,64.5c-0.7,0.6-1.6,0.7-2.8,0.2
		c1.2-5.9,2.3-34.3-19.7-56.9c-1.8-1.9-4.1-3-6.6-4.5C168.7,67.1,161.1,67.5,160.4,60.5L160.4,60.5z"/>
	<path class="st8" d="M135.7,299.1c-2.9,4.4-7.3,17.7-15.1,26.9c-6.8,8.1-16.8,12.4-23.5,13.1c-9.7,1-11.2,6.9-10.4,7.9
		c1,1.5,2.7-0.9,6.8-2.8c0.1-0.1-5.6,19,5.6,1.5c0.2,6.3,1.9,17.2,4.6-0.5c31.9-12.4,34.2-34.9,38-44.9
		C142.1,299.2,136,298.7,135.7,299.1L135.7,299.1z"/>
</g>
</svg>
