<?xml version="1.0" encoding="utf-8"?>
<!-- Generator: Adobe Illustrator 22.0.1, SVG Export Plug-In . SVG Version: 6.00 Build 0)  -->
<svg version="1.1" id="圖層_1" xmlns="http://www.w3.org/2000/svg" xmlns:xlink="http://www.w3.org/1999/xlink" x="0px" y="0px"
	 viewBox="0 0 512 512" style="enable-background:new 0 0 512 512;" xml:space="preserve">
<style type="text/css">
	.st0{fill:#F3CB29;}
	.st1{fill:#139A9C;}
	.st2{fill:#A13F96;}
	.st3{fill:#101211;}
	.st4{fill:#FFFFFF;}
</style>
<g>
	<g>
		<path class="st0" d="M484.6,449.9c-16-33.6-36-65.8-54.3-98.2c-18.8-33.6-37.8-67.1-56.9-100.5c-19.1-33.4-38.4-66.7-58-99.9
			c-19.7-33.3-38.2-69.3-61.7-100.1c-2.1-2.8-4.1-0.5-4.7,2.2c-0.1,0.1-0.2,0.3-0.2,0.4c-36.5,67.1-75.2,133.2-113.1,199.5
			C97.8,319.6,57.1,385,22.5,452.9c-1.7,3.4,1.4,12.2,4.8,6.9c0.1-0.2,0.2-0.3,0.3-0.5c0.3,2.4,1.5,4.6,3.7,4.6
			c151.1,1.1,302.4-2.6,453.5-3.8C489.2,460.1,489,450.1,484.6,449.9z M31.4,453.2C50,423,66.6,391.3,84.1,360.5
			c18.9-33.3,37.7-66.6,56.5-99.9c37.1-65.8,73.6-132.1,112.1-197.1c16.2,30.5,36.1,59.5,53.8,89.2c19.7,33,39.1,66.3,58.2,99.6
			c18.8,32.6,37.3,65.3,55.7,98.1c18.6,33,38.8,65.6,55.5,99.6C327.9,451,179.5,449.8,31.4,453.2z"/>
	</g>
	<path class="st0" d="M408.3,414.3c0-1.3-0.2-2.5-0.7-3.5c-25.1-46.6-50.1-93.2-75.1-139.8c-11.8-22-23.6-43.9-35.5-65.9
		c-12.6-23.4-24-48.1-38.7-70.2c-0.2-0.3-0.4-0.5-0.6-0.7c-1.5-3.2-3.7-4.9-6.6-1.4c-7.8,9.4-12.1,21.7-17.4,32.7
		c-5.9,12.2-12.1,24.2-18.5,36.2c-13.2,24.4-26.6,48.6-40.4,72.6c-13.4,23.4-26.3,47.1-40.2,70.3c-14.1,23.6-31.1,46.7-43.1,71.4
		c-3.3,2.2-2.8,10.4,1.6,10.4c51.7,0.3,103.5-4.4,155.2-4.5c25.9-0.1,51.8,0.1,77.7,0.7c25.5,0.6,52.4,5.5,77.6,2.8
		C407.8,425,409.5,418.6,408.3,414.3z"/>
	<g>
		<g>
			<g>
				<g>
					<path class="st1" d="M222.4,261.7c0,0-24.3,13.7-21.3,38c3,24.3,30.7,46.7,53.3,44.6c22.6-2.1,42.4-11.2,51.5-30.9
						c9.1-19.8,2.7-36.9,2.7-36.9s-32.6-17.6-51.3-16.3C238.6,261.4,222.4,261.7,222.4,261.7z"/>
				</g>
			</g>
		</g>
	</g>
	<g>
		<g>
			<g>
				<g>
					<path class="st2" d="M257.3,260.1l-18.8,1.3c0,0-29.9,32.1-7.1,51.9c22.8,19.8,49.4,2.7,55.6-8.1c6.1-10.8-3.9-39-3.9-39
						L257.3,260.1z"/>
				</g>
			</g>
		</g>
	</g>
	<g>
		<g>
			<g>
				<g>
					<g>
						<path class="st3" d="M131.5,317.4c31.3,30.3,76.6,45.2,119.6,45.7c21,0.2,42.1-3,62-9.8c25.3-8.6,50.4-25.2,73.6-37.9
							c2.6-1.4-5.4-5.2-8.4-3.6c-20.5,11.2-36.5,22.8-58.3,31.6c-20.5,8.3-42.6,12.4-64.7,12.7c-45.7,0.6-86.5-15.6-122.4-42.9
							C130.8,311.6,130.2,316.1,131.5,317.4L131.5,317.4z"/>
					</g>
				</g>
			</g>
		</g>
	</g>
	<g>
		<g>
			<g>
				<g>
					<g>
						<path class="st3" d="M211.6,266.4c-12.9,11.2-15.9,30.1-10.6,45.9c6.7,20.2,26.6,32.7,47.1,35c22.5,2.6,47.2-7.2,58.9-27.2
							c6.1-10.4,14.1-39.3,1.1-47.8c-1.6-1.1-2.8,0.4-3,2c-0.1,0.3-0.1,0.6-0.2,0.9c-0.2,1.3,0.3,3.4,1.9,3.6c0.2,0,0.4,0,0.6,0.1
							c1.9,0.2,1.9-3.5,1.1-4.4c-0.2-0.2-0.3-0.3-0.5-0.5c-0.1,1.5-0.2,3-0.3,4.5c1,4.9,1.6,9.8,1.9,14.8c0,5.2-1,10.2-2.8,15
							c-2.9,7.9-8,14.7-14.5,20c-11.7,9.5-27.4,13.7-42.3,12.6c-34.8-2.7-62.9-39.2-36.7-70C214.5,269.2,213.7,264.6,211.6,266.4
							L211.6,266.4z"/>
					</g>
				</g>
			</g>
		</g>
	</g>
	<g>
		<g>
			<g>
				<g>
					<path class="st4" d="M278.4,260.3c-2.3-1.2-2.2,3.5-1.6,4.5c7.9,12.5,14.5,24.9,6.3,39.6c-5.9,10.6-17.9,15.7-29.7,15
						c-30.1-1.9-36.2-37.9-13.9-54.8c0.9-0.7,0.5-3.9-1-3.2c-13,6.4-18.8,21.8-16.8,35.7c2.2,15.8,14.7,27.3,30.6,28.8
						c17,1.7,32.7-8.3,37.5-24.8C293.4,288.6,291.4,267.2,278.4,260.3z"/>
				</g>
			</g>
		</g>
	</g>
	<g>
		<g>
			<g>
				<g>
					<g>
						<path class="st3" d="M138.1,369.7c5.1-4.6,9.3-10.3,13.8-15.6c3.7-4.4,8.6-8.8,10.7-14.2c0.3-0.7,0-2.7-1.2-2.2
							c-5.1,2.3-9.1,9.5-12.7,13.8c-4.1,5-8.6,9.9-12.1,15.4C136,367.9,136.6,371,138.1,369.7L138.1,369.7z"/>
					</g>
				</g>
			</g>
		</g>
	</g>
	<g>
		<g>
			<g>
				<g>
					<g>
						<path class="st3" d="M185.3,390.6c3.3-5.4,5.6-11.2,8.1-17c2.9-6.5,6.4-13.1,8.3-20c0.4-1.3-0.9-4.9-2.3-2.6
							c-3.4,5.3-5.4,11.5-7.9,17.3c-2.9,6.6-5.9,13.2-8,20.2C183.2,389.5,184.2,392.4,185.3,390.6L185.3,390.6z"/>
					</g>
				</g>
			</g>
		</g>
	</g>
	<g>
		<g>
			<g>
				<g>
					<g>
						<path class="st3" d="M252.2,400.3c0.9-6.1,0.8-12.4,0.8-18.6c0-6.2,0.7-12.7-0.5-18.8c-0.4-1.9-2.2-1.8-2.6,0.1
							c-1.2,6.1-0.5,12.6-0.5,18.8c0.1,6.2,0,12.5,0.9,18.6C250.6,401.7,252,401.6,252.2,400.3L252.2,400.3z"/>
					</g>
				</g>
			</g>
		</g>
	</g>
	<g>
		<g>
			<g>
				<g>
					<g>
						<path class="st3" d="M325.4,387.3c-1.8-12.9-7.4-25.2-13.6-36.5c-1.6-2.9-3.7,2-2.5,4.1c6.1,10.9,9.8,22.2,14.1,33.8
							C324.1,390.7,325.6,388.6,325.4,387.3L325.4,387.3z"/>
					</g>
				</g>
			</g>
		</g>
	</g>
	<g>
		<g>
			<g>
				<g>
					<g>
						<path class="st3" d="M372.2,358.1c-2.8-5.8-6.4-11.1-10.2-16.2c-2.9-3.9-6.5-10.8-11.3-12.4c-1.4-0.5-1.6,1.9-1.3,2.7
							c1.8,5.1,6.7,9.5,10,13.8c3.7,4.8,7.1,9.7,11.1,14.2C371.8,361.5,372.8,359.2,372.2,358.1L372.2,358.1z"/>
					</g>
				</g>
			</g>
		</g>
	</g>
	<g>
		<g>
			<g>
				<g>
					<g>
						<path class="st3" d="M139.4,259.6c3.3,6.9,7.2,13.4,12.3,19c4.3,4.8,10.5,12.1,17.2,13.2c1.8,0.3,1.6-3.2,1-4
							c-3.9-5.2-10.2-8.6-14.8-13.4c-5.1-5.4-9.7-11.2-13.4-17.7C140.4,254.5,138.7,258.1,139.4,259.6L139.4,259.6z"/>
					</g>
				</g>
			</g>
		</g>
	</g>
	<g>
		<g>
			<g>
				<g>
					<g>
						<path class="st3" d="M186.2,232.8c-0.1,7,0.6,14.3,3,21c1.9,5.2,5.3,13.3,10.8,15.3c1.9,0.7,2.1-2.5,1.7-3.5
							c-1.9-5.2-5.9-9.3-8.3-14.3c-2.9-6-4.7-11.8-5-18.5C188.3,230.7,186.3,230.8,186.2,232.8L186.2,232.8z"/>
					</g>
				</g>
			</g>
		</g>
	</g>
	<g>
		<g>
			<g>
				<g>
					<g>
						<path class="st3" d="M249.1,216.9c-3.6,13.3-5.6,30.1,0.3,43.1c1,2.1,2.9,0.6,2.8-1.2c-0.8-13.9-3.2-26.6-1.1-40.7
							C251.1,216.8,249.6,215,249.1,216.9L249.1,216.9z"/>
					</g>
				</g>
			</g>
		</g>
	</g>
	<g>
		<g>
			<g>
				<g>
					<g>
						<path class="st3" d="M325.7,234.1c-4.1,9.6-10.8,17.1-18.4,25.1c-1.4,1.4,0.1,6.1,2.9,4.2c10-7,15.6-18.1,17.8-28.2
							C328.3,234,326.4,232.4,325.7,234.1L325.7,234.1z"/>
					</g>
				</g>
			</g>
		</g>
	</g>
	<g>
		<g>
			<g>
				<g>
					<g>
						<path class="st3" d="M372.4,263.8c-3,4.7-6.4,9.4-10.2,13.5c-3.6,3.9-8.4,6.9-11.8,10.9c-0.7,0.8-0.8,4,1,3.3
							c5-1.8,9.4-7.3,12.8-11.3c3.9-4.5,6.9-9.3,9.5-14.6C374.2,264.8,373.3,262.3,372.4,263.8L372.4,263.8z"/>
					</g>
				</g>
			</g>
		</g>
	</g>
	<path class="st4" d="M266.8,289.1c-0.2-6.2-3.9-12.6-10.9-12c-9.1,0.7-11.9,11.6-8.3,18.8c1.8,3.7,5.4,6.6,9.7,6.1
		c4.4-0.5,7.9-3.9,9.2-8C267,292.4,267.2,290.7,266.8,289.1z"/>
	<g>
		<path class="st4" d="M228.7,207.2c8.9-16,17.3-32.3,25-48.9c0.5-1-1.1-1.9-1.5-0.9c-7.8,16.6-16.1,32.9-25,48.9
			C226.6,207.3,228.2,208.2,228.7,207.2L228.7,207.2z"/>
	</g>
	<g>
		<path class="st4" d="M252.1,159.6c8.1,15.9,16.1,31.7,24.2,47.6c0.5,1,2.1,0.1,1.5-0.9c-8.1-15.9-16.1-31.7-24.2-47.6
			C253.1,157.7,251.6,158.6,252.1,159.6L252.1,159.6z"/>
	</g>
	<g>
		<path class="st4" d="M228,207.7c16.7,0,33.4,0,50.1,0c1.2,0,1.2-1.8,0-1.8c-16.7,0-33.4,0-50.1,0
			C226.8,205.9,226.8,207.7,228,207.7L228,207.7z"/>
	</g>
	<g>
		<path class="st4" d="M123.4,390.3c-5.4,3.4-7,11.1-3.6,16.5c3.6,5.6,11.6,5.9,16.6,2c5.7-4.4,4.9-12.6-0.2-17.2
			c-6.2-5.5-14.9-2.2-18.3,4.6c-0.5,1,1,1.9,1.5,0.9c3-5.9,10.5-9,15.8-4c4.4,4.2,4.8,11.3-0.7,14.8c-4.3,2.7-10.6,2.3-13.4-2.3
			c-2.7-4.5-1.3-10.9,3.1-13.7C125.2,391.3,124.3,389.7,123.4,390.3L123.4,390.3z"/>
	</g>
	<g>
		<path class="st4" d="M356.4,388.9c0,8.1,0,16.2,0,24.3c0,1.2,1.8,1.2,1.8,0c0-8.1,0-16.2,0-24.3
			C358.2,387.8,356.4,387.8,356.4,388.9L356.4,388.9z"/>
	</g>
	<g>
		<path class="st4" d="M382.6,388.9c0,8.4,0,16.7,0,25.1c0,1.2,1.8,1.2,1.8,0c0-8.4,0-16.7,0-25.1
			C384.4,387.8,382.6,387.8,382.6,388.9L382.6,388.9z"/>
	</g>
	<g>
		<path class="st4" d="M356.9,389.6c8.8-0.1,17.5-0.2,26.3-0.3c1.2,0,1.2-1.8,0-1.8c-8.8,0.1-17.5,0.2-26.3,0.3
			C355.7,387.8,355.7,389.6,356.9,389.6L356.9,389.6z"/>
	</g>
	<g>
		<path class="st4" d="M356.9,414.9c8.9,0,17.8,0,26.6,0c1.2,0,1.2-1.8,0-1.8c-8.9,0-17.8,0-26.6,0
			C355.7,413.1,355.7,414.9,356.9,414.9L356.9,414.9z"/>
	</g>
	<g>
		<g>
			<g>
				<g>
					<g>
						<path class="st3" d="M135.2,319.4c36.4-28.4,74.2-55.8,122.7-51.9c22.7,1.8,44.2,9.6,64.7,18.9c19.8,9,37.8,23.6,57.9,31.3
							c5.5,2.1,8-3,5.5-5.4c-16.6-16.2-45.4-32.5-66.4-41.6c-20.6-9-42.2-15.9-64.9-17c-46.9-2.3-91.3,25.4-122.6,58.5
							C130,314.5,131.4,322.4,135.2,319.4L135.2,319.4z"/>
					</g>
				</g>
			</g>
		</g>
	</g>
</g>
</svg>
