<?xml version="1.0" encoding="utf-8"?>
<!-- Generator: Adobe Illustrator 22.0.1, SVG Export Plug-In . SVG Version: 6.00 Build 0)  -->
<svg version="1.1" xmlns="http://www.w3.org/2000/svg" xmlns:xlink="http://www.w3.org/1999/xlink" x="0px" y="0px"
	 viewBox="0 0 429.166 313.084" enable-background="new 0 0 429.166 313.084" xml:space="preserve">
<g id="圖層_1" display="none">
	<g>
		<circle display="inline" fill="#F82939" cx="215.597" cy="156.726" r="152.804"/>
		<path id="XMLID_2_" display="inline" fill="#FFFFFF" d="M289.335,160.874c0.117,4.729-1.787,9.314-5.223,12.581
			c-3.017,2.868-6.973,4.504-11.142,4.608l-9.735,0.245c-4.483,0.11-8.738-1.53-11.983-4.621c-3.25-3.091-5.101-7.261-5.212-11.743
			l-0.156-6.377l0-0.002c-0.077-3.063,0.681-6.077,2.188-8.72l0.675-1.18c0.424-0.743,0.5-1.634,0.205-2.438
			c-0.295-0.803-0.928-1.437-1.732-1.729l-1.279-0.467c-19.988-7.267-41.85-6.882-61.56,1.082l-1.122,0.455
			c-0.737,0.298-1.317,0.888-1.611,1.629c-0.29,0.742-0.263,1.569,0.073,2.291l0.508,1.086c0.977,2.104,1.502,4.346,1.558,6.664
			l0.159,6.381c0.117,4.737-1.785,9.324-5.216,12.586c-3.015,2.866-6.973,4.502-11.144,4.606l-9.74,0.242
			c-9.248,0.229-16.96-7.11-17.192-16.36l-0.16-6.386c-0.046-1.746,0.188-3.503,0.716-5.3c1.239-4.656,4.371-9.164,8.832-12.694
			c37.213-29.522,90.183-30.837,128.817-3.196c8.111,5.784,10.481,13.444,10.094,17.182c-0.013,0.122-0.017,0.245-0.014,0.368
			l0.006,0.295c0.004,0.127,0.015,0.253,0.035,0.378c0.112,0.712,0.177,1.436,0.194,2.151L289.335,160.874z"/>
	</g>
	<g>
		<g display="inline">
			
				<ellipse transform="matrix(0.7071 -0.7071 0.7071 0.7071 -44.9405 197.5549)" fill="#E0E3E6" cx="216" cy="153.025" rx="152.789" ry="152.789"/>
		</g>
		<g display="inline">
			<path id="XMLID_5_" fill="#131313" d="M230.032,154.256c-7.042,7.047-16.388,10.928-26.319,10.928H203.7
				c-20.532,0-37.243-16.702-37.248-37.228c-0.004-9.938,3.873-19.289,10.917-26.337c7.045-7.047,16.396-10.928,26.331-10.931
				c20.532,0,37.243,16.705,37.256,37.239C240.956,137.853,237.079,147.205,230.032,154.256z"/>
			<path id="XMLID_3_" fill="#131313" d="M174.266,168.617c16.47,14.384,43.91,14.402,60.521-0.154c1.107-0.97,2.8-0.823,3.714,0.33
				c11.114,14.016,14.511,32.698,15.537,43.74c0.14,1.512-1.044,2.813-2.563,2.813l-95.395,0.017
				c-1.54,0.001-2.729-1.345-2.561-2.875c2.369-21.607,11.176-36.07,17.043-43.541C171.471,167.789,173.158,167.649,174.266,168.617
				z"/>
		</g>
		<path display="inline" fill="#131313" d="M297.566,144.181h-15.95v-15.95c0-1.027-0.833-1.86-1.859-1.86h-7.859
			c-1.027,0-1.86,0.833-1.86,1.86v15.95h-15.95c-1.026,0-1.859,0.832-1.859,1.859v7.859c0,1.027,0.833,1.86,1.859,1.86h15.95v15.949
			c0,1.027,0.833,1.86,1.86,1.86h7.859c1.026,0,1.859-0.833,1.859-1.86v-15.949h15.95c1.027,0,1.859-0.833,1.859-1.86v-7.859
			C299.425,145.013,298.593,144.181,297.566,144.181z"/>
	</g>
	<g>
		<g display="inline">
			
				<ellipse transform="matrix(0.7071 -0.7071 0.7071 0.7071 -46.9336 200.1444)" fill="#E0E3E6" cx="218.129" cy="156.726" rx="152.789" ry="152.789"/>
		</g>
		<g display="inline">
			<circle fill="#131313" cx="164.791" cy="156.726" r="17.112"/>
			<circle fill="#131313" cx="218.129" cy="156.726" r="17.112"/>
			<circle fill="#131313" cx="271.467" cy="156.726" r="17.112"/>
		</g>
	</g>
	<g>
		<g display="inline">
			
				<ellipse transform="matrix(0.7071 -0.7071 0.7071 0.7071 -44.9966 197.4193)" fill="#E0E3E6" cx="215.808" cy="153.025" rx="152.789" ry="152.789"/>
		</g>
		<g display="inline">
			<path fill="#131313" d="M215.808,181.062L215.808,181.062c16.669,0,30.182-12.5,30.182-29.168v-40.193
				c0-16.668-13.513-30.181-30.181-30.181h-0.001c-16.668,0-30.182,13.513-30.182,30.181v40.193
				C185.626,168.562,199.14,181.062,215.808,181.062z"/>
			<path fill="#131313" d="M268.068,157.617h-11.001c0,21.753-16.226,35.809-41.338,35.809c-19.908,0-41.18-9.283-41.18-35.337
				h-11.001c0,26.484,18.135,44.147,46.681,46.144v20.299h11.001v-20.308C249.473,202.14,268.068,183.942,268.068,157.617z"/>
		</g>
	</g>
	<g display="inline">
		
			<ellipse transform="matrix(0.7071 -0.7071 0.7071 0.7071 -47.9356 197.7253)" fill="#F5EBE0" cx="214.708" cy="156.726" rx="152.789" ry="152.789"/>
	</g>
</g>
<g id="圖層_5" display="none">
	<path display="inline" fill="#6B4A32" d="M276.834,122.778l-31.739,17.112v-15.32c0-5.024-4.073-9.096-9.096-9.096h-77.941
		c-5.024,0-9.096,4.073-9.096,9.096v64.314c0,5.024,4.073,9.096,9.096,9.096h77.941c5.024,0,9.096-4.073,9.096-9.096v-15.32
		l31.739,17.111c1.636,0.882,3.62-0.302,3.62-2.16v-63.574C280.454,123.081,278.47,121.896,276.834,122.778z"/>
</g>
<g id="圖層_2" display="none">
	<g display="inline">
		<path fill="#6B4A32" d="M214.808,181.062L214.808,181.062c16.669,0,30.182-12.5,30.182-29.168v-40.193
			c0-16.668-13.513-30.181-30.181-30.181h-0.001c-16.668,0-30.182,13.513-30.182,30.181v40.193
			C184.626,168.562,198.14,181.062,214.808,181.062z"/>
		<path fill="#6B4A32" d="M267.068,157.617h-11.001c0,21.753-16.226,35.809-41.338,35.809c-19.908,0-41.18-9.283-41.18-35.337
			h-11.001c0,26.484,18.135,44.147,46.681,46.144v20.299h11.001v-20.308C248.473,202.14,267.068,183.942,267.068,157.617z"/>
	</g>
</g>
<g id="圖層_3" display="none">
	<g display="inline">
		<circle fill="#6B4A32" cx="162.791" cy="156.726" r="17.112"/>
		<circle fill="#6B4A32" cx="216.129" cy="156.726" r="17.112"/>
		<circle fill="#6B4A32" cx="269.467" cy="156.726" r="17.112"/>
	</g>
</g>
<g id="圖層_4" display="none">
	
		<ellipse transform="matrix(0.7071 -0.7071 0.7071 0.7071 -47.9356 197.7253)" display="inline" fill="#CC4933" cx="214.708" cy="156.726" rx="152.789" ry="152.789"/>
</g>
<g id="圖層_6" display="none">
	<path id="XMLID_1_" display="inline" fill="#FFFFFF" d="M297.913,170.953c0.13,7.023-1.993,13.832-5.825,18.684
		c-3.365,4.26-7.777,6.688-12.427,6.844l-10.858,0.364c-5,0.163-9.745-2.273-13.364-6.863c-3.624-4.59-5.689-10.783-5.812-17.439
		l-0.174-9.47l-0.001-0.003c-0.085-4.548,0.759-9.024,2.44-12.95l0.752-1.752c0.473-1.103,0.558-2.427,0.229-3.62
		c-0.329-1.193-1.035-2.134-1.932-2.568l-1.426-0.693c-22.292-10.792-46.673-10.221-68.655,1.607l-1.251,0.676
		c-0.822,0.443-1.469,1.319-1.797,2.419c-0.324,1.102-0.293,2.33,0.082,3.402l0.566,1.613c1.09,3.124,1.675,6.454,1.738,9.897
		l0.177,9.476c0.13,7.034-1.991,13.847-5.817,18.691c-3.363,4.256-7.777,6.686-12.429,6.84l-10.863,0.359
		c-10.314,0.34-18.915-10.558-19.173-24.295l-0.178-9.483c-0.051-2.592,0.21-5.202,0.798-7.87c1.382-6.915,4.875-13.609,9.85-18.852
		c41.502-43.842,100.577-45.795,143.664-4.746c9.046,8.59,11.689,19.966,11.257,25.516c-0.014,0.181-0.019,0.365-0.016,0.546
		l0.007,0.438c0.004,0.189,0.017,0.376,0.039,0.562c0.125,1.057,0.197,2.132,0.216,3.195L297.913,170.953z"/>
</g>
<g id="圖層_4_拷貝">
	
		<ellipse transform="matrix(0.7071 -0.7071 0.7071 0.7071 -30.9478 238.7374)" display="none" fill="#CC4933" cx="272.708" cy="156.726" rx="152.789" ry="152.789"/>
	
		<ellipse transform="matrix(0.7071 -0.7071 0.7071 0.7071 -64.9234 156.713)" display="none" fill="#CC4933" cx="156.708" cy="156.726" rx="152.789" ry="152.789"/>
	<rect x="151.918" y="3.708" display="none" fill="#CC4933" width="121" height="305.6"/>
	<path fill="#CC4933" d="M278.461,309.708H151.006c-39.52,0-76.67-15.957-104.608-44.933C18.481,235.82,3.107,197.329,3.107,156.391
		c0-40.938,15.375-79.429,43.292-108.384C74.336,19.032,111.486,3.075,151.006,3.075h127.455c39.521,0,76.671,15.957,104.609,44.933
		c27.917,28.954,43.291,67.446,43.291,108.384c0,40.938-15.375,79.43-43.291,108.384
		C355.133,293.751,317.982,309.708,278.461,309.708z"/>
</g>
<g id="圖層_6_拷貝">
	<path id="XMLID_4_" fill="#FFFFFF" d="M297.913,170.953c0.13,7.023-1.993,13.832-5.825,18.684
		c-3.365,4.26-7.777,6.688-12.427,6.844l-10.858,0.364c-5,0.163-9.745-2.273-13.364-6.863c-3.624-4.59-5.689-10.783-5.812-17.439
		l-0.174-9.47l-0.001-0.003c-0.085-4.548,0.759-9.024,2.44-12.95l0.752-1.752c0.473-1.103,0.558-2.427,0.229-3.62
		c-0.329-1.193-1.035-2.134-1.932-2.568l-1.426-0.693c-22.292-10.792-46.673-10.221-68.655,1.607l-1.251,0.676
		c-0.822,0.443-1.469,1.319-1.797,2.419c-0.324,1.102-0.293,2.33,0.082,3.402l0.566,1.613c1.09,3.124,1.675,6.454,1.738,9.897
		l0.177,9.476c0.13,7.034-1.991,13.847-5.817,18.691c-3.363,4.256-7.777,6.686-12.429,6.84l-10.863,0.359
		c-10.314,0.34-18.915-10.558-19.173-24.295l-0.178-9.483c-0.051-2.592,0.21-5.202,0.798-7.87c1.382-6.915,4.875-13.609,9.85-18.852
		c41.502-43.842,100.577-45.795,143.664-4.746c9.046,8.59,11.689,19.966,11.257,25.516c-0.014,0.181-0.019,0.365-0.016,0.546
		l0.007,0.438c0.004,0.189,0.017,0.376,0.039,0.562c0.125,1.057,0.197,2.132,0.216,3.195L297.913,170.953z"/>
</g>
<g id="圖層_7" display="none">
	<g display="inline">
		<path fill="#D17A54" d="M214.808,181.062L214.808,181.062c16.669,0,30.182-12.5,30.182-29.168v-40.193
			c0-16.668-13.513-30.181-30.181-30.181h-0.001c-16.668,0-30.182,13.513-30.182,30.181v40.193
			C184.626,168.562,198.14,181.062,214.808,181.062z"/>
		<path fill="#D17A54" d="M267.068,157.617h-11.001c0,21.753-16.226,35.809-41.338,35.809c-19.908,0-41.18-9.283-41.18-35.337
			h-11.001c0,26.484,18.135,44.147,46.681,46.144v20.299h11.001v-20.308C248.473,202.14,267.068,183.942,267.068,157.617z"/>
	</g>
</g>
<g id="圖層_7_拷貝" display="none">
	<g display="inline">
		<path fill="#CCCCCC" d="M214.808,181.062L214.808,181.062c16.669,0,30.182-12.5,30.182-29.168v-40.193
			c0-16.668-13.513-30.181-30.181-30.181h-0.001c-16.668,0-30.182,13.513-30.182,30.181v40.193
			C184.626,168.562,198.14,181.062,214.808,181.062z"/>
		<path fill="#CCCCCC" d="M267.068,157.617h-11.001c0,21.753-16.226,35.809-41.338,35.809c-19.908,0-41.18-9.283-41.18-35.337
			h-11.001c0,26.484,18.135,44.147,46.681,46.144v20.299h11.001v-20.308C248.473,202.14,267.068,183.942,267.068,157.617z"/>
	</g>
</g>
<g id="圖層_9" display="none">
	<path display="inline" fill="#D17A54" d="M276.834,122.778l-31.739,17.112v-15.32c0-5.024-4.073-9.096-9.096-9.096h-77.941
		c-5.024,0-9.096,4.073-9.096,9.096v64.314c0,5.024,4.073,9.096,9.096,9.096h77.941c5.024,0,9.096-4.073,9.096-9.096v-15.32
		l31.739,17.111c1.636,0.882,3.62-0.302,3.62-2.16v-63.574C280.454,123.081,278.47,121.896,276.834,122.778z"/>
</g>
<g id="圖層_8" display="none">
	
		<line display="inline" fill="none" stroke="#E8E8E8" stroke-width="9" stroke-miterlimit="10" x1="298.918" y1="72.708" x2="132.918" y2="238.708"/>
</g>
<g id="圖層_8_拷貝" display="none">
	
		<line display="inline" fill="none" stroke="#FFFFFF" stroke-width="9" stroke-miterlimit="10" x1="298.918" y1="72.708" x2="132.918" y2="238.708"/>
</g>
</svg>
