<?xml version="1.0" encoding="utf-8"?>
<!-- Generator: Adobe Illustrator 22.0.1, SVG Export Plug-In . SVG Version: 6.00 Build 0)  -->
<svg version="1.1" xmlns="http://www.w3.org/2000/svg" xmlns:xlink="http://www.w3.org/1999/xlink" x="0px" y="0px"
	 viewBox="0 0 412.481 427.641" enable-background="new 0 0 412.481 427.641" xml:space="preserve">
<g id="圖層_1" display="none">
	<g display="inline">
		<polygon fill="#595959" points="167.671,8.467 167.671,140.48 184.74,150.269 184.74,25.536 385.677,25.536 385.677,402.957 
			184.74,402.957 184.74,278.98 167.671,288.77 167.671,420.026 402.747,420.026 402.747,8.467 		"/>
		<g>
			<g>
				<polygon fill="#595959" points="176.205,17.002 184.751,28.617 359.46,51.625 358.399,381.868 184.751,400.21 176.205,411.492 
					394.211,411.492 394.211,17.002 				"/>
			</g>
		</g>
		<g>
			<g>
				<g>
					<polygon fill="#595959" points="278.423,214.625 131.472,130.347 131.472,168.657 7.302,168.657 7.302,250.242 
						131.472,250.242 131.472,298.903 					"/>
				</g>
			</g>
		</g>
	</g>
</g>
<g id="圖層_2" display="none">
	<g display="inline">
		<path fill-rule="evenodd" clip-rule="evenodd" fill="#595959" d="M358.023,237.82v154.759c0,11.941-10.18,22.257-22.264,22.257
			H54.631c-11.81,0-23.756-10.316-23.756-22.257V215.563c0-13.578,11.946-23.62,23.756-23.62h281.128
			c12.084,0,22.264,10.042,22.264,23.62V237.82z M453.457,191.943c10.187-7.063,18.735-3.535,18.735,10.042v206.061
			c0,11.948-8.548,16.838-18.735,8.419l-54.571-40.725c-10.316-7.056-18.735-23.894-18.735-37.733v-67.874
			c0-11.946,8.419-29.06,18.735-35.84L453.457,191.943z M105.804,67.593c-30.676,0-54.434,23.894-54.434,54.571
			c0,30.676,23.758,54.296,54.434,54.296c30.813,0,54.57-23.62,54.57-54.296C160.374,91.487,136.618,67.593,105.804,67.593
			L105.804,67.593z M271.009,16.55c-45.884,0-81.583,37.465-81.583,81.719s35.699,81.726,81.583,81.726
			c44.39,0,80.096-37.472,80.096-81.726S315.399,16.55,271.009,16.55L271.009,16.55z M110.832,355.107
			c0-13.578-10.049-23.62-23.758-23.62c-11.946,0-22.126,10.042-22.126,23.62c0,11.946,10.18,22.264,22.126,22.264
			C100.783,377.37,110.832,367.053,110.832,355.107L110.832,355.107z"/>
	</g>
</g>
<g id="圖層_3" display="none">
	<g display="inline">
		<path fill-rule="evenodd" clip-rule="evenodd" fill="#595959" d="M160.894,17.635c7.772-38.81,39.141-68,76.086-68
			s68.298,29.19,76.054,68c-1.848,2.179-4.026,2.179-4.026,4.043c-19.571,13.662-42.853,23.284-72.029,23.284
			c-27.325,0-52.49-9.622-72.043-23.284C164.937,19.814,163.087,19.814,160.894,17.635L160.894,17.635z M289.437,408.845h-35.065
			V311.67c8.053,0,15.825-2.177,21.403-4.042c5.906-1.866,33.233-13.663,39.139-19.555c7.756-5.593,27.327-27.013,31.039-34.784
			c4.027-7.756,9.933-19.553,11.799-29.174c1.864-7.772,4.041-13.663,4.041-13.663c0-9.933,1.848-23.284,1.848-33.217l-1.848-62.11
			c0-9.933-2.177-23.597-4.041-31.353l-9.622-28.877c-4.042-8.069-5.89-8.069-5.89,0v27.013c0,9.62,0,23.284,0,33.217v62.11
			c0,9.933-1.88,35.065-4.043,42.837c-1.864,5.892-13.663,27.325-17.392,33.217c-4.042,5.595-21.434,21.435-27.325,25.164
			c-5.892,4.027-29.175,11.783-36.946,11.783c-7.772,1.864-13.663,1.864-15.512,1.864h-2.195c-1.848,0-1.848,0-3.713,0
			c0,0-2.177,0-4.043,0c0,0-19.569-1.864-27.309-4.027c-5.908-1.864-27.325-13.349-32.92-17.392
			c-5.906-4.042-21.418-21.418-25.461-27.325c-3.729-5.892-11.798-29.175-11.798-36.946c-1.864-7.756-1.864-19.242-1.864-29.175
			v-62.11c0-9.933,0-23.597,0-33.217V54.895c0-8.069-1.864-8.069-5.892,0l-9.636,28.877c-1.864,7.756-5.908,21.419-5.908,31.353
			v62.11c0,9.933,1.88,39.108,5.908,46.88c1.864,9.62,13.663,34.768,19.57,42.524c5.891,5.906,27.325,25.461,35.081,29.503
			c7.756,3.73,19.257,9.62,27.013,11.486c9.935,4.042,15.841,4.042,15.841,4.042h5.579v97.175H184.49
			c-5.892,0-9.933,4.043-9.933,7.772v19.555c0,3.729,4.041,7.77,9.933,7.77h104.947c5.908,0,9.935-4.042,9.935-7.77v-19.555
			C299.372,412.888,295.345,408.845,289.437,408.845L289.437,408.845z M313.034,111.083L313.034,111.083v77.935
			c0,46.582-33.217,83.528-76.054,83.528c-42.853,0-76.086-36.946-76.086-83.528v-77.935V43.096
			c19.569,13.664,46.896,21.419,76.086,21.419c29.176,0,56.501-7.756,76.054-21.419V111.083z"/>
	</g>
</g>
<g id="圖層_4">
	<rect x="226.192" y="-26.506" display="none" fill="#FFC800" width="126" height="78"/>
	<polygon fill="#FFC800" points="193.893,123.61 211.571,129.924 264.606,108.458 297.436,104.669 323.954,112.246 354.259,136.237 
		347.945,186.746 318.903,206.95 273.445,203.162 250.716,200.636 259.555,224.628 253.241,268.824 236.826,286.502 
		205.258,296.604 176.9,231.974 	"/>
	<g>
		<path fill="#42210B" d="M212.194,329.888h6.393c1.656,0,3.077,0.563,4.262,1.687c1.181,1.126,1.776,2.517,1.776,4.173v55.225
			h-12.43V329.888z"/>
		<path fill="#42210B" d="M230.902,329.888h6.393c1.656,0,3.077,0.593,4.262,1.776c1.183,1.185,1.776,2.606,1.776,4.262v3.729
			h-12.43V329.888z M230.902,343.739h6.393c1.656,0,3.077,0.593,4.262,1.776c1.183,1.185,1.776,2.605,1.776,4.262v41.196h-12.43
			V343.739z"/>
		<path fill="#42210B" d="M289.404,390.973h-6.215c-1.776,0-3.227-0.561-4.35-1.687c-1.126-1.123-1.687-2.575-1.687-4.35v-24.15
			c0-2.841-0.859-4.911-2.575-6.215c-1.718-1.301-3.64-1.953-5.771-1.953c-2.131,0-4.026,0.652-5.682,1.953
			c-1.659,1.304-2.486,3.374-2.486,6.215v30.187h-12.43v-27.701c0-8.049,2.1-13.435,6.304-16.159
			c4.201-2.722,8.848-4.201,13.939-4.439c5.207,0,10.002,1.363,14.383,4.084c4.379,2.724,6.57,8.229,6.57,16.514V390.973z"/>
		<path fill="#42210B" d="M327.289,376.412h8.878c-1.305,4.972-3.791,8.761-7.458,11.365c-3.671,2.724-8.288,4.084-13.851,4.084
			c-6.748,0-12.017-2.189-15.804-6.57c-3.791-4.262-5.682-10.357-5.682-18.29c0-7.575,1.834-13.495,5.505-17.757
			c3.787-4.379,9.056-6.57,15.804-6.57c7.103,0,12.608,2.131,16.514,6.393c3.787,4.381,5.682,10.477,5.682,18.29
			c0,0.475,0,0.888,0,1.243c0,0.355,0,0.593,0,0.71c0,0.593-0.062,1.008-0.178,1.243h-30.72c0.116,3.671,1.004,6.393,2.664,8.168
			c1.536,1.895,3.845,2.841,6.925,2.841c2.011,0,3.729-0.413,5.15-1.243c0.355-0.117,0.679-0.324,0.977-0.622
			c0.293-0.295,0.622-0.622,0.977-0.977c0.116-0.355,0.56-0.827,1.332-1.421C324.772,376.709,325.869,376.412,327.289,376.412z
			 M305.981,362.561h18.112c-0.239-3.196-1.065-5.563-2.486-7.103c-1.54-1.656-3.729-2.486-6.57-2.486
			c-2.606,0-4.736,0.83-6.393,2.486C306.984,357.117,306.097,359.485,305.981,362.561z"/>
		<path fill="#42210B" d="M81.441,335.748v14.206c1.3-2.248,3.196-4.084,5.682-5.505c2.131-1.183,4.733-1.776,7.813-1.776
			c5.561,0,10.121,2.308,13.673,6.925c3.551,4.617,5.327,10.596,5.327,17.935c0,7.341-1.776,13.318-5.327,17.935
			c-1.776,2.25-4.173,3.878-7.192,4.883c-3.019,1.005-6.01,1.509-8.967,1.509c-5.682,0-10.953-1.479-15.804-4.439
			c-4.856-2.958-7.28-8.641-7.28-17.047v-40.664h6.037c1.655,0,3.076,0.593,4.262,1.776
			C80.847,332.672,81.441,334.092,81.441,335.748z M101.684,367.001c0-4.262-0.888-7.575-2.663-9.944
			c-1.776-2.486-4.205-3.729-7.28-3.729c-3.317,0-5.86,1.185-7.635,3.551c-1.776,2.486-2.664,5.86-2.664,10.121
			c0,4.972,0.826,8.584,2.486,10.832c1.776,2.486,4.262,3.729,7.458,3.729c3.312,0,5.86-1.243,7.636-3.729
			C100.796,375.346,101.684,371.737,101.684,367.001z"/>
		<path fill="#42210B" d="M151.278,376.412h8.879c-1.305,4.972-3.791,8.761-7.458,11.365c-3.67,2.724-8.287,4.084-13.85,4.084
			c-6.748,0-12.016-2.189-15.804-6.57c-3.791-4.262-5.682-10.357-5.682-18.29c0-7.575,1.835-13.495,5.505-17.757
			c3.788-4.379,9.056-6.57,15.804-6.57c7.103,0,12.607,2.131,16.514,6.393c3.788,4.381,5.682,10.477,5.682,18.29
			c0,0.475,0,0.888,0,1.243c0,0.355,0,0.593,0,0.71c0,0.593-0.062,1.008-0.178,1.243h-30.72c0.116,3.671,1.004,6.393,2.664,8.168
			c1.536,1.895,3.845,2.841,6.925,2.841c2.012,0,3.729-0.413,5.15-1.243c0.355-0.117,0.681-0.324,0.977-0.622
			c0.294-0.295,0.622-0.622,0.977-0.977c0.116-0.355,0.56-0.827,1.332-1.421C148.763,376.709,149.858,376.412,151.278,376.412z
			 M129.97,362.561h18.112c-0.239-3.196-1.065-5.563-2.486-7.103c-1.539-1.656-3.729-2.486-6.57-2.486
			c-2.604,0-4.735,0.83-6.393,2.486C130.974,357.117,130.086,359.485,129.97,362.561z"/>
		<path fill="#42210B" d="M198.209,376.412h8.878c-1.305,4.972-3.791,8.761-7.458,11.365c-3.67,2.724-8.287,4.084-13.851,4.084
			c-6.748,0-12.016-2.189-15.804-6.57c-3.791-4.262-5.682-10.357-5.682-18.29c0-7.575,1.835-13.495,5.505-17.757
			c3.788-4.379,9.056-6.57,15.804-6.57c7.103,0,12.608,2.131,16.514,6.393c3.788,4.381,5.682,10.477,5.682,18.29
			c0,0.475,0,0.888,0,1.243c0,0.355,0,0.593,0,0.71c0,0.593-0.062,1.008-0.178,1.243H176.9c0.116,3.671,1.004,6.393,2.663,8.168
			c1.536,1.895,3.845,2.841,6.925,2.841c2.013,0,3.729-0.413,5.15-1.243c0.355-0.117,0.681-0.324,0.977-0.622
			c0.293-0.295,0.622-0.622,0.977-0.977c0.116-0.355,0.56-0.827,1.332-1.421C195.693,376.709,196.788,376.412,198.209,376.412z
			 M176.9,362.561h18.112c-0.239-3.196-1.065-5.563-2.486-7.103c-1.539-1.656-3.729-2.486-6.57-2.486
			c-2.604,0-4.735,0.83-6.393,2.486C177.904,357.117,177.016,359.485,176.9,362.561z"/>
	</g>
	<path fill="#42210B" d="M359.185,126.969c-16.768-28.77-53.79-44.28-96.631-28.737c-8.432,3.059-19.493,7.491-29.841,11.754
		l37.829-50.058c2.791-3.692,2.059-8.949-1.634-11.738c-3.692-2.791-8.949-2.061-11.738,1.633L206,117.538l-51.174-67.716
		c-2.789-3.694-8.046-4.424-11.739-1.633c-3.693,2.789-4.424,8.046-1.633,11.738l38.786,51.324
		c-11.185-4.633-23.635-9.656-32.906-13.021c-42.473-15.408-79.69-0.327-96.629,28.736c-17.203,29.502-7.217,67.435,22.293,84.643
		c20.323,11.844,46.044,12.451,70.108-0.265c-8.655,30.031,0.815,57.288,17.456,73.927c11.893,11.892,27.708,18.443,44.633,18.443
		c0.008,0,0.135,0.001,0.139,0c16.822,0,32.64-6.55,44.53-18.443c17.524-17.523,25.23-44.553,16.873-73.952
		c24.599,13.016,50.302,11.86,70.154,0.29C366.392,194.409,376.391,156.478,359.185,126.969z M156.527,231.974h96.812
		c0.353,7.199-0.512,14.139-2.593,20.604h-91.364C157.176,246.074,156.223,239.134,156.527,231.974z M159.434,215.275
		c2.817-9.304,6.753-16.42,11.806-23.999h67.938c5.161,7.918,8.907,16.01,11.263,23.999H159.434z M204.976,146.878
		c5.959,7.925,14.965,19.725,23.419,30.078h-46.361C186.744,171.121,193.831,161.926,204.976,146.878z M106.921,200.841
		c-8.496-0.001-16.769-2.206-23.928-6.378c-19.972-11.645-26.842-37.438-15.143-57.5c14.246-24.439,43.736-30.588,72.713-20.075
		c13.502,4.899,34.656,13.726,47.674,19.244C164.739,167.823,141.958,200.843,106.921,200.841z M205.334,286.953h-0.102
		c-0.006,0-0.133,0-0.137,0c-13.811,0-26.92-5.872-36.724-18.052h73.655C232.449,280.965,219.203,286.953,205.334,286.953z
		 M326.896,194.463c-23.304,13.584-52.269,4.823-73.34-18.546c-9.511-10.548-23.363-28.568-31.838-39.811
		c13.022-5.521,34.129-14.325,47.608-19.217c28.562-10.361,58.301-4.654,72.714,20.076
		C353.686,156.938,346.955,182.767,326.896,194.463z"/>
	<path fill="#D39C00" d="M106.921,200.841c-8.496-0.001-16.769-2.206-23.928-6.378c-19.972-11.644-26.842-37.438-15.143-57.5
		c14.246-24.438,43.736-30.589,72.713-20.075c13.502,4.901,34.656,13.727,47.674,19.244
		C164.739,167.823,141.958,200.843,106.921,200.841z"/>
	<g>
		<path fill="#D39C00" d="M204.976,146.878c-11.145,15.048-18.232,24.243-22.942,30.079h22.942V146.878z"/>
		<path fill="#D39C00" d="M204.976,191.276H171.24c-5.053,7.579-8.989,14.695-11.806,23.999h45.541V191.276z"/>
		<path fill="#D39C00" d="M204.976,231.974h-48.448c-0.305,7.16,0.649,14.1,2.855,20.604h45.594V231.974z"/>
		<path fill="#D39C00" d="M204.976,268.901h-36.605c9.776,12.144,22.838,18.015,36.605,18.048V268.901z"/>
	</g>
	<path fill="#FFFFFF" d="M318.66,145.874c-2.738-4.41-8.109-8.856-13.942-8.856c-3.798,0-6.869-3.075-6.869-6.866
		c0-3.794,3.071-6.868,6.869-6.868c11.865,0,21.01,7.929,25.612,15.351c1.998,3.222,1.004,7.454-2.212,9.453
		C324.917,150.077,320.672,149.116,318.66,145.874z"/>
</g>
</svg>
