<?xml version="1.0" encoding="utf-8"?>
<!-- Generator: Adobe Illustrator 22.0.1, SVG Export Plug-In . SVG Version: 6.00 Build 0)  -->
<svg version="1.1" xmlns="http://www.w3.org/2000/svg" xmlns:xlink="http://www.w3.org/1999/xlink" x="0px" y="0px"
	 viewBox="0 0 316.176 313.084" enable-background="new 0 0 316.176 313.084" xml:space="preserve">
<g id="圖層_1">
	<g display="none">
		<circle display="inline" fill="#F82939" cx="159.102" cy="156.726" r="152.804"/>
		<path id="XMLID_2_" display="inline" fill="#FFFFFF" d="M232.84,160.874c0.117,4.729-1.787,9.314-5.223,12.581
			c-3.017,2.868-6.973,4.504-11.142,4.608l-9.735,0.245c-4.483,0.11-8.738-1.53-11.983-4.621c-3.25-3.091-5.101-7.261-5.212-11.743
			l-0.156-6.377l0-0.002c-0.077-3.063,0.681-6.077,2.188-8.72l0.675-1.18c0.424-0.743,0.5-1.634,0.205-2.438
			c-0.295-0.803-0.928-1.437-1.732-1.729l-1.279-0.467c-19.988-7.267-41.85-6.882-61.56,1.082l-1.122,0.455
			c-0.737,0.298-1.317,0.888-1.611,1.629c-0.29,0.742-0.263,1.569,0.073,2.291l0.508,1.086c0.977,2.104,1.502,4.346,1.558,6.664
			l0.159,6.381c0.117,4.737-1.785,9.324-5.216,12.586c-3.015,2.866-6.973,4.502-11.144,4.606l-9.74,0.242
			c-9.248,0.229-16.96-7.11-17.192-16.36l-0.16-6.386c-0.046-1.746,0.188-3.503,0.716-5.3c1.239-4.656,4.371-9.164,8.832-12.694
			c37.213-29.522,90.183-30.837,128.817-3.196c8.111,5.784,10.481,13.444,10.094,17.182c-0.013,0.122-0.017,0.245-0.014,0.368
			l0.006,0.295c0.004,0.127,0.015,0.253,0.035,0.378c0.112,0.712,0.177,1.436,0.194,2.151L232.84,160.874z"/>
	</g>
	<g display="none">
		<g display="inline">
			
				<ellipse transform="matrix(0.7071 -0.7071 0.7071 0.7071 -61.4875 157.6069)" fill="#E0E3E6" cx="159.505" cy="153.025" rx="152.789" ry="152.789"/>
		</g>
		<g display="inline">
			<path id="XMLID_5_" fill="#131313" d="M173.537,154.256c-7.042,7.047-16.388,10.928-26.319,10.928h-0.013
				c-20.532,0-37.243-16.702-37.248-37.228c-0.004-9.938,3.873-19.289,10.917-26.337c7.045-7.047,16.396-10.928,26.331-10.931
				c20.532,0,37.243,16.705,37.256,37.239C184.461,137.853,180.584,147.205,173.537,154.256z"/>
			<path id="XMLID_3_" fill="#131313" d="M117.771,168.617c16.47,14.384,43.91,14.402,60.521-0.154c1.107-0.97,2.8-0.823,3.714,0.33
				c11.114,14.016,14.511,32.698,15.537,43.74c0.14,1.512-1.044,2.813-2.563,2.813l-95.395,0.017
				c-1.54,0.001-2.729-1.345-2.561-2.875c2.369-21.607,11.176-36.07,17.043-43.541C114.976,167.789,116.663,167.649,117.771,168.617
				z"/>
		</g>
		<path display="inline" fill="#131313" d="M241.071,144.181h-15.95v-15.95c0-1.027-0.833-1.86-1.859-1.86h-7.859
			c-1.027,0-1.86,0.833-1.86,1.86v15.95h-15.95c-1.026,0-1.859,0.832-1.859,1.859v7.859c0,1.027,0.833,1.86,1.859,1.86h15.95v15.949
			c0,1.027,0.833,1.86,1.86,1.86h7.859c1.026,0,1.859-0.833,1.859-1.86v-15.949h15.95c1.027,0,1.859-0.833,1.859-1.86v-7.859
			C242.93,145.013,242.098,144.181,241.071,144.181z"/>
	</g>
	<g display="none">
		<g display="inline">
			
				<ellipse transform="matrix(0.7071 -0.7071 0.7071 0.7071 -63.4805 160.1965)" fill="#E0E3E6" cx="161.634" cy="156.726" rx="152.789" ry="152.789"/>
		</g>
		<g display="inline">
			<circle fill="#131313" cx="108.296" cy="156.726" r="17.112"/>
			<circle fill="#131313" cx="161.634" cy="156.726" r="17.112"/>
			<circle fill="#131313" cx="214.972" cy="156.726" r="17.112"/>
		</g>
	</g>
	<g display="none">
		<g display="inline">
			
				<ellipse transform="matrix(0.7071 -0.7071 0.7071 0.7071 -61.5436 157.4714)" fill="#E0E3E6" cx="159.313" cy="153.025" rx="152.789" ry="152.789"/>
		</g>
		<g display="inline">
			<path fill="#131313" d="M159.313,181.062L159.313,181.062c16.669,0,30.182-12.5,30.182-29.168v-40.193
				c0-16.668-13.513-30.181-30.181-30.181h-0.001c-16.668,0-30.182,13.513-30.182,30.181v40.193
				C129.131,168.562,142.645,181.062,159.313,181.062z"/>
			<path fill="#131313" d="M211.573,157.617h-11.001c0,21.753-16.226,35.809-41.338,35.809c-19.908,0-41.18-9.283-41.18-35.337
				h-11.001c0,26.484,18.135,44.147,46.681,46.144v20.299h11.001v-20.308C192.978,202.14,211.573,183.942,211.573,157.617z"/>
		</g>
	</g>
	<g>
		
			<ellipse transform="matrix(0.7071 -0.7071 0.7071 0.7071 -64.4826 157.7773)" fill="#F5EBE0" cx="158.213" cy="156.726" rx="152.789" ry="152.789"/>
		<path display="none" fill="#6B4A32" d="M220.339,122.778L188.6,139.89v-15.32c0-5.024-4.073-9.096-9.096-9.096h-77.941
			c-5.024,0-9.096,4.073-9.096,9.096v64.314c0,5.024,4.073,9.096,9.096,9.096h77.941c5.024,0,9.096-4.073,9.096-9.096v-15.32
			l31.739,17.111c1.636,0.882,3.62-0.302,3.62-2.16v-63.574C223.959,123.081,221.975,121.896,220.339,122.778z"/>
	</g>
</g>
<g id="圖層_2">
	<g>
		<path fill="#6B4A32" d="M158.313,181.062L158.313,181.062c16.669,0,30.182-12.5,30.182-29.168v-40.193
			c0-16.668-13.513-30.181-30.181-30.181h-0.001c-16.668,0-30.182,13.513-30.182,30.181v40.193
			C128.131,168.562,141.645,181.062,158.313,181.062z"/>
		<path fill="#6B4A32" d="M210.573,157.617h-11.001c0,21.753-16.226,35.809-41.338,35.809c-19.908,0-41.18-9.283-41.18-35.337
			h-11.001c0,26.484,18.135,44.147,46.681,46.144v20.299h11.001v-20.308C191.978,202.14,210.573,183.942,210.573,157.617z"/>
	</g>
</g>
</svg>
