<?xml version="1.0" encoding="utf-8"?>
<!-- Generator: Adobe Illustrator 22.0.1, SVG Export Plug-In . SVG Version: 6.00 Build 0)  -->
<svg version="1.1" id="Layer_1" xmlns="http://www.w3.org/2000/svg" xmlns:xlink="http://www.w3.org/1999/xlink" x="0px" y="0px"
	 viewBox="0 0 504 216" style="enable-background:new 0 0 504 216;" xml:space="preserve">
<style type="text/css">
	.st0{clip-path:url(#SVGID_2_);}
	.st1{fill:#FFAF36;}
	.st2{fill:#FFB53A;}
	.st3{fill:#FFBE41;}
	.st4{fill:#FFA630;}
	.st5{fill:#FFA12A;}
	.st6{fill:#FFB43B;}
	.st7{fill:#FFBC40;}
	.st8{fill:#FFC94A;}
	.st9{fill:#FF9E28;}
	.st10{fill:#FF9C26;}
	.st11{fill:#FF9924;}
	.st12{fill:#FFA62D;}
	.st13{fill:#FFB137;}
	.st14{fill:#FFC647;}
	.st15{fill:#FFD351;}
	.st16{fill:#FF8F1C;}
	.st17{fill:#FF9521;}
	.st18{fill:#FF921F;}
	.st19{fill:#FF901E;}
	.st20{fill:#FFA12B;}
	.st21{fill:#FFAC34;}
	.st22{fill:#FFB93C;}
	.st23{fill:#FFC345;}
	.st24{fill:#FFCE4D;}
	.st25{fill:#FFD553;}
	.st26{fill:#FF8818;}
	.st27{fill:#FF8617;}
	.st28{fill:#FF8514;}
	.st29{fill:#FF8E1C;}
	.st30{fill:#FF9823;}
	.st31{fill:#FFA831;}
	.st32{fill:#FFB339;}
	.st33{fill:#FFB53B;}
	.st34{fill:#FFC144;}
	.st35{fill:#FFCC4B;}
	.st36{fill:#FFD754;}
	.st37{fill:#FF7C0E;}
	.st38{fill:#FF7B0E;}
	.st39{fill:#FF8011;}
	.st40{fill:#FF8D1C;}
	.st41{fill:#FF911E;}
	.st42{fill:#FF9522;}
	.st43{fill:#FF9D28;}
	.st44{fill:#FFA32D;}
	.st45{fill:#FFB138;}
	.st46{fill:#FFB83E;}
	.st47{fill:#FFC143;}
	.st48{fill:#FFC949;}
	.st49{fill:#FFDB58;}
	.st50{fill:#FFD956;}
	.st51{fill:#FF9A26;}
	.st52{fill:#FF9220;}
	.st53{fill:#FF8C1B;}
	.st54{fill:#FF8B1A;}
	.st55{fill:#FF9320;}
	.st56{fill:#FF8C1C;}
	.st57{fill:#FF911F;}
	.st58{fill:#FF9722;}
	.st59{fill:#FFA62F;}
	.st60{fill:#FFB63B;}
	.st61{fill:#FFC546;}
	.st62{fill:#FFD957;}
	.st63{fill:#FFDD5A;}
	.st64{fill:#FFA72E;}
	.st65{fill:#FF9D26;}
	.st66{fill:#FF9D27;}
	.st67{fill:#FF9C25;}
	.st68{fill:#FFA22C;}
	.st69{fill:#FF9E29;}
	.st70{fill:#FF8D1B;}
	.st71{fill:#FF8F1D;}
	.st72{fill:#FFA932;}
	.st73{fill:#FFAB32;}
	.st74{fill:#FFB63A;}
	.st75{fill:#FFBF42;}
	.st76{fill:#FFCA4A;}
	.st77{fill:#FFD251;}
	.st78{fill:#FFD958;}
	.st79{fill:#FFAB33;}
	.st80{fill:#FFAA32;}
	.st81{fill:#FFA830;}
	.st82{fill:#FFA52E;}
	.st83{fill:#FFA62E;}
	.st84{fill:#FFA02A;}
	.st85{fill:#FFA42E;}
	.st86{fill:#FFA02B;}
	.st87{fill:#FF901D;}
	.st88{fill:#FFBC3F;}
	.st89{fill:#FFC747;}
	.st90{fill:#FFCB4A;}
	.st91{fill:#FFAC35;}
	.st92{fill:#FFAD34;}
	.st93{fill:#FFAC33;}
	.st94{fill:#FFB238;}
	.st95{fill:#FFAD35;}
	.st96{fill:#FFA42D;}
	.st97{fill:#FFA931;}
	.st98{fill:#FFB73D;}
	.st99{fill:#FFC748;}
	.st100{fill:#FFAF37;}
	.st101{fill:#FFB73B;}
	.st102{fill:#FFB43A;}
	.st103{fill:#FFA82F;}
	.st104{fill:#FFA12C;}
	.st105{fill:#FF9F29;}
	.st106{fill:#FF8415;}
	.st107{fill:#FF8A19;}
	.st108{fill:#FF9724;}
	.st109{fill:#FF9623;}
	.st110{fill:#FF9622;}
	.st111{fill:#FF9A25;}
	.st112{fill:#FFB338;}
	.st113{fill:#FFB83D;}
	.st114{fill:#FFBD41;}
	.st115{fill:#FFC042;}
	.st116{fill:#FF9F2A;}
	.st117{fill:#FF8314;}
	.st118{fill:#FFA52D;}
	.st119{fill:#FFB038;}
	.st120{fill:#FFB93E;}
	.st121{fill:#FFC043;}
	.st122{fill:#FFD250;}
	.st123{fill:#FFBE42;}
	.st124{fill:#FFB239;}
	.st125{fill:#FFBB3F;}
	.st126{fill:#FF7E10;}
	.st127{fill:#FF8B1B;}
	.st128{fill:#FF9824;}
	.st129{fill:#FF9C27;}
	.st130{fill:#FFCF50;}
	.st131{fill:#FFBF43;}
	.st132{fill:#FFBC41;}
	.st133{fill:#FFCD4D;}
	.st134{fill:#FFE560;}
	.st135{fill:#FFDC58;}
	.st136{fill:#FFC84A;}
	.st137{fill:#FFCF4E;}
	.st138{fill:#FFC446;}
	.st139{fill:#FFB63C;}
	.st140{fill:#FFA42C;}
	.st141{fill:#FF8E1D;}
	.st142{fill:#FF9421;}
	.st143{fill:#FFCF4F;}
	.st144{fill:#FFB037;}
	.st145{fill:#FFBE43;}
	.st146{fill:#FFC849;}
	.st147{fill:#FFD453;}
	.st148{fill:#FFED67;}
	.st149{fill:#FFEB65;}
	.st150{fill:#FFE460;}
	.st151{fill:#FFDC59;}
	.st152{fill:#FFF970;}
	.st153{fill:#FFF96F;}
	.st154{fill:#FFF069;}
	.st155{fill:#FFDA58;}
	.st156{fill:#FFD352;}
	.st157{fill:#FFCE4E;}
	.st158{fill:#FFC547;}
	.st159{fill:#FFF971;}
	.st160{fill:#FFFF7D;}
	.st161{fill:#FFFF7A;}
	.st162{fill:#FFFE73;}
	.st163{fill:#FFFF7C;}
	.st164{fill:#FFFF75;}
	.st165{fill:#FFFF82;}
	.st166{fill:#FFFF79;}
	.st167{fill:#FFFB71;}
	.st168{fill:#FFFE74;}
	.st169{fill:#FFFF81;}
	.st170{fill:#FFFC73;}
	.st171{fill:#FFFF7F;}
	.st172{fill:#FFFF80;}
</style>
<g>
	<g>
		<g>
			<defs>
				<rect id="SVGID_1_" x="0" width="504" height="216"/>
			</defs>
			<use xlink:href="#SVGID_1_"  style="overflow:visible;fill:#E6E6E6;"/>
			<clipPath id="SVGID_2_">
				<use xlink:href="#SVGID_1_"  style="overflow:visible;"/>
			</clipPath>
			<g class="st0">
				<polygon class="st1" points="312.6,-111.6 312.6,-94.3 297.7,-85.7 282.7,-94.3 282.7,-111.6 297.7,-120.2 				"/>
				<polygon class="st2" points="327.5,-85.7 327.5,-68.5 312.6,-59.9 297.7,-68.5 297.7,-85.7 312.6,-94.3 				"/>
				<polygon class="st3" points="342.4,-111.6 342.4,-94.3 327.5,-85.7 312.6,-94.3 312.6,-111.6 327.5,-120.2 				"/>
				<polygon class="st4" points="282.7,-111.6 282.7,-94.3 267.8,-85.7 252.9,-94.3 252.9,-111.6 267.8,-120.2 				"/>
				<polygon class="st5" points="297.7,-85.7 297.7,-68.5 282.7,-59.9 267.8,-68.5 267.8,-85.7 282.7,-94.3 				"/>
				<polygon class="st6" points="342.4,-59.9 342.4,-42.6 327.5,-34 312.6,-42.6 312.6,-59.9 327.5,-68.5 				"/>
				<polygon class="st7" points="357.3,-85.7 357.3,-68.5 342.4,-59.9 327.5,-68.5 327.5,-85.7 342.4,-94.3 				"/>
				<polygon class="st8" points="372.3,-111.6 372.3,-94.3 357.3,-85.7 342.4,-94.3 342.4,-111.6 357.3,-120.2 				"/>
				<polygon class="st9" points="252.9,-111.6 252.9,-94.3 238,-85.7 223,-94.3 223,-111.6 238,-120.2 				"/>
				<polygon class="st10" points="267.8,-85.7 267.8,-68.5 252.9,-59.9 238,-68.5 238,-85.7 252.9,-94.3 				"/>
				<polygon class="st11" points="282.7,-59.9 282.7,-42.6 267.8,-34 252.9,-42.6 252.9,-59.9 267.8,-68.5 				"/>
				<polygon class="st12" points="312.6,-59.9 312.6,-42.6 297.7,-34 282.7,-42.6 282.7,-59.9 297.7,-68.5 				"/>
				<polygon class="st13" points="357.3,-34 357.3,-16.8 342.4,-8.2 327.5,-16.8 327.5,-34 342.4,-42.6 				"/>
				<polygon class="st7" points="372.3,-59.9 372.3,-42.6 357.3,-34 342.4,-42.6 342.4,-59.9 357.3,-68.5 				"/>
				<polygon class="st14" points="387.2,-85.7 387.2,-68.5 372.3,-59.9 357.3,-68.5 357.3,-85.7 372.3,-94.3 				"/>
				<polygon class="st15" points="402.1,-111.6 402.1,-94.3 387.2,-85.7 372.3,-94.3 372.3,-111.6 387.2,-120.2 				"/>
				<polygon class="st16" points="223,-111.6 223,-94.3 208.1,-85.7 193.2,-94.3 193.2,-111.6 208.1,-120.2 				"/>
				<polygon class="st17" points="238,-85.7 238,-68.5 223,-59.9 208.1,-68.5 208.1,-85.7 223,-94.3 				"/>
				<polygon class="st18" points="252.9,-59.9 252.9,-42.6 238,-34 223,-42.6 223,-59.9 238,-68.5 				"/>
				<polygon class="st19" points="267.8,-34 267.8,-16.8 252.9,-8.2 238,-16.8 238,-34 252.9,-42.6 				"/>
				<polygon class="st11" points="297.7,-34 297.7,-16.8 282.7,-8.2 267.8,-16.8 267.8,-34 282.7,-42.6 				"/>
				<polygon class="st20" points="327.5,-34 327.5,-16.8 312.6,-8.2 297.7,-16.8 297.7,-34 312.6,-42.6 				"/>
				<polygon class="st21" points="372.3,-8.2 372.3,9.1 357.3,17.7 342.4,9.1 342.4,-8.2 357.3,-16.8 				"/>
				<polygon class="st22" points="387.2,-34 387.2,-16.8 372.3,-8.2 357.3,-16.8 357.3,-34 372.3,-42.6 				"/>
				<polygon class="st23" points="402.1,-59.9 402.1,-42.6 387.2,-34 372.3,-42.6 372.3,-59.9 387.2,-68.5 				"/>
				<polygon class="st24" points="417,-85.7 417,-68.5 402.1,-59.9 387.2,-68.5 387.2,-85.7 402.1,-94.3 				"/>
				<polygon class="st25" points="432,-111.6 432,-94.3 417,-85.7 402.1,-94.3 402.1,-111.6 417,-120.2 				"/>
				<polygon class="st26" points="193.2,-111.6 193.2,-94.3 178.3,-85.7 163.4,-94.3 163.4,-111.6 178.3,-120.2 				"/>
				<polygon class="st27" points="208.1,-85.7 208.1,-68.5 193.2,-59.9 178.3,-68.5 178.3,-85.7 193.2,-94.3 				"/>
				<polygon class="st28" points="223,-59.9 223,-42.6 208.1,-34 193.2,-42.6 193.2,-59.9 208.1,-68.5 				"/>
				<polygon class="st19" points="238,-34 238,-16.8 223,-8.2 208.1,-16.8 208.1,-34 223,-42.6 				"/>
				<polygon class="st29" points="252.9,-8.2 252.9,9.1 238,17.7 223,9.1 223,-8.2 238,-16.8 				"/>
				<polygon class="st19" points="282.7,-8.2 282.7,9.1 267.8,17.7 252.9,9.1 252.9,-8.2 267.8,-16.8 				"/>
				<polygon class="st30" points="312.6,-8.2 312.6,9.1 297.7,17.7 282.7,9.1 282.7,-8.2 297.7,-16.8 				"/>
				<polygon class="st31" points="342.4,-8.2 342.4,9.1 327.5,17.7 312.6,9.1 312.6,-8.2 327.5,-16.8 				"/>
				<polygon class="st32" points="387.2,17.7 387.2,34.9 372.3,43.5 357.3,34.9 357.3,17.7 372.3,9.1 				"/>
				<polygon class="st33" points="402.1,-8.2 402.1,9.1 387.2,17.7 372.3,9.1 372.3,-8.2 387.2,-16.8 				"/>
				<polygon class="st34" points="417,-34 417,-16.8 402.1,-8.2 387.2,-16.8 387.2,-34 402.1,-42.6 				"/>
				<polygon class="st35" points="432,-59.9 432,-42.6 417,-34 402.1,-42.6 402.1,-59.9 417,-68.5 				"/>
				<polygon class="st25" points="446.9,-85.7 446.9,-68.5 432,-59.9 417,-68.5 417,-85.7 432,-94.3 				"/>
				<polygon class="st36" points="461.8,-111.6 461.8,-94.3 446.9,-85.7 432,-94.3 432,-111.6 446.9,-120.2 				"/>
				<polygon class="st37" points="163.4,-111.6 163.4,-94.3 148.4,-85.7 133.5,-94.3 133.5,-111.6 148.4,-120.2 				"/>
				<polygon class="st38" points="178.3,-85.7 178.3,-68.5 163.4,-59.9 148.4,-68.5 148.4,-85.7 163.4,-94.3 				"/>
				<polygon class="st37" points="193.2,-59.9 193.2,-42.6 178.3,-34 163.4,-42.6 163.4,-59.9 178.3,-68.5 				"/>
				<polygon class="st39" points="208.1,-34 208.1,-16.8 193.2,-8.2 178.3,-16.8 178.3,-34 193.2,-42.6 				"/>
				<polygon class="st27" points="223,-8.2 223,9.1 208.1,17.7 193.2,9.1 193.2,-8.2 208.1,-16.8 				"/>
				<polygon class="st40" points="238,17.7 238,34.9 223,43.5 208.1,34.9 208.1,17.7 223,9.1 				"/>
				<polygon class="st41" points="267.8,17.7 267.8,34.9 252.9,43.5 238,34.9 238,17.7 252.9,9.1 				"/>
				<polygon class="st42" points="297.7,17.7 297.7,34.9 282.7,43.5 267.8,34.9 267.8,17.7 282.7,9.1 				"/>
				<polygon class="st43" points="327.5,17.7 327.5,34.9 312.6,43.5 297.7,34.9 297.7,17.7 312.6,9.1 				"/>
				<polygon class="st44" points="357.3,17.7 357.3,34.9 342.4,43.5 327.5,34.9 327.5,17.7 342.4,9.1 				"/>
				<polygon class="st45" points="402.1,43.5 402.1,60.7 387.2,69.4 372.3,60.7 372.3,43.5 387.2,34.9 				"/>
				<polygon class="st46" points="417,17.7 417,34.9 402.1,43.5 387.2,34.9 387.2,17.7 402.1,9.1 				"/>
				<polygon class="st47" points="432,-8.2 432,9.1 417,17.7 402.1,9.1 402.1,-8.2 417,-16.8 				"/>
				<polygon class="st48" points="446.9,-34 446.9,-16.8 432,-8.2 417,-16.8 417,-34 432,-42.6 				"/>
				<polygon class="st36" points="461.8,-59.9 461.8,-42.6 446.9,-34 432,-42.6 432,-59.9 446.9,-68.5 				"/>
				<polygon class="st49" points="476.7,-85.7 476.7,-68.5 461.8,-59.9 446.9,-68.5 446.9,-85.7 461.8,-94.3 				"/>
				<polygon class="st50" points="491.6,-111.6 491.6,-94.3 476.7,-85.7 461.8,-94.3 461.8,-111.6 476.7,-120.2 				"/>
				<polygon class="st51" points="133.5,-111.6 133.5,-94.3 118.6,-85.7 103.7,-94.3 103.7,-111.6 118.6,-120.2 				"/>
				<polygon class="st52" points="148.4,-85.7 148.4,-68.5 133.5,-59.9 118.6,-68.5 118.6,-85.7 133.5,-94.3 				"/>
				<polygon class="st53" points="163.4,-59.9 163.4,-42.6 148.4,-34 133.5,-42.6 133.5,-59.9 148.4,-68.5 				"/>
				<polygon class="st54" points="178.3,-34 178.3,-16.8 163.4,-8.2 148.4,-16.8 148.4,-34 163.4,-42.6 				"/>
				<polygon class="st55" points="193.2,-8.2 193.2,9.1 178.3,17.7 163.4,9.1 163.4,-8.2 178.3,-16.8 				"/>
				<polygon class="st55" points="208.1,17.7 208.1,34.9 193.2,43.5 178.3,34.9 178.3,17.7 193.2,9.1 				"/>
				<polygon class="st56" points="223,43.5 223,60.7 208.1,69.4 193.2,60.7 193.2,43.5 208.1,34.9 				"/>
				<polygon class="st18" points="252.9,43.5 252.9,60.7 238,69.4 223,60.7 223,43.5 238,34.9 				"/>
				<polygon class="st29" points="282.7,43.5 282.7,60.7 267.8,69.4 252.9,60.7 252.9,43.5 267.8,34.9 				"/>
				<polygon class="st57" points="312.6,43.5 312.6,60.7 297.7,69.4 282.7,60.7 282.7,43.5 297.7,34.9 				"/>
				<polygon class="st58" points="342.4,43.5 342.4,60.7 327.5,69.4 312.6,60.7 312.6,43.5 327.5,34.9 				"/>
				<polygon class="st59" points="372.3,43.5 372.3,60.7 357.3,69.4 342.4,60.7 342.4,43.5 357.3,34.9 				"/>
				<polygon class="st60" points="417,69.4 417,86.6 402.1,95.2 387.2,86.6 387.2,69.4 402.1,60.7 				"/>
				<polygon class="st7" points="432,43.5 432,60.7 417,69.4 402.1,60.7 402.1,43.5 417,34.9 				"/>
				<polygon class="st61" points="446.9,17.7 446.9,34.9 432,43.5 417,34.9 417,17.7 432,9.1 				"/>
				<polygon class="st48" points="461.8,-8.2 461.8,9.1 446.9,17.7 432,9.1 432,-8.2 446.9,-16.8 				"/>
				<polygon class="st36" points="476.7,-34 476.7,-16.8 461.8,-8.2 446.9,-16.8 446.9,-34 461.8,-42.6 				"/>
				<polygon class="st62" points="491.6,-59.9 491.6,-42.6 476.7,-34 461.8,-42.6 461.8,-59.9 476.7,-68.5 				"/>
				<polygon class="st63" points="506.6,-85.7 506.6,-68.5 491.6,-59.9 476.7,-68.5 476.7,-85.7 491.6,-94.3 				"/>
				<polygon class="st64" points="103.7,-111.6 103.7,-94.3 88.7,-85.7 73.8,-94.3 73.8,-111.6 88.7,-120.2 				"/>
				<polygon class="st65" points="118.6,-85.7 118.6,-68.5 103.7,-59.9 88.7,-68.5 88.7,-85.7 103.7,-94.3 				"/>
				<polygon class="st66" points="133.5,-59.9 133.5,-42.6 118.6,-34 103.7,-42.6 103.7,-59.9 118.6,-68.5 				"/>
				<polygon class="st67" points="148.4,-34 148.4,-16.8 133.5,-8.2 118.6,-16.8 118.6,-34 133.5,-42.6 				"/>
				<polygon class="st68" points="163.4,-8.2 163.4,9.1 148.4,17.7 133.5,9.1 133.5,-8.2 148.4,-16.8 				"/>
				<polygon class="st20" points="178.3,17.7 178.3,34.9 163.4,43.5 148.4,34.9 148.4,17.7 163.4,9.1 				"/>
				<polygon class="st69" points="193.2,43.5 193.2,60.7 178.3,69.4 163.4,60.7 163.4,43.5 178.3,34.9 				"/>
				<polygon class="st69" points="208.1,69.4 208.1,86.6 193.2,95.2 178.3,86.6 178.3,69.4 193.2,60.7 				"/>
				<polygon class="st70" points="238,69.4 238,86.6 223,95.2 208.1,86.6 208.1,69.4 223,60.7 				"/>
				<polygon class="st57" points="267.8,69.4 267.8,86.6 252.9,95.2 238,86.6 238,69.4 252.9,60.7 				"/>
				<polygon class="st71" points="297.7,69.4 297.7,86.6 282.7,95.2 267.8,86.6 267.8,69.4 282.7,60.7 				"/>
				<polygon class="st18" points="327.5,69.4 327.5,86.6 312.6,95.2 297.7,86.6 297.7,69.4 312.6,60.7 				"/>
				<polygon class="st51" points="357.3,69.4 357.3,86.6 342.4,95.2 327.5,86.6 327.5,69.4 342.4,60.7 				"/>
				<polygon class="st72" points="387.2,69.4 387.2,86.6 372.3,95.2 357.3,86.6 357.3,69.4 372.3,60.7 				"/>
				<polygon class="st73" points="432,95.2 432,112.4 417,121.1 402.1,112.4 402.1,95.2 417,86.6 				"/>
				<polygon class="st74" points="446.9,69.4 446.9,86.6 432,95.2 417,86.6 417,69.4 432,60.7 				"/>
				<polygon class="st75" points="461.8,43.5 461.8,60.7 446.9,69.4 432,60.7 432,43.5 446.9,34.9 				"/>
				<polygon class="st76" points="476.7,17.7 476.7,34.9 461.8,43.5 446.9,34.9 446.9,17.7 461.8,9.1 				"/>
				<polygon class="st77" points="491.6,-8.2 491.6,9.1 476.7,17.7 461.8,9.1 461.8,-8.2 476.7,-16.8 				"/>
				<polygon class="st36" points="506.6,-34 506.6,-16.8 491.6,-8.2 476.7,-16.8 476.7,-34 491.6,-42.6 				"/>
				<polygon class="st78" points="521.5,-59.9 521.5,-42.6 506.6,-34 491.6,-42.6 491.6,-59.9 506.6,-68.5 				"/>
				<polygon class="st79" points="73.8,-111.6 73.8,-94.3 58.9,-85.7 44,-94.3 44,-111.6 58.9,-120.2 				"/>
				<polygon class="st80" points="88.7,-85.7 88.7,-68.5 73.8,-59.9 58.9,-68.5 58.9,-85.7 73.8,-94.3 				"/>
				<polygon class="st81" points="103.7,-59.9 103.7,-42.6 88.7,-34 73.8,-42.6 73.8,-59.9 88.7,-68.5 				"/>
				<polygon class="st82" points="118.6,-34 118.6,-16.8 103.7,-8.2 88.7,-16.8 88.7,-34 103.7,-42.6 				"/>
				<polygon class="st82" points="133.5,-8.2 133.5,9.1 118.6,17.7 103.7,9.1 103.7,-8.2 118.6,-16.8 				"/>
				<polygon class="st83" points="148.4,17.7 148.4,34.9 133.5,43.5 118.6,34.9 118.6,17.7 133.5,9.1 				"/>
				<polygon class="st79" points="163.4,43.5 163.4,60.7 148.4,69.4 133.5,60.7 133.5,43.5 148.4,34.9 				"/>
				<polygon class="st84" points="178.3,69.4 178.3,86.6 163.4,95.2 148.4,86.6 148.4,69.4 163.4,60.7 				"/>
				<polygon class="st85" points="193.2,95.2 193.2,112.4 178.3,121.1 163.4,112.4 163.4,95.2 178.3,86.6 				"/>
				<polygon class="st86" points="223,95.2 223,112.4 208.1,121.1 193.2,112.4 193.2,95.2 208.1,86.6 				"/>
				<polygon class="st20" points="252.9,95.2 252.9,112.4 238,121.1 223,112.4 223,95.2 238,86.6 				"/>
				<polygon class="st19" points="282.7,95.2 282.7,112.4 267.8,121.1 252.9,112.4 252.9,95.2 267.8,86.6 				"/>
				<polygon class="st19" points="312.6,95.2 312.6,112.4 297.7,121.1 282.7,112.4 282.7,95.2 297.7,86.6 				"/>
				<polygon class="st87" points="342.4,95.2 342.4,112.4 327.5,121.1 312.6,112.4 312.6,95.2 327.5,86.6 				"/>
				<polygon class="st84" points="372.3,95.2 372.3,112.4 357.3,121.1 342.4,112.4 342.4,95.2 357.3,86.6 				"/>
				<polygon class="st1" points="402.1,95.2 402.1,112.4 387.2,121.1 372.3,112.4 372.3,95.2 387.2,86.6 				"/>
				<polygon class="st82" points="446.9,121.1 446.9,138.3 432,146.9 417,138.3 417,121.1 432,112.4 				"/>
				<polygon class="st60" points="461.8,95.2 461.8,112.4 446.9,121.1 432,112.4 432,95.2 446.9,86.6 				"/>
				<polygon class="st88" points="476.7,69.4 476.7,86.6 461.8,95.2 446.9,86.6 446.9,69.4 461.8,60.7 				"/>
				<polygon class="st89" points="491.6,43.5 491.6,60.7 476.7,69.4 461.8,60.7 461.8,43.5 476.7,34.9 				"/>
				<polygon class="st90" points="506.6,17.7 506.6,34.9 491.6,43.5 476.7,34.9 476.7,17.7 491.6,9.1 				"/>
				<polygon class="st77" points="521.5,-8.2 521.5,9.1 506.6,17.7 491.6,9.1 491.6,-8.2 506.6,-16.8 				"/>
				<polygon class="st13" points="44,-111.6 44,-94.3 29.1,-85.7 14.1,-94.3 14.1,-111.6 29.1,-120.2 				"/>
				<polygon class="st91" points="58.9,-85.7 58.9,-68.5 44,-59.9 29.1,-68.5 29.1,-85.7 44,-94.3 				"/>
				<polygon class="st92" points="73.8,-59.9 73.8,-42.6 58.9,-34 44,-42.6 44,-59.9 58.9,-68.5 				"/>
				<polygon class="st93" points="88.7,-34 88.7,-16.8 73.8,-8.2 58.9,-16.8 58.9,-34 73.8,-42.6 				"/>
				<polygon class="st73" points="103.7,-8.2 103.7,9.1 88.7,17.7 73.8,9.1 73.8,-8.2 88.7,-16.8 				"/>
				<polygon class="st94" points="118.6,17.7 118.6,34.9 103.7,43.5 88.7,34.9 88.7,17.7 103.7,9.1 				"/>
				<polygon class="st93" points="133.5,43.5 133.5,60.7 118.6,69.4 103.7,60.7 103.7,43.5 118.6,34.9 				"/>
				<polygon class="st95" points="148.4,69.4 148.4,86.6 133.5,95.2 118.6,86.6 118.6,69.4 133.5,60.7 				"/>
				<polygon class="st96" points="163.4,95.2 163.4,112.4 148.4,121.1 133.5,112.4 133.5,95.2 148.4,86.6 				"/>
				<polygon class="st68" points="178.3,121.1 178.3,138.3 163.4,146.9 148.4,138.3 148.4,121.1 163.4,112.4 				"/>
				<polygon class="st9" points="208.1,121.1 208.1,138.3 193.2,146.9 178.3,138.3 178.3,121.1 193.2,112.4 				"/>
				<polygon class="st82" points="238,121.1 238,138.3 223,146.9 208.1,138.3 208.1,121.1 223,112.4 				"/>
				<polygon class="st97" points="267.8,121.1 267.8,138.3 252.9,146.9 238,138.3 238,121.1 252.9,112.4 				"/>
				<polygon class="st71" points="297.7,121.1 297.7,138.3 282.7,146.9 267.8,138.3 267.8,121.1 282.7,112.4 				"/>
				<polygon class="st26" points="327.5,121.1 327.5,138.3 312.6,146.9 297.7,138.3 297.7,121.1 312.6,112.4 				"/>
				<polygon class="st55" points="357.3,121.1 357.3,138.3 342.4,146.9 327.5,138.3 327.5,121.1 342.4,112.4 				"/>
				<polygon class="st20" points="387.2,121.1 387.2,138.3 372.3,146.9 357.3,138.3 357.3,121.1 372.3,112.4 				"/>
				<polygon class="st20" points="417,121.1 417,138.3 402.1,146.9 387.2,138.3 387.2,121.1 402.1,112.4 				"/>
				<polygon class="st51" points="461.8,146.9 461.8,164.1 446.9,172.7 432,164.1 432,146.9 446.9,138.3 				"/>
				<polygon class="st97" points="476.7,121.1 476.7,138.3 461.8,146.9 446.9,138.3 446.9,121.1 461.8,112.4 				"/>
				<polygon class="st98" points="491.6,95.2 491.6,112.4 476.7,121.1 461.8,112.4 461.8,95.2 476.7,86.6 				"/>
				<polygon class="st3" points="506.6,69.4 506.6,86.6 491.6,95.2 476.7,86.6 476.7,69.4 491.6,60.7 				"/>
				<polygon class="st99" points="521.5,43.5 521.5,60.7 506.6,69.4 491.6,60.7 491.6,43.5 506.6,34.9 				"/>
				<polygon class="st94" points="14.1,-111.6 14.1,-94.3 -0.8,-85.7 -15.7,-94.3 -15.7,-111.6 -0.8,-120.2 				"/>
				<polygon class="st45" points="29.1,-85.7 29.1,-68.5 14.1,-59.9 -0.8,-68.5 -0.8,-85.7 14.1,-94.3 				"/>
				<polygon class="st94" points="44,-59.9 44,-42.6 29.1,-34 14.1,-42.6 14.1,-59.9 29.1,-68.5 				"/>
				<polygon class="st72" points="58.9,-34 58.9,-16.8 44,-8.2 29.1,-16.8 29.1,-34 44,-42.6 				"/>
				<polygon class="st100" points="73.8,-8.2 73.8,9.1 58.9,17.7 44,9.1 44,-8.2 58.9,-16.8 				"/>
				<polygon class="st101" points="88.7,17.7 88.7,34.9 73.8,43.5 58.9,34.9 58.9,17.7 73.8,9.1 				"/>
				<polygon class="st102" points="103.7,43.5 103.7,60.7 88.7,69.4 73.8,60.7 73.8,43.5 88.7,34.9 				"/>
				<polygon class="st97" points="118.6,69.4 118.6,86.6 103.7,95.2 88.7,86.6 88.7,69.4 103.7,60.7 				"/>
				<polygon class="st103" points="133.5,95.2 133.5,112.4 118.6,121.1 103.7,112.4 103.7,95.2 118.6,86.6 				"/>
				<polygon class="st97" points="148.4,121.1 148.4,138.3 133.5,146.9 118.6,138.3 118.6,121.1 133.5,112.4 				"/>
				<polygon class="st82" points="163.4,146.9 163.4,164.1 148.4,172.7 133.5,164.1 133.5,146.9 148.4,138.3 				"/>
				<polygon class="st59" points="193.2,146.9 193.2,164.1 178.3,172.7 163.4,164.1 163.4,146.9 178.3,138.3 				"/>
				<polygon class="st104" points="223,146.9 223,164.1 208.1,172.7 193.2,164.1 193.2,146.9 208.1,138.3 				"/>
				<polygon class="st105" points="252.9,146.9 252.9,164.1 238,172.7 223,164.1 223,146.9 238,138.3 				"/>
				<polygon class="st96" points="282.7,146.9 282.7,164.1 267.8,172.7 252.9,164.1 252.9,146.9 267.8,138.3 				"/>
				<polygon class="st106" points="312.6,146.9 312.6,164.1 297.7,172.7 282.7,164.1 282.7,146.9 297.7,138.3 				"/>
				<polygon class="st107" points="342.4,146.9 342.4,164.1 327.5,172.7 312.6,164.1 312.6,146.9 327.5,138.3 				"/>
				<polygon class="st108" points="372.3,146.9 372.3,164.1 357.3,172.7 342.4,164.1 342.4,146.9 357.3,138.3 				"/>
				<polygon class="st109" points="402.1,146.9 402.1,164.1 387.2,172.7 372.3,164.1 372.3,146.9 387.2,138.3 				"/>
				<polygon class="st110" points="432,146.9 432,164.1 417,172.7 402.1,164.1 402.1,146.9 417,138.3 				"/>
				<polygon class="st111" points="476.7,172.7 476.7,190 461.8,198.6 446.9,190 446.9,172.7 461.8,164.1 				"/>
				<polygon class="st44" points="491.6,146.9 491.6,164.1 476.7,172.7 461.8,164.1 461.8,146.9 476.7,138.3 				"/>
				<polygon class="st112" points="506.6,121.1 506.6,138.3 491.6,146.9 476.7,138.3 476.7,121.1 491.6,112.4 				"/>
				<polygon class="st113" points="521.5,95.2 521.5,112.4 506.6,121.1 491.6,112.4 491.6,95.2 506.6,86.6 				"/>
				<polygon class="st102" points="-15.7,-111.6 -15.7,-94.3 -30.6,-85.7 -45.6,-94.3 -45.6,-111.6 -30.6,-120.2 				"/>
				<polygon class="st33" points="-0.8,-85.7 -0.8,-68.5 -15.7,-59.9 -30.6,-68.5 -30.6,-85.7 -15.7,-94.3 				"/>
				<polygon class="st60" points="14.1,-59.9 14.1,-42.6 -0.8,-34 -15.7,-42.6 -15.7,-59.9 -0.8,-68.5 				"/>
				<polygon class="st102" points="29.1,-34 29.1,-16.8 14.1,-8.2 -0.8,-16.8 -0.8,-34 14.1,-42.6 				"/>
				<polygon class="st102" points="44,-8.2 44,9.1 29.1,17.7 14.1,9.1 14.1,-8.2 29.1,-16.8 				"/>
				<polygon class="st114" points="58.9,17.7 58.9,34.9 44,43.5 29.1,34.9 29.1,17.7 44,9.1 				"/>
				<polygon class="st115" points="73.8,43.5 73.8,60.7 58.9,69.4 44,60.7 44,43.5 58.9,34.9 				"/>
				<polygon class="st21" points="88.7,69.4 88.7,86.6 73.8,95.2 58.9,86.6 58.9,69.4 73.8,60.7 				"/>
				<polygon class="st21" points="103.7,95.2 103.7,112.4 88.7,121.1 73.8,112.4 73.8,95.2 88.7,86.6 				"/>
				<polygon class="st94" points="118.6,121.1 118.6,138.3 103.7,146.9 88.7,138.3 88.7,121.1 103.7,112.4 				"/>
				<polygon class="st73" points="133.5,146.9 133.5,164.1 118.6,172.7 103.7,164.1 103.7,146.9 118.6,138.3 				"/>
				<polygon class="st21" points="148.4,172.7 148.4,190 133.5,198.6 118.6,190 118.6,172.7 133.5,164.1 				"/>
				<polygon class="st82" points="178.3,172.7 178.3,190 163.4,198.6 148.4,190 148.4,172.7 163.4,164.1 				"/>
				<polygon class="st84" points="208.1,172.7 208.1,190 193.2,198.6 178.3,190 178.3,172.7 193.2,164.1 				"/>
				<polygon class="st116" points="238,172.7 238,190 223,198.6 208.1,190 208.1,172.7 223,164.1 				"/>
				<polygon class="st83" points="267.8,172.7 267.8,190 252.9,198.6 238,190 238,172.7 252.9,164.1 				"/>
				<polygon class="st51" points="297.7,172.7 297.7,190 282.7,198.6 267.8,190 267.8,172.7 282.7,164.1 				"/>
				<polygon class="st117" points="327.5,172.7 327.5,190 312.6,198.6 297.7,190 297.7,172.7 312.6,164.1 				"/>
				<polygon class="st53" points="357.3,172.7 357.3,190 342.4,198.6 327.5,190 327.5,172.7 342.4,164.1 				"/>
				<polygon class="st71" points="387.2,172.7 387.2,190 372.3,198.6 357.3,190 357.3,172.7 372.3,164.1 				"/>
				<polygon class="st19" points="417,172.7 417,190 402.1,198.6 387.2,190 387.2,172.7 402.1,164.1 				"/>
				<polygon class="st52" points="446.9,172.7 446.9,190 432,198.6 417,190 417,172.7 432,164.1 				"/>
				<polygon class="st9" points="491.6,198.6 491.6,215.8 476.7,224.4 461.8,215.8 461.8,198.6 476.7,190 				"/>
				<polygon class="st118" points="506.6,172.7 506.6,190 491.6,198.6 476.7,190 476.7,172.7 491.6,164.1 				"/>
				<polygon class="st1" points="521.5,146.9 521.5,164.1 506.6,172.7 491.6,164.1 491.6,146.9 506.6,138.3 				"/>
				<polygon class="st119" points="-45.6,-111.6 -45.6,-94.3 -60.5,-85.7 -75.4,-94.3 -75.4,-111.6 -60.5,-120.2 				"/>
				<polygon class="st33" points="-30.6,-85.7 -30.6,-68.5 -45.6,-59.9 -60.5,-68.5 -60.5,-85.7 -45.6,-94.3 				"/>
				<polygon class="st98" points="-15.7,-59.9 -15.7,-42.6 -30.6,-34 -45.6,-42.6 -45.6,-59.9 -30.6,-68.5 				"/>
				<polygon class="st120" points="-0.8,-34 -0.8,-16.8 -15.7,-8.2 -30.6,-16.8 -30.6,-34 -15.7,-42.6 				"/>
				<polygon class="st120" points="14.1,-8.2 14.1,9.1 -0.8,17.7 -15.7,9.1 -15.7,-8.2 -0.8,-16.8 				"/>
				<polygon class="st121" points="29.1,17.7 29.1,34.9 14.1,43.5 -0.8,34.9 -0.8,17.7 14.1,9.1 				"/>
				<polygon class="st122" points="44,43.5 44,60.7 29.1,69.4 14.1,60.7 14.1,43.5 29.1,34.9 				"/>
				<polygon class="st123" points="58.9,69.4 58.9,86.6 44,95.2 29.1,86.6 29.1,69.4 44,60.7 				"/>
				<polygon class="st94" points="73.8,95.2 73.8,112.4 58.9,121.1 44,112.4 44,95.2 58.9,86.6 				"/>
				<polygon class="st7" points="88.7,121.1 88.7,138.3 73.8,146.9 58.9,138.3 58.9,121.1 73.8,112.4 				"/>
				<polygon class="st124" points="103.7,146.9 103.7,164.1 88.7,172.7 73.8,164.1 73.8,146.9 88.7,138.3 				"/>
				<polygon class="st100" points="118.6,172.7 118.6,190 103.7,198.6 88.7,190 88.7,172.7 103.7,164.1 				"/>
				<polygon class="st125" points="133.5,198.6 133.5,215.8 118.6,224.4 103.7,215.8 103.7,198.6 118.6,190 				"/>
				<polygon class="st1" points="163.4,198.6 163.4,215.8 148.4,224.4 133.5,215.8 133.5,198.6 148.4,190 				"/>
				<polygon class="st80" points="193.2,198.6 193.2,215.8 178.3,224.4 163.4,215.8 163.4,198.6 178.3,190 				"/>
				<polygon class="st20" points="223,198.6 223,215.8 208.1,224.4 193.2,215.8 193.2,198.6 208.1,190 				"/>
				<polygon class="st65" points="252.9,198.6 252.9,215.8 238,224.4 223,215.8 223,198.6 238,190 				"/>
				<polygon class="st103" points="282.7,198.6 282.7,215.8 267.8,224.4 252.9,215.8 252.9,198.6 267.8,190 				"/>
				<polygon class="st126" points="312.6,198.6 312.6,215.8 297.7,224.4 282.7,215.8 282.7,198.6 297.7,190 				"/>
				<polygon class="st117" points="342.4,198.6 342.4,215.8 327.5,224.4 312.6,215.8 312.6,198.6 327.5,190 				"/>
				<polygon class="st26" points="372.3,198.6 372.3,215.8 357.3,224.4 342.4,215.8 342.4,198.6 357.3,190 				"/>
				<polygon class="st127" points="402.1,198.6 402.1,215.8 387.2,224.4 372.3,215.8 372.3,198.6 387.2,190 				"/>
				<polygon class="st19" points="432,198.6 432,215.8 417,224.4 402.1,215.8 402.1,198.6 417,190 				"/>
				<polygon class="st128" points="461.8,198.6 461.8,215.8 446.9,224.4 432,215.8 432,198.6 446.9,190 				"/>
				<polygon class="st129" points="506.6,224.4 506.6,241.7 491.6,250.3 476.7,241.7 476.7,224.4 491.6,215.8 				"/>
				<polygon class="st97" points="521.5,198.6 521.5,215.8 506.6,224.4 491.6,215.8 491.6,198.6 506.6,190 				"/>
				<polygon class="st83" points="-75.4,-111.6 -75.4,-94.3 -90.3,-85.7 -105.2,-94.3 -105.2,-111.6 -90.3,-120.2 				"/>
				<polygon class="st96" points="-60.5,-85.7 -60.5,-68.5 -75.4,-59.9 -90.3,-68.5 -90.3,-85.7 -75.4,-94.3 				"/>
				<polygon class="st130" points="-45.6,-59.9 -45.6,-42.6 -60.5,-34 -75.4,-42.6 -75.4,-59.9 -60.5,-68.5 				"/>
				<polygon class="st131" points="-30.6,-34 -30.6,-16.8 -45.6,-8.2 -60.5,-16.8 -60.5,-34 -45.6,-42.6 				"/>
				<polygon class="st132" points="-15.7,-8.2 -15.7,9.1 -30.6,17.7 -45.6,9.1 -45.6,-8.2 -30.6,-16.8 				"/>
				<polygon class="st133" points="-0.8,17.7 -0.8,34.9 -15.7,43.5 -30.6,34.9 -30.6,17.7 -15.7,9.1 				"/>
				<polygon class="st134" points="14.1,43.5 14.1,60.7 -0.8,69.4 -15.7,60.7 -15.7,43.5 -0.8,34.9 				"/>
				<polygon class="st135" points="29.1,69.4 29.1,86.6 14.1,95.2 -0.8,86.6 -0.8,69.4 14.1,60.7 				"/>
				<polygon class="st136" points="44,95.2 44,112.4 29.1,121.1 14.1,112.4 14.1,95.2 29.1,86.6 				"/>
				<polygon class="st123" points="58.9,121.1 58.9,138.3 44,146.9 29.1,138.3 29.1,121.1 44,112.4 				"/>
				<polygon class="st33" points="73.8,146.9 73.8,164.1 58.9,172.7 44,164.1 44,146.9 58.9,138.3 				"/>
				<polygon class="st120" points="88.7,172.7 88.7,190 73.8,198.6 58.9,190 58.9,172.7 73.8,164.1 				"/>
				<polygon class="st7" points="103.7,198.6 103.7,215.8 88.7,224.4 73.8,215.8 73.8,198.6 88.7,190 				"/>
				<polygon class="st137" points="118.6,224.4 118.6,241.7 103.7,250.3 88.7,241.7 88.7,224.4 103.7,215.8 				"/>
				<polygon class="st138" points="148.4,224.4 148.4,241.7 133.5,250.3 118.6,241.7 118.6,224.4 133.5,215.8 				"/>
				<polygon class="st139" points="178.3,224.4 178.3,241.7 163.4,250.3 148.4,241.7 148.4,224.4 163.4,215.8 				"/>
				<polygon class="st60" points="208.1,224.4 208.1,241.7 193.2,250.3 178.3,241.7 178.3,224.4 193.2,215.8 				"/>
				<polygon class="st44" points="238,224.4 238,241.7 223,250.3 208.1,241.7 208.1,224.4 223,215.8 				"/>
				<polygon class="st140" points="267.8,224.4 267.8,241.7 252.9,250.3 238,241.7 238,224.4 252.9,215.8 				"/>
				<polygon class="st42" points="297.7,224.4 297.7,241.7 282.7,250.3 267.8,241.7 267.8,224.4 282.7,215.8 				"/>
				<polygon class="st141" points="327.5,224.4 327.5,241.7 312.6,250.3 297.7,241.7 297.7,224.4 312.6,215.8 				"/>
				<polygon class="st110" points="357.3,224.4 357.3,241.7 342.4,250.3 327.5,241.7 327.5,224.4 342.4,215.8 				"/>
				<polygon class="st54" points="387.2,224.4 387.2,241.7 372.3,250.3 357.3,241.7 357.3,224.4 372.3,215.8 				"/>
				<polygon class="st142" points="417,224.4 417,241.7 402.1,250.3 387.2,241.7 387.2,224.4 402.1,215.8 				"/>
				<polygon class="st57" points="446.9,224.4 446.9,241.7 432,250.3 417,241.7 417,224.4 432,215.8 				"/>
				<polygon class="st42" points="476.7,224.4 476.7,241.7 461.8,250.3 446.9,241.7 446.9,224.4 461.8,215.8 				"/>
				<polygon class="st143" points="-75.4,-59.9 -75.4,-42.6 -90.3,-34 -105.2,-42.6 -105.2,-59.9 -90.3,-68.5 				"/>
				<polygon class="st144" points="-60.5,-34 -60.5,-16.8 -75.4,-8.2 -90.3,-16.8 -90.3,-34 -75.4,-42.6 				"/>
				<polygon class="st145" points="-45.6,-8.2 -45.6,9.1 -60.5,17.7 -75.4,9.1 -75.4,-8.2 -60.5,-16.8 				"/>
				<polygon class="st146" points="-30.6,17.7 -30.6,34.9 -45.6,43.5 -60.5,34.9 -60.5,17.7 -45.6,9.1 				"/>
				<polygon class="st147" points="-15.7,43.5 -15.7,60.7 -30.6,69.4 -45.6,60.7 -45.6,43.5 -30.6,34.9 				"/>
				<polygon class="st148" points="-0.8,69.4 -0.8,86.6 -15.7,95.2 -30.6,86.6 -30.6,69.4 -15.7,60.7 				"/>
				<polygon class="st149" points="14.1,95.2 14.1,112.4 -0.8,121.1 -15.7,112.4 -15.7,95.2 -0.8,86.6 				"/>
				<polygon class="st36" points="29.1,121.1 29.1,138.3 14.1,146.9 -0.8,138.3 -0.8,121.1 14.1,112.4 				"/>
				<polygon class="st24" points="44,146.9 44,164.1 29.1,172.7 14.1,164.1 14.1,146.9 29.1,138.3 				"/>
				<polygon class="st146" points="58.9,172.7 58.9,190 44,198.6 29.1,190 29.1,172.7 44,164.1 				"/>
				<polygon class="st121" points="73.8,198.6 73.8,215.8 58.9,224.4 44,215.8 44,198.6 58.9,190 				"/>
				<polygon class="st23" points="88.7,224.4 88.7,241.7 73.8,250.3 58.9,241.7 58.9,224.4 73.8,215.8 				"/>
				<polygon class="st2" points="-75.4,-8.2 -75.4,9.1 -90.3,17.7 -105.2,9.1 -105.2,-8.2 -90.3,-16.8 				"/>
				<polygon class="st150" points="-60.5,17.7 -60.5,34.9 -75.4,43.5 -90.3,34.9 -90.3,17.7 -75.4,9.1 				"/>
				<polygon class="st151" points="-45.6,43.5 -45.6,60.7 -60.5,69.4 -75.4,60.7 -75.4,43.5 -60.5,34.9 				"/>
				<polygon class="st152" points="-30.6,69.4 -30.6,86.6 -45.6,95.2 -60.5,86.6 -60.5,69.4 -45.6,60.7 				"/>
				<polygon class="st153" points="-15.7,95.2 -15.7,112.4 -30.6,121.1 -45.6,112.4 -45.6,95.2 -30.6,86.6 				"/>
				<polygon class="st154" points="-0.8,121.1 -0.8,138.3 -15.7,146.9 -30.6,138.3 -30.6,121.1 -15.7,112.4 				"/>
				<polygon class="st155" points="14.1,146.9 14.1,164.1 -0.8,172.7 -15.7,164.1 -15.7,146.9 -0.8,138.3 				"/>
				<polygon class="st156" points="29.1,172.7 29.1,190 14.1,198.6 -0.8,190 -0.8,172.7 14.1,164.1 				"/>
				<polygon class="st157" points="44,198.6 44,215.8 29.1,224.4 14.1,215.8 14.1,198.6 29.1,190 				"/>
				<polygon class="st8" points="58.9,224.4 58.9,241.7 44,250.3 29.1,241.7 29.1,224.4 44,215.8 				"/>
				<polygon class="st158" points="-75.4,43.5 -75.4,60.7 -90.3,69.4 -105.2,60.7 -105.2,43.5 -90.3,34.9 				"/>
				<polygon class="st159" points="-60.5,69.4 -60.5,86.6 -75.4,95.2 -90.3,86.6 -90.3,69.4 -75.4,60.7 				"/>
				<polygon class="st160" points="-45.6,95.2 -45.6,112.4 -60.5,121.1 -75.4,112.4 -75.4,95.2 -60.5,86.6 				"/>
				<polygon class="st161" points="-30.6,121.1 -30.6,138.3 -45.6,146.9 -60.5,138.3 -60.5,121.1 -45.6,112.4 				"/>
				<polygon class="st162" points="-15.7,146.9 -15.7,164.1 -30.6,172.7 -45.6,164.1 -45.6,146.9 -30.6,138.3 				"/>
				<polygon class="st148" points="-0.8,172.7 -0.8,190 -15.7,198.6 -30.6,190 -30.6,172.7 -15.7,164.1 				"/>
				<polygon class="st150" points="14.1,198.6 14.1,215.8 -0.8,224.4 -15.7,215.8 -15.7,198.6 -0.8,190 				"/>
				<polygon class="st150" points="29.1,224.4 29.1,241.7 14.1,250.3 -0.8,241.7 -0.8,224.4 14.1,215.8 				"/>
				<polygon class="st163" points="-75.4,95.2 -75.4,112.4 -90.3,121.1 -105.2,112.4 -105.2,95.2 -90.3,86.6 				"/>
				<polygon class="st164" points="-60.5,121.1 -60.5,138.3 -75.4,146.9 -90.3,138.3 -90.3,121.1 -75.4,112.4 				"/>
				<polygon class="st165" points="-45.6,146.9 -45.6,164.1 -60.5,172.7 -75.4,164.1 -75.4,146.9 -60.5,138.3 				"/>
				<polygon class="st166" points="-30.6,172.7 -30.6,190 -45.6,198.6 -60.5,190 -60.5,172.7 -45.6,164.1 				"/>
				<polygon class="st167" points="-15.7,198.6 -15.7,215.8 -30.6,224.4 -45.6,215.8 -45.6,198.6 -30.6,190 				"/>
				<polygon class="st168" points="-0.8,224.4 -0.8,241.7 -15.7,250.3 -30.6,241.7 -30.6,224.4 -15.7,215.8 				"/>
				<polygon class="st161" points="-75.4,146.9 -75.4,164.1 -90.3,172.7 -105.2,164.1 -105.2,146.9 -90.3,138.3 				"/>
				<polygon class="st161" points="-60.5,172.7 -60.5,190 -75.4,198.6 -90.3,190 -90.3,172.7 -75.4,164.1 				"/>
				<polygon class="st169" points="-45.6,198.6 -45.6,215.8 -60.5,224.4 -75.4,215.8 -75.4,198.6 -60.5,190 				"/>
				<polygon class="st170" points="-30.6,224.4 -30.6,241.7 -45.6,250.3 -60.5,241.7 -60.5,224.4 -45.6,215.8 				"/>
				<polygon class="st171" points="-75.4,198.6 -75.4,215.8 -90.3,224.4 -105.2,215.8 -105.2,198.6 -90.3,190 				"/>
				<polygon class="st172" points="-60.5,224.4 -60.5,241.7 -75.4,250.3 -90.3,241.7 -90.3,224.4 -75.4,215.8 				"/>
			</g>
		</g>
	</g>
</g>
</svg>
