<?xml version="1.0" encoding="utf-8"?>
<!-- Generator: Adobe Illustrator 22.0.1, SVG Export Plug-In . SVG Version: 6.00 Build 0)  -->
<svg version="1.1" id="Layer_1" xmlns="http://www.w3.org/2000/svg" xmlns:xlink="http://www.w3.org/1999/xlink" x="0px" y="0px"
	 viewBox="0 0 504 432.2" style="enable-background:new 0 0 504 432.2;" xml:space="preserve">
<style type="text/css">
	.st0{clip-path:url(#SVGID_2_);}
	.st1{fill:#FFAF36;}
	.st2{fill:#FFB53A;}
	.st3{fill:#FFBE41;}
	.st4{fill:#FFA630;}
	.st5{fill:#FFA12A;}
	.st6{fill:#FFB43B;}
	.st7{fill:#FFBC40;}
	.st8{fill:#FFC94A;}
	.st9{fill:#FF9E28;}
	.st10{fill:#FF9C26;}
	.st11{fill:#FF9924;}
	.st12{fill:#FFA62D;}
	.st13{fill:#FFB137;}
	.st14{fill:#FFC647;}
	.st15{fill:#FFD351;}
	.st16{fill:#FF8F1C;}
	.st17{fill:#FF9521;}
	.st18{fill:#FF921F;}
	.st19{fill:#FF901E;}
	.st20{fill:#FFA12B;}
	.st21{fill:#FFAC34;}
	.st22{fill:#FFB93C;}
	.st23{fill:#FFC345;}
	.st24{fill:#FFCE4D;}
	.st25{fill:#FFD553;}
	.st26{fill:#FF8818;}
	.st27{fill:#FF8617;}
	.st28{fill:#FF8514;}
	.st29{fill:#FF8E1C;}
	.st30{fill:#FF9823;}
	.st31{fill:#FFA831;}
	.st32{fill:#FFB339;}
	.st33{fill:#FFB53B;}
	.st34{fill:#FFC144;}
	.st35{fill:#FFCC4B;}
	.st36{fill:#FFD754;}
	.st37{fill:#FF7C0E;}
	.st38{fill:#FF7B0E;}
	.st39{fill:#FF8011;}
	.st40{fill:#FF8D1C;}
	.st41{fill:#FF911E;}
	.st42{fill:#FF9522;}
	.st43{fill:#FF9D28;}
	.st44{fill:#FFA32D;}
	.st45{fill:#FFB138;}
	.st46{fill:#FFB83E;}
	.st47{fill:#FFC143;}
	.st48{fill:#FFC949;}
	.st49{fill:#FFDB58;}
	.st50{fill:#FFD956;}
	.st51{fill:#FF9A26;}
	.st52{fill:#FF9220;}
	.st53{fill:#FF8C1B;}
	.st54{fill:#FF8B1A;}
	.st55{fill:#FF9320;}
	.st56{fill:#FF8C1C;}
	.st57{fill:#FF911F;}
	.st58{fill:#FF9722;}
	.st59{fill:#FFA62F;}
	.st60{fill:#FFB63B;}
	.st61{fill:#FFC546;}
	.st62{fill:#FFD957;}
	.st63{fill:#FFDD5A;}
	.st64{fill:#FFA72E;}
	.st65{fill:#FF9D26;}
	.st66{fill:#FF9D27;}
	.st67{fill:#FF9C25;}
	.st68{fill:#FFA22C;}
	.st69{fill:#FF9E29;}
	.st70{fill:#FF8D1B;}
	.st71{fill:#FF8F1D;}
	.st72{fill:#FFA932;}
	.st73{fill:#FFAB32;}
	.st74{fill:#FFB63A;}
	.st75{fill:#FFBF42;}
	.st76{fill:#FFCA4A;}
	.st77{fill:#FFD251;}
	.st78{fill:#FFD958;}
	.st79{fill:#FFAB33;}
	.st80{fill:#FFAA32;}
	.st81{fill:#FFA830;}
	.st82{fill:#FFA52E;}
	.st83{fill:#FFA62E;}
	.st84{fill:#FFA02A;}
	.st85{fill:#FFA42E;}
	.st86{fill:#FFA02B;}
	.st87{fill:#FF901D;}
	.st88{fill:#FFBC3F;}
	.st89{fill:#FFC747;}
	.st90{fill:#FFCB4A;}
	.st91{fill:#FFAC35;}
	.st92{fill:#FFAD34;}
	.st93{fill:#FFAC33;}
	.st94{fill:#FFB238;}
	.st95{fill:#FFAD35;}
	.st96{fill:#FFA42D;}
	.st97{fill:#FFA931;}
	.st98{fill:#FFB73D;}
	.st99{fill:#FFC748;}
	.st100{fill:#FFAF37;}
	.st101{fill:#FFB73B;}
	.st102{fill:#FFB43A;}
	.st103{fill:#FFA82F;}
	.st104{fill:#FFA12C;}
	.st105{fill:#FF9F29;}
	.st106{fill:#FF8415;}
	.st107{fill:#FF8A19;}
	.st108{fill:#FF9724;}
	.st109{fill:#FF9623;}
	.st110{fill:#FF9622;}
	.st111{fill:#FF9A25;}
	.st112{fill:#FFB338;}
	.st113{fill:#FFB83D;}
	.st114{fill:#FFBD41;}
	.st115{fill:#FFC042;}
	.st116{fill:#FF9F2A;}
	.st117{fill:#FF8314;}
	.st118{fill:#FFA52D;}
	.st119{fill:#FFB038;}
	.st120{fill:#FFB93E;}
	.st121{fill:#FFC043;}
	.st122{fill:#FFD250;}
	.st123{fill:#FFBE42;}
	.st124{fill:#FFB239;}
	.st125{fill:#FFBB3F;}
	.st126{fill:#FF7E10;}
	.st127{fill:#FF8B1B;}
	.st128{fill:#FF9824;}
	.st129{fill:#FF9C27;}
	.st130{fill:#FFCF50;}
	.st131{fill:#FFBF43;}
	.st132{fill:#FFBC41;}
	.st133{fill:#FFCD4D;}
	.st134{fill:#FFE560;}
	.st135{fill:#FFDC58;}
	.st136{fill:#FFC84A;}
	.st137{fill:#FFCF4E;}
	.st138{fill:#FFC446;}
	.st139{fill:#FFB63C;}
	.st140{fill:#FFA42C;}
	.st141{fill:#FF8E1D;}
	.st142{fill:#FF9421;}
	.st143{fill:#FFCF4F;}
	.st144{fill:#FFB037;}
	.st145{fill:#FFBE43;}
	.st146{fill:#FFC849;}
	.st147{fill:#FFD453;}
	.st148{fill:#FFED67;}
	.st149{fill:#FFEB65;}
	.st150{fill:#FFE460;}
	.st151{fill:#FFDC59;}
	.st152{fill:#FFF970;}
	.st153{fill:#FFF96F;}
	.st154{fill:#FFF069;}
	.st155{fill:#FFDA58;}
	.st156{fill:#FFD352;}
	.st157{fill:#FFCE4E;}
	.st158{fill:#FFC547;}
	.st159{fill:#FFF971;}
	.st160{fill:#FFFF7D;}
	.st161{fill:#FFFF7A;}
	.st162{fill:#FFFE73;}
	.st163{fill:#FFFF7C;}
	.st164{fill:#FFFF75;}
	.st165{fill:#FFFF82;}
	.st166{fill:#FFFF79;}
	.st167{fill:#FFFB71;}
	.st168{fill:#FFFE74;}
	.st169{fill:#FFFF81;}
	.st170{fill:#FFFC73;}
	.st171{fill:#FFFF7F;}
	.st172{fill:#FFFF80;}
	.st173{clip-path:url(#SVGID_4_);}
</style>
<g>
	<g>
		<g>
			<defs>
				<rect id="SVGID_1_" x="0" y="216" width="504" height="216"/>
			</defs>
			<use xlink:href="#SVGID_1_"  style="overflow:visible;fill:#E6E6E6;"/>
			<clipPath id="SVGID_2_">
				<use xlink:href="#SVGID_1_"  style="overflow:visible;"/>
			</clipPath>
			<g class="st0">
				<polygon class="st1" points="312.6,104.4 312.6,121.7 297.7,130.3 282.7,121.7 282.7,104.4 297.7,95.8 				"/>
				<polygon class="st2" points="327.5,130.3 327.5,147.5 312.6,156.1 297.7,147.5 297.7,130.3 312.6,121.7 				"/>
				<polygon class="st3" points="342.4,104.4 342.4,121.7 327.5,130.3 312.6,121.7 312.6,104.4 327.5,95.8 				"/>
				<polygon class="st4" points="282.7,104.4 282.7,121.7 267.8,130.3 252.9,121.7 252.9,104.4 267.8,95.8 				"/>
				<polygon class="st5" points="297.7,130.3 297.7,147.5 282.7,156.1 267.8,147.5 267.8,130.3 282.7,121.7 				"/>
				<polygon class="st6" points="342.4,156.1 342.4,173.4 327.5,182 312.6,173.4 312.6,156.1 327.5,147.5 				"/>
				<polygon class="st7" points="357.3,130.3 357.3,147.5 342.4,156.1 327.5,147.5 327.5,130.3 342.4,121.7 				"/>
				<polygon class="st8" points="372.3,104.4 372.3,121.7 357.3,130.3 342.4,121.7 342.4,104.4 357.3,95.8 				"/>
				<polygon class="st9" points="252.9,104.4 252.9,121.7 238,130.3 223,121.7 223,104.4 238,95.8 				"/>
				<polygon class="st10" points="267.8,130.3 267.8,147.5 252.9,156.1 238,147.5 238,130.3 252.9,121.7 				"/>
				<polygon class="st11" points="282.7,156.1 282.7,173.4 267.8,182 252.9,173.4 252.9,156.1 267.8,147.5 				"/>
				<polygon class="st12" points="312.6,156.1 312.6,173.4 297.7,182 282.7,173.4 282.7,156.1 297.7,147.5 				"/>
				<polygon class="st13" points="357.3,182 357.3,199.2 342.4,207.8 327.5,199.2 327.5,182 342.4,173.4 				"/>
				<polygon class="st7" points="372.3,156.1 372.3,173.4 357.3,182 342.4,173.4 342.4,156.1 357.3,147.5 				"/>
				<polygon class="st14" points="387.2,130.3 387.2,147.5 372.3,156.1 357.3,147.5 357.3,130.3 372.3,121.7 				"/>
				<polygon class="st15" points="402.1,104.4 402.1,121.7 387.2,130.3 372.3,121.7 372.3,104.4 387.2,95.8 				"/>
				<polygon class="st16" points="223,104.4 223,121.7 208.1,130.3 193.2,121.7 193.2,104.4 208.1,95.8 				"/>
				<polygon class="st17" points="238,130.3 238,147.5 223,156.1 208.1,147.5 208.1,130.3 223,121.7 				"/>
				<polygon class="st18" points="252.9,156.1 252.9,173.4 238,182 223,173.4 223,156.1 238,147.5 				"/>
				<polygon class="st19" points="267.8,182 267.8,199.2 252.9,207.8 238,199.2 238,182 252.9,173.4 				"/>
				<polygon class="st11" points="297.7,182 297.7,199.2 282.7,207.8 267.8,199.2 267.8,182 282.7,173.4 				"/>
				<polygon class="st20" points="327.5,182 327.5,199.2 312.6,207.8 297.7,199.2 297.7,182 312.6,173.4 				"/>
				<polygon class="st21" points="372.3,207.8 372.3,225.1 357.3,233.7 342.4,225.1 342.4,207.8 357.3,199.2 				"/>
				<polygon class="st22" points="387.2,182 387.2,199.2 372.3,207.8 357.3,199.2 357.3,182 372.3,173.4 				"/>
				<polygon class="st23" points="402.1,156.1 402.1,173.4 387.2,182 372.3,173.4 372.3,156.1 387.2,147.5 				"/>
				<polygon class="st24" points="417,130.3 417,147.5 402.1,156.1 387.2,147.5 387.2,130.3 402.1,121.7 				"/>
				<polygon class="st25" points="432,104.4 432,121.7 417,130.3 402.1,121.7 402.1,104.4 417,95.8 				"/>
				<polygon class="st26" points="193.2,104.4 193.2,121.7 178.3,130.3 163.4,121.7 163.4,104.4 178.3,95.8 				"/>
				<polygon class="st27" points="208.1,130.3 208.1,147.5 193.2,156.1 178.3,147.5 178.3,130.3 193.2,121.7 				"/>
				<polygon class="st28" points="223,156.1 223,173.4 208.1,182 193.2,173.4 193.2,156.1 208.1,147.5 				"/>
				<polygon class="st19" points="238,182 238,199.2 223,207.8 208.1,199.2 208.1,182 223,173.4 				"/>
				<polygon class="st29" points="252.9,207.8 252.9,225.1 238,233.7 223,225.1 223,207.8 238,199.2 				"/>
				<polygon class="st19" points="282.7,207.8 282.7,225.1 267.8,233.7 252.9,225.1 252.9,207.8 267.8,199.2 				"/>
				<polygon class="st30" points="312.6,207.8 312.6,225.1 297.7,233.7 282.7,225.1 282.7,207.8 297.7,199.2 				"/>
				<polygon class="st31" points="342.4,207.8 342.4,225.1 327.5,233.7 312.6,225.1 312.6,207.8 327.5,199.2 				"/>
				<polygon class="st32" points="387.2,233.7 387.2,250.9 372.3,259.5 357.3,250.9 357.3,233.7 372.3,225.1 				"/>
				<polygon class="st33" points="402.1,207.8 402.1,225.1 387.2,233.7 372.3,225.1 372.3,207.8 387.2,199.2 				"/>
				<polygon class="st34" points="417,182 417,199.2 402.1,207.8 387.2,199.2 387.2,182 402.1,173.4 				"/>
				<polygon class="st35" points="432,156.1 432,173.4 417,182 402.1,173.4 402.1,156.1 417,147.5 				"/>
				<polygon class="st25" points="446.9,130.3 446.9,147.5 432,156.1 417,147.5 417,130.3 432,121.7 				"/>
				<polygon class="st36" points="461.8,104.4 461.8,121.7 446.9,130.3 432,121.7 432,104.4 446.9,95.8 				"/>
				<polygon class="st37" points="163.4,104.4 163.4,121.7 148.4,130.3 133.5,121.7 133.5,104.4 148.4,95.8 				"/>
				<polygon class="st38" points="178.3,130.3 178.3,147.5 163.4,156.1 148.4,147.5 148.4,130.3 163.4,121.7 				"/>
				<polygon class="st37" points="193.2,156.1 193.2,173.4 178.3,182 163.4,173.4 163.4,156.1 178.3,147.5 				"/>
				<polygon class="st39" points="208.1,182 208.1,199.2 193.2,207.8 178.3,199.2 178.3,182 193.2,173.4 				"/>
				<polygon class="st27" points="223,207.8 223,225.1 208.1,233.7 193.2,225.1 193.2,207.8 208.1,199.2 				"/>
				<polygon class="st40" points="238,233.7 238,250.9 223,259.5 208.1,250.9 208.1,233.7 223,225.1 				"/>
				<polygon class="st41" points="267.8,233.7 267.8,250.9 252.9,259.5 238,250.9 238,233.7 252.9,225.1 				"/>
				<polygon class="st42" points="297.7,233.7 297.7,250.9 282.7,259.5 267.8,250.9 267.8,233.7 282.7,225.1 				"/>
				<polygon class="st43" points="327.5,233.7 327.5,250.9 312.6,259.5 297.7,250.9 297.7,233.7 312.6,225.1 				"/>
				<polygon class="st44" points="357.3,233.7 357.3,250.9 342.4,259.5 327.5,250.9 327.5,233.7 342.4,225.1 				"/>
				<polygon class="st45" points="402.1,259.5 402.1,276.7 387.2,285.4 372.3,276.7 372.3,259.5 387.2,250.9 				"/>
				<polygon class="st46" points="417,233.7 417,250.9 402.1,259.5 387.2,250.9 387.2,233.7 402.1,225.1 				"/>
				<polygon class="st47" points="432,207.8 432,225.1 417,233.7 402.1,225.1 402.1,207.8 417,199.2 				"/>
				<polygon class="st48" points="446.9,182 446.9,199.2 432,207.8 417,199.2 417,182 432,173.4 				"/>
				<polygon class="st36" points="461.8,156.1 461.8,173.4 446.9,182 432,173.4 432,156.1 446.9,147.5 				"/>
				<polygon class="st49" points="476.7,130.3 476.7,147.5 461.8,156.1 446.9,147.5 446.9,130.3 461.8,121.7 				"/>
				<polygon class="st50" points="491.6,104.4 491.6,121.7 476.7,130.3 461.8,121.7 461.8,104.4 476.7,95.8 				"/>
				<polygon class="st51" points="133.5,104.4 133.5,121.7 118.6,130.3 103.7,121.7 103.7,104.4 118.6,95.8 				"/>
				<polygon class="st52" points="148.4,130.3 148.4,147.5 133.5,156.1 118.6,147.5 118.6,130.3 133.5,121.7 				"/>
				<polygon class="st53" points="163.4,156.1 163.4,173.4 148.4,182 133.5,173.4 133.5,156.1 148.4,147.5 				"/>
				<polygon class="st54" points="178.3,182 178.3,199.2 163.4,207.8 148.4,199.2 148.4,182 163.4,173.4 				"/>
				<polygon class="st55" points="193.2,207.8 193.2,225.1 178.3,233.7 163.4,225.1 163.4,207.8 178.3,199.2 				"/>
				<polygon class="st55" points="208.1,233.7 208.1,250.9 193.2,259.5 178.3,250.9 178.3,233.7 193.2,225.1 				"/>
				<polygon class="st56" points="223,259.5 223,276.7 208.1,285.4 193.2,276.7 193.2,259.5 208.1,250.9 				"/>
				<polygon class="st18" points="252.9,259.5 252.9,276.7 238,285.4 223,276.7 223,259.5 238,250.9 				"/>
				<polygon class="st29" points="282.7,259.5 282.7,276.7 267.8,285.4 252.9,276.7 252.9,259.5 267.8,250.9 				"/>
				<polygon class="st57" points="312.6,259.5 312.6,276.7 297.7,285.4 282.7,276.7 282.7,259.5 297.7,250.9 				"/>
				<polygon class="st58" points="342.4,259.5 342.4,276.7 327.5,285.4 312.6,276.7 312.6,259.5 327.5,250.9 				"/>
				<polygon class="st59" points="372.3,259.5 372.3,276.7 357.3,285.4 342.4,276.7 342.4,259.5 357.3,250.9 				"/>
				<polygon class="st60" points="417,285.4 417,302.6 402.1,311.2 387.2,302.6 387.2,285.4 402.1,276.7 				"/>
				<polygon class="st7" points="432,259.5 432,276.7 417,285.4 402.1,276.7 402.1,259.5 417,250.9 				"/>
				<polygon class="st61" points="446.9,233.7 446.9,250.9 432,259.5 417,250.9 417,233.7 432,225.1 				"/>
				<polygon class="st48" points="461.8,207.8 461.8,225.1 446.9,233.7 432,225.1 432,207.8 446.9,199.2 				"/>
				<polygon class="st36" points="476.7,182 476.7,199.2 461.8,207.8 446.9,199.2 446.9,182 461.8,173.4 				"/>
				<polygon class="st62" points="491.6,156.1 491.6,173.4 476.7,182 461.8,173.4 461.8,156.1 476.7,147.5 				"/>
				<polygon class="st63" points="506.6,130.3 506.6,147.5 491.6,156.1 476.7,147.5 476.7,130.3 491.6,121.7 				"/>
				<polygon class="st64" points="103.7,104.4 103.7,121.7 88.7,130.3 73.8,121.7 73.8,104.4 88.7,95.8 				"/>
				<polygon class="st65" points="118.6,130.3 118.6,147.5 103.7,156.1 88.7,147.5 88.7,130.3 103.7,121.7 				"/>
				<polygon class="st66" points="133.5,156.1 133.5,173.4 118.6,182 103.7,173.4 103.7,156.1 118.6,147.5 				"/>
				<polygon class="st67" points="148.4,182 148.4,199.2 133.5,207.8 118.6,199.2 118.6,182 133.5,173.4 				"/>
				<polygon class="st68" points="163.4,207.8 163.4,225.1 148.4,233.7 133.5,225.1 133.5,207.8 148.4,199.2 				"/>
				<polygon class="st20" points="178.3,233.7 178.3,250.9 163.4,259.5 148.4,250.9 148.4,233.7 163.4,225.1 				"/>
				<polygon class="st69" points="193.2,259.5 193.2,276.7 178.3,285.4 163.4,276.7 163.4,259.5 178.3,250.9 				"/>
				<polygon class="st69" points="208.1,285.4 208.1,302.6 193.2,311.2 178.3,302.6 178.3,285.4 193.2,276.7 				"/>
				<polygon class="st70" points="238,285.4 238,302.6 223,311.2 208.1,302.6 208.1,285.4 223,276.7 				"/>
				<polygon class="st57" points="267.8,285.4 267.8,302.6 252.9,311.2 238,302.6 238,285.4 252.9,276.7 				"/>
				<polygon class="st71" points="297.7,285.4 297.7,302.6 282.7,311.2 267.8,302.6 267.8,285.4 282.7,276.7 				"/>
				<polygon class="st18" points="327.5,285.4 327.5,302.6 312.6,311.2 297.7,302.6 297.7,285.4 312.6,276.7 				"/>
				<polygon class="st51" points="357.3,285.4 357.3,302.6 342.4,311.2 327.5,302.6 327.5,285.4 342.4,276.7 				"/>
				<polygon class="st72" points="387.2,285.4 387.2,302.6 372.3,311.2 357.3,302.6 357.3,285.4 372.3,276.7 				"/>
				<polygon class="st73" points="432,311.2 432,328.4 417,337.1 402.1,328.4 402.1,311.2 417,302.6 				"/>
				<polygon class="st74" points="446.9,285.4 446.9,302.6 432,311.2 417,302.6 417,285.4 432,276.7 				"/>
				<polygon class="st75" points="461.8,259.5 461.8,276.7 446.9,285.4 432,276.7 432,259.5 446.9,250.9 				"/>
				<polygon class="st76" points="476.7,233.7 476.7,250.9 461.8,259.5 446.9,250.9 446.9,233.7 461.8,225.1 				"/>
				<polygon class="st77" points="491.6,207.8 491.6,225.1 476.7,233.7 461.8,225.1 461.8,207.8 476.7,199.2 				"/>
				<polygon class="st36" points="506.6,182 506.6,199.2 491.6,207.8 476.7,199.2 476.7,182 491.6,173.4 				"/>
				<polygon class="st78" points="521.5,156.1 521.5,173.4 506.6,182 491.6,173.4 491.6,156.1 506.6,147.5 				"/>
				<polygon class="st79" points="73.8,104.4 73.8,121.7 58.9,130.3 44,121.7 44,104.4 58.9,95.8 				"/>
				<polygon class="st80" points="88.7,130.3 88.7,147.5 73.8,156.1 58.9,147.5 58.9,130.3 73.8,121.7 				"/>
				<polygon class="st81" points="103.7,156.1 103.7,173.4 88.7,182 73.8,173.4 73.8,156.1 88.7,147.5 				"/>
				<polygon class="st82" points="118.6,182 118.6,199.2 103.7,207.8 88.7,199.2 88.7,182 103.7,173.4 				"/>
				<polygon class="st82" points="133.5,207.8 133.5,225.1 118.6,233.7 103.7,225.1 103.7,207.8 118.6,199.2 				"/>
				<polygon class="st83" points="148.4,233.7 148.4,250.9 133.5,259.5 118.6,250.9 118.6,233.7 133.5,225.1 				"/>
				<polygon class="st79" points="163.4,259.5 163.4,276.7 148.4,285.4 133.5,276.7 133.5,259.5 148.4,250.9 				"/>
				<polygon class="st84" points="178.3,285.4 178.3,302.6 163.4,311.2 148.4,302.6 148.4,285.4 163.4,276.7 				"/>
				<polygon class="st85" points="193.2,311.2 193.2,328.4 178.3,337.1 163.4,328.4 163.4,311.2 178.3,302.6 				"/>
				<polygon class="st86" points="223,311.2 223,328.4 208.1,337.1 193.2,328.4 193.2,311.2 208.1,302.6 				"/>
				<polygon class="st20" points="252.9,311.2 252.9,328.4 238,337.1 223,328.4 223,311.2 238,302.6 				"/>
				<polygon class="st19" points="282.7,311.2 282.7,328.4 267.8,337.1 252.9,328.4 252.9,311.2 267.8,302.6 				"/>
				<polygon class="st19" points="312.6,311.2 312.6,328.4 297.7,337.1 282.7,328.4 282.7,311.2 297.7,302.6 				"/>
				<polygon class="st87" points="342.4,311.2 342.4,328.4 327.5,337.1 312.6,328.4 312.6,311.2 327.5,302.6 				"/>
				<polygon class="st84" points="372.3,311.2 372.3,328.4 357.3,337.1 342.4,328.4 342.4,311.2 357.3,302.6 				"/>
				<polygon class="st1" points="402.1,311.2 402.1,328.4 387.2,337.1 372.3,328.4 372.3,311.2 387.2,302.6 				"/>
				<polygon class="st82" points="446.9,337.1 446.9,354.3 432,362.9 417,354.3 417,337.1 432,328.4 				"/>
				<polygon class="st60" points="461.8,311.2 461.8,328.4 446.9,337.1 432,328.4 432,311.2 446.9,302.6 				"/>
				<polygon class="st88" points="476.7,285.4 476.7,302.6 461.8,311.2 446.9,302.6 446.9,285.4 461.8,276.7 				"/>
				<polygon class="st89" points="491.6,259.5 491.6,276.7 476.7,285.4 461.8,276.7 461.8,259.5 476.7,250.9 				"/>
				<polygon class="st90" points="506.6,233.7 506.6,250.9 491.6,259.5 476.7,250.9 476.7,233.7 491.6,225.1 				"/>
				<polygon class="st77" points="521.5,207.8 521.5,225.1 506.6,233.7 491.6,225.1 491.6,207.8 506.6,199.2 				"/>
				<polygon class="st13" points="44,104.4 44,121.7 29.1,130.3 14.1,121.7 14.1,104.4 29.1,95.8 				"/>
				<polygon class="st91" points="58.9,130.3 58.9,147.5 44,156.1 29.1,147.5 29.1,130.3 44,121.7 				"/>
				<polygon class="st92" points="73.8,156.1 73.8,173.4 58.9,182 44,173.4 44,156.1 58.9,147.5 				"/>
				<polygon class="st93" points="88.7,182 88.7,199.2 73.8,207.8 58.9,199.2 58.9,182 73.8,173.4 				"/>
				<polygon class="st73" points="103.7,207.8 103.7,225.1 88.7,233.7 73.8,225.1 73.8,207.8 88.7,199.2 				"/>
				<polygon class="st94" points="118.6,233.7 118.6,250.9 103.7,259.5 88.7,250.9 88.7,233.7 103.7,225.1 				"/>
				<polygon class="st93" points="133.5,259.5 133.5,276.7 118.6,285.4 103.7,276.7 103.7,259.5 118.6,250.9 				"/>
				<polygon class="st95" points="148.4,285.4 148.4,302.6 133.5,311.2 118.6,302.6 118.6,285.4 133.5,276.7 				"/>
				<polygon class="st96" points="163.4,311.2 163.4,328.4 148.4,337.1 133.5,328.4 133.5,311.2 148.4,302.6 				"/>
				<polygon class="st68" points="178.3,337.1 178.3,354.3 163.4,362.9 148.4,354.3 148.4,337.1 163.4,328.4 				"/>
				<polygon class="st9" points="208.1,337.1 208.1,354.3 193.2,362.9 178.3,354.3 178.3,337.1 193.2,328.4 				"/>
				<polygon class="st82" points="238,337.1 238,354.3 223,362.9 208.1,354.3 208.1,337.1 223,328.4 				"/>
				<polygon class="st97" points="267.8,337.1 267.8,354.3 252.9,362.9 238,354.3 238,337.1 252.9,328.4 				"/>
				<polygon class="st71" points="297.7,337.1 297.7,354.3 282.7,362.9 267.8,354.3 267.8,337.1 282.7,328.4 				"/>
				<polygon class="st26" points="327.5,337.1 327.5,354.3 312.6,362.9 297.7,354.3 297.7,337.1 312.6,328.4 				"/>
				<polygon class="st55" points="357.3,337.1 357.3,354.3 342.4,362.9 327.5,354.3 327.5,337.1 342.4,328.4 				"/>
				<polygon class="st20" points="387.2,337.1 387.2,354.3 372.3,362.9 357.3,354.3 357.3,337.1 372.3,328.4 				"/>
				<polygon class="st20" points="417,337.1 417,354.3 402.1,362.9 387.2,354.3 387.2,337.1 402.1,328.4 				"/>
				<polygon class="st51" points="461.8,362.9 461.8,380.1 446.9,388.7 432,380.1 432,362.9 446.9,354.3 				"/>
				<polygon class="st97" points="476.7,337.1 476.7,354.3 461.8,362.9 446.9,354.3 446.9,337.1 461.8,328.4 				"/>
				<polygon class="st98" points="491.6,311.2 491.6,328.4 476.7,337.1 461.8,328.4 461.8,311.2 476.7,302.6 				"/>
				<polygon class="st3" points="506.6,285.4 506.6,302.6 491.6,311.2 476.7,302.6 476.7,285.4 491.6,276.7 				"/>
				<polygon class="st99" points="521.5,259.5 521.5,276.7 506.6,285.4 491.6,276.7 491.6,259.5 506.6,250.9 				"/>
				<polygon class="st94" points="14.1,104.4 14.1,121.7 -0.8,130.3 -15.7,121.7 -15.7,104.4 -0.8,95.8 				"/>
				<polygon class="st45" points="29.1,130.3 29.1,147.5 14.1,156.1 -0.8,147.5 -0.8,130.3 14.1,121.7 				"/>
				<polygon class="st94" points="44,156.1 44,173.4 29.1,182 14.1,173.4 14.1,156.1 29.1,147.5 				"/>
				<polygon class="st72" points="58.9,182 58.9,199.2 44,207.8 29.1,199.2 29.1,182 44,173.4 				"/>
				<polygon class="st100" points="73.8,207.8 73.8,225.1 58.9,233.7 44,225.1 44,207.8 58.9,199.2 				"/>
				<polygon class="st101" points="88.7,233.7 88.7,250.9 73.8,259.5 58.9,250.9 58.9,233.7 73.8,225.1 				"/>
				<polygon class="st102" points="103.7,259.5 103.7,276.7 88.7,285.4 73.8,276.7 73.8,259.5 88.7,250.9 				"/>
				<polygon class="st97" points="118.6,285.4 118.6,302.6 103.7,311.2 88.7,302.6 88.7,285.4 103.7,276.7 				"/>
				<polygon class="st103" points="133.5,311.2 133.5,328.4 118.6,337.1 103.7,328.4 103.7,311.2 118.6,302.6 				"/>
				<polygon class="st97" points="148.4,337.1 148.4,354.3 133.5,362.9 118.6,354.3 118.6,337.1 133.5,328.4 				"/>
				<polygon class="st82" points="163.4,362.9 163.4,380.1 148.4,388.7 133.5,380.1 133.5,362.9 148.4,354.3 				"/>
				<polygon class="st59" points="193.2,362.9 193.2,380.1 178.3,388.7 163.4,380.1 163.4,362.9 178.3,354.3 				"/>
				<polygon class="st104" points="223,362.9 223,380.1 208.1,388.7 193.2,380.1 193.2,362.9 208.1,354.3 				"/>
				<polygon class="st105" points="252.9,362.9 252.9,380.1 238,388.7 223,380.1 223,362.9 238,354.3 				"/>
				<polygon class="st96" points="282.7,362.9 282.7,380.1 267.8,388.7 252.9,380.1 252.9,362.9 267.8,354.3 				"/>
				<polygon class="st106" points="312.6,362.9 312.6,380.1 297.7,388.7 282.7,380.1 282.7,362.9 297.7,354.3 				"/>
				<polygon class="st107" points="342.4,362.9 342.4,380.1 327.5,388.7 312.6,380.1 312.6,362.9 327.5,354.3 				"/>
				<polygon class="st108" points="372.3,362.9 372.3,380.1 357.3,388.7 342.4,380.1 342.4,362.9 357.3,354.3 				"/>
				<polygon class="st109" points="402.1,362.9 402.1,380.1 387.2,388.7 372.3,380.1 372.3,362.9 387.2,354.3 				"/>
				<polygon class="st110" points="432,362.9 432,380.1 417,388.7 402.1,380.1 402.1,362.9 417,354.3 				"/>
				<polygon class="st111" points="476.7,388.7 476.7,406 461.8,414.6 446.9,406 446.9,388.7 461.8,380.1 				"/>
				<polygon class="st44" points="491.6,362.9 491.6,380.1 476.7,388.7 461.8,380.1 461.8,362.9 476.7,354.3 				"/>
				<polygon class="st112" points="506.6,337.1 506.6,354.3 491.6,362.9 476.7,354.3 476.7,337.1 491.6,328.4 				"/>
				<polygon class="st113" points="521.5,311.2 521.5,328.4 506.6,337.1 491.6,328.4 491.6,311.2 506.6,302.6 				"/>
				<polygon class="st102" points="-15.7,104.4 -15.7,121.7 -30.6,130.3 -45.6,121.7 -45.6,104.4 -30.6,95.8 				"/>
				<polygon class="st33" points="-0.8,130.3 -0.8,147.5 -15.7,156.1 -30.6,147.5 -30.6,130.3 -15.7,121.7 				"/>
				<polygon class="st60" points="14.1,156.1 14.1,173.4 -0.8,182 -15.7,173.4 -15.7,156.1 -0.8,147.5 				"/>
				<polygon class="st102" points="29.1,182 29.1,199.2 14.1,207.8 -0.8,199.2 -0.8,182 14.1,173.4 				"/>
				<polygon class="st102" points="44,207.8 44,225.1 29.1,233.7 14.1,225.1 14.1,207.8 29.1,199.2 				"/>
				<polygon class="st114" points="58.9,233.7 58.9,250.9 44,259.5 29.1,250.9 29.1,233.7 44,225.1 				"/>
				<polygon class="st115" points="73.8,259.5 73.8,276.7 58.9,285.4 44,276.7 44,259.5 58.9,250.9 				"/>
				<polygon class="st21" points="88.7,285.4 88.7,302.6 73.8,311.2 58.9,302.6 58.9,285.4 73.8,276.7 				"/>
				<polygon class="st21" points="103.7,311.2 103.7,328.4 88.7,337.1 73.8,328.4 73.8,311.2 88.7,302.6 				"/>
				<polygon class="st94" points="118.6,337.1 118.6,354.3 103.7,362.9 88.7,354.3 88.7,337.1 103.7,328.4 				"/>
				<polygon class="st73" points="133.5,362.9 133.5,380.1 118.6,388.7 103.7,380.1 103.7,362.9 118.6,354.3 				"/>
				<polygon class="st21" points="148.4,388.7 148.4,406 133.5,414.6 118.6,406 118.6,388.7 133.5,380.1 				"/>
				<polygon class="st82" points="178.3,388.7 178.3,406 163.4,414.6 148.4,406 148.4,388.7 163.4,380.1 				"/>
				<polygon class="st84" points="208.1,388.7 208.1,406 193.2,414.6 178.3,406 178.3,388.7 193.2,380.1 				"/>
				<polygon class="st116" points="238,388.7 238,406 223,414.6 208.1,406 208.1,388.7 223,380.1 				"/>
				<polygon class="st83" points="267.8,388.7 267.8,406 252.9,414.6 238,406 238,388.7 252.9,380.1 				"/>
				<polygon class="st51" points="297.7,388.7 297.7,406 282.7,414.6 267.8,406 267.8,388.7 282.7,380.1 				"/>
				<polygon class="st117" points="327.5,388.7 327.5,406 312.6,414.6 297.7,406 297.7,388.7 312.6,380.1 				"/>
				<polygon class="st53" points="357.3,388.7 357.3,406 342.4,414.6 327.5,406 327.5,388.7 342.4,380.1 				"/>
				<polygon class="st71" points="387.2,388.7 387.2,406 372.3,414.6 357.3,406 357.3,388.7 372.3,380.1 				"/>
				<polygon class="st19" points="417,388.7 417,406 402.1,414.6 387.2,406 387.2,388.7 402.1,380.1 				"/>
				<polygon class="st52" points="446.9,388.7 446.9,406 432,414.6 417,406 417,388.7 432,380.1 				"/>
				<polygon class="st9" points="491.6,414.6 491.6,431.8 476.7,440.4 461.8,431.8 461.8,414.6 476.7,406 				"/>
				<polygon class="st118" points="506.6,388.7 506.6,406 491.6,414.6 476.7,406 476.7,388.7 491.6,380.1 				"/>
				<polygon class="st1" points="521.5,362.9 521.5,380.1 506.6,388.7 491.6,380.1 491.6,362.9 506.6,354.3 				"/>
				<polygon class="st119" points="-45.6,104.4 -45.6,121.7 -60.5,130.3 -75.4,121.7 -75.4,104.4 -60.5,95.8 				"/>
				<polygon class="st33" points="-30.6,130.3 -30.6,147.5 -45.6,156.1 -60.5,147.5 -60.5,130.3 -45.6,121.7 				"/>
				<polygon class="st98" points="-15.7,156.1 -15.7,173.4 -30.6,182 -45.6,173.4 -45.6,156.1 -30.6,147.5 				"/>
				<polygon class="st120" points="-0.8,182 -0.8,199.2 -15.7,207.8 -30.6,199.2 -30.6,182 -15.7,173.4 				"/>
				<polygon class="st120" points="14.1,207.8 14.1,225.1 -0.8,233.7 -15.7,225.1 -15.7,207.8 -0.8,199.2 				"/>
				<polygon class="st121" points="29.1,233.7 29.1,250.9 14.1,259.5 -0.8,250.9 -0.8,233.7 14.1,225.1 				"/>
				<polygon class="st122" points="44,259.5 44,276.7 29.1,285.4 14.1,276.7 14.1,259.5 29.1,250.9 				"/>
				<polygon class="st123" points="58.9,285.4 58.9,302.6 44,311.2 29.1,302.6 29.1,285.4 44,276.7 				"/>
				<polygon class="st94" points="73.8,311.2 73.8,328.4 58.9,337.1 44,328.4 44,311.2 58.9,302.6 				"/>
				<polygon class="st7" points="88.7,337.1 88.7,354.3 73.8,362.9 58.9,354.3 58.9,337.1 73.8,328.4 				"/>
				<polygon class="st124" points="103.7,362.9 103.7,380.1 88.7,388.7 73.8,380.1 73.8,362.9 88.7,354.3 				"/>
				<polygon class="st100" points="118.6,388.7 118.6,406 103.7,414.6 88.7,406 88.7,388.7 103.7,380.1 				"/>
				<polygon class="st125" points="133.5,414.6 133.5,431.8 118.6,440.4 103.7,431.8 103.7,414.6 118.6,406 				"/>
				<polygon class="st1" points="163.4,414.6 163.4,431.8 148.4,440.4 133.5,431.8 133.5,414.6 148.4,406 				"/>
				<polygon class="st80" points="193.2,414.6 193.2,431.8 178.3,440.4 163.4,431.8 163.4,414.6 178.3,406 				"/>
				<polygon class="st20" points="223,414.6 223,431.8 208.1,440.4 193.2,431.8 193.2,414.6 208.1,406 				"/>
				<polygon class="st65" points="252.9,414.6 252.9,431.8 238,440.4 223,431.8 223,414.6 238,406 				"/>
				<polygon class="st103" points="282.7,414.6 282.7,431.8 267.8,440.4 252.9,431.8 252.9,414.6 267.8,406 				"/>
				<polygon class="st126" points="312.6,414.6 312.6,431.8 297.7,440.4 282.7,431.8 282.7,414.6 297.7,406 				"/>
				<polygon class="st117" points="342.4,414.6 342.4,431.8 327.5,440.4 312.6,431.8 312.6,414.6 327.5,406 				"/>
				<polygon class="st26" points="372.3,414.6 372.3,431.8 357.3,440.4 342.4,431.8 342.4,414.6 357.3,406 				"/>
				<polygon class="st127" points="402.1,414.6 402.1,431.8 387.2,440.4 372.3,431.8 372.3,414.6 387.2,406 				"/>
				<polygon class="st19" points="432,414.6 432,431.8 417,440.4 402.1,431.8 402.1,414.6 417,406 				"/>
				<polygon class="st128" points="461.8,414.6 461.8,431.8 446.9,440.4 432,431.8 432,414.6 446.9,406 				"/>
				<polygon class="st129" points="506.6,440.4 506.6,457.7 491.6,466.3 476.7,457.7 476.7,440.4 491.6,431.8 				"/>
				<polygon class="st97" points="521.5,414.6 521.5,431.8 506.6,440.4 491.6,431.8 491.6,414.6 506.6,406 				"/>
				<polygon class="st83" points="-75.4,104.4 -75.4,121.7 -90.3,130.3 -105.2,121.7 -105.2,104.4 -90.3,95.8 				"/>
				<polygon class="st96" points="-60.5,130.3 -60.5,147.5 -75.4,156.1 -90.3,147.5 -90.3,130.3 -75.4,121.7 				"/>
				<polygon class="st130" points="-45.6,156.1 -45.6,173.4 -60.5,182 -75.4,173.4 -75.4,156.1 -60.5,147.5 				"/>
				<polygon class="st131" points="-30.6,182 -30.6,199.2 -45.6,207.8 -60.5,199.2 -60.5,182 -45.6,173.4 				"/>
				<polygon class="st132" points="-15.7,207.8 -15.7,225.1 -30.6,233.7 -45.6,225.1 -45.6,207.8 -30.6,199.2 				"/>
				<polygon class="st133" points="-0.8,233.7 -0.8,250.9 -15.7,259.5 -30.6,250.9 -30.6,233.7 -15.7,225.1 				"/>
				<polygon class="st134" points="14.1,259.5 14.1,276.7 -0.8,285.4 -15.7,276.7 -15.7,259.5 -0.8,250.9 				"/>
				<polygon class="st135" points="29.1,285.4 29.1,302.6 14.1,311.2 -0.8,302.6 -0.8,285.4 14.1,276.7 				"/>
				<polygon class="st136" points="44,311.2 44,328.4 29.1,337.1 14.1,328.4 14.1,311.2 29.1,302.6 				"/>
				<polygon class="st123" points="58.9,337.1 58.9,354.3 44,362.9 29.1,354.3 29.1,337.1 44,328.4 				"/>
				<polygon class="st33" points="73.8,362.9 73.8,380.1 58.9,388.7 44,380.1 44,362.9 58.9,354.3 				"/>
				<polygon class="st120" points="88.7,388.7 88.7,406 73.8,414.6 58.9,406 58.9,388.7 73.8,380.1 				"/>
				<polygon class="st7" points="103.7,414.6 103.7,431.8 88.7,440.4 73.8,431.8 73.8,414.6 88.7,406 				"/>
				<polygon class="st137" points="118.6,440.4 118.6,457.7 103.7,466.3 88.7,457.7 88.7,440.4 103.7,431.8 				"/>
				<polygon class="st138" points="148.4,440.4 148.4,457.7 133.5,466.3 118.6,457.7 118.6,440.4 133.5,431.8 				"/>
				<polygon class="st139" points="178.3,440.4 178.3,457.7 163.4,466.3 148.4,457.7 148.4,440.4 163.4,431.8 				"/>
				<polygon class="st60" points="208.1,440.4 208.1,457.7 193.2,466.3 178.3,457.7 178.3,440.4 193.2,431.8 				"/>
				<polygon class="st44" points="238,440.4 238,457.7 223,466.3 208.1,457.7 208.1,440.4 223,431.8 				"/>
				<polygon class="st140" points="267.8,440.4 267.8,457.7 252.9,466.3 238,457.7 238,440.4 252.9,431.8 				"/>
				<polygon class="st42" points="297.7,440.4 297.7,457.7 282.7,466.3 267.8,457.7 267.8,440.4 282.7,431.8 				"/>
				<polygon class="st141" points="327.5,440.4 327.5,457.7 312.6,466.3 297.7,457.7 297.7,440.4 312.6,431.8 				"/>
				<polygon class="st110" points="357.3,440.4 357.3,457.7 342.4,466.3 327.5,457.7 327.5,440.4 342.4,431.8 				"/>
				<polygon class="st54" points="387.2,440.4 387.2,457.7 372.3,466.3 357.3,457.7 357.3,440.4 372.3,431.8 				"/>
				<polygon class="st142" points="417,440.4 417,457.7 402.1,466.3 387.2,457.7 387.2,440.4 402.1,431.8 				"/>
				<polygon class="st57" points="446.9,440.4 446.9,457.7 432,466.3 417,457.7 417,440.4 432,431.8 				"/>
				<polygon class="st42" points="476.7,440.4 476.7,457.7 461.8,466.3 446.9,457.7 446.9,440.4 461.8,431.8 				"/>
				<polygon class="st143" points="-75.4,156.1 -75.4,173.4 -90.3,182 -105.2,173.4 -105.2,156.1 -90.3,147.5 				"/>
				<polygon class="st144" points="-60.5,182 -60.5,199.2 -75.4,207.8 -90.3,199.2 -90.3,182 -75.4,173.4 				"/>
				<polygon class="st145" points="-45.6,207.8 -45.6,225.1 -60.5,233.7 -75.4,225.1 -75.4,207.8 -60.5,199.2 				"/>
				<polygon class="st146" points="-30.6,233.7 -30.6,250.9 -45.6,259.5 -60.5,250.9 -60.5,233.7 -45.6,225.1 				"/>
				<polygon class="st147" points="-15.7,259.5 -15.7,276.7 -30.6,285.4 -45.6,276.7 -45.6,259.5 -30.6,250.9 				"/>
				<polygon class="st148" points="-0.8,285.4 -0.8,302.6 -15.7,311.2 -30.6,302.6 -30.6,285.4 -15.7,276.7 				"/>
				<polygon class="st149" points="14.1,311.2 14.1,328.4 -0.8,337.1 -15.7,328.4 -15.7,311.2 -0.8,302.6 				"/>
				<polygon class="st36" points="29.1,337.1 29.1,354.3 14.1,362.9 -0.8,354.3 -0.8,337.1 14.1,328.4 				"/>
				<polygon class="st24" points="44,362.9 44,380.1 29.1,388.7 14.1,380.1 14.1,362.9 29.1,354.3 				"/>
				<polygon class="st146" points="58.9,388.7 58.9,406 44,414.6 29.1,406 29.1,388.7 44,380.1 				"/>
				<polygon class="st121" points="73.8,414.6 73.8,431.8 58.9,440.4 44,431.8 44,414.6 58.9,406 				"/>
				<polygon class="st23" points="88.7,440.4 88.7,457.7 73.8,466.3 58.9,457.7 58.9,440.4 73.8,431.8 				"/>
				<polygon class="st2" points="-75.4,207.8 -75.4,225.1 -90.3,233.7 -105.2,225.1 -105.2,207.8 -90.3,199.2 				"/>
				<polygon class="st150" points="-60.5,233.7 -60.5,250.9 -75.4,259.5 -90.3,250.9 -90.3,233.7 -75.4,225.1 				"/>
				<polygon class="st151" points="-45.6,259.5 -45.6,276.7 -60.5,285.4 -75.4,276.7 -75.4,259.5 -60.5,250.9 				"/>
				<polygon class="st152" points="-30.6,285.4 -30.6,302.6 -45.6,311.2 -60.5,302.6 -60.5,285.4 -45.6,276.7 				"/>
				<polygon class="st153" points="-15.7,311.2 -15.7,328.4 -30.6,337.1 -45.6,328.4 -45.6,311.2 -30.6,302.6 				"/>
				<polygon class="st154" points="-0.8,337.1 -0.8,354.3 -15.7,362.9 -30.6,354.3 -30.6,337.1 -15.7,328.4 				"/>
				<polygon class="st155" points="14.1,362.9 14.1,380.1 -0.8,388.7 -15.7,380.1 -15.7,362.9 -0.8,354.3 				"/>
				<polygon class="st156" points="29.1,388.7 29.1,406 14.1,414.6 -0.8,406 -0.8,388.7 14.1,380.1 				"/>
				<polygon class="st157" points="44,414.6 44,431.8 29.1,440.4 14.1,431.8 14.1,414.6 29.1,406 				"/>
				<polygon class="st8" points="58.9,440.4 58.9,457.7 44,466.3 29.1,457.7 29.1,440.4 44,431.8 				"/>
				<polygon class="st158" points="-75.4,259.5 -75.4,276.7 -90.3,285.4 -105.2,276.7 -105.2,259.5 -90.3,250.9 				"/>
				<polygon class="st159" points="-60.5,285.4 -60.5,302.6 -75.4,311.2 -90.3,302.6 -90.3,285.4 -75.4,276.7 				"/>
				<polygon class="st160" points="-45.6,311.2 -45.6,328.4 -60.5,337.1 -75.4,328.4 -75.4,311.2 -60.5,302.6 				"/>
				<polygon class="st161" points="-30.6,337.1 -30.6,354.3 -45.6,362.9 -60.5,354.3 -60.5,337.1 -45.6,328.4 				"/>
				<polygon class="st162" points="-15.7,362.9 -15.7,380.1 -30.6,388.7 -45.6,380.1 -45.6,362.9 -30.6,354.3 				"/>
				<polygon class="st148" points="-0.8,388.7 -0.8,406 -15.7,414.6 -30.6,406 -30.6,388.7 -15.7,380.1 				"/>
				<polygon class="st150" points="14.1,414.6 14.1,431.8 -0.8,440.4 -15.7,431.8 -15.7,414.6 -0.8,406 				"/>
				<polygon class="st150" points="29.1,440.4 29.1,457.7 14.1,466.3 -0.8,457.7 -0.8,440.4 14.1,431.8 				"/>
				<polygon class="st163" points="-75.4,311.2 -75.4,328.4 -90.3,337.1 -105.2,328.4 -105.2,311.2 -90.3,302.6 				"/>
				<polygon class="st164" points="-60.5,337.1 -60.5,354.3 -75.4,362.9 -90.3,354.3 -90.3,337.1 -75.4,328.4 				"/>
				<polygon class="st165" points="-45.6,362.9 -45.6,380.1 -60.5,388.7 -75.4,380.1 -75.4,362.9 -60.5,354.3 				"/>
				<polygon class="st166" points="-30.6,388.7 -30.6,406 -45.6,414.6 -60.5,406 -60.5,388.7 -45.6,380.1 				"/>
				<polygon class="st167" points="-15.7,414.6 -15.7,431.8 -30.6,440.4 -45.6,431.8 -45.6,414.6 -30.6,406 				"/>
				<polygon class="st168" points="-0.8,440.4 -0.8,457.7 -15.7,466.3 -30.6,457.7 -30.6,440.4 -15.7,431.8 				"/>
				<polygon class="st161" points="-75.4,362.9 -75.4,380.1 -90.3,388.7 -105.2,380.1 -105.2,362.9 -90.3,354.3 				"/>
				<polygon class="st161" points="-60.5,388.7 -60.5,406 -75.4,414.6 -90.3,406 -90.3,388.7 -75.4,380.1 				"/>
				<polygon class="st169" points="-45.6,414.6 -45.6,431.8 -60.5,440.4 -75.4,431.8 -75.4,414.6 -60.5,406 				"/>
				<polygon class="st170" points="-30.6,440.4 -30.6,457.7 -45.6,466.3 -60.5,457.7 -60.5,440.4 -45.6,431.8 				"/>
				<polygon class="st171" points="-75.4,414.6 -75.4,431.8 -90.3,440.4 -105.2,431.8 -105.2,414.6 -90.3,406 				"/>
				<polygon class="st172" points="-60.5,440.4 -60.5,457.7 -75.4,466.3 -90.3,457.7 -90.3,440.4 -75.4,431.8 				"/>
			</g>
		</g>
	</g>
</g>
<g>
	<g>
		<g>
			<defs>
				<rect id="SVGID_3_" x="0" width="504" height="216"/>
			</defs>
			<use xlink:href="#SVGID_3_"  style="overflow:visible;fill:#E6E6E6;"/>
			<clipPath id="SVGID_4_">
				<use xlink:href="#SVGID_3_"  style="overflow:visible;"/>
			</clipPath>
			<g class="st173">
				<polygon class="st1" points="312.6,327.6 312.6,310.3 297.7,301.7 282.7,310.3 282.7,327.6 297.7,336.2 				"/>
				<polygon class="st2" points="327.5,301.7 327.5,284.5 312.6,275.9 297.7,284.5 297.7,301.7 312.6,310.3 				"/>
				<polygon class="st3" points="342.4,327.6 342.4,310.3 327.5,301.7 312.6,310.3 312.6,327.6 327.5,336.2 				"/>
				<polygon class="st4" points="282.7,327.6 282.7,310.3 267.8,301.7 252.9,310.3 252.9,327.6 267.8,336.2 				"/>
				<polygon class="st5" points="297.7,301.7 297.7,284.5 282.7,275.9 267.8,284.5 267.8,301.7 282.7,310.3 				"/>
				<polygon class="st6" points="342.4,275.9 342.4,258.6 327.5,250 312.6,258.6 312.6,275.9 327.5,284.5 				"/>
				<polygon class="st7" points="357.3,301.7 357.3,284.5 342.4,275.9 327.5,284.5 327.5,301.7 342.4,310.3 				"/>
				<polygon class="st8" points="372.3,327.6 372.3,310.3 357.3,301.7 342.4,310.3 342.4,327.6 357.3,336.2 				"/>
				<polygon class="st9" points="252.9,327.6 252.9,310.3 238,301.7 223,310.3 223,327.6 238,336.2 				"/>
				<polygon class="st10" points="267.8,301.7 267.8,284.5 252.9,275.9 238,284.5 238,301.7 252.9,310.3 				"/>
				<polygon class="st11" points="282.7,275.9 282.7,258.6 267.8,250 252.9,258.6 252.9,275.9 267.8,284.5 				"/>
				<polygon class="st12" points="312.6,275.9 312.6,258.6 297.7,250 282.7,258.6 282.7,275.9 297.7,284.5 				"/>
				<polygon class="st13" points="357.3,250 357.3,232.8 342.4,224.2 327.5,232.8 327.5,250 342.4,258.6 				"/>
				<polygon class="st7" points="372.3,275.9 372.3,258.6 357.3,250 342.4,258.6 342.4,275.9 357.3,284.5 				"/>
				<polygon class="st14" points="387.2,301.7 387.2,284.5 372.3,275.9 357.3,284.5 357.3,301.7 372.3,310.3 				"/>
				<polygon class="st15" points="402.1,327.6 402.1,310.3 387.2,301.7 372.3,310.3 372.3,327.6 387.2,336.2 				"/>
				<polygon class="st16" points="223,327.6 223,310.3 208.1,301.7 193.2,310.3 193.2,327.6 208.1,336.2 				"/>
				<polygon class="st17" points="238,301.7 238,284.5 223,275.9 208.1,284.5 208.1,301.7 223,310.3 				"/>
				<polygon class="st18" points="252.9,275.9 252.9,258.6 238,250 223,258.6 223,275.9 238,284.5 				"/>
				<polygon class="st19" points="267.8,250 267.8,232.8 252.9,224.2 238,232.8 238,250 252.9,258.6 				"/>
				<polygon class="st11" points="297.7,250 297.7,232.8 282.7,224.2 267.8,232.8 267.8,250 282.7,258.6 				"/>
				<polygon class="st20" points="327.5,250 327.5,232.8 312.6,224.2 297.7,232.8 297.7,250 312.6,258.6 				"/>
				<polygon class="st21" points="372.3,224.2 372.3,206.9 357.3,198.3 342.4,206.9 342.4,224.2 357.3,232.8 				"/>
				<polygon class="st22" points="387.2,250 387.2,232.8 372.3,224.2 357.3,232.8 357.3,250 372.3,258.6 				"/>
				<polygon class="st23" points="402.1,275.9 402.1,258.6 387.2,250 372.3,258.6 372.3,275.9 387.2,284.5 				"/>
				<polygon class="st24" points="417,301.7 417,284.5 402.1,275.9 387.2,284.5 387.2,301.7 402.1,310.3 				"/>
				<polygon class="st25" points="432,327.6 432,310.3 417,301.7 402.1,310.3 402.1,327.6 417,336.2 				"/>
				<polygon class="st26" points="193.2,327.6 193.2,310.3 178.3,301.7 163.4,310.3 163.4,327.6 178.3,336.2 				"/>
				<polygon class="st27" points="208.1,301.7 208.1,284.5 193.2,275.9 178.3,284.5 178.3,301.7 193.2,310.3 				"/>
				<polygon class="st28" points="223,275.9 223,258.6 208.1,250 193.2,258.6 193.2,275.9 208.1,284.5 				"/>
				<polygon class="st19" points="238,250 238,232.8 223,224.2 208.1,232.8 208.1,250 223,258.6 				"/>
				<polygon class="st29" points="252.9,224.2 252.9,206.9 238,198.3 223,206.9 223,224.2 238,232.8 				"/>
				<polygon class="st19" points="282.7,224.2 282.7,206.9 267.8,198.3 252.9,206.9 252.9,224.2 267.8,232.8 				"/>
				<polygon class="st30" points="312.6,224.2 312.6,206.9 297.7,198.3 282.7,206.9 282.7,224.2 297.7,232.8 				"/>
				<polygon class="st31" points="342.4,224.2 342.4,206.9 327.5,198.3 312.6,206.9 312.6,224.2 327.5,232.8 				"/>
				<polygon class="st32" points="387.2,198.3 387.2,181.1 372.3,172.5 357.3,181.1 357.3,198.3 372.3,206.9 				"/>
				<polygon class="st33" points="402.1,224.2 402.1,206.9 387.2,198.3 372.3,206.9 372.3,224.2 387.2,232.8 				"/>
				<polygon class="st34" points="417,250 417,232.8 402.1,224.2 387.2,232.8 387.2,250 402.1,258.6 				"/>
				<polygon class="st35" points="432,275.9 432,258.6 417,250 402.1,258.6 402.1,275.9 417,284.5 				"/>
				<polygon class="st25" points="446.9,301.7 446.9,284.5 432,275.9 417,284.5 417,301.7 432,310.3 				"/>
				<polygon class="st36" points="461.8,327.6 461.8,310.3 446.9,301.7 432,310.3 432,327.6 446.9,336.2 				"/>
				<polygon class="st37" points="163.4,327.6 163.4,310.3 148.4,301.7 133.5,310.3 133.5,327.6 148.4,336.2 				"/>
				<polygon class="st38" points="178.3,301.7 178.3,284.5 163.4,275.9 148.4,284.5 148.4,301.7 163.4,310.3 				"/>
				<polygon class="st37" points="193.2,275.9 193.2,258.6 178.3,250 163.4,258.6 163.4,275.9 178.3,284.5 				"/>
				<polygon class="st39" points="208.1,250 208.1,232.8 193.2,224.2 178.3,232.8 178.3,250 193.2,258.6 				"/>
				<polygon class="st27" points="223,224.2 223,206.9 208.1,198.3 193.2,206.9 193.2,224.2 208.1,232.8 				"/>
				<polygon class="st40" points="238,198.3 238,181.1 223,172.5 208.1,181.1 208.1,198.3 223,206.9 				"/>
				<polygon class="st41" points="267.8,198.3 267.8,181.1 252.9,172.5 238,181.1 238,198.3 252.9,206.9 				"/>
				<polygon class="st42" points="297.7,198.3 297.7,181.1 282.7,172.5 267.8,181.1 267.8,198.3 282.7,206.9 				"/>
				<polygon class="st43" points="327.5,198.3 327.5,181.1 312.6,172.5 297.7,181.1 297.7,198.3 312.6,206.9 				"/>
				<polygon class="st44" points="357.3,198.3 357.3,181.1 342.4,172.5 327.5,181.1 327.5,198.3 342.4,206.9 				"/>
				<polygon class="st45" points="402.1,172.5 402.1,155.3 387.2,146.6 372.3,155.3 372.3,172.5 387.2,181.1 				"/>
				<polygon class="st46" points="417,198.3 417,181.1 402.1,172.5 387.2,181.1 387.2,198.3 402.1,206.9 				"/>
				<polygon class="st47" points="432,224.2 432,206.9 417,198.3 402.1,206.9 402.1,224.2 417,232.8 				"/>
				<polygon class="st48" points="446.9,250 446.9,232.8 432,224.2 417,232.8 417,250 432,258.6 				"/>
				<polygon class="st36" points="461.8,275.9 461.8,258.6 446.9,250 432,258.6 432,275.9 446.9,284.5 				"/>
				<polygon class="st49" points="476.7,301.7 476.7,284.5 461.8,275.9 446.9,284.5 446.9,301.7 461.8,310.3 				"/>
				<polygon class="st50" points="491.6,327.6 491.6,310.3 476.7,301.7 461.8,310.3 461.8,327.6 476.7,336.2 				"/>
				<polygon class="st51" points="133.5,327.6 133.5,310.3 118.6,301.7 103.7,310.3 103.7,327.6 118.6,336.2 				"/>
				<polygon class="st52" points="148.4,301.7 148.4,284.5 133.5,275.9 118.6,284.5 118.6,301.7 133.5,310.3 				"/>
				<polygon class="st53" points="163.4,275.9 163.4,258.6 148.4,250 133.5,258.6 133.5,275.9 148.4,284.5 				"/>
				<polygon class="st54" points="178.3,250 178.3,232.8 163.4,224.2 148.4,232.8 148.4,250 163.4,258.6 				"/>
				<polygon class="st55" points="193.2,224.2 193.2,206.9 178.3,198.3 163.4,206.9 163.4,224.2 178.3,232.8 				"/>
				<polygon class="st55" points="208.1,198.3 208.1,181.1 193.2,172.5 178.3,181.1 178.3,198.3 193.2,206.9 				"/>
				<polygon class="st56" points="223,172.5 223,155.3 208.1,146.6 193.2,155.3 193.2,172.5 208.1,181.1 				"/>
				<polygon class="st18" points="252.9,172.5 252.9,155.3 238,146.6 223,155.3 223,172.5 238,181.1 				"/>
				<polygon class="st29" points="282.7,172.5 282.7,155.3 267.8,146.6 252.9,155.3 252.9,172.5 267.8,181.1 				"/>
				<polygon class="st57" points="312.6,172.5 312.6,155.3 297.7,146.6 282.7,155.3 282.7,172.5 297.7,181.1 				"/>
				<polygon class="st58" points="342.4,172.5 342.4,155.3 327.5,146.6 312.6,155.3 312.6,172.5 327.5,181.1 				"/>
				<polygon class="st59" points="372.3,172.5 372.3,155.3 357.3,146.6 342.4,155.3 342.4,172.5 357.3,181.1 				"/>
				<polygon class="st60" points="417,146.6 417,129.4 402.1,120.8 387.2,129.4 387.2,146.6 402.1,155.3 				"/>
				<polygon class="st7" points="432,172.5 432,155.3 417,146.6 402.1,155.3 402.1,172.5 417,181.1 				"/>
				<polygon class="st61" points="446.9,198.3 446.9,181.1 432,172.5 417,181.1 417,198.3 432,206.9 				"/>
				<polygon class="st48" points="461.8,224.2 461.8,206.9 446.9,198.3 432,206.9 432,224.2 446.9,232.8 				"/>
				<polygon class="st36" points="476.7,250 476.7,232.8 461.8,224.2 446.9,232.8 446.9,250 461.8,258.6 				"/>
				<polygon class="st62" points="491.6,275.9 491.6,258.6 476.7,250 461.8,258.6 461.8,275.9 476.7,284.5 				"/>
				<polygon class="st63" points="506.6,301.7 506.6,284.5 491.6,275.9 476.7,284.5 476.7,301.7 491.6,310.3 				"/>
				<polygon class="st64" points="103.7,327.6 103.7,310.3 88.7,301.7 73.8,310.3 73.8,327.6 88.7,336.2 				"/>
				<polygon class="st65" points="118.6,301.7 118.6,284.5 103.7,275.9 88.7,284.5 88.7,301.7 103.7,310.3 				"/>
				<polygon class="st66" points="133.5,275.9 133.5,258.6 118.6,250 103.7,258.6 103.7,275.9 118.6,284.5 				"/>
				<polygon class="st67" points="148.4,250 148.4,232.8 133.5,224.2 118.6,232.8 118.6,250 133.5,258.6 				"/>
				<polygon class="st68" points="163.4,224.2 163.4,206.9 148.4,198.3 133.5,206.9 133.5,224.2 148.4,232.8 				"/>
				<polygon class="st20" points="178.3,198.3 178.3,181.1 163.4,172.5 148.4,181.1 148.4,198.3 163.4,206.9 				"/>
				<polygon class="st69" points="193.2,172.5 193.2,155.3 178.3,146.6 163.4,155.3 163.4,172.5 178.3,181.1 				"/>
				<polygon class="st69" points="208.1,146.6 208.1,129.4 193.2,120.8 178.3,129.4 178.3,146.6 193.2,155.3 				"/>
				<polygon class="st70" points="238,146.6 238,129.4 223,120.8 208.1,129.4 208.1,146.6 223,155.3 				"/>
				<polygon class="st57" points="267.8,146.6 267.8,129.4 252.9,120.8 238,129.4 238,146.6 252.9,155.3 				"/>
				<polygon class="st71" points="297.7,146.6 297.7,129.4 282.7,120.8 267.8,129.4 267.8,146.6 282.7,155.3 				"/>
				<polygon class="st18" points="327.5,146.6 327.5,129.4 312.6,120.8 297.7,129.4 297.7,146.6 312.6,155.3 				"/>
				<polygon class="st51" points="357.3,146.6 357.3,129.4 342.4,120.8 327.5,129.4 327.5,146.6 342.4,155.3 				"/>
				<polygon class="st72" points="387.2,146.6 387.2,129.4 372.3,120.8 357.3,129.4 357.3,146.6 372.3,155.3 				"/>
				<polygon class="st73" points="432,120.8 432,103.6 417,94.9 402.1,103.6 402.1,120.8 417,129.4 				"/>
				<polygon class="st74" points="446.9,146.6 446.9,129.4 432,120.8 417,129.4 417,146.6 432,155.3 				"/>
				<polygon class="st75" points="461.8,172.5 461.8,155.3 446.9,146.6 432,155.3 432,172.5 446.9,181.1 				"/>
				<polygon class="st76" points="476.7,198.3 476.7,181.1 461.8,172.5 446.9,181.1 446.9,198.3 461.8,206.9 				"/>
				<polygon class="st77" points="491.6,224.2 491.6,206.9 476.7,198.3 461.8,206.9 461.8,224.2 476.7,232.8 				"/>
				<polygon class="st36" points="506.6,250 506.6,232.8 491.6,224.2 476.7,232.8 476.7,250 491.6,258.6 				"/>
				<polygon class="st78" points="521.5,275.9 521.5,258.6 506.6,250 491.6,258.6 491.6,275.9 506.6,284.5 				"/>
				<polygon class="st79" points="73.8,327.6 73.8,310.3 58.9,301.7 44,310.3 44,327.6 58.9,336.2 				"/>
				<polygon class="st80" points="88.7,301.7 88.7,284.5 73.8,275.9 58.9,284.5 58.9,301.7 73.8,310.3 				"/>
				<polygon class="st81" points="103.7,275.9 103.7,258.6 88.7,250 73.8,258.6 73.8,275.9 88.7,284.5 				"/>
				<polygon class="st82" points="118.6,250 118.6,232.8 103.7,224.2 88.7,232.8 88.7,250 103.7,258.6 				"/>
				<polygon class="st82" points="133.5,224.2 133.5,206.9 118.6,198.3 103.7,206.9 103.7,224.2 118.6,232.8 				"/>
				<polygon class="st83" points="148.4,198.3 148.4,181.1 133.5,172.5 118.6,181.1 118.6,198.3 133.5,206.9 				"/>
				<polygon class="st79" points="163.4,172.5 163.4,155.3 148.4,146.6 133.5,155.3 133.5,172.5 148.4,181.1 				"/>
				<polygon class="st84" points="178.3,146.6 178.3,129.4 163.4,120.8 148.4,129.4 148.4,146.6 163.4,155.3 				"/>
				<polygon class="st85" points="193.2,120.8 193.2,103.6 178.3,94.9 163.4,103.6 163.4,120.8 178.3,129.4 				"/>
				<polygon class="st86" points="223,120.8 223,103.6 208.1,94.9 193.2,103.6 193.2,120.8 208.1,129.4 				"/>
				<polygon class="st20" points="252.9,120.8 252.9,103.6 238,94.9 223,103.6 223,120.8 238,129.4 				"/>
				<polygon class="st19" points="282.7,120.8 282.7,103.6 267.8,94.9 252.9,103.6 252.9,120.8 267.8,129.4 				"/>
				<polygon class="st19" points="312.6,120.8 312.6,103.6 297.7,94.9 282.7,103.6 282.7,120.8 297.7,129.4 				"/>
				<polygon class="st87" points="342.4,120.8 342.4,103.6 327.5,94.9 312.6,103.6 312.6,120.8 327.5,129.4 				"/>
				<polygon class="st84" points="372.3,120.8 372.3,103.6 357.3,94.9 342.4,103.6 342.4,120.8 357.3,129.4 				"/>
				<polygon class="st1" points="402.1,120.8 402.1,103.6 387.2,94.9 372.3,103.6 372.3,120.8 387.2,129.4 				"/>
				<polygon class="st82" points="446.9,94.9 446.9,77.7 432,69.1 417,77.7 417,94.9 432,103.6 				"/>
				<polygon class="st60" points="461.8,120.8 461.8,103.6 446.9,94.9 432,103.6 432,120.8 446.9,129.4 				"/>
				<polygon class="st88" points="476.7,146.6 476.7,129.4 461.8,120.8 446.9,129.4 446.9,146.6 461.8,155.3 				"/>
				<polygon class="st89" points="491.6,172.5 491.6,155.3 476.7,146.6 461.8,155.3 461.8,172.5 476.7,181.1 				"/>
				<polygon class="st90" points="506.6,198.3 506.6,181.1 491.6,172.5 476.7,181.1 476.7,198.3 491.6,206.9 				"/>
				<polygon class="st77" points="521.5,224.2 521.5,206.9 506.6,198.3 491.6,206.9 491.6,224.2 506.6,232.8 				"/>
				<polygon class="st13" points="44,327.6 44,310.3 29.1,301.7 14.1,310.3 14.1,327.6 29.1,336.2 				"/>
				<polygon class="st91" points="58.9,301.7 58.9,284.5 44,275.9 29.1,284.5 29.1,301.7 44,310.3 				"/>
				<polygon class="st92" points="73.8,275.9 73.8,258.6 58.9,250 44,258.6 44,275.9 58.9,284.5 				"/>
				<polygon class="st93" points="88.7,250 88.7,232.8 73.8,224.2 58.9,232.8 58.9,250 73.8,258.6 				"/>
				<polygon class="st73" points="103.7,224.2 103.7,206.9 88.7,198.3 73.8,206.9 73.8,224.2 88.7,232.8 				"/>
				<polygon class="st94" points="118.6,198.3 118.6,181.1 103.7,172.5 88.7,181.1 88.7,198.3 103.7,206.9 				"/>
				<polygon class="st93" points="133.5,172.5 133.5,155.3 118.6,146.6 103.7,155.3 103.7,172.5 118.6,181.1 				"/>
				<polygon class="st95" points="148.4,146.6 148.4,129.4 133.5,120.8 118.6,129.4 118.6,146.6 133.5,155.3 				"/>
				<polygon class="st96" points="163.4,120.8 163.4,103.6 148.4,94.9 133.5,103.6 133.5,120.8 148.4,129.4 				"/>
				<polygon class="st68" points="178.3,94.9 178.3,77.7 163.4,69.1 148.4,77.7 148.4,94.9 163.4,103.6 				"/>
				<polygon class="st9" points="208.1,94.9 208.1,77.7 193.2,69.1 178.3,77.7 178.3,94.9 193.2,103.6 				"/>
				<polygon class="st82" points="238,94.9 238,77.7 223,69.1 208.1,77.7 208.1,94.9 223,103.6 				"/>
				<polygon class="st97" points="267.8,94.9 267.8,77.7 252.9,69.1 238,77.7 238,94.9 252.9,103.6 				"/>
				<polygon class="st71" points="297.7,94.9 297.7,77.7 282.7,69.1 267.8,77.7 267.8,94.9 282.7,103.6 				"/>
				<polygon class="st26" points="327.5,94.9 327.5,77.7 312.6,69.1 297.7,77.7 297.7,94.9 312.6,103.6 				"/>
				<polygon class="st55" points="357.3,94.9 357.3,77.7 342.4,69.1 327.5,77.7 327.5,94.9 342.4,103.6 				"/>
				<polygon class="st20" points="387.2,94.9 387.2,77.7 372.3,69.1 357.3,77.7 357.3,94.9 372.3,103.6 				"/>
				<polygon class="st20" points="417,94.9 417,77.7 402.1,69.1 387.2,77.7 387.2,94.9 402.1,103.6 				"/>
				<polygon class="st51" points="461.8,69.1 461.8,51.9 446.9,43.3 432,51.9 432,69.1 446.9,77.7 				"/>
				<polygon class="st97" points="476.7,94.9 476.7,77.7 461.8,69.1 446.9,77.7 446.9,94.9 461.8,103.6 				"/>
				<polygon class="st98" points="491.6,120.8 491.6,103.6 476.7,94.9 461.8,103.6 461.8,120.8 476.7,129.4 				"/>
				<polygon class="st3" points="506.6,146.6 506.6,129.4 491.6,120.8 476.7,129.4 476.7,146.6 491.6,155.3 				"/>
				<polygon class="st99" points="521.5,172.5 521.5,155.3 506.6,146.6 491.6,155.3 491.6,172.5 506.6,181.1 				"/>
				<polygon class="st94" points="14.1,327.6 14.1,310.3 -0.8,301.7 -15.7,310.3 -15.7,327.6 -0.8,336.2 				"/>
				<polygon class="st45" points="29.1,301.7 29.1,284.5 14.1,275.9 -0.8,284.5 -0.8,301.7 14.1,310.3 				"/>
				<polygon class="st94" points="44,275.9 44,258.6 29.1,250 14.1,258.6 14.1,275.9 29.1,284.5 				"/>
				<polygon class="st72" points="58.9,250 58.9,232.8 44,224.2 29.1,232.8 29.1,250 44,258.6 				"/>
				<polygon class="st100" points="73.8,224.2 73.8,206.9 58.9,198.3 44,206.9 44,224.2 58.9,232.8 				"/>
				<polygon class="st101" points="88.7,198.3 88.7,181.1 73.8,172.5 58.9,181.1 58.9,198.3 73.8,206.9 				"/>
				<polygon class="st102" points="103.7,172.5 103.7,155.3 88.7,146.6 73.8,155.3 73.8,172.5 88.7,181.1 				"/>
				<polygon class="st97" points="118.6,146.6 118.6,129.4 103.7,120.8 88.7,129.4 88.7,146.6 103.7,155.3 				"/>
				<polygon class="st103" points="133.5,120.8 133.5,103.6 118.6,94.9 103.7,103.6 103.7,120.8 118.6,129.4 				"/>
				<polygon class="st97" points="148.4,94.9 148.4,77.7 133.5,69.1 118.6,77.7 118.6,94.9 133.5,103.6 				"/>
				<polygon class="st82" points="163.4,69.1 163.4,51.9 148.4,43.3 133.5,51.9 133.5,69.1 148.4,77.7 				"/>
				<polygon class="st59" points="193.2,69.1 193.2,51.9 178.3,43.3 163.4,51.9 163.4,69.1 178.3,77.7 				"/>
				<polygon class="st104" points="223,69.1 223,51.9 208.1,43.3 193.2,51.9 193.2,69.1 208.1,77.7 				"/>
				<polygon class="st105" points="252.9,69.1 252.9,51.9 238,43.3 223,51.9 223,69.1 238,77.7 				"/>
				<polygon class="st96" points="282.7,69.1 282.7,51.9 267.8,43.3 252.9,51.9 252.9,69.1 267.8,77.7 				"/>
				<polygon class="st106" points="312.6,69.1 312.6,51.9 297.7,43.3 282.7,51.9 282.7,69.1 297.7,77.7 				"/>
				<polygon class="st107" points="342.4,69.1 342.4,51.9 327.5,43.3 312.6,51.9 312.6,69.1 327.5,77.7 				"/>
				<polygon class="st108" points="372.3,69.1 372.3,51.9 357.3,43.3 342.4,51.9 342.4,69.1 357.3,77.7 				"/>
				<polygon class="st109" points="402.1,69.1 402.1,51.9 387.2,43.3 372.3,51.9 372.3,69.1 387.2,77.7 				"/>
				<polygon class="st110" points="432,69.1 432,51.9 417,43.3 402.1,51.9 402.1,69.1 417,77.7 				"/>
				<polygon class="st111" points="476.7,43.3 476.7,26 461.8,17.4 446.9,26 446.9,43.3 461.8,51.9 				"/>
				<polygon class="st44" points="491.6,69.1 491.6,51.9 476.7,43.3 461.8,51.9 461.8,69.1 476.7,77.7 				"/>
				<polygon class="st112" points="506.6,94.9 506.6,77.7 491.6,69.1 476.7,77.7 476.7,94.9 491.6,103.6 				"/>
				<polygon class="st113" points="521.5,120.8 521.5,103.6 506.6,94.9 491.6,103.6 491.6,120.8 506.6,129.4 				"/>
				<polygon class="st102" points="-15.7,327.6 -15.7,310.3 -30.6,301.7 -45.6,310.3 -45.6,327.6 -30.6,336.2 				"/>
				<polygon class="st33" points="-0.8,301.7 -0.8,284.5 -15.7,275.9 -30.6,284.5 -30.6,301.7 -15.7,310.3 				"/>
				<polygon class="st60" points="14.1,275.9 14.1,258.6 -0.8,250 -15.7,258.6 -15.7,275.9 -0.8,284.5 				"/>
				<polygon class="st102" points="29.1,250 29.1,232.8 14.1,224.2 -0.8,232.8 -0.8,250 14.1,258.6 				"/>
				<polygon class="st102" points="44,224.2 44,206.9 29.1,198.3 14.1,206.9 14.1,224.2 29.1,232.8 				"/>
				<polygon class="st114" points="58.9,198.3 58.9,181.1 44,172.5 29.1,181.1 29.1,198.3 44,206.9 				"/>
				<polygon class="st115" points="73.8,172.5 73.8,155.3 58.9,146.6 44,155.3 44,172.5 58.9,181.1 				"/>
				<polygon class="st21" points="88.7,146.6 88.7,129.4 73.8,120.8 58.9,129.4 58.9,146.6 73.8,155.3 				"/>
				<polygon class="st21" points="103.7,120.8 103.7,103.6 88.7,94.9 73.8,103.6 73.8,120.8 88.7,129.4 				"/>
				<polygon class="st94" points="118.6,94.9 118.6,77.7 103.7,69.1 88.7,77.7 88.7,94.9 103.7,103.6 				"/>
				<polygon class="st73" points="133.5,69.1 133.5,51.9 118.6,43.3 103.7,51.9 103.7,69.1 118.6,77.7 				"/>
				<polygon class="st21" points="148.4,43.3 148.4,26 133.5,17.4 118.6,26 118.6,43.3 133.5,51.9 				"/>
				<polygon class="st82" points="178.3,43.3 178.3,26 163.4,17.4 148.4,26 148.4,43.3 163.4,51.9 				"/>
				<polygon class="st84" points="208.1,43.3 208.1,26 193.2,17.4 178.3,26 178.3,43.3 193.2,51.9 				"/>
				<polygon class="st116" points="238,43.3 238,26 223,17.4 208.1,26 208.1,43.3 223,51.9 				"/>
				<polygon class="st83" points="267.8,43.3 267.8,26 252.9,17.4 238,26 238,43.3 252.9,51.9 				"/>
				<polygon class="st51" points="297.7,43.3 297.7,26 282.7,17.4 267.8,26 267.8,43.3 282.7,51.9 				"/>
				<polygon class="st117" points="327.5,43.3 327.5,26 312.6,17.4 297.7,26 297.7,43.3 312.6,51.9 				"/>
				<polygon class="st53" points="357.3,43.3 357.3,26 342.4,17.4 327.5,26 327.5,43.3 342.4,51.9 				"/>
				<polygon class="st71" points="387.2,43.3 387.2,26 372.3,17.4 357.3,26 357.3,43.3 372.3,51.9 				"/>
				<polygon class="st19" points="417,43.3 417,26 402.1,17.4 387.2,26 387.2,43.3 402.1,51.9 				"/>
				<polygon class="st52" points="446.9,43.3 446.9,26 432,17.4 417,26 417,43.3 432,51.9 				"/>
				<polygon class="st9" points="491.6,17.4 491.6,0.2 476.7,-8.4 461.8,0.2 461.8,17.4 476.7,26 				"/>
				<polygon class="st118" points="506.6,43.3 506.6,26 491.6,17.4 476.7,26 476.7,43.3 491.6,51.9 				"/>
				<polygon class="st1" points="521.5,69.1 521.5,51.9 506.6,43.3 491.6,51.9 491.6,69.1 506.6,77.7 				"/>
				<polygon class="st119" points="-45.6,327.6 -45.6,310.3 -60.5,301.7 -75.4,310.3 -75.4,327.6 -60.5,336.2 				"/>
				<polygon class="st33" points="-30.6,301.7 -30.6,284.5 -45.6,275.9 -60.5,284.5 -60.5,301.7 -45.6,310.3 				"/>
				<polygon class="st98" points="-15.7,275.9 -15.7,258.6 -30.6,250 -45.6,258.6 -45.6,275.9 -30.6,284.5 				"/>
				<polygon class="st120" points="-0.8,250 -0.8,232.8 -15.7,224.2 -30.6,232.8 -30.6,250 -15.7,258.6 				"/>
				<polygon class="st120" points="14.1,224.2 14.1,206.9 -0.8,198.3 -15.7,206.9 -15.7,224.2 -0.8,232.8 				"/>
				<polygon class="st121" points="29.1,198.3 29.1,181.1 14.1,172.5 -0.8,181.1 -0.8,198.3 14.1,206.9 				"/>
				<polygon class="st122" points="44,172.5 44,155.3 29.1,146.6 14.1,155.3 14.1,172.5 29.1,181.1 				"/>
				<polygon class="st123" points="58.9,146.6 58.9,129.4 44,120.8 29.1,129.4 29.1,146.6 44,155.3 				"/>
				<polygon class="st94" points="73.8,120.8 73.8,103.6 58.9,94.9 44,103.6 44,120.8 58.9,129.4 				"/>
				<polygon class="st7" points="88.7,94.9 88.7,77.7 73.8,69.1 58.9,77.7 58.9,94.9 73.8,103.6 				"/>
				<polygon class="st124" points="103.7,69.1 103.7,51.9 88.7,43.3 73.8,51.9 73.8,69.1 88.7,77.7 				"/>
				<polygon class="st100" points="118.6,43.3 118.6,26 103.7,17.4 88.7,26 88.7,43.3 103.7,51.9 				"/>
				<polygon class="st125" points="133.5,17.4 133.5,0.2 118.6,-8.4 103.7,0.2 103.7,17.4 118.6,26 				"/>
				<polygon class="st1" points="163.4,17.4 163.4,0.2 148.4,-8.4 133.5,0.2 133.5,17.4 148.4,26 				"/>
				<polygon class="st80" points="193.2,17.4 193.2,0.2 178.3,-8.4 163.4,0.2 163.4,17.4 178.3,26 				"/>
				<polygon class="st20" points="223,17.4 223,0.2 208.1,-8.4 193.2,0.2 193.2,17.4 208.1,26 				"/>
				<polygon class="st65" points="252.9,17.4 252.9,0.2 238,-8.4 223,0.2 223,17.4 238,26 				"/>
				<polygon class="st103" points="282.7,17.4 282.7,0.2 267.8,-8.4 252.9,0.2 252.9,17.4 267.8,26 				"/>
				<polygon class="st126" points="312.6,17.4 312.6,0.2 297.7,-8.4 282.7,0.2 282.7,17.4 297.7,26 				"/>
				<polygon class="st117" points="342.4,17.4 342.4,0.2 327.5,-8.4 312.6,0.2 312.6,17.4 327.5,26 				"/>
				<polygon class="st26" points="372.3,17.4 372.3,0.2 357.3,-8.4 342.4,0.2 342.4,17.4 357.3,26 				"/>
				<polygon class="st127" points="402.1,17.4 402.1,0.2 387.2,-8.4 372.3,0.2 372.3,17.4 387.2,26 				"/>
				<polygon class="st19" points="432,17.4 432,0.2 417,-8.4 402.1,0.2 402.1,17.4 417,26 				"/>
				<polygon class="st128" points="461.8,17.4 461.8,0.2 446.9,-8.4 432,0.2 432,17.4 446.9,26 				"/>
				<polygon class="st129" points="506.6,-8.4 506.6,-25.7 491.6,-34.3 476.7,-25.7 476.7,-8.4 491.6,0.2 				"/>
				<polygon class="st97" points="521.5,17.4 521.5,0.2 506.6,-8.4 491.6,0.2 491.6,17.4 506.6,26 				"/>
				<polygon class="st83" points="-75.4,327.6 -75.4,310.3 -90.3,301.7 -105.2,310.3 -105.2,327.6 -90.3,336.2 				"/>
				<polygon class="st96" points="-60.5,301.7 -60.5,284.5 -75.4,275.9 -90.3,284.5 -90.3,301.7 -75.4,310.3 				"/>
				<polygon class="st130" points="-45.6,275.9 -45.6,258.6 -60.5,250 -75.4,258.6 -75.4,275.9 -60.5,284.5 				"/>
				<polygon class="st131" points="-30.6,250 -30.6,232.8 -45.6,224.2 -60.5,232.8 -60.5,250 -45.6,258.6 				"/>
				<polygon class="st132" points="-15.7,224.2 -15.7,206.9 -30.6,198.3 -45.6,206.9 -45.6,224.2 -30.6,232.8 				"/>
				<polygon class="st133" points="-0.8,198.3 -0.8,181.1 -15.7,172.5 -30.6,181.1 -30.6,198.3 -15.7,206.9 				"/>
				<polygon class="st134" points="14.1,172.5 14.1,155.3 -0.8,146.6 -15.7,155.3 -15.7,172.5 -0.8,181.1 				"/>
				<polygon class="st135" points="29.1,146.6 29.1,129.4 14.1,120.8 -0.8,129.4 -0.8,146.6 14.1,155.3 				"/>
				<polygon class="st136" points="44,120.8 44,103.6 29.1,94.9 14.1,103.6 14.1,120.8 29.1,129.4 				"/>
				<polygon class="st123" points="58.9,94.9 58.9,77.7 44,69.1 29.1,77.7 29.1,94.9 44,103.6 				"/>
				<polygon class="st33" points="73.8,69.1 73.8,51.9 58.9,43.3 44,51.9 44,69.1 58.9,77.7 				"/>
				<polygon class="st120" points="88.7,43.3 88.7,26 73.8,17.4 58.9,26 58.9,43.3 73.8,51.9 				"/>
				<polygon class="st7" points="103.7,17.4 103.7,0.2 88.7,-8.4 73.8,0.2 73.8,17.4 88.7,26 				"/>
				<polygon class="st137" points="118.6,-8.4 118.6,-25.7 103.7,-34.3 88.7,-25.7 88.7,-8.4 103.7,0.2 				"/>
				<polygon class="st138" points="148.4,-8.4 148.4,-25.7 133.5,-34.3 118.6,-25.7 118.6,-8.4 133.5,0.2 				"/>
				<polygon class="st139" points="178.3,-8.4 178.3,-25.7 163.4,-34.3 148.4,-25.7 148.4,-8.4 163.4,0.2 				"/>
				<polygon class="st60" points="208.1,-8.4 208.1,-25.7 193.2,-34.3 178.3,-25.7 178.3,-8.4 193.2,0.2 				"/>
				<polygon class="st44" points="238,-8.4 238,-25.7 223,-34.3 208.1,-25.7 208.1,-8.4 223,0.2 				"/>
				<polygon class="st140" points="267.8,-8.4 267.8,-25.7 252.9,-34.3 238,-25.7 238,-8.4 252.9,0.2 				"/>
				<polygon class="st42" points="297.7,-8.4 297.7,-25.7 282.7,-34.3 267.8,-25.7 267.8,-8.4 282.7,0.2 				"/>
				<polygon class="st141" points="327.5,-8.4 327.5,-25.7 312.6,-34.3 297.7,-25.7 297.7,-8.4 312.6,0.2 				"/>
				<polygon class="st110" points="357.3,-8.4 357.3,-25.7 342.4,-34.3 327.5,-25.7 327.5,-8.4 342.4,0.2 				"/>
				<polygon class="st54" points="387.2,-8.4 387.2,-25.7 372.3,-34.3 357.3,-25.7 357.3,-8.4 372.3,0.2 				"/>
				<polygon class="st142" points="417,-8.4 417,-25.7 402.1,-34.3 387.2,-25.7 387.2,-8.4 402.1,0.2 				"/>
				<polygon class="st57" points="446.9,-8.4 446.9,-25.7 432,-34.3 417,-25.7 417,-8.4 432,0.2 				"/>
				<polygon class="st42" points="476.7,-8.4 476.7,-25.7 461.8,-34.3 446.9,-25.7 446.9,-8.4 461.8,0.2 				"/>
				<polygon class="st143" points="-75.4,275.9 -75.4,258.6 -90.3,250 -105.2,258.6 -105.2,275.9 -90.3,284.5 				"/>
				<polygon class="st144" points="-60.5,250 -60.5,232.8 -75.4,224.2 -90.3,232.8 -90.3,250 -75.4,258.6 				"/>
				<polygon class="st145" points="-45.6,224.2 -45.6,206.9 -60.5,198.3 -75.4,206.9 -75.4,224.2 -60.5,232.8 				"/>
				<polygon class="st146" points="-30.6,198.3 -30.6,181.1 -45.6,172.5 -60.5,181.1 -60.5,198.3 -45.6,206.9 				"/>
				<polygon class="st147" points="-15.7,172.5 -15.7,155.3 -30.6,146.6 -45.6,155.3 -45.6,172.5 -30.6,181.1 				"/>
				<polygon class="st148" points="-0.8,146.6 -0.8,129.4 -15.7,120.8 -30.6,129.4 -30.6,146.6 -15.7,155.3 				"/>
				<polygon class="st149" points="14.1,120.8 14.1,103.6 -0.8,94.9 -15.7,103.6 -15.7,120.8 -0.8,129.4 				"/>
				<polygon class="st36" points="29.1,94.9 29.1,77.7 14.1,69.1 -0.8,77.7 -0.8,94.9 14.1,103.6 				"/>
				<polygon class="st24" points="44,69.1 44,51.9 29.1,43.3 14.1,51.9 14.1,69.1 29.1,77.7 				"/>
				<polygon class="st146" points="58.9,43.3 58.9,26 44,17.4 29.1,26 29.1,43.3 44,51.9 				"/>
				<polygon class="st121" points="73.8,17.4 73.8,0.2 58.9,-8.4 44,0.2 44,17.4 58.9,26 				"/>
				<polygon class="st23" points="88.7,-8.4 88.7,-25.7 73.8,-34.3 58.9,-25.7 58.9,-8.4 73.8,0.2 				"/>
				<polygon class="st2" points="-75.4,224.2 -75.4,206.9 -90.3,198.3 -105.2,206.9 -105.2,224.2 -90.3,232.8 				"/>
				<polygon class="st150" points="-60.5,198.3 -60.5,181.1 -75.4,172.5 -90.3,181.1 -90.3,198.3 -75.4,206.9 				"/>
				<polygon class="st151" points="-45.6,172.5 -45.6,155.3 -60.5,146.6 -75.4,155.3 -75.4,172.5 -60.5,181.1 				"/>
				<polygon class="st152" points="-30.6,146.6 -30.6,129.4 -45.6,120.8 -60.5,129.4 -60.5,146.6 -45.6,155.3 				"/>
				<polygon class="st153" points="-15.7,120.8 -15.7,103.6 -30.6,94.9 -45.6,103.6 -45.6,120.8 -30.6,129.4 				"/>
				<polygon class="st154" points="-0.8,94.9 -0.8,77.7 -15.7,69.1 -30.6,77.7 -30.6,94.9 -15.7,103.6 				"/>
				<polygon class="st155" points="14.1,69.1 14.1,51.9 -0.8,43.3 -15.7,51.9 -15.7,69.1 -0.8,77.7 				"/>
				<polygon class="st156" points="29.1,43.3 29.1,26 14.1,17.4 -0.8,26 -0.8,43.3 14.1,51.9 				"/>
				<polygon class="st157" points="44,17.4 44,0.2 29.1,-8.4 14.1,0.2 14.1,17.4 29.1,26 				"/>
				<polygon class="st8" points="58.9,-8.4 58.9,-25.7 44,-34.3 29.1,-25.7 29.1,-8.4 44,0.2 				"/>
				<polygon class="st158" points="-75.4,172.5 -75.4,155.3 -90.3,146.6 -105.2,155.3 -105.2,172.5 -90.3,181.1 				"/>
				<polygon class="st159" points="-60.5,146.6 -60.5,129.4 -75.4,120.8 -90.3,129.4 -90.3,146.6 -75.4,155.3 				"/>
				<polygon class="st160" points="-45.6,120.8 -45.6,103.6 -60.5,94.9 -75.4,103.6 -75.4,120.8 -60.5,129.4 				"/>
				<polygon class="st161" points="-30.6,94.9 -30.6,77.7 -45.6,69.1 -60.5,77.7 -60.5,94.9 -45.6,103.6 				"/>
				<polygon class="st162" points="-15.7,69.1 -15.7,51.9 -30.6,43.3 -45.6,51.9 -45.6,69.1 -30.6,77.7 				"/>
				<polygon class="st148" points="-0.8,43.3 -0.8,26 -15.7,17.4 -30.6,26 -30.6,43.3 -15.7,51.9 				"/>
				<polygon class="st150" points="14.1,17.4 14.1,0.2 -0.8,-8.4 -15.7,0.2 -15.7,17.4 -0.8,26 				"/>
				<polygon class="st150" points="29.1,-8.4 29.1,-25.7 14.1,-34.3 -0.8,-25.7 -0.8,-8.4 14.1,0.2 				"/>
				<polygon class="st163" points="-75.4,120.8 -75.4,103.6 -90.3,94.9 -105.2,103.6 -105.2,120.8 -90.3,129.4 				"/>
				<polygon class="st164" points="-60.5,94.9 -60.5,77.7 -75.4,69.1 -90.3,77.7 -90.3,94.9 -75.4,103.6 				"/>
				<polygon class="st165" points="-45.6,69.1 -45.6,51.9 -60.5,43.3 -75.4,51.9 -75.4,69.1 -60.5,77.7 				"/>
				<polygon class="st166" points="-30.6,43.3 -30.6,26 -45.6,17.4 -60.5,26 -60.5,43.3 -45.6,51.9 				"/>
				<polygon class="st167" points="-15.7,17.4 -15.7,0.2 -30.6,-8.4 -45.6,0.2 -45.6,17.4 -30.6,26 				"/>
				<polygon class="st168" points="-0.8,-8.4 -0.8,-25.7 -15.7,-34.3 -30.6,-25.7 -30.6,-8.4 -15.7,0.2 				"/>
				<polygon class="st161" points="-75.4,69.1 -75.4,51.9 -90.3,43.3 -105.2,51.9 -105.2,69.1 -90.3,77.7 				"/>
				<polygon class="st161" points="-60.5,43.3 -60.5,26 -75.4,17.4 -90.3,26 -90.3,43.3 -75.4,51.9 				"/>
				<polygon class="st169" points="-45.6,17.4 -45.6,0.2 -60.5,-8.4 -75.4,0.2 -75.4,17.4 -60.5,26 				"/>
				<polygon class="st170" points="-30.6,-8.4 -30.6,-25.7 -45.6,-34.3 -60.5,-25.7 -60.5,-8.4 -45.6,0.2 				"/>
				<polygon class="st171" points="-75.4,17.4 -75.4,0.2 -90.3,-8.4 -105.2,0.2 -105.2,17.4 -90.3,26 				"/>
				<polygon class="st172" points="-60.5,-8.4 -60.5,-25.7 -75.4,-34.3 -90.3,-25.7 -90.3,-8.4 -75.4,0.2 				"/>
			</g>
		</g>
	</g>
</g>
</svg>
