<?xml version="1.0" encoding="utf-8"?>
<!-- Generator: Adobe Illustrator 22.0.1, SVG Export Plug-In . SVG Version: 6.00 Build 0)  -->
<svg version="1.1" xmlns="http://www.w3.org/2000/svg" xmlns:xlink="http://www.w3.org/1999/xlink" x="0px" y="0px"
	 viewBox="0 0 316.2 313.1" style="enable-background:new 0 0 316.2 313.1;" xml:space="preserve">
<style type="text/css">
	.st0{display:none;}
	.st1{display:inline;}
	.st2{display:inline;fill:#F82939;}
	.st3{display:inline;fill:#FFFFFF;}
	.st4{fill:#E0E3E6;}
	.st5{fill:#131313;}
	.st6{display:inline;fill:#131313;}
	.st7{fill:#F5EBE0;}
	.st8{display:inline;fill:#6B4A32;}
	.st9{fill:#6B4A32;}
	.st10{display:inline;fill:#CC4933;}
	.st11{fill:#D17A54;}
	.st12{fill:#DDA997;}
	.st13{display:inline;fill:none;stroke:#E8E8E8;stroke-width:9;stroke-miterlimit:10;}
	.st14{fill:#EDE170;}
	.st15{fill:#CC4933;}
</style>
<g id="圖層_1" class="st0">
	<g id="圖層_1_1_" class="st1">
		<g class="st0">
			<circle class="st2" cx="159.1" cy="156.7" r="152.8"/>
			<path id="XMLID_2_" class="st3" d="M232.8,160.9c0.1,4.7-1.8,9.3-5.2,12.6c-3,2.9-7,4.5-11.1,4.6l-9.7,0.2
				c-4.5,0.1-8.7-1.5-12-4.6c-3.2-3.1-5.1-7.3-5.2-11.7l-0.2-6.4v0c-0.1-3.1,0.7-6.1,2.2-8.7l0.7-1.2c0.4-0.7,0.5-1.6,0.2-2.4
				c-0.3-0.8-0.9-1.4-1.7-1.7l-1.3-0.5c-20-7.3-41.9-6.9-61.6,1.1l-1.1,0.5c-0.7,0.3-1.3,0.9-1.6,1.6c-0.3,0.7-0.3,1.6,0.1,2.3
				l0.5,1.1c1,2.1,1.5,4.3,1.6,6.7l0.2,6.4c0.1,4.7-1.8,9.3-5.2,12.6c-3,2.9-7,4.5-11.1,4.6l-9.7,0.2c-9.2,0.2-17-7.1-17.2-16.4
				l-0.2-6.4c0-1.7,0.2-3.5,0.7-5.3c1.2-4.7,4.4-9.2,8.8-12.7c37.2-29.5,90.2-30.8,128.8-3.2c8.1,5.8,10.5,13.4,10.1,17.2
				c0,0.1,0,0.2,0,0.4l0,0.3c0,0.1,0,0.3,0,0.4c0.1,0.7,0.2,1.4,0.2,2.2L232.8,160.9z"/>
		</g>
		<g class="st0">
			<g class="st1">
				<ellipse class="st4" cx="159.5" cy="153" rx="152.8" ry="152.8"/>
			</g>
			<g class="st1">
				<path id="XMLID_5_" class="st5" d="M173.5,154.3c-7,7-16.4,10.9-26.3,10.9h0c-20.5,0-37.2-16.7-37.2-37.2
					c0-9.9,3.9-19.3,10.9-26.3c7-7,16.4-10.9,26.3-10.9c20.5,0,37.2,16.7,37.3,37.2C184.5,137.9,180.6,147.2,173.5,154.3z"/>
				<path id="XMLID_3_" class="st5" d="M117.8,168.6c16.5,14.4,43.9,14.4,60.5-0.2c1.1-1,2.8-0.8,3.7,0.3
					c11.1,14,14.5,32.7,15.5,43.7c0.1,1.5-1,2.8-2.6,2.8l-95.4,0c-1.5,0-2.7-1.3-2.6-2.9c2.4-21.6,11.2-36.1,17-43.5
					C115,167.8,116.7,167.6,117.8,168.6z"/>
			</g>
			<path class="st6" d="M241.1,144.2h-15.9v-15.9c0-1-0.8-1.9-1.9-1.9h-7.9c-1,0-1.9,0.8-1.9,1.9v15.9h-15.9c-1,0-1.9,0.8-1.9,1.9
				v7.9c0,1,0.8,1.9,1.9,1.9h15.9v15.9c0,1,0.8,1.9,1.9,1.9h7.9c1,0,1.9-0.8,1.9-1.9v-15.9h15.9c1,0,1.9-0.8,1.9-1.9V146
				C242.9,145,242.1,144.2,241.1,144.2z"/>
		</g>
		<g class="st0">
			<g class="st1">
				<ellipse class="st4" cx="161.6" cy="156.7" rx="152.8" ry="152.8"/>
			</g>
			<g class="st1">
				<circle class="st5" cx="108.3" cy="156.7" r="17.1"/>
				<circle class="st5" cx="161.6" cy="156.7" r="17.1"/>
				<circle class="st5" cx="215" cy="156.7" r="17.1"/>
			</g>
		</g>
		<g class="st0">
			<g class="st1">
				<ellipse class="st4" cx="159.3" cy="153" rx="152.8" ry="152.8"/>
			</g>
			<g class="st1">
				<path class="st5" d="M159.3,181.1L159.3,181.1c16.7,0,30.2-12.5,30.2-29.2v-40.2c0-16.7-13.5-30.2-30.2-30.2h0
					c-16.7,0-30.2,13.5-30.2,30.2v40.2C129.1,168.6,142.6,181.1,159.3,181.1z"/>
				<path class="st5" d="M211.6,157.6h-11c0,21.8-16.2,35.8-41.3,35.8c-19.9,0-41.2-9.3-41.2-35.3h-11c0,26.5,18.1,44.1,46.7,46.1
					v20.3h11v-20.3C193,202.1,211.6,183.9,211.6,157.6z"/>
			</g>
		</g>
		<g>
			<ellipse class="st7" cx="158.2" cy="156.7" rx="152.8" ry="152.8"/>
		</g>
	</g>
	<g id="圖層_5">
		<path class="st8" d="M220.3,122.8l-31.7,17.1v-15.3c0-5-4.1-9.1-9.1-9.1h-77.9c-5,0-9.1,4.1-9.1,9.1v64.3c0,5,4.1,9.1,9.1,9.1
			h77.9c5,0,9.1-4.1,9.1-9.1v-15.3l31.7,17.1c1.6,0.9,3.6-0.3,3.6-2.2v-63.6C224,123.1,222,121.9,220.3,122.8z"/>
	</g>
	<g id="圖層_2_1_">
		<g class="st1">
			<path class="st9" d="M158.3,181.1L158.3,181.1c16.7,0,30.2-12.5,30.2-29.2v-40.2c0-16.7-13.5-30.2-30.2-30.2h0
				c-16.7,0-30.2,13.5-30.2,30.2v40.2C128.1,168.6,141.6,181.1,158.3,181.1z"/>
			<path class="st9" d="M210.6,157.6h-11c0,21.8-16.2,35.8-41.3,35.8c-19.9,0-41.2-9.3-41.2-35.3h-11c0,26.5,18.1,44.1,46.7,46.1
				v20.3h11v-20.3C192,202.1,210.6,183.9,210.6,157.6z"/>
		</g>
	</g>
	<g id="圖層_3">
		<g class="st1">
			<circle class="st9" cx="106.3" cy="156.7" r="17.1"/>
			<circle class="st9" cx="159.6" cy="156.7" r="17.1"/>
			<circle class="st9" cx="213" cy="156.7" r="17.1"/>
		</g>
	</g>
	<g id="圖層_4">
		<ellipse class="st10" cx="158.2" cy="156.7" rx="152.8" ry="152.8"/>
	</g>
	<g id="圖層_6">
		<path id="XMLID_1_" class="st3" d="M241.4,171c0.1,7-2,13.8-5.8,18.7c-3.4,4.3-7.8,6.7-12.4,6.8l-10.9,0.4
			c-5,0.2-9.7-2.3-13.4-6.9c-3.6-4.6-5.7-10.8-5.8-17.4l-0.2-9.5l0,0c-0.1-4.5,0.8-9,2.4-12.9l0.8-1.8c0.5-1.1,0.6-2.4,0.2-3.6
			s-1-2.1-1.9-2.6l-1.4-0.7c-22.3-10.8-46.7-10.2-68.7,1.6l-1.3,0.7c-0.8,0.4-1.5,1.3-1.8,2.4c-0.3,1.1-0.3,2.3,0.1,3.4l0.6,1.6
			c1.1,3.1,1.7,6.5,1.7,9.9l0.2,9.5c0.1,7-2,13.8-5.8,18.7c-3.4,4.3-7.8,6.7-12.4,6.8l-10.9,0.4c-10.3,0.3-18.9-10.6-19.2-24.3
			l-0.2-9.5c-0.1-2.6,0.2-5.2,0.8-7.9c1.4-6.9,4.9-13.6,9.8-18.9c41.5-43.8,100.6-45.8,143.7-4.7c9,8.6,11.7,20,11.3,25.5
			c0,0.2,0,0.4,0,0.5l0,0.4c0,0.2,0,0.4,0,0.6c0.1,1.1,0.2,2.1,0.2,3.2L241.4,171z"/>
	</g>
	<g id="圖層_7">
		<g class="st1">
			<path class="st11" d="M158.3,181.1L158.3,181.1c16.7,0,30.2-12.5,30.2-29.2v-40.2c0-16.7-13.5-30.2-30.2-30.2h0
				c-16.7,0-30.2,13.5-30.2,30.2v40.2C128.1,168.6,141.6,181.1,158.3,181.1z"/>
			<path class="st11" d="M210.6,157.6h-11c0,21.8-16.2,35.8-41.3,35.8c-19.9,0-41.2-9.3-41.2-35.3h-11c0,26.5,18.1,44.1,46.7,46.1
				v20.3h11v-20.3C192,202.1,210.6,183.9,210.6,157.6z"/>
		</g>
	</g>
	<g id="圖層_9" class="st1">
		<path class="st12" d="M220.3,122.8l-31.7,17.1v-15.3c0-5-4.1-9.1-9.1-9.1h-77.9c-5,0-9.1,4.1-9.1,9.1v64.3c0,5,4.1,9.1,9.1,9.1
			h77.9c5,0,9.1-4.1,9.1-9.1v-15.3l31.7,17.1c1.6,0.9,3.6-0.3,3.6-2.2v-63.6C224,123.1,222,121.9,220.3,122.8z"/>
	</g>
	<g id="圖層_8">
		<line class="st13" x1="242.4" y1="72.7" x2="76.4" y2="238.7"/>
	</g>
</g>
<g id="圖層_4_1_" class="st0">
	<g class="st1">
		<ellipse class="st14" cx="158.2" cy="156.7" rx="152.8" ry="152.8"/>
	</g>
</g>
<g id="圖層_2" class="st0">
	<g class="st1">
		<path class="st9" d="M235.8,100h-36.1v9.9h30.5v81.4H88.9v-81.4H121V100H83.2c-2.5,0-4.5,2-4.5,4.5v98.7c0,2.5,2,4.5,4.5,4.5
			h152.6c2.5,0,4.5-2,4.5-4.5v-98.7C240.3,102,238.3,100,235.8,100z"/>
		<path class="st9" d="M180.4,209.8h-41.8c-0.3,0-0.6,0.3-0.8,0.7l-5.6,9.9c-1.2,2.2-1.3,6.7-0.1,6.7h55c1.2,0,1.1-4.5-0.1-6.7
			l-5.6-9.9C181,210.1,180.7,209.8,180.4,209.8z"/>
	</g>
</g>
<g id="圖層_3_1_" class="st0">
	<g class="st1">
		<g>
			<polygon class="st9" points="160.1,65.1 128.1,104.6 146.2,104.6 146.2,133.2 174,133.2 174,104.6 192.1,104.6 			"/>
			<polygon class="st9" points="160.1,133.2 174,133.2 174,104.6 192.1,104.6 160.1,65.1 			"/>
		</g>
	</g>
</g>
<g id="圖層_4_拷貝">
	<g>
		<ellipse class="st15" cx="158.2" cy="156.7" rx="152.8" ry="152.8"/>
	</g>
</g>
<g id="圖層_2_拷貝">
	<g>
		<path class="st12" d="M235.8,100h-36.1v9.9h30.5v81.4H88.9v-81.4H121V100H83.2c-2.5,0-4.5,2-4.5,4.5v98.7c0,2.5,2,4.5,4.5,4.5
			h152.6c2.5,0,4.5-2,4.5-4.5v-98.7C240.3,102,238.3,100,235.8,100z"/>
		<path class="st12" d="M180.4,209.8h-41.8c-0.3,0-0.6,0.3-0.8,0.7l-5.6,9.9c-1.2,2.2-1.3,6.7-0.1,6.7h55c1.2,0,1.1-4.5-0.1-6.7
			l-5.6-9.9C181,210.1,180.7,209.8,180.4,209.8z"/>
	</g>
</g>
<g id="圖層_3_拷貝">
	<g>
		<g>
			<polygon class="st12" points="160.1,65.1 128.1,104.6 146.2,104.6 146.2,133.2 174,133.2 174,104.6 192.1,104.6 			"/>
			<polygon class="st12" points="160.1,133.2 174,133.2 174,104.6 192.1,104.6 160.1,65.1 			"/>
		</g>
	</g>
</g>
</svg>
