<?xml version="1.0" encoding="utf-8"?>
<!-- Generator: Adobe Illustrator 22.0.1, SVG Export Plug-In . SVG Version: 6.00 Build 0)  -->
<svg version="1.1" id="Layer_1" xmlns="http://www.w3.org/2000/svg" xmlns:xlink="http://www.w3.org/1999/xlink" x="0px" y="0px"
	 viewBox="0 0 300 150" style="enable-background:new 0 0 300 150;" xml:space="preserve">
<style type="text/css">
	.st0{clip-path:url(#SVGID_2_);fill:#FFFFFF;}
	.st1{clip-path:url(#SVGID_2_);}
	.st2{fill:#FFDE17;}
	.st3{fill:url(#SVGID_3_);}
</style>
<g>
	<defs>
		<rect id="SVGID_1_" width="300" height="150"/>
	</defs>
	<clipPath id="SVGID_2_">
		<use xlink:href="#SVGID_1_"  style="overflow:visible;"/>
	</clipPath>
	<rect class="st0" width="300" height="150"/>
	<g class="st1">
		<polygon class="st2" points="147.9,29.5 147.9,24.1 152.5,21.4 157.2,24.1 157.2,29.5 152.5,32.2 		"/>
		<polygon class="st2" points="158,29.5 158,24.1 162.6,21.5 167.3,24.1 167.3,29.5 162.6,32.2 		"/>
		<polygon class="st2" points="168.2,29.4 168.2,24.2 172.7,21.5 177.3,24.2 177.3,29.4 172.7,32.1 		"/>
		<polygon class="st2" points="178.4,29.4 178.4,24.2 182.8,21.7 187.3,24.2 187.3,29.4 182.8,32 		"/>
		<polygon class="st2" points="188.6,29.3 188.6,24.3 193,21.8 197.3,24.3 197.3,29.3 193,31.8 		"/>
		<polygon class="st2" points="198.9,29.2 198.9,24.4 203.1,22 207.2,24.4 207.2,29.2 203.1,31.6 		"/>
		<polygon class="st2" points="209.2,29.1 209.2,24.5 213.2,22.2 217.1,24.5 217.1,29.1 213.2,31.4 		"/>
		<polygon class="st2" points="219.6,28.9 219.6,24.7 223.3,22.5 227,24.7 227,28.9 223.3,31.1 		"/>
		<polygon class="st2" points="230,28.8 230,24.9 233.4,22.9 236.8,24.9 236.8,28.8 233.4,30.7 		"/>
		<polygon class="st2" points="240.5,28.6 240.5,25.1 243.5,23.3 246.5,25.1 246.5,28.6 243.5,30.3 		"/>
		<polygon class="st2" points="251,28.3 251,25.3 253.6,23.8 256.2,25.3 256.2,28.3 253.6,29.8 		"/>
		<polygon class="st2" points="261.6,28 261.6,25.6 263.7,24.4 265.9,25.6 265.9,28 263.7,29.3 		"/>
		<polygon class="st2" points="272.3,27.7 272.3,25.9 273.8,25 275.4,25.9 275.4,27.7 273.8,28.6 		"/>
		<polygon class="st2" points="283,27.4 283,26.3 283.9,25.7 284.9,26.3 284.9,27.4 283.9,27.9 		"/>
		<polygon class="st2" points="293.7,27 293.7,26.6 294.1,26.4 294.4,26.6 294.4,27 294.1,27.2 		"/>
		<polygon class="st2" points="152.9,38.3 152.9,32.9 157.6,30.2 162.2,32.9 162.2,38.3 157.6,41 		"/>
		<polygon class="st2" points="163.1,38.2 163.1,32.9 167.7,30.2 172.3,32.9 172.3,38.2 167.7,40.9 		"/>
		<polygon class="st2" points="173.2,38.2 173.2,32.9 177.8,30.3 182.4,32.9 182.4,38.2 177.8,40.8 		"/>
		<polygon class="st2" points="183.4,38.1 183.4,33 187.9,30.4 192.4,33 192.4,38.1 187.9,40.7 		"/>
		<polygon class="st2" points="193.7,38.1 193.7,33.1 198,30.6 202.3,33.1 202.3,38.1 198,40.6 		"/>
		<polygon class="st2" points="203.9,38 203.9,33.2 208.1,30.7 212.3,33.2 212.3,38 208.1,40.4 		"/>
		<polygon class="st2" points="214.3,37.9 214.3,33.3 218.2,31 222.2,33.3 222.2,37.9 218.2,40.1 		"/>
		<polygon class="st2" points="224.6,37.7 224.6,33.4 228.3,31.3 232,33.4 232,37.7 228.3,39.8 		"/>
		<polygon class="st2" points="235.1,37.5 235.1,33.6 238.5,31.6 241.8,33.6 241.8,37.5 238.5,39.5 		"/>
		<polygon class="st2" points="245.5,37.3 245.5,33.8 248.6,32.1 251.6,33.8 251.6,37.3 248.6,39.1 		"/>
		<polygon class="st2" points="256.1,37.1 256.1,34.1 258.7,32.5 261.3,34.1 261.3,37.1 258.7,38.6 		"/>
		<polygon class="st2" points="266.7,36.8 266.7,34.3 268.8,33.1 270.9,34.3 270.9,36.8 268.8,38 		"/>
		<polygon class="st2" points="277.3,36.5 277.3,34.7 278.9,33.7 280.5,34.7 280.5,36.5 278.9,37.4 		"/>
		<polygon class="st2" points="288,36.1 288,35 289,34.5 290,35 290,36.1 289,36.7 		"/>
		<polygon class="st2" points="298.8,35.8 298.8,35.4 299.1,35.2 299.4,35.4 299.4,35.8 299.1,35.9 		"/>
		<polygon class="st2" points="147.9,47 147.9,41.6 152.5,38.9 157.2,41.6 157.2,47 152.5,49.7 		"/>
		<polygon class="st2" points="158,47 158,41.6 162.6,39 167.3,41.6 167.3,47 162.6,49.7 		"/>
		<polygon class="st2" points="168.2,47 168.2,41.7 172.7,39 177.3,41.7 177.3,47 172.7,49.6 		"/>
		<polygon class="st2" points="178.4,46.9 178.4,41.7 182.8,39.2 187.3,41.7 187.3,46.9 182.8,49.5 		"/>
		<polygon class="st2" points="188.6,46.8 188.6,41.8 193,39.3 197.3,41.8 197.3,46.8 193,49.3 		"/>
		<polygon class="st2" points="198.9,46.7 198.9,41.9 203.1,39.5 207.2,41.9 207.2,46.7 203.1,49.1 		"/>
		<polygon class="st2" points="209.2,46.6 209.2,42 213.2,39.7 217.1,42 217.1,46.6 213.2,48.9 		"/>
		<polygon class="st2" points="219.6,46.5 219.6,42.2 223.3,40 227,42.2 227,46.5 223.3,48.6 		"/>
		<polygon class="st2" points="230,46.3 230,42.4 233.4,40.4 236.8,42.4 236.8,46.3 233.4,48.2 		"/>
		<polygon class="st2" points="240.5,46.1 240.5,42.6 243.5,40.8 246.5,42.6 246.5,46.1 243.5,47.8 		"/>
		<polygon class="st2" points="251,45.8 251,42.8 253.6,41.3 256.2,42.8 256.2,45.8 253.6,47.3 		"/>
		<polygon class="st2" points="261.6,45.5 261.6,43.1 263.7,41.9 265.9,43.1 265.9,45.5 263.7,46.8 		"/>
		<polygon class="st2" points="272.3,45.2 272.3,43.4 273.8,42.5 275.4,43.4 275.4,45.2 273.8,46.1 		"/>
		<polygon class="st2" points="283,44.9 283,43.8 283.9,43.2 284.9,43.8 284.9,44.9 283.9,45.4 		"/>
		<polygon class="st2" points="293.7,44.5 293.7,44.1 294.1,44 294.4,44.1 294.4,44.5 294.1,44.7 		"/>
		<polygon class="st2" points="152.9,55.8 152.9,50.4 157.6,47.7 162.2,50.4 162.2,55.8 157.6,58.5 		"/>
		<polygon class="st2" points="163.1,55.8 163.1,50.4 167.7,47.8 172.3,50.4 172.3,55.8 167.7,58.5 		"/>
		<polygon class="st2" points="173.2,55.7 173.2,50.5 177.8,47.8 182.4,50.5 182.4,55.7 177.8,58.4 		"/>
		<polygon class="st2" points="183.4,55.7 183.4,50.5 187.9,48 192.4,50.5 192.4,55.7 187.9,58.3 		"/>
		<polygon class="st2" points="193.7,55.6 193.7,50.6 198,48.1 202.4,50.6 202.4,55.6 198,58.1 		"/>
		<polygon class="st2" points="204,55.5 204,50.7 208.1,48.3 212.3,50.7 212.3,55.5 208.1,57.9 		"/>
		<polygon class="st2" points="214.3,55.4 214.3,50.8 218.2,48.5 222.2,50.8 222.2,55.4 218.2,57.7 		"/>
		<polygon class="st2" points="224.6,55.3 224.6,51 228.4,48.8 232.1,51 232.1,55.3 228.4,57.4 		"/>
		<polygon class="st2" points="235.1,55.1 235.1,51.2 238.5,49.2 241.9,51.2 241.9,55.1 238.5,57 		"/>
		<polygon class="st2" points="245.5,54.9 245.5,51.4 248.6,49.6 251.6,51.4 251.6,54.9 248.6,56.6 		"/>
		<polygon class="st2" points="256.1,54.6 256.1,51.6 258.7,50.1 261.3,51.6 261.3,54.6 258.7,56.1 		"/>
		<polygon class="st2" points="266.7,54.3 266.7,51.9 268.8,50.7 270.9,51.9 270.9,54.3 268.8,55.6 		"/>
		<polygon class="st2" points="277.3,54 277.3,52.2 278.9,51.3 280.5,52.2 280.5,54 278.9,54.9 		"/>
		<polygon class="st2" points="288.1,53.7 288.1,52.6 289,52 290,52.6 290,53.7 289,54.2 		"/>
		<polygon class="st2" points="298.8,53.3 298.8,52.9 299.1,52.7 299.4,52.9 299.4,53.3 299.1,53.5 		"/>
		<polygon class="st2" points="147.9,64.6 147.9,59.2 152.5,56.5 157.2,59.2 157.2,64.6 152.5,67.3 		"/>
		<polygon class="st2" points="158,64.5 158,59.2 162.6,56.5 167.3,59.2 167.3,64.5 162.6,67.2 		"/>
		<polygon class="st2" points="168.2,64.5 168.2,59.2 172.7,56.6 177.3,59.2 177.3,64.5 172.7,67.1 		"/>
		<polygon class="st2" points="178.4,64.4 178.4,59.3 182.9,56.7 187.3,59.3 187.3,64.4 182.9,67 		"/>
		<polygon class="st2" points="188.6,64.4 188.6,59.4 193,56.9 197.3,59.4 197.3,64.4 193,66.9 		"/>
		<polygon class="st2" points="198.9,64.3 198.9,59.5 203.1,57 207.3,59.5 207.3,64.3 203.1,66.7 		"/>
		<polygon class="st2" points="209.2,64.2 209.2,59.6 213.2,57.3 217.2,59.6 217.2,64.2 213.2,66.4 		"/>
		<polygon class="st2" points="219.6,64 219.6,59.7 223.3,57.6 227,59.7 227,64 223.3,66.1 		"/>
		<polygon class="st2" points="230,63.8 230,59.9 233.4,57.9 236.8,59.9 236.8,63.8 233.4,65.8 		"/>
		<polygon class="st2" points="240.5,63.6 240.5,60.1 243.5,58.4 246.6,60.1 246.6,63.6 243.5,65.4 		"/>
		<polygon class="st2" points="251,63.4 251,60.4 253.6,58.8 256.2,60.4 256.2,63.4 253.6,64.9 		"/>
		<polygon class="st2" points="261.6,63.1 261.6,60.6 263.7,59.4 265.9,60.6 265.9,63.1 263.7,64.3 		"/>
		<polygon class="st2" points="272.3,62.8 272.3,61 273.8,60.1 275.4,61 275.4,62.8 273.8,63.7 		"/>
		<polygon class="st2" points="283,62.4 283,61.3 284,60.8 284.9,61.3 284.9,62.4 284,63 		"/>
		<polygon class="st2" points="293.7,62.1 293.7,61.7 294.1,61.5 294.4,61.7 294.4,62.1 294.1,62.2 		"/>
		<polygon class="st2" points="152.9,73.3 152.9,67.9 157.6,65.2 162.2,67.9 162.2,73.3 157.6,76 		"/>
		<polygon class="st2" points="163.1,73.3 163.1,67.9 167.7,65.3 172.3,67.9 172.3,73.3 167.7,76 		"/>
		<polygon class="st2" points="173.2,73.3 173.2,68 177.8,65.3 182.4,68 182.4,73.3 177.8,75.9 		"/>
		<polygon class="st2" points="183.4,73.2 183.4,68 187.9,65.5 192.4,68 192.4,73.2 187.9,75.8 		"/>
		<polygon class="st2" points="193.7,73.1 193.7,68.1 198,65.6 202.4,68.1 202.4,73.1 198,75.6 		"/>
		<polygon class="st2" points="204,73 204,68.2 208.1,65.8 212.3,68.2 212.3,73 208.1,75.4 		"/>
		<polygon class="st2" points="214.3,72.9 214.3,68.3 218.2,66 222.2,68.3 222.2,72.9 218.2,75.2 		"/>
		<polygon class="st2" points="224.6,72.8 224.6,68.5 228.4,66.3 232.1,68.5 232.1,72.8 228.4,74.9 		"/>
		<polygon class="st2" points="235.1,72.6 235.1,68.7 238.5,66.7 241.9,68.7 241.9,72.6 238.5,74.5 		"/>
		<polygon class="st2" points="245.5,72.4 245.5,68.9 248.6,67.1 251.6,68.9 251.6,72.4 248.6,74.1 		"/>
		<polygon class="st2" points="256.1,72.1 256.1,69.1 258.7,67.6 261.3,69.1 261.3,72.1 258.7,73.6 		"/>
		<polygon class="st2" points="266.7,71.9 266.7,69.4 268.8,68.2 270.9,69.4 270.9,71.9 268.8,73.1 		"/>
		<polygon class="st2" points="277.3,71.5 277.3,69.7 278.9,68.8 280.5,69.7 280.5,71.5 278.9,72.4 		"/>
		<polygon class="st2" points="288.1,71.2 288.1,70.1 289,69.5 290,70.1 290,71.2 289,71.7 		"/>
		<polygon class="st2" points="298.8,70.8 298.8,70.4 299.1,70.3 299.4,70.4 299.4,70.8 299.1,71 		"/>
		<polygon class="st2" points="147.9,82.1 147.9,76.7 152.5,74 157.2,76.7 157.2,82.1 152.5,84.8 		"/>
		<polygon class="st2" points="158,82.1 158,76.7 162.6,74 167.3,76.7 167.3,82.1 162.6,84.7 		"/>
		<polygon class="st2" points="168.2,82 168.2,76.7 172.7,74.1 177.3,76.7 177.3,82 172.7,84.7 		"/>
		<polygon class="st2" points="178.4,82 178.4,76.8 182.9,74.2 187.3,76.8 187.3,82 182.9,84.5 		"/>
		<polygon class="st2" points="188.6,81.9 188.6,76.9 193,74.4 197.3,76.9 197.3,81.9 193,84.4 		"/>
		<polygon class="st2" points="198.9,81.8 198.9,77 203.1,74.6 207.3,77 207.3,81.8 203.1,84.2 		"/>
		<polygon class="st2" points="209.2,81.7 209.2,77.1 213.2,74.8 217.2,77.1 217.2,81.7 213.2,84 		"/>
		<polygon class="st2" points="219.6,81.5 219.6,77.2 223.3,75.1 227,77.2 227,81.5 223.3,83.7 		"/>
		<polygon class="st2" points="230,81.3 230,77.4 233.4,75.5 236.8,77.4 236.8,81.3 233.4,83.3 		"/>
		<polygon class="st2" points="240.5,81.1 240.5,77.6 243.5,75.9 246.6,77.6 246.6,81.1 243.5,82.9 		"/>
		<polygon class="st2" points="251,80.9 251,77.9 253.6,76.4 256.2,77.9 256.2,80.9 253.6,82.4 		"/>
		<polygon class="st2" points="261.6,80.6 261.6,78.2 263.7,76.9 265.9,78.2 265.9,80.6 263.7,81.8 		"/>
		<polygon class="st2" points="272.3,80.3 272.3,78.5 273.8,77.6 275.4,78.5 275.4,80.3 273.8,81.2 		"/>
		<polygon class="st2" points="283,79.9 283,78.8 284,78.3 284.9,78.8 284.9,79.9 284,80.5 		"/>
		<polygon class="st2" points="293.7,79.6 293.7,79.2 294.1,79 294.4,79.2 294.4,79.6 294.1,79.7 		"/>
		<polygon class="st2" points="152.9,90.9 152.9,85.5 157.6,82.8 162.3,85.5 162.3,90.9 157.6,93.6 		"/>
		<polygon class="st2" points="163.1,90.8 163.1,85.5 167.7,82.8 172.3,85.5 172.3,90.8 167.7,93.5 		"/>
		<polygon class="st2" points="173.2,90.8 173.2,85.5 177.8,82.9 182.4,85.5 182.4,90.8 177.8,93.4 		"/>
		<polygon class="st2" points="183.5,90.7 183.5,85.6 187.9,83 192.4,85.6 192.4,90.7 187.9,93.3 		"/>
		<polygon class="st2" points="193.7,90.7 193.7,85.7 198,83.2 202.4,85.7 202.4,90.7 198,93.2 		"/>
		<polygon class="st2" points="204,90.6 204,85.8 208.1,83.3 212.3,85.8 212.3,90.6 208.1,93 		"/>
		<polygon class="st2" points="214.3,90.5 214.3,85.9 218.3,83.6 222.2,85.9 222.2,90.5 218.3,92.7 		"/>
		<polygon class="st2" points="224.7,90.3 224.7,86 228.4,83.9 232.1,86 232.1,90.3 228.4,92.4 		"/>
		<polygon class="st2" points="235.1,90.1 235.1,86.2 238.5,84.2 241.9,86.2 241.9,90.1 238.5,92.1 		"/>
		<polygon class="st2" points="245.5,89.9 245.5,86.4 248.6,84.7 251.6,86.4 251.6,89.9 248.6,91.7 		"/>
		<polygon class="st2" points="256.1,89.7 256.1,86.7 258.7,85.1 261.3,86.7 261.3,89.7 258.7,91.2 		"/>
		<polygon class="st2" points="266.7,89.4 266.7,86.9 268.8,85.7 270.9,86.9 270.9,89.4 268.8,90.6 		"/>
		<polygon class="st2" points="277.3,89.1 277.3,87.3 278.9,86.4 280.5,87.3 280.5,89.1 278.9,90 		"/>
		<polygon class="st2" points="288.1,88.7 288.1,87.6 289,87.1 290,87.6 290,88.7 289,89.3 		"/>
		<polygon class="st2" points="298.8,88.4 298.8,88 299.1,87.8 299.5,88 299.5,88.4 299.1,88.5 		"/>
		<polygon class="st2" points="147.9,99.6 147.9,94.2 152.5,91.5 157.2,94.2 157.2,99.6 152.5,102.3 		"/>
		<polygon class="st2" points="158,99.6 158,94.2 162.6,91.6 167.3,94.2 167.3,99.6 162.6,102.3 		"/>
		<polygon class="st2" points="168.2,99.6 168.2,94.3 172.8,91.7 177.3,94.3 177.3,99.6 172.8,102.2 		"/>
		<polygon class="st2" points="178.4,99.5 178.4,94.3 182.9,91.8 187.3,94.3 187.3,99.5 182.9,102.1 		"/>
		<polygon class="st2" points="188.6,99.4 188.6,94.4 193,91.9 197.3,94.4 197.3,99.4 193,101.9 		"/>
		<polygon class="st2" points="198.9,99.3 198.9,94.5 203.1,92.1 207.3,94.5 207.3,99.3 203.1,101.7 		"/>
		<polygon class="st2" points="209.2,99.2 209.2,94.6 213.2,92.3 217.2,94.6 217.2,99.2 213.2,101.5 		"/>
		<polygon class="st2" points="219.6,99.1 219.6,94.8 223.3,92.6 227,94.8 227,99.1 223.3,101.2 		"/>
		<polygon class="st2" points="230,98.9 230,95 233.4,93 236.8,95 236.8,98.9 233.4,100.8 		"/>
		<polygon class="st2" points="240.5,98.7 240.5,95.2 243.5,93.4 246.6,95.2 246.6,98.7 243.5,100.4 		"/>
		<polygon class="st2" points="251,98.4 251,95.4 253.6,93.9 256.2,95.4 256.2,98.4 253.6,99.9 		"/>
		<polygon class="st2" points="261.6,98.2 261.6,95.7 263.7,94.5 265.9,95.7 265.9,98.2 263.7,99.4 		"/>
		<polygon class="st2" points="272.3,97.8 272.3,96 273.9,95.1 275.4,96 275.4,97.8 273.9,98.7 		"/>
		<polygon class="st2" points="283,97.5 283,96.4 284,95.8 284.9,96.4 284.9,97.5 284,98 		"/>
		<polygon class="st2" points="293.8,97.1 293.8,96.7 294.1,96.6 294.4,96.7 294.4,97.1 294.1,97.3 		"/>
		<polygon class="st2" points="152.9,108.4 152.9,103 157.6,100.3 162.3,103 162.3,108.4 157.6,111.1 		"/>
		<polygon class="st2" points="163.1,108.4 163.1,103 167.7,100.3 172.3,103 172.3,108.4 167.7,111 		"/>
		<polygon class="st2" points="173.2,108.3 173.2,103 177.8,100.4 182.4,103 182.4,108.3 177.8,111 		"/>
		<polygon class="st2" points="183.5,108.3 183.5,103.1 187.9,100.5 192.4,103.1 192.4,108.3 187.9,110.8 		"/>
		<polygon class="st2" points="193.7,108.2 193.7,103.2 198,100.7 202.4,103.2 202.4,108.2 198,110.7 		"/>
		<polygon class="st2" points="204,108.1 204,103.3 208.1,100.9 212.3,103.3 212.3,108.1 208.1,110.5 		"/>
		<polygon class="st2" points="214.3,108 214.3,103.4 218.3,101.1 222.2,103.4 222.2,108 218.3,110.3 		"/>
		<polygon class="st2" points="224.7,107.8 224.7,103.5 228.4,101.4 232.1,103.5 232.1,107.8 228.4,110 		"/>
		<polygon class="st2" points="235.1,107.6 235.1,103.7 238.5,101.8 241.9,103.7 241.9,107.6 238.5,109.6 		"/>
		<polygon class="st2" points="245.5,107.4 245.5,103.9 248.6,102.2 251.6,103.9 251.6,107.4 248.6,109.2 		"/>
		<polygon class="st2" points="256.1,107.2 256.1,104.2 258.7,102.7 261.3,104.2 261.3,107.2 258.7,108.7 		"/>
		<polygon class="st2" points="266.7,106.9 266.7,104.5 268.8,103.2 270.9,104.5 270.9,106.9 268.8,108.1 		"/>
		<polygon class="st2" points="277.3,106.6 277.3,104.8 278.9,103.9 280.5,104.8 280.5,106.6 278.9,107.5 		"/>
		<polygon class="st2" points="288.1,106.2 288.1,105.1 289,104.6 290,105.1 290,106.2 289,106.8 		"/>
		<polygon class="st2" points="298.8,105.9 298.8,105.5 299.1,105.3 299.5,105.5 299.5,105.9 299.1,106 		"/>
		<polygon class="st2" points="147.9,117.1 147.9,111.7 152.5,109 157.2,111.7 157.2,117.1 152.5,119.8 		"/>
		<polygon class="st2" points="158,117.1 158,111.8 162.6,109.1 167.3,111.8 167.3,117.1 162.6,119.8 		"/>
		<polygon class="st2" points="168.2,117.1 168.2,111.8 172.8,109.2 177.3,111.8 177.3,117.1 172.8,119.7 		"/>
		<polygon class="st2" points="178.4,117 178.4,111.9 182.9,109.3 187.3,111.9 187.3,117 182.9,119.6 		"/>
		<polygon class="st2" points="188.6,116.9 188.6,111.9 193,109.4 197.3,111.9 197.3,116.9 193,119.4 		"/>
		<polygon class="st2" points="198.9,116.8 198.9,112 203.1,109.6 207.3,112 207.3,116.8 203.1,119.3 		"/>
		<polygon class="st2" points="209.2,116.7 209.2,112.1 213.2,109.9 217.2,112.1 217.2,116.7 213.2,119 		"/>
		<polygon class="st2" points="219.6,116.6 219.6,112.3 223.3,110.2 227,112.3 227,116.6 223.3,118.7 		"/>
		<polygon class="st2" points="230,116.4 230,112.5 233.4,110.5 236.8,112.5 236.8,116.4 233.4,118.4 		"/>
		<polygon class="st2" points="240.5,116.2 240.5,112.7 243.5,110.9 246.6,112.7 246.6,116.2 243.5,117.9 		"/>
		<polygon class="st2" points="251,115.9 251,112.9 253.6,111.4 256.2,112.9 256.2,115.9 253.6,117.5 		"/>
		<polygon class="st2" points="261.6,115.7 261.6,113.2 263.7,112 265.9,113.2 265.9,115.7 263.7,116.9 		"/>
		<polygon class="st2" points="272.3,115.3 272.3,113.5 273.9,112.6 275.4,113.5 275.4,115.3 273.9,116.3 		"/>
		<polygon class="st2" points="283,115 283,113.9 284,113.3 284.9,113.9 284.9,115 284,115.5 		"/>
		<polygon class="st2" points="293.8,114.6 293.8,114.2 294.1,114.1 294.4,114.2 294.4,114.6 294.1,114.8 		"/>
		<polygon class="st2" points="152.9,125.9 152.9,120.5 157.6,117.8 162.3,120.5 162.3,125.9 157.6,128.6 		"/>
		<polygon class="st2" points="163.1,125.9 163.1,120.6 167.7,117.9 172.3,120.6 172.3,125.9 167.7,128.6 		"/>
		<polygon class="st2" points="173.3,125.9 173.3,120.6 177.8,118 182.4,120.6 182.4,125.9 177.8,128.5 		"/>
		<polygon class="st2" points="183.5,125.8 183.5,120.6 187.9,118.1 192.4,120.6 192.4,125.8 187.9,128.4 		"/>
		<polygon class="st2" points="193.7,125.7 193.7,120.7 198,118.2 202.4,120.7 202.4,125.7 198,128.2 		"/>
		<polygon class="st2" points="204,125.6 204,120.8 208.2,118.4 212.3,120.8 212.3,125.6 208.2,128 		"/>
		<polygon class="st2" points="214.3,125.5 214.3,120.9 218.3,118.6 222.2,120.9 222.2,125.5 218.3,127.8 		"/>
		<polygon class="st2" points="224.7,125.4 224.7,121.1 228.4,118.9 232.1,121.1 232.1,125.4 228.4,127.5 		"/>
		<polygon class="st2" points="235.1,125.2 235.1,121.3 238.5,119.3 241.9,121.3 241.9,125.2 238.5,127.1 		"/>
		<polygon class="st2" points="245.6,125 245.6,121.5 248.6,119.7 251.6,121.5 251.6,125 248.6,126.7 		"/>
		<polygon class="st2" points="256.1,124.7 256.1,121.7 258.7,120.2 261.3,121.7 261.3,124.7 258.7,126.2 		"/>
		<polygon class="st2" points="266.7,124.5 266.7,122 268.8,120.8 270.9,122 270.9,124.5 268.8,125.7 		"/>
		<polygon class="st2" points="277.3,124.1 277.3,122.3 278.9,121.4 280.5,122.3 280.5,124.1 278.9,125 		"/>
		<polygon class="st2" points="288.1,123.8 288.1,122.7 289,122.1 290,122.7 290,123.8 289,124.3 		"/>
		<polygon class="st2" points="298.8,123.4 298.8,123 299.1,122.9 299.5,123 299.5,123.4 299.1,123.6 		"/>
		<polygon class="st2" points="147.9,134.7 147.9,129.3 152.5,126.6 157.2,129.3 157.2,134.7 152.5,137.4 		"/>
		<polygon class="st2" points="158,134.7 158,129.3 162.7,126.6 167.3,129.3 167.3,134.7 162.7,137.3 		"/>
		<polygon class="st2" points="168.2,134.6 168.2,129.3 172.8,126.7 177.3,129.3 177.3,134.6 172.8,137.3 		"/>
		<polygon class="st2" points="178.4,134.6 178.4,129.4 182.9,126.8 187.3,129.4 187.3,134.6 182.9,137.1 		"/>
		<polygon class="st2" points="188.6,134.5 188.6,129.5 193,127 197.3,129.5 197.3,134.5 193,137 		"/>
		<polygon class="st2" points="198.9,134.4 198.9,129.6 203.1,127.2 207.3,129.6 207.3,134.4 203.1,136.8 		"/>
		<polygon class="st2" points="209.2,134.3 209.2,129.7 213.2,127.4 217.2,129.7 217.2,134.3 213.2,136.6 		"/>
		<polygon class="st2" points="219.6,134.1 219.6,129.8 223.3,127.7 227,129.8 227,134.1 223.3,136.3 		"/>
		<polygon class="st2" points="230,133.9 230,130 233.4,128.1 236.8,130 236.8,133.9 233.4,135.9 		"/>
		<polygon class="st2" points="240.5,133.7 240.5,130.2 243.5,128.5 246.6,130.2 246.6,133.7 243.5,135.5 		"/>
		<polygon class="st2" points="251,133.5 251,130.5 253.6,129 256.3,130.5 256.3,133.5 253.6,135 		"/>
		<polygon class="st2" points="261.6,133.2 261.6,130.8 263.8,129.5 265.9,130.8 265.9,133.2 263.8,134.4 		"/>
		<polygon class="st2" points="272.3,132.9 272.3,131.1 273.9,130.2 275.4,131.1 275.4,132.9 273.9,133.8 		"/>
		<polygon class="st2" points="283,132.5 283,131.4 284,130.9 284.9,131.4 284.9,132.5 284,133.1 		"/>
		<polygon class="st2" points="293.8,132.2 293.8,131.8 294.1,131.6 294.4,131.8 294.4,132.2 294.1,132.4 		"/>
		<polygon class="st2" points="152.9,143.4 152.9,138 157.6,135.3 162.3,138 162.3,143.4 157.6,146.1 		"/>
		<polygon class="st2" points="163.1,143.4 163.1,138.1 167.7,135.4 172.3,138.1 172.3,143.4 167.7,146.1 		"/>
		<polygon class="st2" points="173.3,143.4 173.3,138.1 177.8,135.5 182.4,138.1 182.4,143.4 177.8,146 		"/>
		<polygon class="st2" points="183.5,143.3 183.5,138.2 187.9,135.6 192.4,138.2 192.4,143.3 187.9,145.9 		"/>
		<polygon class="st2" points="193.7,143.2 193.7,138.2 198,135.7 202.4,138.2 202.4,143.2 198,145.7 		"/>
		<polygon class="st2" points="204,143.1 204,138.3 208.2,135.9 212.3,138.3 212.3,143.1 208.2,145.6 		"/>
		<polygon class="st2" points="214.3,143 214.3,138.4 218.3,136.2 222.2,138.4 222.2,143 218.3,145.3 		"/>
		<polygon class="st2" points="224.7,142.9 224.7,138.6 228.4,136.5 232.1,138.6 232.1,142.9 228.4,145 		"/>
		<polygon class="st2" points="235.1,142.7 235.1,138.8 238.5,136.8 241.9,138.8 241.9,142.7 238.5,144.7 		"/>
		<polygon class="st2" points="245.6,142.5 245.6,139 248.6,137.2 251.6,139 251.6,142.5 248.6,144.2 		"/>
		<polygon class="st2" points="256.1,142.2 256.1,139.2 258.7,137.7 261.3,139.2 261.3,142.2 258.7,143.8 		"/>
		<polygon class="st2" points="266.7,142 266.7,139.5 268.8,138.3 270.9,139.5 270.9,142 268.8,143.2 		"/>
		<polygon class="st2" points="277.3,141.6 277.3,139.8 278.9,138.9 280.5,139.8 280.5,141.6 278.9,142.6 		"/>
		<polygon class="st2" points="288.1,141.3 288.1,140.2 289,139.6 290,140.2 290,141.3 289,141.8 		"/>
		<polygon class="st2" points="298.8,140.9 298.8,140.5 299.1,140.4 299.5,140.5 299.5,140.9 299.1,141.1 		"/>
		<polygon class="st2" points="147.9,152.2 147.9,146.8 152.5,144.1 157.2,146.8 157.2,152.2 152.5,154.9 		"/>
		<polygon class="st2" points="158,152.2 158,146.8 162.7,144.1 167.3,146.8 167.3,152.2 162.7,154.8 		"/>
		<polygon class="st2" points="168.2,152.1 168.2,146.9 172.8,144.2 177.3,146.9 177.3,152.1 172.8,154.8 		"/>
		<polygon class="st2" points="178.4,152.1 178.4,146.9 182.9,144.3 187.3,146.9 187.3,152.1 182.9,154.7 		"/>
		<polygon class="st2" points="188.6,152 188.6,147 193,144.5 197.3,147 197.3,152 193,154.5 		"/>
		<polygon class="st2" points="198.9,151.9 198.9,147.1 203.1,144.7 207.3,147.1 207.3,151.9 203.1,154.3 		"/>
		<polygon class="st2" points="209.2,151.8 209.2,147.2 213.2,144.9 217.2,147.2 217.2,151.8 213.2,154.1 		"/>
		<polygon class="st2" points="219.6,151.6 219.6,147.4 223.3,145.2 227,147.4 227,151.6 223.3,153.8 		"/>
		<polygon class="st2" points="230,151.5 230,147.5 233.4,145.6 236.8,147.5 236.8,151.5 233.4,153.4 		"/>
		<polygon class="st2" points="240.5,151.2 240.5,147.7 243.5,146 246.6,147.7 246.6,151.2 243.5,153 		"/>
		<polygon class="st2" points="251,151 251,148 253.6,146.5 256.3,148 256.3,151 253.6,152.5 		"/>
		<polygon class="st2" points="261.6,150.7 261.6,148.3 263.8,147 265.9,148.3 265.9,150.7 263.8,151.9 		"/>
		<polygon class="st2" points="272.3,150.4 272.3,148.6 273.9,147.7 275.4,148.6 275.4,150.4 273.9,151.3 		"/>
		<polygon class="st2" points="283,150 283,148.9 284,148.4 284.9,148.9 284.9,150 284,150.6 		"/>
		<polygon class="st2" points="293.8,149.7 293.8,149.3 294.1,149.1 294.4,149.3 294.4,149.7 294.1,149.9 		"/>
		<polygon class="st2" points="153,161 153,155.6 157.6,152.9 162.3,155.6 162.3,161 157.6,163.7 		"/>
		<polygon class="st2" points="163.1,161 163.1,155.6 167.7,152.9 172.4,155.6 172.4,161 167.7,163.6 		"/>
		<polygon class="st2" points="173.3,160.9 173.3,155.6 177.8,153 182.4,155.6 182.4,160.9 177.8,163.6 		"/>
		<polygon class="st2" points="183.5,160.9 183.5,155.7 187.9,153.1 192.4,155.7 192.4,160.9 187.9,163.4 		"/>
		<polygon class="st2" points="193.7,160.8 193.7,155.8 198.1,153.3 202.4,155.8 202.4,160.8 198.1,163.3 		"/>
		<polygon class="st2" points="204,160.7 204,155.9 208.2,153.5 212.3,155.9 212.3,160.7 208.2,163.1 		"/>
		<polygon class="st2" points="214.3,160.6 214.3,156 218.3,153.7 222.2,156 222.2,160.6 218.3,162.9 		"/>
		<polygon class="st2" points="224.7,160.4 224.7,156.1 228.4,154 232.1,156.1 232.1,160.4 228.4,162.6 		"/>
		<polygon class="st2" points="235.1,160.2 235.1,156.3 238.5,154.4 241.9,156.3 241.9,160.2 238.5,162.2 		"/>
		<polygon class="st2" points="245.6,160 245.6,156.5 248.6,154.8 251.6,156.5 251.6,160 248.6,161.8 		"/>
		<polygon class="st2" points="256.1,159.8 256.1,156.8 258.7,155.3 261.3,156.8 261.3,159.8 258.7,161.3 		"/>
		<polygon class="st2" points="266.7,159.5 266.7,157.1 268.8,155.8 270.9,157.1 270.9,159.5 268.8,160.7 		"/>
		<polygon class="st2" points="277.4,159.2 277.4,157.4 278.9,156.5 280.5,157.4 280.5,159.2 278.9,160.1 		"/>
		<polygon class="st2" points="288.1,158.8 288.1,157.7 289,157.2 290,157.7 290,158.8 289,159.4 		"/>
		<polygon class="st2" points="298.8,158.5 298.8,158.1 299.2,157.9 299.5,158.1 299.5,158.5 299.2,158.7 		"/>
		<polygon class="st2" points="147.8,-5.6 147.8,-10.9 152.5,-13.6 157.2,-10.9 157.2,-5.6 152.5,-2.9 		"/>
		<polygon class="st2" points="158,-5.6 158,-10.9 162.6,-13.6 167.2,-10.9 167.2,-5.6 162.6,-2.9 		"/>
		<polygon class="st2" points="168.2,-5.6 168.2,-10.9 172.7,-13.5 177.3,-10.9 177.3,-5.6 172.7,-3 		"/>
		<polygon class="st2" points="178.4,-5.7 178.4,-10.8 182.8,-13.4 187.3,-10.8 187.3,-5.7 182.8,-3.1 		"/>
		<polygon class="st2" points="188.6,-5.7 188.6,-10.8 192.9,-13.3 197.3,-10.8 197.3,-5.7 192.9,-3.2 		"/>
		<polygon class="st2" points="198.9,-5.8 198.9,-10.7 203.1,-13.1 207.2,-10.7 207.2,-5.8 203.1,-3.4 		"/>
		<polygon class="st2" points="209.2,-6 209.2,-10.5 213.2,-12.8 217.1,-10.5 217.1,-6 213.2,-3.7 		"/>
		<polygon class="st2" points="219.6,-6.1 219.6,-10.4 223.3,-12.5 227,-10.4 227,-6.1 223.3,-4 		"/>
		<polygon class="st2" points="230,-6.3 230,-10.2 233.4,-12.2 236.8,-10.2 236.8,-6.3 233.4,-4.3 		"/>
		<polygon class="st2" points="240.5,-6.5 240.5,-10 243.5,-11.8 246.5,-10 246.5,-6.5 243.5,-4.7 		"/>
		<polygon class="st2" points="251,-6.7 251,-9.8 253.6,-11.3 256.2,-9.8 256.2,-6.7 253.6,-5.2 		"/>
		<polygon class="st2" points="261.6,-7 261.6,-9.5 263.7,-10.7 265.8,-9.5 265.8,-7 263.7,-5.8 		"/>
		<polygon class="st2" points="272.2,-7.3 272.2,-9.2 273.8,-10.1 275.4,-9.2 275.4,-7.3 273.8,-6.4 		"/>
		<polygon class="st2" points="283,-7.7 283,-8.8 283.9,-9.3 284.9,-8.8 284.9,-7.7 283.9,-7.1 		"/>
		<polygon class="st2" points="293.7,-8.1 293.7,-8.4 294,-8.6 294.4,-8.4 294.4,-8.1 294,-7.9 		"/>
		<polygon class="st2" points="152.9,3.2 152.9,-2.2 157.6,-4.9 162.2,-2.2 162.2,3.2 157.6,5.9 		"/>
		<polygon class="st2" points="163,3.2 163,-2.2 167.7,-4.8 172.3,-2.2 172.3,3.2 167.7,5.9 		"/>
		<polygon class="st2" points="173.2,3.1 173.2,-2.1 177.8,-4.8 182.3,-2.1 182.3,3.1 177.8,5.8 		"/>
		<polygon class="st2" points="183.4,3.1 183.4,-2.1 187.9,-4.7 192.4,-2.1 192.4,3.1 187.9,5.7 		"/>
		<polygon class="st2" points="193.7,3 193.7,-2 198,-4.5 202.3,-2 202.3,3 198,5.5 		"/>
		<polygon class="st2" points="203.9,2.9 203.9,-1.9 208.1,-4.3 212.3,-1.9 212.3,2.9 208.1,5.3 		"/>
		<polygon class="st2" points="214.3,2.8 214.3,-1.8 218.2,-4.1 222.2,-1.8 222.2,2.8 218.2,5.1 		"/>
		<polygon class="st2" points="224.6,2.6 224.6,-1.6 228.3,-3.8 232,-1.6 232,2.6 228.3,4.8 		"/>
		<polygon class="st2" points="235,2.5 235,-1.5 238.4,-3.4 241.8,-1.5 241.8,2.5 238.4,4.4 		"/>
		<polygon class="st2" points="245.5,2.3 245.5,-1.2 248.5,-3 251.6,-1.2 251.6,2.3 248.5,4 		"/>
		<polygon class="st2" points="256,2 256,-1 258.7,-2.5 261.3,-1 261.3,2 258.7,3.5 		"/>
		<polygon class="st2" points="266.6,1.7 266.6,-0.7 268.8,-1.9 270.9,-0.7 270.9,1.7 268.8,3 		"/>
		<polygon class="st2" points="277.3,1.4 277.3,-0.4 278.9,-1.3 280.5,-0.4 280.5,1.4 278.9,2.3 		"/>
		<polygon class="st2" points="288,1.1 288,0 289,-0.6 289.9,0 289.9,1.1 289,1.6 		"/>
		<polygon class="st2" points="298.8,0.7 298.8,0.3 299.1,0.1 299.4,0.3 299.4,0.7 299.1,0.9 		"/>
		<polygon class="st2" points="147.8,12 147.8,6.6 152.5,3.9 157.2,6.6 157.2,12 152.5,14.7 		"/>
		<polygon class="st2" points="158,11.9 158,6.6 162.6,3.9 167.2,6.6 167.2,11.9 162.6,14.6 		"/>
		<polygon class="st2" points="168.2,11.9 168.2,6.6 172.7,4 177.3,6.6 177.3,11.9 172.7,14.5 		"/>
		<polygon class="st2" points="178.4,11.8 178.4,6.7 182.8,4.1 187.3,6.7 187.3,11.8 182.8,14.4 		"/>
		<polygon class="st2" points="188.6,11.8 188.6,6.8 192.9,4.3 197.3,6.8 197.3,11.8 192.9,14.3 		"/>
		<polygon class="st2" points="198.9,11.7 198.9,6.9 203.1,4.4 207.2,6.9 207.2,11.7 203.1,14.1 		"/>
		<polygon class="st2" points="209.2,11.6 209.2,7 213.2,4.7 217.1,7 217.1,11.6 213.2,13.8 		"/>
		<polygon class="st2" points="219.6,11.4 219.6,7.1 223.3,5 227,7.1 227,11.4 223.3,13.5 		"/>
		<polygon class="st2" points="230,11.2 230,7.3 233.4,5.3 236.8,7.3 236.8,11.2 233.4,13.2 		"/>
		<polygon class="st2" points="240.5,11 240.5,7.5 243.5,5.8 246.5,7.5 246.5,11 243.5,12.8 		"/>
		<polygon class="st2" points="251,10.8 251,7.8 253.6,6.2 256.2,7.8 256.2,10.8 253.6,12.3 		"/>
		<polygon class="st2" points="261.6,10.5 261.6,8 263.7,6.8 265.8,8 265.8,10.5 263.7,11.7 		"/>
		<polygon class="st2" points="272.2,10.2 272.2,8.4 273.8,7.4 275.4,8.4 275.4,10.2 273.8,11.1 		"/>
		<polygon class="st2" points="283,9.8 283,8.7 283.9,8.2 284.9,8.7 284.9,9.8 283.9,10.4 		"/>
		<polygon class="st2" points="293.7,9.5 293.7,9.1 294,8.9 294.4,9.1 294.4,9.5 294,9.6 		"/>
		<polygon class="st2" points="152.9,20.7 152.9,15.4 157.6,12.7 162.2,15.4 162.2,20.7 157.6,23.4 		"/>
		<polygon class="st2" points="163.1,20.7 163.1,15.4 167.7,12.7 172.3,15.4 172.3,20.7 167.7,23.4 		"/>
		<polygon class="st2" points="173.2,20.7 173.2,15.4 177.8,12.8 182.4,15.4 182.4,20.7 177.8,23.3 		"/>
		<polygon class="st2" points="183.4,20.6 183.4,15.5 187.9,12.9 192.4,15.5 192.4,20.6 187.9,23.2 		"/>
		<polygon class="st2" points="193.7,20.6 193.7,15.6 198,13 202.3,15.6 202.3,20.6 198,23.1 		"/>
		<polygon class="st2" points="203.9,20.5 203.9,15.6 208.1,13.2 212.3,15.6 212.3,20.5 208.1,22.9 		"/>
		<polygon class="st2" points="214.3,20.3 214.3,15.8 218.2,13.5 222.2,15.8 222.2,20.3 218.2,22.6 		"/>
		<polygon class="st2" points="224.6,20.2 224.6,15.9 228.3,13.8 232,15.9 232,20.2 228.3,22.3 		"/>
		<polygon class="st2" points="235.1,20 235.1,16.1 238.5,14.1 241.8,16.1 241.8,20 238.5,22 		"/>
		<polygon class="st2" points="245.5,19.8 245.5,16.3 248.6,14.5 251.6,16.3 251.6,19.8 248.6,21.6 		"/>
		<polygon class="st2" points="256.1,19.6 256.1,16.5 258.7,15 261.3,16.5 261.3,19.6 258.7,21.1 		"/>
		<polygon class="st2" points="266.7,19.3 266.7,16.8 268.8,15.6 270.9,16.8 270.9,19.3 268.8,20.5 		"/>
		<polygon class="st2" points="277.3,19 277.3,17.1 278.9,16.2 280.5,17.1 280.5,19 278.9,19.9 		"/>
		<polygon class="st2" points="288,18.6 288,17.5 289,17 290,17.5 290,18.6 289,19.2 		"/>
		<polygon class="st2" points="298.8,18.2 298.8,17.9 299.1,17.7 299.4,17.9 299.4,18.2 299.1,18.4 		"/>
		<polygon class="st2" points="142.8,125.9 142.8,120.5 147.5,117.8 152.1,120.5 152.1,125.9 147.5,128.6 		"/>
		<polygon class="st2" points="132.7,125.9 132.7,120.5 137.4,117.8 142,120.5 142,125.9 137.4,128.5 		"/>
		<polygon class="st2" points="122.7,125.8 122.7,120.6 127.3,117.9 131.8,120.6 131.8,125.8 127.3,128.5 		"/>
		<polygon class="st2" points="112.7,125.8 112.7,120.6 117.2,118 121.6,120.6 121.6,125.8 117.2,128.3 		"/>
		<polygon class="st2" points="102.7,125.7 102.7,120.7 107,118.2 111.4,120.7 111.4,125.7 107,128.2 		"/>
		<polygon class="st2" points="92.8,125.6 92.8,120.8 96.9,118.4 101.1,120.8 101.1,125.6 96.9,128 		"/>
		<polygon class="st2" points="82.9,125.5 82.9,120.9 86.8,118.6 90.8,120.9 90.8,125.5 86.8,127.8 		"/>
		<polygon class="st2" points="73,125.3 73,121.1 76.7,118.9 80.4,121.1 80.4,125.3 76.7,127.5 		"/>
		<polygon class="st2" points="63.2,125.1 63.2,121.2 66.6,119.3 70,121.2 70,125.1 66.6,127.1 		"/>
		<polygon class="st2" points="53.5,124.9 53.5,121.4 56.5,119.7 59.5,121.4 59.5,124.9 56.5,126.7 		"/>
		<polygon class="st2" points="43.8,124.7 43.8,121.7 46.4,120.2 49,121.7 49,124.7 46.4,126.2 		"/>
		<polygon class="st2" points="34.1,124.4 34.1,122 36.3,120.7 38.4,122 38.4,124.4 36.3,125.6 		"/>
		<polygon class="st2" points="24.6,124.1 24.6,122.3 26.2,121.4 27.7,122.3 27.7,124.1 26.2,125 		"/>
		<polygon class="st2" points="15.1,123.7 15.1,122.6 16.1,122.1 17,122.6 17,123.7 16.1,124.3 		"/>
		<polygon class="st2" points="5.6,123.4 5.6,123 5.9,122.8 6.3,123 6.3,123.4 5.9,123.6 		"/>
		<polygon class="st2" points="137.8,117.1 137.8,111.7 142.4,109 147.1,111.7 147.1,117.1 142.4,119.8 		"/>
		<polygon class="st2" points="127.7,117.1 127.7,111.8 132.3,109.1 137,111.8 137,117.1 132.3,119.8 		"/>
		<polygon class="st2" points="117.6,117.1 117.6,111.8 122.2,109.2 126.8,111.8 126.8,117.1 122.2,119.7 		"/>
		<polygon class="st2" points="107.6,117 107.6,111.9 112.1,109.3 116.6,111.9 116.6,117 112.1,119.6 		"/>
		<polygon class="st2" points="97.7,116.9 97.7,111.9 102,109.4 106.3,111.9 106.3,116.9 102,119.4 		"/>
		<polygon class="st2" points="87.7,116.8 87.7,112 91.9,109.6 96.1,112 96.1,116.8 91.9,119.3 		"/>
		<polygon class="st2" points="77.8,116.7 77.8,112.1 81.8,109.9 85.7,112.1 85.7,116.7 81.8,119 		"/>
		<polygon class="st2" points="68,116.6 68,112.3 71.7,110.2 75.4,112.3 75.4,116.6 71.7,118.7 		"/>
		<polygon class="st2" points="58.2,116.4 58.2,112.5 61.6,110.5 64.9,112.5 64.9,116.4 61.6,118.4 		"/>
		<polygon class="st2" points="48.4,116.2 48.4,112.7 51.4,110.9 54.5,112.7 54.5,116.2 51.4,117.9 		"/>
		<polygon class="st2" points="38.7,115.9 38.7,112.9 41.3,111.4 43.9,112.9 43.9,115.9 41.3,117.5 		"/>
		<polygon class="st2" points="29.1,115.7 29.1,113.2 31.2,112 33.3,113.2 33.3,115.7 31.2,116.9 		"/>
		<polygon class="st2" points="19.5,115.3 19.5,113.5 21.1,112.6 22.7,113.5 22.7,115.3 21.1,116.3 		"/>
		<polygon class="st2" points="10,115 10,113.9 11,113.3 12,113.9 12,115 11,115.5 		"/>
		<polygon class="st2" points="0.6,114.6 0.6,114.2 0.9,114.1 1.2,114.2 1.2,114.6 0.9,114.8 		"/>
		<polygon class="st2" points="142.8,108.4 142.8,103 147.5,100.3 152.1,103 152.1,108.4 147.5,111.1 		"/>
		<polygon class="st2" points="132.7,108.4 132.7,103 137.4,100.3 142,103 142,108.4 137.4,111 		"/>
		<polygon class="st2" points="122.7,108.3 122.7,103 127.3,100.4 131.8,103 131.8,108.3 127.3,111 		"/>
		<polygon class="st2" points="112.7,108.3 112.7,103.1 117.2,100.5 121.6,103.1 121.6,108.3 117.2,110.8 		"/>
		<polygon class="st2" points="102.7,108.2 102.7,103.2 107,100.7 111.4,103.2 111.4,108.2 107,110.7 		"/>
		<polygon class="st2" points="92.8,108.1 92.8,103.3 96.9,100.9 101.1,103.3 101.1,108.1 96.9,110.5 		"/>
		<polygon class="st2" points="82.9,108 82.9,103.4 86.8,101.1 90.8,103.4 90.8,108 86.8,110.3 		"/>
		<polygon class="st2" points="73,107.8 73,103.5 76.7,101.4 80.4,103.5 80.4,107.8 76.7,110 		"/>
		<polygon class="st2" points="63.2,107.6 63.2,103.7 66.6,101.8 70,103.7 70,107.6 66.6,109.6 		"/>
		<polygon class="st2" points="53.5,107.4 53.5,103.9 56.5,102.2 59.5,103.9 59.5,107.4 56.5,109.2 		"/>
		<polygon class="st2" points="43.8,107.2 43.8,104.2 46.4,102.7 49,104.2 49,107.2 46.4,108.7 		"/>
		<polygon class="st2" points="34.1,106.9 34.1,104.5 36.3,103.2 38.4,104.5 38.4,106.9 36.3,108.1 		"/>
		<polygon class="st2" points="24.6,106.6 24.6,104.8 26.2,103.9 27.7,104.8 27.7,106.6 26.2,107.5 		"/>
		<polygon class="st2" points="15.1,106.2 15.1,105.1 16.1,104.6 17,105.1 17,106.2 16.1,106.8 		"/>
		<polygon class="st2" points="5.6,105.9 5.6,105.5 5.9,105.3 6.3,105.5 6.3,105.9 5.9,106 		"/>
		<polygon class="st2" points="137.8,99.6 137.8,94.2 142.4,91.5 147.1,94.2 147.1,99.6 142.4,102.3 		"/>
		<polygon class="st2" points="127.7,99.6 127.7,94.2 132.3,91.5 136.9,94.2 136.9,99.6 132.3,102.2 		"/>
		<polygon class="st2" points="117.6,99.5 117.6,94.3 122.2,91.6 126.8,94.3 126.8,99.5 122.2,102.2 		"/>
		<polygon class="st2" points="107.6,99.5 107.6,94.3 112.1,91.7 116.6,94.3 116.6,99.5 112.1,102 		"/>
		<polygon class="st2" points="97.6,99.4 97.6,94.4 102,91.9 106.3,94.4 106.3,99.4 102,101.9 		"/>
		<polygon class="st2" points="87.7,99.3 87.7,94.5 91.9,92.1 96,94.5 96,99.3 91.9,101.7 		"/>
		<polygon class="st2" points="77.8,99.2 77.8,94.6 81.8,92.3 85.7,94.6 85.7,99.2 81.8,101.5 		"/>
		<polygon class="st2" points="67.9,99 67.9,94.7 71.6,92.6 75.4,94.7 75.4,99 71.6,101.2 		"/>
		<polygon class="st2" points="58.1,98.8 58.1,94.9 61.5,93 64.9,94.9 64.9,98.8 61.5,100.8 		"/>
		<polygon class="st2" points="48.4,98.6 48.4,95.1 51.4,93.4 54.5,95.1 54.5,98.6 51.4,100.4 		"/>
		<polygon class="st2" points="38.7,98.4 38.7,95.4 41.3,93.9 43.9,95.4 43.9,98.4 41.3,99.9 		"/>
		<polygon class="st2" points="29.1,98.1 29.1,95.7 31.2,94.4 33.3,95.7 33.3,98.1 31.2,99.3 		"/>
		<polygon class="st2" points="19.5,97.8 19.5,96 21.1,95.1 22.7,96 22.7,97.8 21.1,98.7 		"/>
		<polygon class="st2" points="10,97.4 10,96.3 11,95.8 11.9,96.3 11.9,97.4 11,98 		"/>
		<polygon class="st2" points="0.6,97.1 0.6,96.7 0.9,96.5 1.2,96.7 1.2,97.1 0.9,97.3 		"/>
		<polygon class="st2" points="142.8,90.8 142.8,85.4 147.5,82.7 152.1,85.4 152.1,90.8 147.5,93.5 		"/>
		<polygon class="st2" points="132.7,90.8 132.7,85.5 137.4,82.8 142,85.5 142,90.8 137.4,93.5 		"/>
		<polygon class="st2" points="122.7,90.8 122.7,85.5 127.3,82.9 131.8,85.5 131.8,90.8 127.3,93.4 		"/>
		<polygon class="st2" points="112.7,90.7 112.7,85.6 117.1,83 121.6,85.6 121.6,90.7 117.1,93.3 		"/>
		<polygon class="st2" points="102.7,90.6 102.7,85.6 107,83.1 111.4,85.6 111.4,90.6 107,93.1 		"/>
		<polygon class="st2" points="92.7,90.5 92.7,85.7 96.9,83.3 101.1,85.7 101.1,90.5 96.9,93 		"/>
		<polygon class="st2" points="82.8,90.4 82.8,85.8 86.8,83.6 90.8,85.8 90.8,90.4 86.8,92.7 		"/>
		<polygon class="st2" points="73,90.3 73,86 76.7,83.9 80.4,86 80.4,90.3 76.7,92.4 		"/>
		<polygon class="st2" points="63.2,90.1 63.2,86.2 66.6,84.2 70,86.2 70,90.1 66.6,92.1 		"/>
		<polygon class="st2" points="53.4,89.9 53.4,86.4 56.5,84.6 59.5,86.4 59.5,89.9 56.5,91.6 		"/>
		<polygon class="st2" points="43.8,89.6 43.8,86.6 46.4,85.1 49,86.6 49,89.6 46.4,91.2 		"/>
		<polygon class="st2" points="34.1,89.4 34.1,86.9 36.3,85.7 38.4,86.9 38.4,89.4 36.3,90.6 		"/>
		<polygon class="st2" points="24.6,89 24.6,87.2 26.2,86.3 27.7,87.2 27.7,89 26.2,90 		"/>
		<polygon class="st2" points="15.1,88.7 15.1,87.6 16,87 17,87.6 17,88.7 16,89.2 		"/>
		<polygon class="st2" points="5.6,88.3 5.6,87.9 5.9,87.8 6.3,87.9 6.3,88.3 5.9,88.5 		"/>
		<polygon class="st2" points="137.8,82.1 137.8,76.7 142.4,74 147.1,76.7 147.1,82.1 142.4,84.8 		"/>
		<polygon class="st2" points="127.7,82.1 127.7,76.7 132.3,74 136.9,76.7 136.9,82.1 132.3,84.7 		"/>
		<polygon class="st2" points="117.6,82 117.6,76.7 122.2,74.1 126.8,76.7 126.8,82 122.2,84.7 		"/>
		<polygon class="st2" points="107.6,82 107.6,76.8 112.1,74.2 116.6,76.8 116.6,82 112.1,84.5 		"/>
		<polygon class="st2" points="97.6,81.9 97.6,76.9 102,74.4 106.3,76.9 106.3,81.9 102,84.4 		"/>
		<polygon class="st2" points="87.7,81.8 87.7,77 91.9,74.6 96,77 96,81.8 91.9,84.2 		"/>
		<polygon class="st2" points="77.8,81.7 77.8,77.1 81.8,74.8 85.7,77.1 85.7,81.7 81.8,84 		"/>
		<polygon class="st2" points="67.9,81.5 67.9,77.2 71.6,75.1 75.4,77.2 75.4,81.5 71.6,83.7 		"/>
		<polygon class="st2" points="58.1,81.3 58.1,77.4 61.5,75.5 64.9,77.4 64.9,81.3 61.5,83.3 		"/>
		<polygon class="st2" points="48.4,81.1 48.4,77.6 51.4,75.9 54.5,77.6 54.5,81.1 51.4,82.9 		"/>
		<polygon class="st2" points="38.7,80.9 38.7,77.9 41.3,76.4 43.9,77.9 43.9,80.9 41.3,82.4 		"/>
		<polygon class="st2" points="29.1,80.6 29.1,78.1 31.2,76.9 33.3,78.1 33.3,80.6 31.2,81.8 		"/>
		<polygon class="st2" points="19.5,80.3 19.5,78.5 21.1,77.6 22.7,78.5 22.7,80.3 21.1,81.2 		"/>
		<polygon class="st2" points="10,79.9 10,78.8 11,78.3 11.9,78.8 11.9,79.9 11,80.5 		"/>
		<polygon class="st2" points="0.6,79.6 0.6,79.2 0.9,79 1.2,79.2 1.2,79.6 0.9,79.7 		"/>
		<polygon class="st2" points="142.8,73.3 142.8,67.9 147.5,65.2 152.1,67.9 152.1,73.3 147.5,76 		"/>
		<polygon class="st2" points="132.7,73.3 132.7,67.9 137.4,65.3 142,67.9 142,73.3 137.4,76 		"/>
		<polygon class="st2" points="122.7,73.3 122.7,68 127.3,65.3 131.8,68 131.8,73.3 127.3,75.9 		"/>
		<polygon class="st2" points="112.7,73.2 112.7,68 117.1,65.5 121.6,68 121.6,73.2 117.1,75.8 		"/>
		<polygon class="st2" points="102.7,73.1 102.7,68.1 107,65.6 111.4,68.1 111.4,73.1 107,75.6 		"/>
		<polygon class="st2" points="92.7,73 92.7,68.2 96.9,65.8 101.1,68.2 101.1,73 96.9,75.4 		"/>
		<polygon class="st2" points="82.8,72.9 82.8,68.3 86.8,66 90.8,68.3 90.8,72.9 86.8,75.2 		"/>
		<polygon class="st2" points="73,72.8 73,68.5 76.7,66.3 80.4,68.5 80.4,72.8 76.7,74.9 		"/>
		<polygon class="st2" points="63.2,72.6 63.2,68.7 66.6,66.7 70,68.7 70,72.6 66.6,74.5 		"/>
		<polygon class="st2" points="53.4,72.4 53.4,68.9 56.5,67.1 59.5,68.9 59.5,72.4 56.5,74.1 		"/>
		<polygon class="st2" points="43.8,72.1 43.8,69.1 46.4,67.6 49,69.1 49,72.1 46.4,73.6 		"/>
		<polygon class="st2" points="34.1,71.9 34.1,69.4 36.3,68.2 38.4,69.4 38.4,71.9 36.3,73.1 		"/>
		<polygon class="st2" points="24.6,71.5 24.6,69.7 26.2,68.8 27.7,69.7 27.7,71.5 26.2,72.4 		"/>
		<polygon class="st2" points="15.1,71.2 15.1,70.1 16,69.5 17,70.1 17,71.2 16,71.7 		"/>
		<polygon class="st2" points="5.6,70.8 5.6,70.4 5.9,70.3 6.3,70.4 6.3,70.8 5.9,71 		"/>
		<polygon class="st2" points="137.7,64.5 137.7,59.1 142.4,56.4 147.1,59.1 147.1,64.5 142.4,67.2 		"/>
		<polygon class="st2" points="127.7,64.5 127.7,59.2 132.3,56.5 136.9,59.2 136.9,64.5 132.3,67.2 		"/>
		<polygon class="st2" points="117.6,64.5 117.6,59.2 122.2,56.6 126.8,59.2 126.8,64.5 122.2,67.1 		"/>
		<polygon class="st2" points="107.6,64.4 107.6,59.3 112.1,56.7 116.5,59.3 116.5,64.4 112.1,67 		"/>
		<polygon class="st2" points="97.6,64.3 97.6,59.3 102,56.8 106.3,59.3 106.3,64.3 102,66.8 		"/>
		<polygon class="st2" points="87.7,64.2 87.7,59.4 91.9,57 96,59.4 96,64.2 91.9,66.7 		"/>
		<polygon class="st2" points="77.8,64.1 77.8,59.5 81.7,57.3 85.7,59.5 85.7,64.1 81.7,66.4 		"/>
		<polygon class="st2" points="67.9,64 67.9,59.7 71.6,57.6 75.3,59.7 75.3,64 71.6,66.1 		"/>
		<polygon class="st2" points="58.1,63.8 58.1,59.9 61.5,57.9 64.9,59.9 64.9,63.8 61.5,65.8 		"/>
		<polygon class="st2" points="48.4,63.6 48.4,60.1 51.4,58.3 54.5,60.1 54.5,63.6 51.4,65.3 		"/>
		<polygon class="st2" points="38.7,63.3 38.7,60.3 41.3,58.8 43.9,60.3 43.9,63.3 41.3,64.9 		"/>
		<polygon class="st2" points="29.1,63.1 29.1,60.6 31.2,59.4 33.3,60.6 33.3,63.1 31.2,64.3 		"/>
		<polygon class="st2" points="19.5,62.7 19.5,60.9 21.1,60 22.7,60.9 22.7,62.7 21.1,63.6 		"/>
		<polygon class="st2" points="10,62.4 10,61.3 11,60.7 11.9,61.3 11.9,62.4 11,62.9 		"/>
		<polygon class="st2" points="0.5,62 0.5,61.6 0.9,61.5 1.2,61.6 1.2,62 0.9,62.2 		"/>
		<polygon class="st2" points="142.8,55.8 142.8,50.4 147.5,47.7 152.1,50.4 152.1,55.8 147.5,58.5 		"/>
		<polygon class="st2" points="132.7,55.8 132.7,50.4 137.4,47.7 142,50.4 142,55.8 137.4,58.4 		"/>
		<polygon class="st2" points="122.7,55.7 122.7,50.4 127.2,47.8 131.8,50.4 131.8,55.7 127.2,58.3 		"/>
		<polygon class="st2" points="112.7,55.7 112.7,50.5 117.1,47.9 121.6,50.5 121.6,55.7 117.1,58.2 		"/>
		<polygon class="st2" points="102.7,55.6 102.7,50.6 107,48.1 111.4,50.6 111.4,55.6 107,58.1 		"/>
		<polygon class="st2" points="92.7,55.5 92.7,50.7 96.9,48.3 101.1,50.7 101.1,55.5 96.9,57.9 		"/>
		<polygon class="st2" points="82.8,55.4 82.8,50.8 86.8,48.5 90.8,50.8 90.8,55.4 86.8,57.7 		"/>
		<polygon class="st2" points="73,55.2 73,50.9 76.7,48.8 80.4,50.9 80.4,55.2 76.7,57.4 		"/>
		<polygon class="st2" points="63.2,55 63.2,51.1 66.6,49.2 70,51.1 70,55 66.6,57 		"/>
		<polygon class="st2" points="53.4,54.8 53.4,51.3 56.5,49.6 59.5,51.3 59.5,54.8 56.5,56.6 		"/>
		<polygon class="st2" points="43.8,54.6 43.8,51.6 46.4,50.1 49,51.6 49,54.6 46.4,56.1 		"/>
		<polygon class="st2" points="34.1,54.3 34.1,51.8 36.3,50.6 38.4,51.8 38.4,54.3 36.3,55.5 		"/>
		<polygon class="st2" points="24.6,54 24.6,52.2 26.1,51.3 27.7,52.2 27.7,54 26.1,54.9 		"/>
		<polygon class="st2" points="15.1,53.6 15.1,52.5 16,52 17,52.5 17,53.6 16,54.2 		"/>
		<polygon class="st2" points="5.6,53.3 5.6,52.9 5.9,52.7 6.2,52.9 6.2,53.3 5.9,53.4 		"/>
		<polygon class="st2" points="137.7,47 137.7,41.6 142.4,38.9 147.1,41.6 147.1,47 142.4,49.7 		"/>
		<polygon class="st2" points="127.7,47 127.7,41.6 132.3,39 136.9,41.6 136.9,47 132.3,49.7 		"/>
		<polygon class="st2" points="117.6,47 117.6,41.7 122.2,39 126.8,41.7 126.8,47 122.2,49.6 		"/>
		<polygon class="st2" points="107.6,46.9 107.6,41.7 112.1,39.2 116.5,41.7 116.5,46.9 112.1,49.5 		"/>
		<polygon class="st2" points="97.6,46.8 97.6,41.8 102,39.3 106.3,41.8 106.3,46.8 102,49.3 		"/>
		<polygon class="st2" points="87.7,46.7 87.7,41.9 91.9,39.5 96,41.9 96,46.7 91.9,49.1 		"/>
		<polygon class="st2" points="77.8,46.6 77.8,42 81.7,39.7 85.7,42 85.7,46.6 81.7,48.9 		"/>
		<polygon class="st2" points="67.9,46.5 67.9,42.2 71.6,40 75.3,42.2 75.3,46.5 71.6,48.6 		"/>
		<polygon class="st2" points="58.1,46.3 58.1,42.4 61.5,40.4 64.9,42.4 64.9,46.3 61.5,48.2 		"/>
		<polygon class="st2" points="48.4,46.1 48.4,42.6 51.4,40.8 54.5,42.6 54.5,46.1 51.4,47.8 		"/>
		<polygon class="st2" points="38.7,45.8 38.7,42.8 41.3,41.3 43.9,42.8 43.9,45.8 41.3,47.3 		"/>
		<polygon class="st2" points="29.1,45.5 29.1,43.1 31.2,41.9 33.3,43.1 33.3,45.5 31.2,46.8 		"/>
		<polygon class="st2" points="19.5,45.2 19.5,43.4 21.1,42.5 22.7,43.4 22.7,45.2 21.1,46.1 		"/>
		<polygon class="st2" points="10,44.9 10,43.8 11,43.2 11.9,43.8 11.9,44.9 11,45.4 		"/>
		<polygon class="st2" points="0.5,44.5 0.5,44.1 0.9,44 1.2,44.1 1.2,44.5 0.9,44.7 		"/>
		<polygon class="st2" points="142.8,38.3 142.8,32.9 147.5,30.2 152.1,32.9 152.1,38.3 147.5,41 		"/>
		<polygon class="st2" points="132.7,38.2 132.7,32.9 137.4,30.2 142,32.9 142,38.2 137.4,40.9 		"/>
		<polygon class="st2" points="122.7,38.2 122.7,32.9 127.2,30.3 131.8,32.9 131.8,38.2 127.2,40.8 		"/>
		<polygon class="st2" points="112.7,38.1 112.7,33 117.1,30.4 121.6,33 121.6,38.1 117.1,40.7 		"/>
		<polygon class="st2" points="102.7,38.1 102.7,33.1 107,30.6 111.4,33.1 111.4,38.1 107,40.6 		"/>
		<polygon class="st2" points="92.7,38 92.7,33.2 96.9,30.7 101.1,33.2 101.1,38 96.9,40.4 		"/>
		<polygon class="st2" points="82.8,37.9 82.8,33.3 86.8,31 90.8,33.3 90.8,37.9 86.8,40.1 		"/>
		<polygon class="st2" points="73,37.7 73,33.4 76.7,31.3 80.4,33.4 80.4,37.7 76.7,39.8 		"/>
		<polygon class="st2" points="63.2,37.5 63.2,33.6 66.6,31.6 70,33.6 70,37.5 66.6,39.5 		"/>
		<polygon class="st2" points="53.4,37.3 53.4,33.8 56.5,32.1 59.5,33.8 59.5,37.3 56.5,39.1 		"/>
		<polygon class="st2" points="43.8,37.1 43.8,34.1 46.4,32.5 49,34.1 49,37.1 46.4,38.6 		"/>
		<polygon class="st2" points="34.1,36.8 34.1,34.3 36.3,33.1 38.4,34.3 38.4,36.8 36.3,38 		"/>
		<polygon class="st2" points="24.6,36.5 24.6,34.7 26.1,33.7 27.7,34.7 27.7,36.5 26.1,37.4 		"/>
		<polygon class="st2" points="15.1,36.1 15.1,35 16,34.5 17,35 17,36.1 16,36.7 		"/>
		<polygon class="st2" points="5.6,35.8 5.6,35.4 5.9,35.2 6.2,35.4 6.2,35.8 5.9,35.9 		"/>
		<polygon class="st2" points="137.7,29.5 137.7,24.1 142.4,21.4 147.1,24.1 147.1,29.5 142.4,32.2 		"/>
		<polygon class="st2" points="127.7,29.4 127.7,24.1 132.3,21.4 136.9,24.1 136.9,29.4 132.3,32.1 		"/>
		<polygon class="st2" points="117.6,29.4 117.6,24.1 122.2,21.5 126.7,24.1 126.7,29.4 122.2,32 		"/>
		<polygon class="st2" points="107.6,29.4 107.6,24.2 112.1,21.6 116.5,24.2 116.5,29.4 112.1,31.9 		"/>
		<polygon class="st2" points="97.6,29.3 97.6,24.3 102,21.8 106.3,24.3 106.3,29.3 102,31.8 		"/>
		<polygon class="st2" points="87.7,29.2 87.7,24.4 91.8,22 96,24.4 96,29.2 91.8,31.6 		"/>
		<polygon class="st2" points="77.8,29.1 77.8,24.5 81.7,22.2 85.7,24.5 85.7,29.1 81.7,31.4 		"/>
		<polygon class="st2" points="67.9,28.9 67.9,24.6 71.6,22.5 75.3,24.6 75.3,28.9 71.6,31.1 		"/>
		<polygon class="st2" points="58.1,28.7 58.1,24.8 61.5,22.9 64.9,24.8 64.9,28.7 61.5,30.7 		"/>
		<polygon class="st2" points="48.4,28.5 48.4,25 51.4,23.3 54.4,25 54.4,28.5 51.4,30.3 		"/>
		<polygon class="st2" points="38.7,28.3 38.7,25.3 41.3,23.8 43.9,25.3 43.9,28.3 41.3,29.8 		"/>
		<polygon class="st2" points="29.1,28 29.1,25.5 31.2,24.3 33.3,25.5 33.3,28 31.2,29.2 		"/>
		<polygon class="st2" points="19.5,27.7 19.5,25.9 21.1,25 22.7,25.9 22.7,27.7 21.1,28.6 		"/>
		<polygon class="st2" points="10,27.3 10,26.2 11,25.7 11.9,26.2 11.9,27.3 11,27.9 		"/>
		<polygon class="st2" points="0.5,27 0.5,26.6 0.9,26.4 1.2,26.6 1.2,27 0.9,27.1 		"/>
		<polygon class="st2" points="142.8,20.7 142.8,15.3 147.5,12.6 152.1,15.3 152.1,20.7 147.5,23.4 		"/>
		<polygon class="st2" points="132.7,20.7 132.7,15.3 137.3,12.7 142,15.3 142,20.7 137.3,23.4 		"/>
		<polygon class="st2" points="122.7,20.7 122.7,15.4 127.2,12.7 131.8,15.4 131.8,20.7 127.2,23.3 		"/>
		<polygon class="st2" points="112.7,20.6 112.7,15.4 117.1,12.9 121.6,15.4 121.6,20.6 117.1,23.2 		"/>
		<polygon class="st2" points="102.7,20.5 102.7,15.5 107,13 111.4,15.5 111.4,20.5 107,23 		"/>
		<polygon class="st2" points="92.7,20.4 92.7,15.6 96.9,13.2 101.1,15.6 101.1,20.4 96.9,22.8 		"/>
		<polygon class="st2" points="82.8,20.3 82.8,15.7 86.8,13.4 90.8,15.7 90.8,20.3 86.8,22.6 		"/>
		<polygon class="st2" points="73,20.2 73,15.9 76.7,13.7 80.4,15.9 80.4,20.2 76.7,22.3 		"/>
		<polygon class="st2" points="63.2,20 63.2,16.1 66.6,14.1 70,16.1 70,20 66.6,21.9 		"/>
		<polygon class="st2" points="53.4,19.8 53.4,16.3 56.5,14.5 59.5,16.3 59.5,19.8 56.5,21.5 		"/>
		<polygon class="st2" points="43.7,19.5 43.7,16.5 46.4,15 49,16.5 49,19.5 46.4,21 		"/>
		<polygon class="st2" points="34.1,19.2 34.1,16.8 36.2,15.6 38.4,16.8 38.4,19.2 36.2,20.5 		"/>
		<polygon class="st2" points="24.6,18.9 24.6,17.1 26.1,16.2 27.7,17.1 27.7,18.9 26.1,19.8 		"/>
		<polygon class="st2" points="15.1,18.6 15.1,17.5 16,16.9 17,17.5 17,18.6 16,19.1 		"/>
		<polygon class="st2" points="5.6,18.2 5.6,17.8 5.9,17.6 6.2,17.8 6.2,18.2 5.9,18.4 		"/>
		<polygon class="st2" points="137.7,12 137.7,6.6 142.4,3.9 147.1,6.6 147.1,12 142.4,14.7 		"/>
		<polygon class="st2" points="127.7,11.9 127.7,6.6 132.3,3.9 136.9,6.6 136.9,11.9 132.3,14.6 		"/>
		<polygon class="st2" points="117.6,11.9 117.6,6.6 122.2,4 126.7,6.6 126.7,11.9 122.2,14.5 		"/>
		<polygon class="st2" points="107.6,11.8 107.6,6.7 112.1,4.1 116.5,6.7 116.5,11.8 112.1,14.4 		"/>
		<polygon class="st2" points="97.6,11.8 97.6,6.8 102,4.3 106.3,6.8 106.3,11.8 102,14.3 		"/>
		<polygon class="st2" points="87.7,11.7 87.7,6.9 91.8,4.4 96,6.9 96,11.7 91.8,14.1 		"/>
		<polygon class="st2" points="77.8,11.6 77.8,7 81.7,4.7 85.7,7 85.7,11.6 81.7,13.8 		"/>
		<polygon class="st2" points="67.9,11.4 67.9,7.1 71.6,5 75.3,7.1 75.3,11.4 71.6,13.5 		"/>
		<polygon class="st2" points="58.1,11.2 58.1,7.3 61.5,5.3 64.9,7.3 64.9,11.2 61.5,13.2 		"/>
		<polygon class="st2" points="48.4,11 48.4,7.5 51.4,5.8 54.4,7.5 54.4,11 51.4,12.8 		"/>
		<polygon class="st2" points="38.7,10.8 38.7,7.8 41.3,6.2 43.9,7.8 43.9,10.8 41.3,12.3 		"/>
		<polygon class="st2" points="29.1,10.5 29.1,8 31.2,6.8 33.3,8 33.3,10.5 31.2,11.7 		"/>
		<polygon class="st2" points="19.5,10.2 19.5,8.4 21.1,7.4 22.7,8.4 22.7,10.2 21.1,11.1 		"/>
		<polygon class="st2" points="10,9.8 10,8.7 11,8.2 11.9,8.7 11.9,9.8 11,10.4 		"/>
		<polygon class="st2" points="0.5,9.5 0.5,9.1 0.9,8.9 1.2,9.1 1.2,9.5 0.9,9.6 		"/>
		<polygon class="st2" points="142.8,3.2 142.8,-2.2 147.5,-4.9 152.1,-2.2 152.1,3.2 147.5,5.9 		"/>
		<polygon class="st2" points="132.7,3.2 132.7,-2.2 137.3,-4.8 142,-2.2 142,3.2 137.3,5.9 		"/>
		<polygon class="st2" points="122.7,3.1 122.7,-2.1 127.2,-4.8 131.8,-2.1 131.8,3.1 127.2,5.8 		"/>
		<polygon class="st2" points="112.7,3.1 112.7,-2.1 117.1,-4.7 121.6,-2.1 121.6,3.1 117.1,5.7 		"/>
		<polygon class="st2" points="102.7,3 102.7,-2 107,-4.5 111.4,-2 111.4,3 107,5.5 		"/>
		<polygon class="st2" points="92.7,2.9 92.7,-1.9 96.9,-4.3 101.1,-1.9 101.1,2.9 96.9,5.3 		"/>
		<polygon class="st2" points="82.8,2.8 82.8,-1.8 86.8,-4.1 90.8,-1.8 90.8,2.8 86.8,5.1 		"/>
		<polygon class="st2" points="73,2.6 73,-1.6 76.7,-3.8 80.4,-1.6 80.4,2.6 76.7,4.8 		"/>
		<polygon class="st2" points="63.2,2.5 63.2,-1.5 66.6,-3.4 70,-1.5 70,2.5 66.6,4.4 		"/>
		<polygon class="st2" points="53.4,2.3 53.4,-1.2 56.5,-3 59.5,-1.2 59.5,2.3 56.5,4 		"/>
		<polygon class="st2" points="43.7,2 43.7,-1 46.4,-2.5 49,-1 49,2 46.4,3.5 		"/>
		<polygon class="st2" points="34.1,1.7 34.1,-0.7 36.2,-1.9 38.4,-0.7 38.4,1.7 36.2,3 		"/>
		<polygon class="st2" points="24.6,1.4 24.6,-0.4 26.1,-1.3 27.7,-0.4 27.7,1.4 26.1,2.3 		"/>
		<polygon class="st2" points="15.1,1.1 15.1,0 16,-0.6 17,0 17,1.1 16,1.6 		"/>
		<polygon class="st2" points="5.6,0.7 5.6,0.3 5.9,0.1 6.2,0.3 6.2,0.7 5.9,0.9 		"/>
		<polygon class="st2" points="137.7,-5.6 137.7,-11 142.4,-13.7 147.1,-11 147.1,-5.6 142.4,-2.9 		"/>
		<polygon class="st2" points="127.6,-5.6 127.6,-11 132.3,-13.6 136.9,-11 136.9,-5.6 132.3,-2.9 		"/>
		<polygon class="st2" points="117.6,-5.6 117.6,-10.9 122.2,-13.6 126.7,-10.9 126.7,-5.6 122.2,-3 		"/>
		<polygon class="st2" points="107.6,-5.7 107.6,-10.9 112.1,-13.4 116.5,-10.9 116.5,-5.7 112.1,-3.1 		"/>
		<polygon class="st2" points="97.6,-5.8 97.6,-10.8 101.9,-13.3 106.3,-10.8 106.3,-5.8 101.9,-3.3 		"/>
		<polygon class="st2" points="87.7,-5.9 87.7,-10.7 91.8,-13.1 96,-10.7 96,-5.9 91.8,-3.5 		"/>
		<polygon class="st2" points="77.8,-6 77.8,-10.6 81.7,-12.9 85.7,-10.6 85.7,-6 81.7,-3.7 		"/>
		<polygon class="st2" points="67.9,-6.1 67.9,-10.4 71.6,-12.6 75.3,-10.4 75.3,-6.1 71.6,-4 		"/>
		<polygon class="st2" points="58.1,-6.3 58.1,-10.2 61.5,-12.2 64.9,-10.2 64.9,-6.3 61.5,-4.4 		"/>
		<polygon class="st2" points="48.4,-6.5 48.4,-10 51.4,-11.8 54.4,-10 54.4,-6.5 51.4,-4.8 		"/>
		<polygon class="st2" points="38.7,-6.8 38.7,-9.8 41.3,-11.3 43.9,-9.8 43.9,-6.8 41.3,-5.3 		"/>
		<polygon class="st2" points="29.1,-7.1 29.1,-9.5 31.2,-10.7 33.3,-9.5 33.3,-7.1 31.2,-5.8 		"/>
		<polygon class="st2" points="19.5,-7.4 19.5,-9.2 21.1,-10.1 22.6,-9.2 22.6,-7.4 21.1,-6.5 		"/>
		<polygon class="st2" points="10,-7.7 10,-8.8 11,-9.4 11.9,-8.8 11.9,-7.7 11,-7.2 		"/>
		<polygon class="st2" points="0.5,-8.1 0.5,-8.5 0.8,-8.7 1.2,-8.5 1.2,-8.1 0.8,-7.9 		"/>
		<polygon class="st2" points="142.8,160.9 142.8,155.6 147.5,152.9 152.2,155.6 152.2,160.9 147.5,163.6 		"/>
		<polygon class="st2" points="132.8,160.9 132.8,155.6 137.4,152.9 142,155.6 142,160.9 137.4,163.6 		"/>
		<polygon class="st2" points="122.7,160.9 122.7,155.6 127.3,153 131.8,155.6 131.8,160.9 127.3,163.5 		"/>
		<polygon class="st2" points="112.7,160.8 112.7,155.7 117.2,153.1 121.6,155.7 121.6,160.8 117.2,163.4 		"/>
		<polygon class="st2" points="102.7,160.8 102.7,155.7 107.1,153.2 111.4,155.7 111.4,160.8 107.1,163.3 		"/>
		<polygon class="st2" points="92.8,160.7 92.8,155.8 96.9,153.4 101.1,155.8 101.1,160.7 96.9,163.1 		"/>
		<polygon class="st2" points="82.9,160.5 82.9,156 86.8,153.7 90.8,156 90.8,160.5 86.8,162.8 		"/>
		<polygon class="st2" points="73,160.4 73,156.1 76.7,154 80.4,156.1 80.4,160.4 76.7,162.5 		"/>
		<polygon class="st2" points="63.2,160.2 63.2,156.3 66.6,154.3 70,156.3 70,160.2 66.6,162.2 		"/>
		<polygon class="st2" points="53.5,160 53.5,156.5 56.5,154.7 59.5,156.5 59.5,160 56.5,161.8 		"/>
		<polygon class="st2" points="43.8,159.8 43.8,156.7 46.4,155.2 49,156.7 49,159.8 46.4,161.3 		"/>
		<polygon class="st2" points="34.2,159.5 34.2,157 36.3,155.8 38.4,157 38.4,159.5 36.3,160.7 		"/>
		<polygon class="st2" points="24.6,159.2 24.6,157.3 26.2,156.4 27.8,157.3 27.8,159.2 26.2,160.1 		"/>
		<polygon class="st2" points="15.1,158.8 15.1,157.7 16.1,157.1 17,157.7 17,158.8 16.1,159.3 		"/>
		<polygon class="st2" points="5.6,158.4 5.6,158.1 6,157.9 6.3,158.1 6.3,158.4 6,158.6 		"/>
		<polygon class="st2" points="137.8,152.2 137.8,146.8 142.4,144.1 147.1,146.8 147.1,152.2 142.4,154.9 		"/>
		<polygon class="st2" points="127.7,152.2 127.7,146.8 132.3,144.1 137,146.8 137,152.2 132.3,154.8 		"/>
		<polygon class="st2" points="117.7,152.1 117.7,146.9 122.2,144.2 126.8,146.9 126.8,152.1 122.2,154.8 		"/>
		<polygon class="st2" points="107.6,152.1 107.6,146.9 112.1,144.3 116.6,146.9 116.6,152.1 112.1,154.7 		"/>
		<polygon class="st2" points="97.7,152 97.7,147 102,144.5 106.3,147 106.3,152 102,154.5 		"/>
		<polygon class="st2" points="87.7,151.9 87.7,147.1 91.9,144.7 96.1,147.1 96.1,151.9 91.9,154.3 		"/>
		<polygon class="st2" points="77.8,151.8 77.8,147.2 81.8,144.9 85.7,147.2 85.7,151.8 81.8,154.1 		"/>
		<polygon class="st2" points="68,151.6 68,147.4 71.7,145.2 75.4,147.4 75.4,151.6 71.7,153.8 		"/>
		<polygon class="st2" points="58.2,151.5 58.2,147.5 61.6,145.6 65,147.5 65,151.5 61.6,153.4 		"/>
		<polygon class="st2" points="48.4,151.2 48.4,147.7 51.5,146 54.5,147.7 54.5,151.2 51.5,153 		"/>
		<polygon class="st2" points="38.7,151 38.7,148 41.3,146.5 44,148 44,151 41.3,152.5 		"/>
		<polygon class="st2" points="29.1,150.7 29.1,148.3 31.2,147 33.4,148.3 33.4,150.7 31.2,151.9 		"/>
		<polygon class="st2" points="19.5,150.4 19.5,148.6 21.1,147.7 22.7,148.6 22.7,150.4 21.1,151.3 		"/>
		<polygon class="st2" points="10.1,150 10.1,148.9 11,148.4 12,148.9 12,150 11,150.6 		"/>
		<polygon class="st2" points="0.6,149.7 0.6,149.3 0.9,149.1 1.2,149.3 1.2,149.7 0.9,149.9 		"/>
		<polygon class="st2" points="142.8,143.4 142.8,138 147.5,135.3 152.2,138 152.2,143.4 147.5,146.1 		"/>
		<polygon class="st2" points="132.8,143.4 132.8,138.1 137.4,135.4 142,138.1 142,143.4 137.4,146.1 		"/>
		<polygon class="st2" points="122.7,143.4 122.7,138.1 127.3,135.5 131.8,138.1 131.8,143.4 127.3,146 		"/>
		<polygon class="st2" points="112.7,143.3 112.7,138.2 117.2,135.6 121.6,138.2 121.6,143.3 117.2,145.9 		"/>
		<polygon class="st2" points="102.7,143.2 102.7,138.2 107.1,135.7 111.4,138.2 111.4,143.2 107.1,145.7 		"/>
		<polygon class="st2" points="92.8,143.1 92.8,138.3 96.9,135.9 101.1,138.3 101.1,143.1 96.9,145.6 		"/>
		<polygon class="st2" points="82.9,143 82.9,138.4 86.8,136.2 90.8,138.4 90.8,143 86.8,145.3 		"/>
		<polygon class="st2" points="73,142.9 73,138.6 76.7,136.5 80.4,138.6 80.4,142.9 76.7,145 		"/>
		<polygon class="st2" points="63.2,142.7 63.2,138.8 66.6,136.8 70,138.8 70,142.7 66.6,144.7 		"/>
		<polygon class="st2" points="53.5,142.5 53.5,139 56.5,137.2 59.5,139 59.5,142.5 56.5,144.2 		"/>
		<polygon class="st2" points="43.8,142.2 43.8,139.2 46.4,137.7 49,139.2 49,142.2 46.4,143.8 		"/>
		<polygon class="st2" points="34.2,142 34.2,139.5 36.3,138.3 38.4,139.5 38.4,142 36.3,143.2 		"/>
		<polygon class="st2" points="24.6,141.6 24.6,139.8 26.2,138.9 27.8,139.8 27.8,141.6 26.2,142.6 		"/>
		<polygon class="st2" points="15.1,141.3 15.1,140.2 16.1,139.6 17,140.2 17,141.3 16.1,141.8 		"/>
		<polygon class="st2" points="5.6,140.9 5.6,140.5 6,140.4 6.3,140.5 6.3,140.9 6,141.1 		"/>
		<polygon class="st2" points="137.8,134.6 137.8,129.3 142.4,126.6 147.1,129.3 147.1,134.6 142.4,137.3 		"/>
		<polygon class="st2" points="127.7,134.6 127.7,129.3 132.3,126.6 137,129.3 137,134.6 132.3,137.3 		"/>
		<polygon class="st2" points="117.6,134.6 117.6,129.3 122.2,126.7 126.8,129.3 126.8,134.6 122.2,137.2 		"/>
		<polygon class="st2" points="107.6,134.5 107.6,129.4 112.1,126.8 116.6,129.4 116.6,134.5 112.1,137.1 		"/>
		<polygon class="st2" points="97.7,134.5 97.7,129.4 102,126.9 106.3,129.4 106.3,134.5 102,137 		"/>
		<polygon class="st2" points="87.7,134.4 87.7,129.5 91.9,127.1 96.1,129.5 96.1,134.4 91.9,136.8 		"/>
		<polygon class="st2" points="77.8,134.2 77.8,129.7 81.8,127.4 85.7,129.7 85.7,134.2 81.8,136.5 		"/>
		<polygon class="st2" points="68,134.1 68,129.8 71.7,127.7 75.4,129.8 75.4,134.1 71.7,136.2 		"/>
		<polygon class="st2" points="58.2,133.9 58.2,130 61.6,128 64.9,130 64.9,133.9 61.6,135.9 		"/>
		<polygon class="st2" points="48.4,133.7 48.4,130.2 51.4,128.4 54.5,130.2 54.5,133.7 51.4,135.5 		"/>
		<polygon class="st2" points="38.7,133.5 38.7,130.4 41.3,128.9 43.9,130.4 43.9,133.5 41.3,135 		"/>
		<polygon class="st2" points="29.1,133.2 29.1,130.7 31.2,129.5 33.3,130.7 33.3,133.2 31.2,134.4 		"/>
		<polygon class="st2" points="19.5,132.9 19.5,131 21.1,130.1 22.7,131 22.7,132.9 21.1,133.8 		"/>
		<polygon class="st2" points="10,132.5 10,131.4 11,130.8 12,131.4 12,132.5 11,133 		"/>
		<polygon class="st2" points="0.6,132.1 0.6,131.8 0.9,131.6 1.2,131.8 1.2,132.1 0.9,132.3 		"/>
	</g>
</g>
<linearGradient id="SVGID_3_" gradientUnits="userSpaceOnUse" x1="0" y1="75" x2="300" y2="75">
	<stop  offset="0.1697" style="stop-color:#000000"/>
	<stop  offset="0.3658" style="stop-color:#333333;stop-opacity:0.5"/>
	<stop  offset="0.5026" style="stop-color:#FFFFFF;stop-opacity:0"/>
	<stop  offset="0.6398" style="stop-color:#4E4E4E;stop-opacity:0.5"/>
	<stop  offset="0.8369" style="stop-color:#000000"/>
</linearGradient>
<rect class="st3" width="300" height="150"/>
</svg>
